<svg xmlns="http://www.w3.org/2000/svg" viewBox="0 0 59.52 124.35"><defs><style>.a{fill:#ced0cf;}.b{fill:#f8fbeb;}.c{fill:#f8bc5e;stroke:#f5d69f;}.c,.e{stroke-miterlimit:10;}.d{fill:#f8f9e2;}.e{fill:none;stroke:#d1d2d0;stroke-width:3px;}</style></defs><path class="a" d="M43.83,78.84c0-4.67,0-9.35,0-14,0-2.47,2.46-5.79,5.71-5.79,2.54,0,5.1-.16,7.65-.17,1.76,0,1.91-1.54,2.48-2.65s.67-2.2,1.59-3.1a4.57,4.57,0,0,1,3.15-1.44c6.28,0,12.55,0,18.82,0a2.08,2.08,0,0,1,1.37.58,9.2,9.2,0,0,1,2.89,4.44A3.08,3.08,0,0,0,91.15,59c.7-.1,4.66.17,5.95.07a4.75,4.75,0,0,1,2.68.39A6,6,0,0,1,103.26,65c.09,3.07.11,6.15,0,9.23-.17,4.93.18,9.87,0,14.8a32.91,32.91,0,0,1-.24,4.23,6.21,6.21,0,0,1-5.71,5.28c-6.42.18-12.85.13-19.27.18-2.51,0-5-.29-7.52-.26q-4,.06-8,.25c-2.23.11-4.45-.43-6.68-.21-1.75.17-3.49-.11-5.22,0a6.09,6.09,0,0,1-4.26-1.15,5.5,5.5,0,0,1-2.53-4.23C43.79,88.35,43.83,83.6,43.83,78.84Z" transform="translate(-43.81 -51.65)"/><path class="b" d="M74.55,96.28c6.48-.21,14.39.3,22.29-.21A3.52,3.52,0,0,0,99.46,95a4.71,4.71,0,0,0,1.17-3.28c.07-1.79,0-3.59,0-5.39V65.23c0-2-1.31-3.81-3-3.92a35.84,35.84,0,0,0-6.47,0,5.12,5.12,0,0,1-4.85-1.79,14.17,14.17,0,0,1-1.76-3.33c-.43-.84-.85-1.87-1.78-2a11.93,11.93,0,0,0-2.1-.12c-5.2,0-10.39.09-15.58,0a2.6,2.6,0,0,0-2.7,1.89,44.05,44.05,0,0,1-2.07,4.19A1.6,1.6,0,0,1,59,61c-3,.48-6.12.06-9.18.43-1.54.19-3.33,1.82-3.33,3.39V78.64c0,4.56,0,9.11,0,13.67,0,1.62,1.46,3.54,2.85,3.7a32.08,32.08,0,0,0,3.81.29C59.79,96.26,66.46,96.28,74.55,96.28Z" transform="translate(-43.81 -51.65)"/><circle class="c" cx="29.69" cy="99.85" r="24"/><path class="d" d="M74.73,154c0,2.27,0,4.53,0,6.8,0,.64-.09,1.24-.89,1.24s-1.31-.4-1.25-1.25c0-.53,0-1.07,0-1.61,0-4.31.05-8.62-.13-12.93a.94.94,0,0,0-.57-.9c-.4-.15-.66.11-.91.34l-3.26,3.06a2.29,2.29,0,0,1-2,.73c-.75-.1-1-.56-.46-1.11,1.25-1.43,5.93-5.61,6.84-6.44a1.92,1.92,0,0,1,1.27-.61,2.45,2.45,0,0,1,1.33.6c2.45,1.8,4.42,4.07,6.69,6,.48.42.89.83.32,1.45s-1.07.26-1.6-.09a39.71,39.71,0,0,1-3.8-3.4c-.92-.79-1.19-.73-1.49.44a4.46,4.46,0,0,0-.1,1.1C74.72,149.6,74.73,151.78,74.73,154Z" transform="translate(-43.81 -51.65)"/><ellipse class="e" cx="29.19" cy="25.85" rx="13" ry="12.5"/><path class="a" d="M93,59" transform="translate(-43.81 -51.65)"/></svg>