<svg xmlns="http://www.w3.org/2000/svg" viewBox="0 0 144.65 137.25"><defs><style>.a,.n{fill:#f29f4c;}.b{fill:#5b5c64;}.c{fill:#53565c;}.d{fill:#22252e;}.e{fill:#222531;}.f{fill:#222532;}.g{fill:#22262c;}.h{fill:#23272e;}.i{fill:#1f252e;}.j{fill:#25282d;}.k{fill:#23282f;}.l{fill:#24272d;}.m{fill:#1f242e;}.n{stroke:#fafafc;stroke-linecap:round;stroke-linejoin:round;stroke-width:4px;}</style></defs><circle class="a" cx="123.15" cy="21.5" r="21.5"/><path class="b" d="M83.27,26.47c1.15.53,2.33,1,3.47,1.59a18.37,18.37,0,0,1,7.85,7.37c.31.54.7,1,1,1.56.13.29.26.57.37.86.48,1.28,1.24,2.47,1.23,3.9H97c0-.51-.36-.87-.47-1.31a19.23,19.23,0,0,0-4.81-8.1,19.77,19.77,0,0,0-11.44-6.11,20,20,0,0,0-9.45.49,21.09,21.09,0,0,0-9.48,5.93,21.44,21.44,0,0,0-5.61,14.93c0,10.31-.1,20.62.19,30.93a14.56,14.56,0,0,0,.51,3.76A30.82,30.82,0,0,0,58.32,87a21.71,21.71,0,0,0,9.6,9.45v.25A13.09,13.09,0,0,1,63.38,94a22.46,22.46,0,0,1-8-15c0-.47,0-1,0-1.43.24-11.92-.62-23.85.47-35.76a.1.1,0,0,0,0-.17c.59-1.83,1.4-3.57,2.12-5.35a30.21,30.21,0,0,1,3.43-4.54,3,3,0,0,0,1-.95,33.69,33.69,0,0,1,6.41-3.86c.83-.22,1.66-.48,2.51-.66a19.25,19.25,0,0,1,7.67-.57C80.46,25.93,81.86,26.24,83.27,26.47Z" transform="translate(-13.35 10)"/><path class="c" d="M67.91,96.74v-.25a22.2,22.2,0,0,0,8,2.05,19.19,19.19,0,0,0,8.92-1.83,20.79,20.79,0,0,0,7.35-5.35,23.29,23.29,0,0,0,4.75-8.92,22.28,22.28,0,0,0,.69-6.5c.06-9.19,0-18.39,0-27.59,0-.48-.08-1-.09-1.43A30.74,30.74,0,0,0,97,41.76h.25a1.64,1.64,0,0,1,.4,1c.16,1.75.43,3.5.44,5.25q.06,14.13,0,28.28a22.89,22.89,0,0,1-.71,6,17.21,17.21,0,0,1-3.28,7.28A21.21,21.21,0,0,1,81,98.4a20.05,20.05,0,0,1-12.6-1.31A2.26,2.26,0,0,1,67.91,96.74Z" transform="translate(-13.35 10)"/><path class="d" d="M76.66,127.25H59.74a3.37,3.37,0,0,1-1.87-.3,2.58,2.58,0,0,1-1.21-2.87,2.39,2.39,0,0,1,2.42-1.74c4.56,0,9.12,0,13.68,0,.28,0,.56,0,.84,0,.6,0,.87-.23.87-.85q0-6.54,0-13.08c0-.65-.29-.9-.92-1a27.87,27.87,0,0,1-17.28-8.37,29.77,29.77,0,0,1-7.12-11.61c-1.77-5.08-1.49-10.31-1.44-15.54a2.1,2.1,0,0,1,2.17-2.1,2,2,0,0,1,2.13,2c.11,1.51.07,3,.07,4.55a31,31,0,0,0,.8,8.2,24.38,24.38,0,0,0,12.34,15.83A23.65,23.65,0,0,0,80.05,103a24.1,24.1,0,0,0,14.61-7.7,25.21,25.21,0,0,0,6.06-11.51,19.74,19.74,0,0,0,.61-4.74c0-2.32,0-4.64,0-7a2.1,2.1,0,0,1,2.09-2.29,2.16,2.16,0,0,1,2.2,2.3c0,2.68.13,5.36,0,8a29.72,29.72,0,0,1-19.74,26,18.62,18.62,0,0,1-5.81,1.28c-.84,0-1.14.41-1.13,1.19,0,4.24,0,8.48,0,12.72,0,1,.63,1,1.36,1,4.52,0,9,0,13.56,0a2.51,2.51,0,0,1,2.46,1.35,2.42,2.42,0,0,1-1.64,3.53,6.46,6.46,0,0,1-1.08,0H76.66Z" transform="translate(-13.35 10)"/><path class="e" d="M40.73,73.46c0-3.76,0-7.52,0-11.28a3.06,3.06,0,0,1,.56-2.25,2.39,2.39,0,0,1,2.59-.77,2.51,2.51,0,0,1,1.66,2,4.33,4.33,0,0,1,0,.72q0,11.57,0,23.14a2.48,2.48,0,0,1-2.66,2.7,2.35,2.35,0,0,1-2.15-2.54q0-5.88,0-11.75Z" transform="translate(-13.35 10)"/><path class="f" d="M112.61,73.44c0,3.91,0,7.83,0,11.75a2.36,2.36,0,0,1-3.33,2.36,2.59,2.59,0,0,1-1.53-2.61c0-5.12,0-10.23,0-15.35,0-2.68,0-5.36,0-8a2.47,2.47,0,0,1,1.56-2.36,2.54,2.54,0,0,1,2.73.69,2.71,2.71,0,0,1,.53,2c0,3.84,0,7.68,0,11.52Z" transform="translate(-13.35 10)"/><path class="g" d="M126.41,73.45c0-3.92,0-7.84,0-11.75,0-1.86,1.09-2.83,2.78-2.6a2.51,2.51,0,0,1,2,2.35,5.77,5.77,0,0,1,0,.72V84.71a3,3,0,0,1-1.09,2.65,2.37,2.37,0,0,1-3.71-1.81,17.54,17.54,0,0,1,0-1.92c0-3.39,0-6.79,0-10.18Z" transform="translate(-13.35 10)"/><path class="h" d="M36.3,73.44V93.36a2.94,2.94,0,0,1-.5,2.16,2.3,2.3,0,0,1-2.44.9,2.68,2.68,0,0,1-2-2.19,4.33,4.33,0,0,1,0-.72q0-20,0-40.08c0-1.5.65-2.58,1.7-2.86a2.41,2.41,0,0,1,3.23,2.35c0,.84,0,1.68,0,2.52Z" transform="translate(-13.35 10)"/><path class="i" d="M97,41.76a30.74,30.74,0,0,1,.56,5.16c0,.47.09.95.09,1.43,0,9.2,0,18.4,0,27.59a22.28,22.28,0,0,1-.69,6.5,23.29,23.29,0,0,1-4.75,8.92,20.79,20.79,0,0,1-7.35,5.35,19.19,19.19,0,0,1-8.92,1.83,22.2,22.2,0,0,1-8-2.05A21.71,21.71,0,0,1,58.32,87a30.82,30.82,0,0,1-1.89-4.76,14.56,14.56,0,0,1-.51-3.76c-.29-10.31-.2-20.62-.19-30.93a21.44,21.44,0,0,1,5.61-14.93,21.09,21.09,0,0,1,9.48-5.93,20,20,0,0,1,9.45-.49,19.77,19.77,0,0,1,11.44,6.11,19.23,19.23,0,0,1,4.81,8.1C96.63,40.89,97,41.25,97,41.76Z" transform="translate(-13.35 10)"/><path class="j" d="M27.07,73.4c0,3.88,0,7.75,0,11.63a2.49,2.49,0,1,1-4.94-.1c0-5.11,0-10.23,0-15.34,0-2.6,0-5.2,0-7.8a2.44,2.44,0,0,1,2.17-2.69c1.64-.18,2.78.94,2.78,2.79C27.08,65.73,27.07,69.56,27.07,73.4Z" transform="translate(-13.35 10)"/><path class="k" d="M18.17,73.53c0,1.64,0,3.28,0,4.92a2.57,2.57,0,0,1-1.86,2.39,2.6,2.6,0,0,1-2.55-1,2,2,0,0,1-.4-1.35c0-3.36,0-6.72,0-10.08A2.24,2.24,0,0,1,15.62,66a2.26,2.26,0,0,1,2.47,2.22c.09,1.75,0,3.52,0,5.27Z" transform="translate(-13.35 10)"/><path class="l" d="M139.84,73.44c0,1.68,0,3.36,0,5a2.4,2.4,0,0,1-2.21,2.38,2.31,2.31,0,0,1-2.48-2.22q-.08-5.16,0-10.32a2.34,2.34,0,0,1,4.68.08c0,1.68,0,3.36,0,5Z" transform="translate(-13.35 10)"/><path class="m" d="M117.34,73.42q0-10.2,0-20.4a2.1,2.1,0,0,1,.7-1.81,2.19,2.19,0,0,1,2.25-.41,2.5,2.5,0,0,1,1.41,2,3.75,3.75,0,0,1,0,1V93.42c0,1.64-.54,2.42-1.8,2.65a2,2,0,0,1-2.58-2.14Q117.32,83.67,117.34,73.42Z" transform="translate(-13.35 10)"/><path class="a" d="M125,23" transform="translate(-13.35 10)"/><polyline class="n" points="113.65 22 113.65 22 119.65 28 119.65 28 133.34 14.31 133.65 14"/></svg>