<svg xmlns="http://www.w3.org/2000/svg" viewBox="0 0 100.65 92.5"><defs><style>.a{fill:#ebb06d;}.b{fill:#ebc69d;}.c{fill:#edad6a;}.d{fill:#cdcdce;}.e{fill:#cfcfd1;}.f{fill:#cccdcd;}.g{fill:#cdcece;}.h{fill:#ebb26f;}.i{fill:#ebb26d;}.j{fill:#ecb16c;}.k{fill:#eab26e;}.l,.m{fill:none;stroke-miterlimit:10;}.l{stroke:#efb272;stroke-linecap:round;stroke-width:5px;}.m{stroke:#cececf;stroke-width:3px;}.n{fill:#cacdce;}</style></defs><path class="a" d="M107.63,66.22a2.78,2.78,0,0,1,1.71.53c2.06,1.4,4.24,2.64,6.4,3.85,2.31,1.3,4.58,2.7,7,3.89,1.55.78,2,1.88,1.56,3.15A2.51,2.51,0,0,1,123,78.86c-2,1.14-3.93,2.23-5.88,3.37-2.81,1.64-5.59,3.32-8.41,5a2.15,2.15,0,0,1-3.32-2c-.05-1.76,0-3.52,0-5.27,0-3.88,0-7.76,0-11.64C105.41,66.85,106.11,66.2,107.63,66.22Z" transform="translate(-27.5 -29)"/><path class="b" d="M104.39,48.73a7.78,7.78,0,0,1,1.06-12.58,6.7,6.7,0,0,1,4.68-1.09A8,8,0,0,1,114,37c.82.78,1.29.45,1.85-.09a6.52,6.52,0,0,1,3-1.6c2.85-.73,5.13.26,7.09,2.29a8.93,8.93,0,0,1,2.11,5.21,6.32,6.32,0,0,1-1.51,4.67,96.25,96.25,0,0,1-7.79,8.12c-.65.64-1.37,1.21-2,1.83a2.63,2.63,0,0,1-3.64.18A12.66,12.66,0,0,1,111.51,56c-2.19-2.22-4.4-4.41-6.6-6.62a6.59,6.59,0,0,1-.52-.64c1.21.36,1.93,1.42,2.72,2.23,1.9,2,3.88,3.88,5.77,5.87a2.66,2.66,0,0,0,3.89,0c2.84-2.82,5.6-5.71,8.51-8.45a8.93,8.93,0,0,0,2.17-4.13c.46-1.42-.07-2.71-.44-4.06a7.48,7.48,0,0,0-5.7-4.72,7.39,7.39,0,0,0-5.72,2.18c-.58.5-1,.59-1.49,0a6.1,6.1,0,0,0-1.71-1.27c-3.42-2-6.78-.65-8.86,2-1.93,2.46-1.72,5.39-.4,8.23C103.48,47.38,104.22,47.88,104.39,48.73Z" transform="translate(-27.5 -29)"/><path class="c" d="M104.39,48.73c-.17-.85-.91-1.35-1.26-2.1-1.32-2.84-1.53-5.77.4-8.23,2.08-2.66,5.44-4,8.86-2a6.1,6.1,0,0,1,1.71,1.27c.51.61.91.52,1.49,0a7.39,7.39,0,0,1,5.72-2.18,7.48,7.48,0,0,1,5.7,4.72c.37,1.35.9,2.64.44,4.06a8.93,8.93,0,0,1-2.17,4.13c-2.91,2.74-5.67,5.63-8.51,8.45a2.66,2.66,0,0,1-3.89,0c-1.89-2-3.87-3.89-5.77-5.87-.79-.81-1.51-1.87-2.72-2.23Z" transform="translate(-27.5 -29)"/><path class="d" d="M71,91.92H61.62a2.06,2.06,0,1,1,.06-4.07H80.63a1.92,1.92,0,0,1,2.16,2,2.11,2.11,0,0,1-2.22,2.11Z" transform="translate(-27.5 -29)"/><path class="e" d="M71.24,104.88h9.35c1.49,0,2.2.6,2.21,1.86A2.21,2.21,0,0,1,80.51,109c-2,0-3.91,0-5.87,0-4.11,0-8.22,0-12.34,0-.9,0-1.86,0-2.49-.84-.43-.6-.8-1.25-.39-2a2.14,2.14,0,0,1,2-1.26C64.69,104.91,68,104.88,71.24,104.88Z" transform="translate(-27.5 -29)"/><path class="f" d="M71.28,69.84h9.48c1.29,0,2,.65,2,1.81a1.8,1.8,0,0,1-2,2q-9.78,0-19.55,0a1.82,1.82,0,0,1-2-1.87,1.86,1.86,0,0,1,2-2C64.64,69.83,68,69.84,71.28,69.84Z" transform="translate(-27.5 -29)"/><path class="g" d="M71,51.83h9.83c1.44,0,2.08.74,2,2.18a1.35,1.35,0,0,1-1.2,1.41,11.92,11.92,0,0,1-2.24.26c-4.12,0-8.24-.06-12.35,0-2.08,0-4.13-.25-6.21-.26-1,0-1.52-.57-1.53-1.69s.57-1.9,1.62-1.91c3.35,0,6.71,0,10.06,0Z" transform="translate(-27.5 -29)"/><path class="h" d="M39.25,69.6a2.1,2.1,0,0,1,1.62.67l1.94,2c.95,1,1,1,2,0,1.28-1.27,2.58-2.51,3.8-3.82.88-.93,1.9-1.7,2.83-2.57A1.78,1.78,0,0,1,54,68.28,79.54,79.54,0,0,1,46.34,76c-.68.58-1.14,1.41-2.16,1.6a2,2,0,0,1-2-.47c-1.42-1.4-2.84-2.81-4.23-4.24a1.86,1.86,0,0,1-.42-2.21C37.9,70,38.45,69.38,39.25,69.6Z" transform="translate(-27.5 -29)"/><path class="i" d="M39.28,104.89a1.64,1.64,0,0,1,1.58.63c.62.67,1.3,1.29,2,1.94a1.23,1.23,0,0,0,2,0,19.82,19.82,0,0,0,1.93-2c1.32-1.73,3.13-2.94,4.58-4.53a1.69,1.69,0,0,1,2.43-.32,2.09,2.09,0,0,1,.35,2.8,2.67,2.67,0,0,1-.32.36c-2.79,2.78-5.57,5.58-8.38,8.34a2.13,2.13,0,0,1-3.19,0c-1.36-1.33-2.69-2.7-4-4a2,2,0,0,1-.58-2.28A1.41,1.41,0,0,1,39.28,104.89Z" transform="translate(-27.5 -29)"/><path class="j" d="M54.24,85.33a1.66,1.66,0,0,1-.5,1.48c-2.67,3-5.68,5.59-8.46,8.44a2.07,2.07,0,0,1-3.1,0c-1.46-1.35-2.87-2.77-4.24-4.22A1.83,1.83,0,0,1,38,88.37c.69-.74,1.53-.71,2.53,0a14.51,14.51,0,0,1,2.35,2.21c.63.68,1.09.73,1.76,0,2-2,4-4,6-6a4.29,4.29,0,0,1,.7-.65c.6-.35,1.18-.89,2-.41A1.63,1.63,0,0,1,54.24,85.33Z" transform="translate(-27.5 -29)"/><path class="k" d="M39.46,51.75a1.31,1.31,0,0,1,1.12.45c.82.76,1.67,1.49,2.45,2.28.56.56,1,.52,1.5,0q3.27-3.31,6.61-6.59c1-1,1.92-1.09,2.8-.21a2,2,0,0,1-.2,2.89c-1.9,2-3.83,3.86-5.76,5.78-.76.77-1.53,1.52-2.29,2.29-1.39,1.38-2.59,1.39-4,0q-1.8-1.77-3.56-3.56c-.47-.48-1.06-.94-.79-1.74A2.36,2.36,0,0,1,39.46,51.75Z" transform="translate(-27.5 -29)"/><line class="l" x1="79" y1="84.5" x2="79" y2="75.5"/><line class="l" x1="88" y1="84.5" x2="88" y2="70"/><line class="l" x1="97" y1="84.5" x2="97" y2="64"/><rect class="m" x="1.5" y="7" width="62" height="84" rx="5"/><rect class="n" x="18.5" width="29" height="13" rx="3"/></svg>