<svg xmlns="http://www.w3.org/2000/svg" viewBox="0 0 150 150"><defs><style>.a{fill:#e9edfc;}.b{fill:#f9d09a;}.c{fill:#7a8298;}.d{fill:#798298;}.e{fill:#7b8299;}.f{fill:#d88b4f;}</style></defs><rect class="a" width="150" height="150"/><path class="b" d="M0,0H65A10,10,0,0,1,75,10V65A10,10,0,0,1,65,75H10A10,10,0,0,1,0,65V0A0,0,0,0,1,0,0Z"/><path class="c" d="M34.45,132.11c-1.91,0-3.83,0-5.75,0A7,7,0,0,1,23,129.79c-.37-.42-.77-.3-1.19-.33a8.3,8.3,0,0,1-3.5-.41c-2.64-1.26-3.22-5.61-1-7.28a5.14,5.14,0,0,1,2.76-1c.79,0,1.13-.4,1.3-1.22a17,17,0,0,1,5.31-9.33,17.29,17.29,0,0,1,7.76-4.16,20.15,20.15,0,0,1,3.1-.18c1.65-.16,1.93-.43,1.91-2.07a9.62,9.62,0,0,1,.89-4.38,1.22,1.22,0,0,0-.54-1.72A25,25,0,0,1,31.26,89a7.52,7.52,0,0,1-.92-4.47c.17-1.66,2.28-2.75,4.07-2.2a12.39,12.39,0,0,1,6,4.62,94.78,94.78,0,0,1,5.34,7.88c.27.41.45,1.15,1.24.75s.53-1.08.28-1.65a26.79,26.79,0,0,0-2.23-3.65c-.64-1-1.34-2-2-2.93a1.84,1.84,0,0,1,0-2.58,1.86,1.86,0,0,1,2.48-.35,7.16,7.16,0,0,1,3.22,4.12,24.48,24.48,0,0,1,.95,4.79c.13.78.45,1.22,1.13,1.32,2.94.45,5,2.22,6.8,4.43a14.87,14.87,0,0,1,3.18,5.65,4.57,4.57,0,0,1-1.2,4.16,7.2,7.2,0,0,1-4.68,2.6c-1.17.16-1.46.52-1.41,1.76a15.37,15.37,0,0,1-1,7,21.59,21.59,0,0,1-1.94,3.28,1.77,1.77,0,0,0,.1,2.38c.62.73,1.38,1.33,2,2s1.35,1.68,1,2.89a1.43,1.43,0,0,1-1.46,1.16c-2,0-4,0-6,0-.74,0-1-.39-1-1.05a4.83,4.83,0,0,0-2.87-4.32,1,1,0,0,1-.63-1.2,7.94,7.94,0,0,0-5.51-8.81,4.2,4.2,0,0,0-1.56-.5c-.6,0-1.1.24-1.17.79s.42.83,1,1a6.73,6.73,0,0,1,4.88,3.62,7.07,7.07,0,0,1,.47,4.52c-.21,1.13,0,1.67,1.22,1.94a2.51,2.51,0,0,1,2,2.33c0,1.17-.43,1.68-1.64,1.69-2.31,0-4.63,0-6.95,0Zm16.44-30.45a1.53,1.53,0,0,0,1.61,1.64,2,2,0,0,0,1.74-1.81A2.32,2.32,0,0,0,52.48,100,1.65,1.65,0,0,0,50.89,101.66Z"/><path class="d" d="M119.53,58.21h-14c-1.67,0-1.83-.17-1.83-1.86,0-4.87-.05-9.75,0-14.62a4.24,4.24,0,0,0-4.16-4.14c-1.2.07-2.4,0-3.6,0-2.92,0-4.8-1.58-6-4.08A16.42,16.42,0,0,1,88.57,28a1.85,1.85,0,0,1,1.31-1.92,41.7,41.7,0,0,1,4.38-1.47,7.25,7.25,0,0,0,4.36-3.55,7.57,7.57,0,0,1,7-4.43c2.11,0,4.23.22,6.33,0a5.73,5.73,0,0,1,4.42,1.63,46.56,46.56,0,0,1,6.6,7.36A4.12,4.12,0,0,1,122.9,31a24.53,24.53,0,0,1-7.18,6.2,3.48,3.48,0,0,1-5.16-2.4,23,23,0,0,1-.41-6.76c0-1,.51-2,.61-3,0-.55.08-1-.44-1.18-.68-.26-.93.24-1.07.78-.8,3-1.39,6-.68,9a21.87,21.87,0,0,0,.78,2.62c1,2.78,4.27,3.53,6.5,2.67a16.3,16.3,0,0,0,4.68-3.25c.67-.57,1-.54,1.44.2,2.09,3.66,4.61,7,6.89,10.56q3.15,4.89,6.26,9.82c.73,1.16.24,1.94-1.21,1.94Z"/><path class="e" d="M107.73,131.36h-4.79a1.07,1.07,0,0,1-1.06-1.09c0-.73.57-.78,1.09-.82,1.31-.08,2.63.07,4-.11s1.76-.49,2.06-1.89a14.56,14.56,0,0,1,.71-2.65c.3-.72.12-1-.54-1.23a35.58,35.58,0,0,1-6.06-3,16.76,16.76,0,0,1-6.71-8.28,19.73,19.73,0,0,1-.81-10.8c.43-2.32.39-2.32-1.76-3.27a17.84,17.84,0,0,1-1.77-1c-1.3-.75-1.35-1-.54-2.21a7.23,7.23,0,0,1,3.82-2.93,1.68,1.68,0,0,0,1-.9A9.4,9.4,0,0,1,102.89,86a10.2,10.2,0,0,1,11.51,5.65,5.93,5.93,0,0,1,.79,2.83A4.93,4.93,0,0,0,117,98.59c6.61,5.79,11.74,12.84,16.63,20.07.24.36.49.72.7,1.1.63,1.11.49,1.35-.83,1.36a53.9,53.9,0,0,1-10.66-1.06,44.6,44.6,0,0,1-9.3-2.82,12.07,12.07,0,0,1-6.74-6.71c-.81-2-1.34-4-.59-6.21a5.94,5.94,0,0,0,.07-1c.08-.59,0-1.13-.71-1.13s-.89.46-1,1a13.25,13.25,0,0,0,7.08,14.83,38.15,38.15,0,0,0,8.93,3.16A46.14,46.14,0,0,0,131,122.78c1.2,0,1.64,1.1,2.22,1.82,1.31,1.65,2.64,3.29,4,4.93a1.82,1.82,0,0,1,.15,2.12,1.59,1.59,0,0,1-2,.64,14.66,14.66,0,0,1-3.71-2.35c-1.89-1.39-3.74-2.84-5.51-4.38a3.69,3.69,0,0,0-3.44-.72,21,21,0,0,1-8.42,0,10.56,10.56,0,0,0-1.79-.11c-.58,0-.87.27-1,.83-.16.93-.53,1.81-.72,2.75-.14.71,0,.94.66,1.06a5.8,5.8,0,0,0,1.18.07,1,1,0,0,1,1.1,1c0,.69-.47.91-1,.92-1.63,0-3.27,0-4.91,0ZM102.54,92a1.58,1.58,0,0,0-1.74,1.66,1.74,1.74,0,0,0,1.55,1.91,1.79,1.79,0,1,0,.19-3.57Z"/><path class="f" d="M33.21,58.19c-3.92,0-7.83,0-11.74,0-2,0-2.21-.3-1.88-2.25a22.44,22.44,0,0,1,3.94-9.43c1-1.36,2.1-2.59,3-4,.32-.51.49-.81-.13-1.36-2.69-2.36-3.36-5.48-2.94-8.9a6.44,6.44,0,0,1,.73-2.62c1.11-1.75.85-3.75,1.32-5.61s.38-4.11,1-6.09a2.19,2.19,0,0,1,3.59-1,13.45,13.45,0,0,1,3.27,4.36,1.34,1.34,0,0,0,1.58.83,18.46,18.46,0,0,1,4.07,0,2.19,2.19,0,0,0,2.59-1.49,11,11,0,0,1,1.88-3c.64-.75,1.24-1.71,2.39-1.48a2.87,2.87,0,0,1,2.16,2.31,27.81,27.81,0,0,1,1.22,7.51,6.26,6.26,0,0,0,.57,2.65c1.28,3.06,1.85,6.21.53,9.4a5.6,5.6,0,0,1-1.88,2.71c-1.38.91-1.71,2.14-1.73,3.76-.07,4.07,0,8.14-.09,12.22,0,1.46-.16,1.56-1.6,1.56H33.21Z"/></svg>