<svg xmlns="http://www.w3.org/2000/svg" viewBox="0 0 101.64 96.42"><defs><style>.a{fill:#f8e5d9;}.b{fill:#74514e;}.c{fill:#f4d6c3;}.d{fill:#73504e;}.e{fill:#f7cbc4;}.f{fill:#f7cbc5;}.g{fill:#73514f;}.h{fill:#b7d9e0;}.i{fill:#74514f;}.j{fill:#74504e;}</style></defs><path class="a" d="M85.85,121.29a2.32,2.32,0,0,1-1.39.24q-19,0-38.09,0a35.34,35.34,0,0,1-4.33-.76c-.43,0-.32-.4-.32-.73,0-.7.25-1.43-.16-2.1a34.09,34.09,0,0,1,.43-4.28A59.1,59.1,0,0,1,45.36,100c.17-.43.23-.9.87-1s1-.64,1.11-1.36a1.51,1.51,0,0,0-1-1.62c-.76-.35-1.51-.73-2.23-1.13-4.21-2.36-7.71-5.43-9.63-10C31.19,77,32,69.09,34.68,61.21a.8.8,0,0,1,.78-.59,11.5,11.5,0,0,0,7.73-4.09c3.5-3.91,5.42-8.6,6.72-13.59a4.19,4.19,0,0,0,.24-2.68c1.3.13,2.18-.77,3.2-1.33,0,0-.05-.29-.07-.44a2.19,2.19,0,0,0,2.25.06A43.69,43.69,0,0,1,70,35.27a44.86,44.86,0,0,1,20.64,3.51,2.41,2.41,0,0,0,2.17,0l3.23,1.46a2,2,0,0,0-.24,1.49,37.06,37.06,0,0,0,5.48,12.9A13.18,13.18,0,0,0,109,60.37a1.24,1.24,0,0,1,.94.93A35,35,0,0,1,112,73.24a27.11,27.11,0,0,1-1.2,8.72c-.19.55-.34.78-1,.53A26.63,26.63,0,0,0,99,81.05c.28-.42.72-.27,1.1-.27,1.19,0,2.39,0,3.58,0,.43,0,.84,0,1-.52.45-1.91.8-3.8-.36-5.63a6.41,6.41,0,0,0-6.21-3,5.85,5.85,0,0,0-5.22,4.24c-.63,2.2,0,4.88,1.85,6-.19.08-.37.16-.55.22A23,23,0,0,0,79.32,110.9,24.45,24.45,0,0,0,85.85,121.29Zm-13.25-53a9,9,0,0,0-4.1.66,3.2,3.2,0,0,0-.2,5.7,7.51,7.51,0,0,0,2.34.87c.27.06.51.08.62.43a3.55,3.55,0,0,1-2.82,4.5,3.24,3.24,0,0,1-3.44-2c-.36-.72-.83-1.2-1.68-1s-1.08.87-1.17,1.61a2.23,2.23,0,0,0,.32,1.37,6.34,6.34,0,0,0,9.32,1.83c.71-.57,1.06-.51,1.74,0A6.51,6.51,0,0,0,82.68,81a2.77,2.77,0,0,0,.58-2.47,1.3,1.3,0,0,0-1-1.06,1.36,1.36,0,0,0-1.37.55,5,5,0,0,0-.53.93,2.7,2.7,0,0,1-1.7,1.4c-2.56.79-4.71-.93-4.63-3.7,0-.67.17-1.09.95-1.22a6.7,6.7,0,0,0,1.77-.71,3,3,0,0,0,1.87-3.07,3.21,3.21,0,0,0-2.45-2.92A11.52,11.52,0,0,0,72.6,68.26ZM46,71.66a5.71,5.71,0,0,0-6.43,5.64,6.31,6.31,0,0,0,6.64,6.34,6.22,6.22,0,0,0,6.06-6A6,6,0,0,0,46,71.66Zm13.27-2.55a6,6,0,0,0-1.39-4A3.37,3.37,0,0,0,53,64.76a5.94,5.94,0,0,0-.43,8.18,3.48,3.48,0,0,0,5.19.06A5.3,5.3,0,0,0,59.29,69.11ZM85.53,69a5.43,5.43,0,0,0,1,3.38,3.57,3.57,0,0,0,6.28-.33,6.22,6.22,0,0,0-.54-6.76,3.45,3.45,0,0,0-5.7.2A6,6,0,0,0,85.53,69Z" transform="translate(-23.06 -30.83)"/><path class="b" d="M85.85,121.29a24.45,24.45,0,0,1-6.53-10.39A23,23,0,0,1,94.18,82.17c.18-.06.36-.14.55-.22l4.31-.9a26.63,26.63,0,0,1,10.81,1.44c.65.25.8,0,1-.53a27.11,27.11,0,0,0,1.2-8.72,35,35,0,0,0-2.12-11.94,1.24,1.24,0,0,0-.94-.93,13.18,13.18,0,0,1-7.69-5.71,37.06,37.06,0,0,1-5.48-12.9,2,2,0,0,1,.24-1.49c1.42-.93,2.56-.52,2.91,1.14.22,1,.49,2,.8,3a26.79,26.79,0,0,0,5.55,10.21,8.51,8.51,0,0,0,6.53,3c3.43-.09,5.83-2,7.27-5,1.36-2.82.65-5.43-1.19-7.81a18.48,18.48,0,0,0-3.16-3.09,45.41,45.41,0,0,0-10.44-6.67,8.5,8.5,0,0,0-9.13,1.09,15.41,15.41,0,0,0-2.37,2.67,2.41,2.41,0,0,1-2.17,0A44.86,44.86,0,0,0,70,35.27a43.69,43.69,0,0,0-14.48,3.28,2.19,2.19,0,0,1-2.25-.06l-.83-1a8.44,8.44,0,0,0-9.94-2.88,32.4,32.4,0,0,0-7.26,4.13,33.58,33.58,0,0,0-6.9,5.68,7.56,7.56,0,0,0-2.09,5.81,8.19,8.19,0,0,0,13,5.65,16.36,16.36,0,0,0,4.38-5.16,35.71,35.71,0,0,0,3.56-9.48c.42-1.78,1.57-2.11,3-1a4.19,4.19,0,0,1-.24,2.68c-1.3,5-3.22,9.68-6.72,13.59a11.5,11.5,0,0,1-7.73,4.09.8.8,0,0,0-.78.59C32,69.09,31.19,77,34.53,84.91c1.92,4.55,5.42,7.62,9.63,10,.72.4,1.47.78,2.23,1.13a1.51,1.51,0,0,1,1,1.62c-.07.72-.38,1.26-1.11,1.36s-.7.57-.87,1A59.1,59.1,0,0,0,42,113.66a34.09,34.09,0,0,0-.43,4.28l-.09,1.55c-.09,1.16-.71,1.86-1.64,1.83s-1.5-.73-1.44-1.94a69.58,69.58,0,0,1,1.75-12.77,48.67,48.67,0,0,1,2.44-7.86c.36-.87.14-1.14-.57-1.52A23.3,23.3,0,0,1,31.48,85.71a31,31,0,0,1-2.09-14.78,33.53,33.53,0,0,1,2.19-9.88c.33-.84-.27-.8-.72-1a11.51,11.51,0,0,1-7.69-9.29c-.51-3.16.76-5.87,2.66-8.3a29.31,29.31,0,0,1,6.82-5.78,40.44,40.44,0,0,1,8.43-4.93,11.22,11.22,0,0,1,12.75,2.65,1.9,1.9,0,0,0,2.34.52,48.34,48.34,0,0,1,20.69-2.69,46.33,46.33,0,0,1,13.45,3.08A1.2,1.2,0,0,0,91.85,35a11.91,11.91,0,0,1,9.42-3.87A13.67,13.67,0,0,1,107,32.79a58.41,58.41,0,0,1,11.58,8,13.79,13.79,0,0,1,3.75,5.34c1.49,3.76.48,7.11-1.78,10.22a10.5,10.5,0,0,1-6.8,4.3c-.6.11-.76.25-.53.92a36.11,36.11,0,0,1,1.92,14.25,28.23,28.23,0,0,1-1.39,7.38,1.13,1.13,0,0,0,.54,1.61A21.74,21.74,0,0,1,124,98.23c3,12.26-3.53,24.15-15.53,27.88-7.92,2.45-15.18.86-21.73-4.16Zm35.72-17.12a20.1,20.1,0,1,0-20.25,19.89A19.93,19.93,0,0,0,121.57,104.17Z" transform="translate(-23.06 -30.83)"/><path class="c" d="M50.15,40.26c-1.4-1.15-2.55-.82-3,1a35.71,35.71,0,0,1-3.56,9.48,16.36,16.36,0,0,1-4.38,5.16,8.19,8.19,0,0,1-13-5.65,7.56,7.56,0,0,1,2.09-5.81,33.58,33.58,0,0,1,6.9-5.68,32.4,32.4,0,0,1,7.26-4.13,8.44,8.44,0,0,1,9.94,2.88l.83,1c0,.15.11.41.07.44C52.33,39.49,51.45,40.39,50.15,40.26Z" transform="translate(-23.06 -30.83)"/><path class="c" d="M92.82,38.81a15.41,15.41,0,0,1,2.37-2.67,8.5,8.5,0,0,1,9.13-1.09,45.41,45.41,0,0,1,10.44,6.67,18.48,18.48,0,0,1,3.16,3.09c1.84,2.38,2.55,5,1.19,7.81-1.44,3-3.84,5-7.27,5a8.51,8.51,0,0,1-6.53-3,26.79,26.79,0,0,1-5.55-10.21c-.31-1-.58-2-.8-3-.35-1.66-1.49-2.07-2.91-1.14Z" transform="translate(-23.06 -30.83)"/><path class="d" d="M72.6,68.27a11.22,11.22,0,0,1,3.55.42,3.21,3.21,0,0,1,2.45,2.92,3,3,0,0,1-1.87,3.07,6.7,6.7,0,0,1-1.77.71c-.78.13-.94.55-.95,1.22-.08,2.77,2.07,4.49,4.63,3.7a2.7,2.7,0,0,0,1.7-1.4,5,5,0,0,1,.53-.93,1.36,1.36,0,0,1,1.37-.55,1.3,1.3,0,0,1,1,1.06A2.77,2.77,0,0,1,82.68,81a6.51,6.51,0,0,1-9.15,1.26c-.68-.53-1-.59-1.74,0a6.34,6.34,0,0,1-9.32-1.83A2.23,2.23,0,0,1,62.15,79c.09-.74.32-1.43,1.17-1.61s1.32.31,1.68,1a3.24,3.24,0,0,0,3.44,2,3.55,3.55,0,0,0,2.82-4.5c-.11-.35-.35-.37-.62-.43a7.51,7.51,0,0,1-2.34-.87,3.2,3.2,0,0,1,.2-5.7A8.85,8.85,0,0,1,72.6,68.27Z" transform="translate(-23.06 -30.83)"/><path class="e" d="M46,71.66a6,6,0,0,1,6.27,6,6.22,6.22,0,0,1-6.06,6,6.31,6.31,0,0,1-6.64-6.34A5.71,5.71,0,0,1,46,71.66Z" transform="translate(-23.06 -30.83)"/><path class="f" d="M99,81.05l-4.31.9c-1.83-1.17-2.48-3.85-1.85-6a5.85,5.85,0,0,1,5.22-4.24,6.41,6.41,0,0,1,6.21,3c1.16,1.83.81,3.72.36,5.63-.11.47-.52.52-1,.52-1.19,0-2.39,0-3.58,0C99.76,80.78,99.32,80.63,99,81.05Z" transform="translate(-23.06 -30.83)"/><path class="d" d="M59.29,69.11A5.3,5.3,0,0,1,57.77,73a3.48,3.48,0,0,1-5.19-.06A5.94,5.94,0,0,1,53,64.76a3.37,3.37,0,0,1,4.89.37A6,6,0,0,1,59.29,69.11Z" transform="translate(-23.06 -30.83)"/><path class="g" d="M85.53,69a6,6,0,0,1,1-3.51,3.45,3.45,0,0,1,5.7-.2,6.22,6.22,0,0,1,.54,6.76,3.57,3.57,0,0,1-6.28.33A5.43,5.43,0,0,1,85.53,69Z" transform="translate(-23.06 -30.83)"/><path class="h" d="M121.57,104.17A20.1,20.1,0,1,1,101.39,84.1,19.94,19.94,0,0,1,121.57,104.17Zm-25.95,10.5a5.82,5.82,0,0,0,5.84,6.1,6.05,6.05,0,0,0,5.94-6,5.86,5.86,0,0,0-5.92-5.93A5.74,5.74,0,0,0,95.62,114.67Zm0-21.08a5.76,5.76,0,0,0,5.74,6,5.94,5.94,0,1,0,.09-11.87A5.69,5.69,0,0,0,95.65,93.59Zm16.64,4.64a5.94,5.94,0,0,0,0,11.88,5.94,5.94,0,0,0,0-11.88Zm-27.4,5.83a5.89,5.89,0,1,0,5.92-5.8A5.88,5.88,0,0,0,84.89,104.06Zm16.54,2.2a2,2,0,0,0,2.19-2,2.06,2.06,0,0,0-2-2.18,2.14,2.14,0,0,0-2.23,2A2.09,2.09,0,0,0,101.43,106.26Z" transform="translate(-23.06 -30.83)"/><path class="i" d="M95.62,114.67a5.74,5.74,0,0,1,5.86-5.81,5.86,5.86,0,0,1,5.92,5.93,6.05,6.05,0,0,1-5.94,6A5.82,5.82,0,0,1,95.62,114.67Zm8.73.16a2.84,2.84,0,0,0-2.84-2.92,2.91,2.91,0,1,0,2.84,2.92Z" transform="translate(-23.06 -30.83)"/><path class="b" d="M95.65,93.59a5.69,5.69,0,0,1,5.83-5.82,5.94,5.94,0,1,1-.09,11.87A5.76,5.76,0,0,1,95.65,93.59Zm5.84,3a2.8,2.8,0,0,0,2.9-2.82,2.9,2.9,0,1,0-5.8-.13A2.82,2.82,0,0,0,101.49,96.61Z" transform="translate(-23.06 -30.83)"/><path class="j" d="M112.29,98.23a5.94,5.94,0,0,1,0,11.88,5.94,5.94,0,0,1,0-11.88Zm0,3.12a2.78,2.78,0,0,0-3,2.75,2.85,2.85,0,0,0,2.82,3.05,2.9,2.9,0,1,0,.13-5.8Z" transform="translate(-23.06 -30.83)"/><path class="d" d="M84.89,104.06a5.89,5.89,0,0,1,11.78.15,5.89,5.89,0,1,1-11.78-.15Zm8.84.16a2.86,2.86,0,0,0-2.86-2.89,2.94,2.94,0,0,0-3,2.86,3,3,0,0,0,2.9,2.92A3,3,0,0,0,93.73,104.22Z" transform="translate(-23.06 -30.83)"/><path class="d" d="M101.43,106.26a2.09,2.09,0,0,1-2.07-2.16,2.14,2.14,0,0,1,2.23-2,2.06,2.06,0,0,1,2,2.18A2,2,0,0,1,101.43,106.26Z" transform="translate(-23.06 -30.83)"/></svg>