<svg xmlns="http://www.w3.org/2000/svg" viewBox="0 0 109.84 106.34"><defs><style>.a{fill:#4e4545;}.b{fill:#f6e7d2;}.c{fill:#4d4643;}.d{fill:#bbe4d7;}.e{fill:#4f4644;}.f{fill:#f0c4cf;}.g{fill:#c8e1d8;}.h{fill:#f6e7d3;}.i{fill:#b8e4d9;}.j{fill:#504541;}.k{fill:#b9e3d9;}.l{fill:#f7c18a;}.m{fill:#f7c088;}.n{fill:#84938d;}.o{fill:#b1e0ef;}.p{fill:#b4dfe9;}.q{fill:#b4dfed;}.r{fill:#ecc5cc;}.s{fill:#504640;}.t{fill:#534641;}.u{fill:#574a46;}</style></defs><path class="a" d="M86.57,46.5a2.28,2.28,0,0,1,1.06,1.19,1.55,1.55,0,0,1-.5,1.78,1.92,1.92,0,0,1-2.17.14,47.3,47.3,0,0,0-6.37-2.76,36.68,36.68,0,0,0-13.43-1.38,33.85,33.85,0,0,0-9,2A27.73,27.73,0,0,0,42.38,58.63a18.38,18.38,0,0,0-2.27,4.54,1.06,1.06,0,0,0,.56,1.5c1.78,1,1.76,1,3.13-.42a31.51,31.51,0,0,1,15.44-9,37.88,37.88,0,0,1,13-1.11C78.28,54.79,84,56.4,89,60A24.06,24.06,0,0,1,94,64.76c.42.54.78.7,1.35.28a5.34,5.34,0,0,1,.69-.43c1.66-1,1.68-1,.92-2.77-.31-.75-.69-1.47-1.06-2.2-.84-1.66-.31-2.65,1.56-2.85a2.61,2.61,0,0,1,1.38,1.5,31.37,31.37,0,0,1,1.69,3.91,1.49,1.49,0,0,0,1.7,1.15c.89,0,1.07-.19.75-1a31.21,31.21,0,0,0-1.73-4.52,2.06,2.06,0,0,1,0-2.45c1.22-.72,2.08-.55,2.8.71A28,28,0,0,1,105.9,61a15.45,15.45,0,0,1,.58,2.12,3.81,3.81,0,0,0,1.73,2.55,12.3,12.3,0,0,1,4.67,7.26,33.86,33.86,0,0,1,1,9.57,12,12,0,0,1-4.07,9.15,1.38,1.38,0,0,0-.36,1.9,36.42,36.42,0,0,1,2.75,8.09c1.22,7-4.3,11.9-10.52,10.88a9.47,9.47,0,0,1-5.94-3.6c-.49-.62-.82-.74-1.35-.11a18.35,18.35,0,0,1-4.07,3.43c-.57.37-.66.68-.25,1.27A34,34,0,0,1,95,124c.37,1.32.45,2.7.84,4,.16.53-.38,1-.63,1.41-.64,0-1.3.35-1.87-.21a1.82,1.82,0,0,0-.09-2.55c-.12-.14-.24-.36-.45-.3s-.11.32-.14.49c-.15.9.69,1.51.68,2.37a2.22,2.22,0,0,1-1-1.73,22.38,22.38,0,0,0-.84-3.6c-.5-1.33-1-2.67-1.42-4a1.09,1.09,0,0,1,.67.75c.15.92.84,1.64,1,2.57a.91.91,0,0,0,.17.28c.08-.06.24-.12.24-.19a8.68,8.68,0,0,0-.64-3.34,10.21,10.21,0,0,1-.94-2.3c0-.31.06-.7-.24-.86-.74-.39-.73-.94-.62-1.66a2,2,0,0,0-.94-1.88c-.47-.35-.9.25-1.36.4-1.06.35,0,.92-.12,1.37a1.4,1.4,0,0,0-2.1-.31,1.29,1.29,0,0,1-.45.07.73.73,0,0,1,.27-.61c.74-.6.74-.71-.13-1-.43-.16-.66-.35-.54-.83.18-.68-.12-.57-.59-.4a7.58,7.58,0,0,1-3.72.74,48.33,48.33,0,0,0,7-2.35c-.18.65-.94.47-1.29.89-.18.22-.87-.1-.65.51.17.44.49,1,1.15.66a6.71,6.71,0,0,1,1.25-.17,5.94,5.94,0,0,0,3.55-1.69c.64-.71,1-2.26,2.54-1.65,0,0,.15-.08.16-.13.07-.66.74-.75,1.09-1.14.18-.22.38-.58.75-.38s.45.47.42.94a.92.92,0,0,0,1.57.8c.89-1,1.56-.5,2.25.11a4.81,4.81,0,0,0,5.06,1,7.24,7.24,0,0,1,3-.63c.39,0,.89-.09.95-.51.12-1,.87-1,1.53-1.1.3-.06.62,0,.78-.38a9.31,9.31,0,0,0,.49-4.76.7.7,0,0,0-.32-.46c-1.52-.89-1.38-2.24-1.08-3.67.42-2-.25-3.42-1.8-4-.56-.22-1.19,0-1.72-.37-.1-.08-.3.2-.38.38a1.37,1.37,0,0,0-1.4-.33c0-.27.25-.36.45-.48s.43-.15.36-.38-.38-.19-.57-.09a2.63,2.63,0,0,1-2-.19c-1.45-.46-2.83-1.12-3-3a3.18,3.18,0,0,0-1-2.48.71.71,0,0,1,.09-1.13c1-.71.83-1.71.84-2.7,0-1.22.17-2.46-.93-3.39a1.57,1.57,0,0,1-.44-1.17A31.18,31.18,0,0,0,98,75.35a1.9,1.9,0,0,0-.7-1.5c-.48-.35-.5-.8,0-1.28.31-.32.61-.82.35-1.25-.36-.59-.45-1.29-.86-1.87-.71-1-.44-1.6.78-2a.72.72,0,0,0,.53-.66c.08-.79.9-1.29,1.38-.78.83.88,1.8.45,2.71.57s.81-.62,1-1-.27-.5-.59-.64c-.8-.33-.63-.72.13-1.07-.64-.09-1-.15-1.31.5-.21.49-.84.63-1.42.62s-1.24,0-1.86,0c-.37,0-.74.06-.83.47-.16.75-.73.8-1.26.67-.71-.16-1.57,0-2.1-.71-.14-.2-.36-.13-.5,0-.67.73-1.37.54-2.07,0-.23-.17-.47-.36-.69,0s.12.4.26.56A5,5,0,0,1,92.38,68a6.32,6.32,0,0,1-1.22-1.36,34,34,0,0,0-4.63-4.27,6.89,6.89,0,0,1,2.66,1.76c.17.17.31.51.64.37s.24-.38.24-.61a1.26,1.26,0,0,1,.73-1.22c.13-.06.31-.19.31-.3s-.24-.23-.42-.26a5.28,5.28,0,0,1-3.26-1.58c-.09-.1-.35-.21-.39-.18-.46.45-.7.08-1-.22a.48.48,0,0,0-.55,0c-.48.24-.78-.08-.91-.43-.21-.61-.68-.79-1.15-1.14-.92-.67-2-1-2.9-1.6s-2.37-.56-3.23-1.52c0,0-.15,0-.23,0a9,9,0,0,1-3-.64,1.37,1.37,0,0,0-1.44.14,2.65,2.65,0,0,1-1.85.5c-1,0-2.09,0-3.14,0s-2.34.29-3.33-.6a.54.54,0,0,0-.66,0c-.8.62-1.79.35-2.67.6s-1.61.11-2,1.07a.51.51,0,0,1-.94.07c-.46-.69-.76-.27-1.19,0-1.06.74-1.52,2-2.51,2.8-.24.19-.33.46-.75.32-.69-.25-1.08.13-1.29.78-.11.33-.27.72-.7.6-1.22-.33-2,.47-2.89,1-.38.24-.8.48-.43,1a.81.81,0,0,0,1.22.15c.51-.34.92-.86,1.61-.82a5.9,5.9,0,0,1-.57.55,26.35,26.35,0,0,0-6.46,6.44,23.17,23.17,0,0,0-3.62,8.56A36.53,36.53,0,0,0,40,86.82a56.71,56.71,0,0,0,1.42,13.24c.25,1,.61,1.89.92,2.84-.24-.1-.47-.32-.73,0s-.15.67.05,1a2.88,2.88,0,0,1,.65,2.39,1.41,1.41,0,0,0,.48,1.51c.21.23.52.38.67.63.39.65.75,1,1.5.39.34-.27,1.11,0,1,.27-.51,1,0,1.1.79,1.28.36.09.37.63.23.93a.73.73,0,0,0,.6,1.11c1,.09.71.85.5,1.12a3.7,3.7,0,0,0-.63,2.68c.05.91-.36,1.2-1.24,1-.42-.11-.34.16-.41.33a5.44,5.44,0,0,0-.27,3,2.29,2.29,0,0,1-.12,1.57,10.28,10.28,0,0,1-.53.91c-.38.55-.07.92.37,1.12.62.27.5-.28.63-.63a36.1,36.1,0,0,1,4.2-8.23,1.6,1.6,0,0,1,1.85-.79,4.3,4.3,0,0,1,2.08.92,2.91,2.91,0,0,1-1.66-.43c-1.05-.55-1.53-.13-2.13.72a32.2,32.2,0,0,0-5,12.15c-.35,1.61-.9,2-2.61,1.76a2.17,2.17,0,0,1-.64-2.33,34.23,34.23,0,0,1,5.46-13.3c.41-.57.48-.94-.26-1.36a18.33,18.33,0,0,1-4.3-3.34c-.58-.63-.9-.69-1.5,0a10.74,10.74,0,0,1-5.81,3.61,9,9,0,0,1-10.07-5.43,11.86,11.86,0,0,1,.19-7.76A48.09,48.09,0,0,1,27.7,94a1.51,1.51,0,0,0-.52-2.14,11,11,0,0,1-4.13-7.79,31.23,31.23,0,0,1,1-11.86,11.74,11.74,0,0,1,4.56-6.55,2.94,2.94,0,0,0,1.2-2C32.25,52.9,38,44.34,47.59,38.61A34.49,34.49,0,0,1,58.46,34.8a50.38,50.38,0,0,1,11.08-1A39.35,39.35,0,0,1,90.4,39.92c1.56,1,1.72,1.85.59,3.3a3.39,3.39,0,0,1-2.8-.6c-.43-.3-.91-.53-1.37-.79A3.6,3.6,0,0,0,85,40.68a13.84,13.84,0,0,0-4.49-1.63,39.89,39.89,0,0,0-10.63-1.66A49.28,49.28,0,0,0,58,38.5a33.09,33.09,0,0,0-6.69,2.16,31.26,31.26,0,0,0-12.79,11A37.26,37.26,0,0,0,34,61c-.87,2.52-.78,2.61,1.83,2.51a.88.88,0,0,0,1-.73,18.83,18.83,0,0,1,1-2.71,31,31,0,0,1,15-14.92,35.44,35.44,0,0,1,14.79-3.31A36.2,36.2,0,0,1,81.2,44.14C83,44.84,84.77,45.74,86.57,46.5Zm-47,57.8a3,3,0,0,1,.31.15c.33.19.64.29.91-.1s-.05-.62-.36-.79c-.46-.28-.46-.79-.59-1.22-.08-.27-.18-.7.09-.86s.54.16.79.34.38.64.73.4.24-.66,0-1a9.2,9.2,0,0,1-1.09-4.13c-.1-2.08-.69-4.08-.61-6.18.11-2.94,0-5.9.05-8.84a14.84,14.84,0,0,1,.34-4.11A33.42,33.42,0,0,1,42,72.58c.32-.63,0-1-.52-1.32a3.64,3.64,0,0,0-.67-.16c-.33-.09-.48-.8-.92-.37a2.41,2.41,0,0,0-.52,1.13c-.09.33,0,.7,0,1s.43,1.4-.78,1.1c-.19,0-.17.25-.13.34a1.66,1.66,0,0,1-.54,2.14,1,1,0,0,0-.39.69A33.42,33.42,0,0,1,37.05,81a12.45,12.45,0,0,0,.12,5,1.37,1.37,0,0,1-.26,1.32c-.63.62-.44,1.24-.15,1.91a10.65,10.65,0,0,1,.63,1.62,1.6,1.6,0,0,1-.47,1.48c-.38.45-.66.12-1-.06a.45.45,0,0,0-.72.3c-.06.38.2.64.63.62.81,0,1.36.21,1.34,1.14l-.67-.1c0-.28-.2-.39-.45-.45a16.11,16.11,0,0,1-3.73-1.08c-.27-.15-.52.07-.67.32a1.89,1.89,0,0,1-1.92.78,2.17,2.17,0,0,0-2.19,2.29,2.92,2.92,0,0,1-.88,2.49,3.43,3.43,0,0,0-.43,3,5,5,0,0,1,.38,3.15,9.36,9.36,0,0,0,.15,4.15c.08.58.54,1.29,1.29.91.56-.29.58-.09.9.28s1.11,1.32,1.68.8,1.41-.76,1.91-1.4a17.44,17.44,0,0,0,3.23-.15c-.5.38-1.06,1-.87,1.46.25.62,1,.15,1.56.12a2.66,2.66,0,0,0,1.15-.46c.38-.23.61-.47.42-.94-.29-.68.06-.94.68-1,1-.06,1.48-.9,2.06-1.51a.86.86,0,0,0-.18-1.25c-.44-.42-.65-.06-.9.26-.08.1-.27.12-.4.18A2.85,2.85,0,0,0,39.52,104.3ZM26.23,80.89c0,.58,0,1.16,0,1.74a8.59,8.59,0,0,0,5.34,8.12c2.49,1.12,3.44.65,4.23-1.93a23.2,23.2,0,0,0,.69-6,29,29,0,0,1,.79-6.44,26.35,26.35,0,0,1,2.88-7.14c.25-.41.2-.64-.14-.87a7.92,7.92,0,0,0-5.57-1.54c-3.62.48-5.92,2.69-7.14,6A24.06,24.06,0,0,0,26.23,80.89Zm84.36,0a28.51,28.51,0,0,0-.41-4.6,12.5,12.5,0,0,0-1.93-5.74c-2.52-3.75-6.42-4.89-10.39-2.89-1.21.6-1.23.78-.61,2a30.8,30.8,0,0,1,2.58,7.63,39.11,39.11,0,0,1,.55,7.41,14.48,14.48,0,0,0,1.2,5.5,1.43,1.43,0,0,0,1.73.93,7.78,7.78,0,0,0,5.79-3.64A10,10,0,0,0,110.59,80.9Zm-84.81.43c-.05-1.87.23-3.93-.47-5.92-.22-.61-.16-1.76-.89-1.64-1,.15-.43,1.18-.38,1.86s.48,1.51-.47,2c-.21.12-.06.44.06.64A3.26,3.26,0,0,1,23.92,80c.11,2-.22,4,0,6,.05.5.24.83.71.91a.87.87,0,0,0,.93-.54,2.16,2.16,0,0,0,.24-1.12C25.78,84,25.78,82.75,25.78,81.33Z" transform="translate(-22.87 -23.65)"/><path class="b" d="M90.08,119.91c.47,1.34.92,2.68,1.42,4a22.38,22.38,0,0,1,.84,3.6,2.22,2.22,0,0,0,1,1.73h0c.57.56,1.23.25,1.87.21-.41.74-1.09.59-1.62.33a4.52,4.52,0,0,0-2.84-.27,17.6,17.6,0,0,1-2.89.18c-9.73,0-19.47,0-29.2,0-4.09,0-8.18-.28-12.28-.35a3.52,3.52,0,0,0-2.31.39.92.92,0,0,1-1.49-.26c1.71.22,2.26-.15,2.61-1.76a32.2,32.2,0,0,1,5-12.15c.6-.85,1.08-1.27,2.13-.72a2.91,2.91,0,0,0,1.66.43,27.69,27.69,0,0,0,6.78,1.38,68.72,68.72,0,0,0,14.48.1,35,35,0,0,0,9.49-1.93,1.29,1.29,0,0,0,.45-.07,1.4,1.4,0,0,1,2.1.31Q88.67,117.48,90.08,119.91Z" transform="translate(-22.87 -23.65)"/><path class="c" d="M119,36c0,3.38.08,6.76,0,10.13-.12,4-5.31,6.77-8.77,4.78-2.8-1.61-3.35-5.31-.9-8.23a5.68,5.68,0,0,1,5.23-1.91c1,.1,1.14-.19,1.12-1,0-1.24,0-2.48,0-3.72,0-.61-.23-.87-.84-.76-1.1.19-2.21.36-3.31.58-2.43.46-4.83,1.08-7.28,1.41-.89.12-1.27.6-1.25,1.59.08,2.75,0,5.51.06,8.27a6.22,6.22,0,0,1-7.4,6.53,4.82,4.82,0,0,1-3.86-4,6.3,6.3,0,0,1,3.5-6.62,5.49,5.49,0,0,1,3-.47c1.11.12,1.12.12,1.12-1q0-6,0-12a4,4,0,0,1,.37-1.92,2.19,2.19,0,0,1,1.48-1.18c4.66-1.14,9.4-1.86,14.12-2.72a7.11,7.11,0,0,1,1.39-.1,2,2,0,0,1,2.2,2.24c0,3.38,0,6.76,0,10.13Zm-3.3-6.63v-.81c0-1.26-.16-1.45-1.31-1.12s-2,.41-3.06.64c-1.9.43-3.86.68-5.75,1.18-2.89.76-2.55-.2-2.65,3a5.62,5.62,0,0,0,0,.58c.1,1,.29,1.12,1.27.89,1.16-.27,2.32-.56,3.48-.79,2-.41,4.1-.72,6.12-1.19S115.7,31.32,115.71,29.39ZM97.83,46.23a2.7,2.7,0,0,0-1.49.31,2.6,2.6,0,0,0-1.16,2.79c.28.8,1,1,1.78,1a2.41,2.41,0,0,0,2.48-1.82C100.06,47,99.54,46.23,97.83,46.23Zm16-2a2,2,0,0,0-1.61.52c-.74.64-1.26,2-1,2.55a2.47,2.47,0,0,0,2.65.65,2.76,2.76,0,0,0,1.85-2.51C115.64,44.58,115.06,44.22,113.81,44.21Z" transform="translate(-22.87 -23.65)"/><path class="d" d="M86.57,46.5c-1.8-.76-3.54-1.66-5.37-2.36a36.2,36.2,0,0,0-13.62-2.35A35.44,35.44,0,0,0,52.79,45.1,31,31,0,0,0,37.83,60a18.83,18.83,0,0,0-1,2.71.88.88,0,0,1-1,.73c-2.61.1-2.7,0-1.83-2.51a37.26,37.26,0,0,1,4.56-9.31,31.26,31.26,0,0,1,12.79-11A33.09,33.09,0,0,1,58,38.5a49.28,49.28,0,0,1,11.86-1.11,39.89,39.89,0,0,1,10.63,1.66c.54.56,1.33.57,2,.88,1.43.65,2.87,1.27,4.31,1.9.46.26.94.49,1.37.79a3.39,3.39,0,0,0,2.8.6,1.08,1.08,0,0,1-1.32.39c-.56-.23-.83,0-1,.52a3.32,3.32,0,0,1-1.32,1.41C87,45.79,86.59,46,86.57,46.5Z" transform="translate(-22.87 -23.65)"/><path class="e" d="M125.45,74.21a6.27,6.27,0,0,1-5.34,2.73,3.75,3.75,0,0,1-4-3.79c-.27-3.63,1.82-6.13,5.42-6.39.73-.05.89-.33.93-1,.18-3.13.23-6.27.2-9.41a1.81,1.81,0,0,1,.95-1.94,1.9,1.9,0,0,1,2.13.41c1.83,1.34,3.88,2.45,5.22,4.37a8.34,8.34,0,0,1,1,8.58,2.19,2.19,0,0,1-1.81,1.59,1.92,1.92,0,0,1-1.82-1.22,3.34,3.34,0,0,1,.46-1.65,3.88,3.88,0,0,0,.51-1.76,5.72,5.72,0,0,0-2.52-4.95c-.26-.2-.5-.6-.89-.38s-.17.56-.16.85c.06,2.12.23,4.25.19,6.37C125.87,69.16,126.38,71.73,125.45,74.21Zm-2.73-3a.72.72,0,0,0-.6-.82,2.45,2.45,0,0,0-2.61,1.24c-.38,1,.09,1.86,1,1.88A2.54,2.54,0,0,0,122.72,71.18Z" transform="translate(-22.87 -23.65)"/><path class="f" d="M125.45,74.21c.93-2.48.42-5,.45-7.58,0-2.12-.13-4.25-.19-6.37,0-.29-.16-.68.16-.85s.63.18.89.38a5.72,5.72,0,0,1,2.52,4.95,3.88,3.88,0,0,1-.51,1.76,3.34,3.34,0,0,0-.46,1.65A1.35,1.35,0,0,0,127,67c-.6,0-.83.15-.82.77,0,1.54,0,3.08,0,4.62A2,2,0,0,1,125.45,74.21Z" transform="translate(-22.87 -23.65)"/><path class="g" d="M101.28,55.37a2.06,2.06,0,0,0,0,2.45A31.21,31.21,0,0,1,103,62.34c.32.82.14,1-.75,1a1.49,1.49,0,0,1-1.7-1.15,31.37,31.37,0,0,0-1.69-3.91,2.61,2.61,0,0,0-1.38-1.5C98.81,56.47,100.26,56.52,101.28,55.37Z" transform="translate(-22.87 -23.65)"/><path class="h" d="M87,110.31a48.33,48.33,0,0,1-7,2.35c-1.72.24-3.43.58-5.16.69-7.26.46-14.5.46-21.53-1.8A19.62,19.62,0,0,1,45,106.61a30.78,30.78,0,0,1-2.73-3.71c-.31-1-.67-1.88-.92-2.84A56.71,56.71,0,0,1,40,86.82a36.53,36.53,0,0,1,.51-8.92,23.17,23.17,0,0,1,3.62-8.56,26.35,26.35,0,0,1,6.46-6.44,5.9,5.9,0,0,0,.57-.55A33.85,33.85,0,0,1,55.93,60a35.86,35.86,0,0,1,15.71-2.3,34.52,34.52,0,0,1,7.74,1.43,34.87,34.87,0,0,1,7.15,3.24,34,34,0,0,1,4.63,4.27A6.32,6.32,0,0,0,92.38,68c.75,1.47,1.72,2.82,2.34,4.35A31.5,31.5,0,0,1,96.86,83.9a79.32,79.32,0,0,1-.72,13.77,16.4,16.4,0,0,1-3.91,8.61A22.27,22.27,0,0,1,87,110.31ZM67.89,96a2.86,2.86,0,0,1-4.49,2.86A6.27,6.27,0,0,1,62,97.5c-.7-.8-1.26-.91-2-.44a1.51,1.51,0,0,0-.58,2.1c1.38,3.09,6.16,4.42,9.1,2.5.45-.29.8-.62,1.34-.23a6.25,6.25,0,0,0,5.66.75,5.84,5.84,0,0,0,3.76-2.9A1.58,1.58,0,0,0,78.73,97c-.79-.49-1.39-.34-2.13.68a4.07,4.07,0,0,1-2,1.49,2.77,2.77,0,0,1-3.27-.94,3.66,3.66,0,0,1,.51-4,8.94,8.94,0,0,0,2-2c1.33-2,.33-3.58-1.54-4a11.29,11.29,0,0,0-5.83.07,2.45,2.45,0,0,0-1.48,4,6.11,6.11,0,0,0,1.92,1.8A1.9,1.9,0,0,1,67.89,96Zm-9.5-10a4.12,4.12,0,0,0-.23-1.67A2.86,2.86,0,0,0,55.83,82a2.49,2.49,0,0,0-2.6,1.73,5.23,5.23,0,0,0,.27,5c1.15,1.88,3.08,1.83,4.23-.06A5.16,5.16,0,0,0,58.39,86ZM85,85.81c0-.27,0-.77-.12-1.27a3.19,3.19,0,0,0-2.22-2.43A2.51,2.51,0,0,0,80,83.7a5,5,0,0,0,.18,5.1c1.1,1.85,3.17,1.77,4.28-.06A5.56,5.56,0,0,0,85,85.81Z" transform="translate(-22.87 -23.65)"/><path class="i" d="M26.23,80.89a24.06,24.06,0,0,1,1.09-8c1.22-3.33,3.52-5.54,7.14-6A7.92,7.92,0,0,1,40,68.4c.34.23.39.46.14.87a26.35,26.35,0,0,0-2.88,7.14,29,29,0,0,0-.79,6.44,23.2,23.2,0,0,1-.69,6c-.79,2.58-1.74,3.05-4.23,1.93a8.59,8.59,0,0,1-5.34-8.12C26.21,82.05,26.23,81.47,26.23,80.89Z" transform="translate(-22.87 -23.65)"/><path class="j" d="M87,110.31a22.27,22.27,0,0,0,5.19-4,16.4,16.4,0,0,0,3.91-8.61,79.32,79.32,0,0,0,.72-13.77,31.5,31.5,0,0,0-2.14-11.55c-.62-1.53-1.59-2.88-2.34-4.35A5,5,0,0,0,91,65.93c-.14-.16-.43-.3-.26-.56s.46-.12.69,0c.7.49,1.4.68,2.07,0,.14-.16.36-.23.5,0,.53.76,1.39.55,2.1.71.53.13,1.1.08,1.26-.67.09-.41.46-.47.83-.47.62,0,1.24,0,1.86,0s1.21-.13,1.42-.62c.27-.65.67-.59,1.31-.5-.76.35-.93.74-.13,1.07.32.14.83.2.59.64s-.25,1.14-1,1-1.88.31-2.71-.57c-.48-.51-1.3,0-1.38.78a.72.72,0,0,1-.53.66c-1.22.44-1.49,1-.78,2,.41.58.5,1.28.86,1.87.26.43,0,.93-.35,1.25-.47.48-.45.93,0,1.28a1.9,1.9,0,0,1,.7,1.5,31.18,31.18,0,0,1,.69,3.86,1.57,1.57,0,0,0,.44,1.17c1.1.93,1,2.17.93,3.39,0,1,.17,2-.84,2.7a.71.71,0,0,0-.09,1.13,3.18,3.18,0,0,1,1,2.48c.16,1.84,1.54,2.5,3,3a2.63,2.63,0,0,0,2,.19c.19-.1.47-.23.57.09s-.21.28-.36.38-.42.21-.45.48c-1.31.26-2.61.77-4,.22-.79-.32-1.13-.1-1.25.83-.41,3.11-.74,6.24-2.22,9.09a1.33,1.33,0,0,0,.14,1.33,6.49,6.49,0,0,0,6.18,3.57,5.47,5.47,0,0,0,4.87-3.83A12.65,12.65,0,0,0,108,98.7a40,40,0,0,1-1.59-4.19c.08-.18.28-.46.38-.38.53.39,1.16.15,1.72.37,1.55.61,2.22,2,1.8,4-.3,1.43-.44,2.78,1.08,3.67a.7.7,0,0,1,.32.46,9.31,9.31,0,0,1-.49,4.76c-.16.33-.48.32-.78.38-.66.14-1.41.13-1.53,1.1-.06.42-.56.54-.95.51a7.24,7.24,0,0,0-3,.63,4.81,4.81,0,0,1-5.06-1c-.69-.61-1.36-1.08-2.25-.11a.92.92,0,0,1-1.57-.8c0-.47-.05-.75-.42-.94s-.57.16-.75.38c-.35.39-1,.48-1.09,1.14,0,0-.13.15-.16.13-1.58-.61-1.9.94-2.54,1.65a5.94,5.94,0,0,1-3.55,1.69,6.71,6.71,0,0,0-1.25.17c-.66.29-1-.22-1.15-.66-.22-.61.47-.29.65-.51C86.1,110.78,86.86,111,87,110.31Z" transform="translate(-22.87 -23.65)"/><path class="k" d="M110.59,80.9a10,10,0,0,1-1.49,6.56,7.78,7.78,0,0,1-5.79,3.64,1.43,1.43,0,0,1-1.73-.93,14.48,14.48,0,0,1-1.2-5.5,39.11,39.11,0,0,0-.55-7.41,30.8,30.8,0,0,0-2.58-7.63c-.62-1.18-.6-1.36.61-2,4-2,7.87-.86,10.39,2.89a12.5,12.5,0,0,1,1.93,5.74A28.51,28.51,0,0,1,110.59,80.9Z" transform="translate(-22.87 -23.65)"/><path class="j" d="M42.31,102.9A30.78,30.78,0,0,0,45,106.61a19.62,19.62,0,0,0,8.28,4.94c7,2.26,14.27,2.26,21.53,1.8,1.73-.11,3.44-.45,5.16-.69a7.58,7.58,0,0,0,3.72-.74c.47-.17.77-.28.59.4-.12.48.11.67.54.83.87.34.87.45.13,1a.73.73,0,0,0-.27.61,35,35,0,0,1-9.49,1.93,68.72,68.72,0,0,1-14.48-.1A27.69,27.69,0,0,1,54,115.26a4.3,4.3,0,0,0-2.08-.92,1.6,1.6,0,0,0-1.85.79,36.1,36.1,0,0,0-4.2,8.23c-.13.35,0,.9-.63.63-.44-.2-.75-.57-.37-1.12a10.28,10.28,0,0,0,.53-.91,2.29,2.29,0,0,0,.12-1.57,5.44,5.44,0,0,1,.27-3c.07-.17,0-.44.41-.33.88.22,1.29-.07,1.24-1a3.7,3.7,0,0,1,.63-2.68c.21-.27.5-1-.5-1.12a.73.73,0,0,1-.6-1.11c.14-.3.13-.84-.23-.93-.75-.18-1.3-.26-.79-1.28.12-.24-.65-.54-1-.27-.75.61-1.11.26-1.5-.39-.15-.25-.46-.4-.67-.63a1.41,1.41,0,0,1-.48-1.51,2.88,2.88,0,0,0-.65-2.39c-.2-.28-.36-.62-.05-1S42.07,102.8,42.31,102.9Z" transform="translate(-22.87 -23.65)"/><path class="l" d="M106.38,94.51A40,40,0,0,0,108,98.7a12.65,12.65,0,0,1,.76,6.69,5.47,5.47,0,0,1-4.87,3.83,6.49,6.49,0,0,1-6.18-3.57,1.33,1.33,0,0,1-.14-1.33c1.48-2.85,1.81-6,2.22-9.09.12-.93.46-1.15,1.25-.83,1.36.55,2.66,0,4-.22A1.37,1.37,0,0,1,106.38,94.51Z" transform="translate(-22.87 -23.65)"/><path class="m" d="M35.77,109.27a17.44,17.44,0,0,1-3.23.15c-.14-.06-.27-.14-.41-.19a5,5,0,0,1-3.83-5c0-3.35,1.37-6.3,2.58-9.31.29-.71.85-.72,1.45-.51a5.14,5.14,0,0,0,4.17-.16l.67.1a30.45,30.45,0,0,0,1.09,6.91,9.71,9.71,0,0,0,1.26,3.06,2.85,2.85,0,0,1-.23,1.86A8.81,8.81,0,0,1,35.77,109.27Z" transform="translate(-22.87 -23.65)"/><path class="j" d="M86.53,62.37a34.87,34.87,0,0,0-7.15-3.24,34.52,34.52,0,0,0-7.74-1.43A35.86,35.86,0,0,0,55.93,60a33.85,33.85,0,0,0-4.8,2.35c-.69,0-1.1.48-1.61.82A.81.81,0,0,1,48.3,63c-.37-.5.05-.74.43-1,.89-.55,1.67-1.35,2.89-1,.43.12.59-.27.7-.6.21-.65.6-1,1.29-.78.42.14.51-.13.75-.32,1-.79,1.45-2.06,2.51-2.8.43-.31.73-.73,1.19,0a.51.51,0,0,0,.94-.07c.38-1,1.23-.86,2-1.07s1.87,0,2.67-.6a.54.54,0,0,1,.66,0c1,.89,2.2.56,3.33.6s2.1,0,3.14,0a2.65,2.65,0,0,0,1.85-.5,1.37,1.37,0,0,1,1.44-.14,9,9,0,0,0,3,.64c.08,0,.19,0,.23,0,.86,1,2.2.88,3.23,1.52s2,.93,2.9,1.6c.47.35.94.53,1.15,1.14.13.35.43.67.91.43a.48.48,0,0,1,.55,0c.3.3.54.67,1,.22,0,0,.3.08.39.18a5.28,5.28,0,0,0,3.26,1.58c.18,0,.43,0,.42.26s-.18.24-.31.3a1.26,1.26,0,0,0-.73,1.22c0,.23,0,.5-.24.61s-.47-.2-.64-.37A6.89,6.89,0,0,0,86.53,62.37Z" transform="translate(-22.87 -23.65)"/><path class="j" d="M39.52,104.3a9.71,9.71,0,0,1-1.26-3.06,30.45,30.45,0,0,1-1.09-6.91c0-.93-.53-1.18-1.34-1.14-.43,0-.69-.24-.63-.62a.45.45,0,0,1,.72-.3c.34.18.62.51,1,.06a1.6,1.6,0,0,0,.47-1.48,10.65,10.65,0,0,0-.63-1.62c-.29-.67-.48-1.29.15-1.91A1.37,1.37,0,0,0,37.17,86a12.45,12.45,0,0,1-.12-5,33.42,33.42,0,0,0,.39-3.86,1,1,0,0,1,.39-.69,1.66,1.66,0,0,0,.54-2.14c0-.09-.06-.39.13-.34,1.21.3.68-.65.78-1.1s-.05-.71,0-1a2.41,2.41,0,0,1,.52-1.13c.44-.43.59.28.92.37a3.64,3.64,0,0,1,.67.16c.55.27.84.69.52,1.32a33.42,33.42,0,0,0-1.83,5.35A14.84,14.84,0,0,0,39.78,82c-.08,2.94.06,5.9-.05,8.84-.08,2.1.51,4.1.61,6.18a9.2,9.2,0,0,0,1.09,4.13c.21.37.34.77,0,1s-.5-.23-.73-.4-.51-.51-.79-.34-.17.59-.09.86c.13.43.13.94.59,1.22.31.17.66.33.36.79s-.58.29-.91.1A3,3,0,0,0,39.52,104.3Z" transform="translate(-22.87 -23.65)"/><path class="j" d="M36.5,94.23a5.14,5.14,0,0,1-4.17.16c-.6-.21-1.16-.2-1.45.51-1.21,3-2.6,6-2.58,9.31a5,5,0,0,0,3.83,5c.14,0,.27.13.41.19-.5.64-1.31.86-1.91,1.4s-1.27-.34-1.68-.8-.34-.57-.9-.28c-.75.38-1.21-.33-1.29-.91a9.36,9.36,0,0,1-.15-4.15,5,5,0,0,0-.38-3.15,3.43,3.43,0,0,1,.43-3,2.92,2.92,0,0,0,.88-2.49,2.17,2.17,0,0,1,2.19-2.29A1.89,1.89,0,0,0,31.65,93c.15-.25.4-.47.67-.32a16.11,16.11,0,0,0,3.73,1.08C36.3,93.84,36.47,94,36.5,94.23Z" transform="translate(-22.87 -23.65)"/><path class="j" d="M25.78,81.33c0,1.42,0,2.66,0,3.9a2.16,2.16,0,0,1-.24,1.12.87.87,0,0,1-.93.54c-.47-.08-.66-.41-.71-.91-.21-2,.12-4,0-6a3.26,3.26,0,0,0-.29-1.69c-.12-.2-.27-.52-.06-.64.95-.52.52-1.3.47-2s-.58-1.71.38-1.86c.73-.12.67,1,.89,1.64C26,77.4,25.73,79.46,25.78,81.33Z" transform="translate(-22.87 -23.65)"/><path class="j" d="M90.08,119.91q-1.41-2.43-2.81-4.86c.15-.45-.94-1,.12-1.37.46-.15.89-.75,1.36-.4a2,2,0,0,1,.94,1.88c-.11.72-.12,1.27.62,1.66.3.16.19.55.24.86a10.21,10.21,0,0,0,.94,2.3,8.68,8.68,0,0,1,.64,3.34c0,.07-.16.13-.24.19a.91.91,0,0,1-.17-.28c-.13-.93-.82-1.65-1-2.57A1.09,1.09,0,0,0,90.08,119.91Z" transform="translate(-22.87 -23.65)"/><path class="j" d="M35.77,109.27a8.81,8.81,0,0,0,3.52-3.11c.13-.06.32-.08.4-.18.25-.32.46-.68.9-.26a.86.86,0,0,1,.18,1.25c-.58.61-1,1.45-2.06,1.51-.62,0-1,.29-.68,1,.19.47,0,.71-.42.94a2.66,2.66,0,0,1-1.15.46c-.55,0-1.31.5-1.56-.12C34.71,110.27,35.27,109.65,35.77,109.27Z" transform="translate(-22.87 -23.65)"/><path class="n" d="M86.82,41.83c-1.44-.63-2.88-1.25-4.31-1.9-.66-.31-1.45-.32-2-.88A13.84,13.84,0,0,1,85,40.68,3.6,3.6,0,0,1,86.82,41.83Z" transform="translate(-22.87 -23.65)"/><path class="j" d="M93.32,129.25c0-.86-.83-1.47-.68-2.37,0-.17-.1-.42.14-.49s.33.16.45.3a1.82,1.82,0,0,1,.09,2.55Z" transform="translate(-22.87 -23.65)"/><path class="o" d="M115.71,29.39c0,1.93,0,2-1.88,2.43s-4.08.78-6.12,1.19c-1.16.23-2.32.52-3.48.79-1,.23-1.17.1-1.27-.89a5.62,5.62,0,0,1,0-.58c.1-3.25-.24-2.29,2.65-3,1.89-.5,3.85-.75,5.75-1.18,1-.23,2-.35,3.06-.64s1.3-.14,1.31,1.12Z" transform="translate(-22.87 -23.65)"/><path class="p" d="M97.83,46.23c1.71,0,2.23.77,1.61,2.26A2.41,2.41,0,0,1,97,50.31c-.78,0-1.5-.18-1.78-1a2.6,2.6,0,0,1,1.16-2.79A2.7,2.7,0,0,1,97.83,46.23Z" transform="translate(-22.87 -23.65)"/><path class="q" d="M113.81,44.21c1.25,0,1.83.37,1.92,1.21a2.76,2.76,0,0,1-1.85,2.51,2.47,2.47,0,0,1-2.65-.65c-.29-.54.23-1.91,1-2.55A2,2,0,0,1,113.81,44.21Z" transform="translate(-22.87 -23.65)"/><path class="r" d="M122.72,71.18a2.54,2.54,0,0,1-2.24,2.3c-.88,0-1.35-.92-1-1.88a2.45,2.45,0,0,1,2.61-1.24A.72.72,0,0,1,122.72,71.18Z" transform="translate(-22.87 -23.65)"/><path class="s" d="M67.89,96a1.9,1.9,0,0,0-1-2.06,6.11,6.11,0,0,1-1.92-1.8,2.45,2.45,0,0,1,1.48-4,11.29,11.29,0,0,1,5.83-.07c1.87.47,2.87,2,1.54,4a8.94,8.94,0,0,1-2,2,3.66,3.66,0,0,0-.51,4,2.77,2.77,0,0,0,3.27.94,4.07,4.07,0,0,0,2-1.49c.74-1,1.34-1.17,2.13-.68a1.58,1.58,0,0,1,.52,2.32,5.84,5.84,0,0,1-3.76,2.9,6.25,6.25,0,0,1-5.66-.75c-.54-.39-.89-.06-1.34.23-2.94,1.92-7.72.59-9.1-2.5a1.51,1.51,0,0,1,.58-2.1c.76-.47,1.32-.36,2,.44a6.27,6.27,0,0,0,1.41,1.36A2.86,2.86,0,0,0,67.89,96Z" transform="translate(-22.87 -23.65)"/><path class="t" d="M58.39,86a5.16,5.16,0,0,1-.66,2.71c-1.15,1.89-3.08,1.94-4.23.06a5.23,5.23,0,0,1-.27-5A2.49,2.49,0,0,1,55.83,82a2.86,2.86,0,0,1,2.33,2.29A4.12,4.12,0,0,1,58.39,86Z" transform="translate(-22.87 -23.65)"/><path class="u" d="M85,85.81a5.56,5.56,0,0,1-.57,2.93c-1.11,1.83-3.18,1.91-4.28.06A5,5,0,0,1,80,83.7a2.51,2.51,0,0,1,2.69-1.59,3.19,3.19,0,0,1,2.22,2.43C85,85,85,85.54,85,85.81Z" transform="translate(-22.87 -23.65)"/></svg>