<svg xmlns="http://www.w3.org/2000/svg" viewBox="0 0 86.28 103.62"><defs><style>.a{fill:#ada3a6;}.b{fill:#a1999b;}.c{fill:#c5c2c2;}.d{fill:#c1bfbf;}.e{fill:#ada7a7;}.f{fill:#846f74;}.g{fill:#b6dee8;}.h{fill:#b7dfea;}.i{fill:#bfa397;}.j{fill:#b89e93;}.k{fill:#bda398;}.l{fill:#9399a1;}.m{fill:#b0bcc1;}.n{fill:#a4b5b8;}.o{fill:#bea397;}.p{fill:#919a9a;}.q{fill:#b89d94;}.r{fill:#f0cdb7;}.s{fill:#b2e0e7;}.t{fill:#b4e0e8;}.u{fill:#84706e;}.v{fill:#85716f;}.w{fill:#c3a89c;}.x{fill:#b0958c;}.y{fill:#bc9c94;}.z{fill:#caada8;}.aa{fill:#c2a69e;}.ab{fill:#866f73;}</style></defs><path class="a" d="M32.74,37.65A5.34,5.34,0,0,1,34,35.37a17.68,17.68,0,0,1,4.53-4.18,50.41,50.41,0,0,1,5.58-3.59,32.94,32.94,0,0,1,6.8-3.26,9,9,0,0,1,5.94.11,9.71,9.71,0,0,1,2.49,1.36,1.28,1.28,0,0,0,1.33.11c.46-.17,1-.28,1.39-.46a27.79,27.79,0,0,1,7.21-1.68,27.26,27.26,0,0,1,7-.37c1.9.28,3.81.19,5.71.61,1.56.34,3.09.79,4.65,1.12a4.47,4.47,0,0,1,1.49.59c.41.28.91.19,1.29.5.18.15.32-.08.45-.19a10.79,10.79,0,0,1,3.21-1.79A4.53,4.53,0,0,1,94.3,24a11.83,11.83,0,0,1,5.92.86c1.46.62,2.86,1.37,4.26,2.1a45.37,45.37,0,0,1,4.76,2.89c1.19.82,2.4,1.61,3.51,2.53a14.89,14.89,0,0,1,4.32,5.28,11.57,11.57,0,0,1,.8,5.83,6.69,6.69,0,0,1-.48,1.62,17.75,17.75,0,0,1-3,5.52,10.67,10.67,0,0,1-5.18,3.63,4.85,4.85,0,0,1-1.47.12c-.4,0-.56.14-.46.57a34.07,34.07,0,0,1,.38,7.68,14.2,14.2,0,0,1-1,4.82,16.11,16.11,0,0,1-5.44,7.81c-.72.62-.66.61-.24,1.44s1.07,1.93,1.59,2.9,1.08,2.22,1.56,3.34a18,18,0,0,1,1.33,3.86c.16.89.29,1.79.5,2.65a12.13,12.13,0,0,1-.07,5.16c-.19,1,0,1.19,1,1.39a6.24,6.24,0,0,1,1.8.44,2.74,2.74,0,0,1,1.47,1.39,19.11,19.11,0,0,1,.83,2.56,8.82,8.82,0,0,0,.72,2.27,7.24,7.24,0,0,1,.51,1.76,34.63,34.63,0,0,1,1,3.78,12.54,12.54,0,0,0,.52,1.53c.35,1.34.78,2.66,1.24,4,.14.39,0,.83.25,1.19l.15.77a.75.75,0,0,1-.4-.55c-.26-1.12-.66-2.2-.91-3.31s-1.1-2.32-1-3.65a.21.21,0,0,0,0-.07,15.53,15.53,0,0,1-.89-2.91c-.32-1.13-.67-2.27-1.06-3.37-.28-.78-.35-1.58-.63-2.35-.34-.93-.43-2-1.47-2.51a6.72,6.72,0,0,0-2.85-.79c-.76,0-1-.37-.69-1.05a4.34,4.34,0,0,0,.32-1.59,22,22,0,0,0-.92-7.8c-.49-1.5-1.09-3-1.72-4.41a53.76,53.76,0,0,0-2.74-5c-.23-.41-.18-.58.1-.82a4.59,4.59,0,0,1,.41-.36,13.13,13.13,0,0,0,4-4.71,22.86,22.86,0,0,0,1.83-4.39c.25-.86.29-1.72.47-2.58a16.68,16.68,0,0,0,0-6c-.14-.84,0-1.7-.24-2.54-.1-.41.1-.65.58-.71a8.59,8.59,0,0,0,3-.81,13,13,0,0,0,5.34-5.53c.49-.85.73-1.82,1.14-2.69a8.76,8.76,0,0,0-.36-7.68,16.13,16.13,0,0,0-5.21-5.74c-1.31-1-2.69-1.88-4.08-2.74a42.06,42.06,0,0,0-4.07-2.31,26.86,26.86,0,0,0-3.53-1.63,8.61,8.61,0,0,0-3.32-.8,9,9,0,0,1-1.87,0,4.84,4.84,0,0,0-2.26.63A7.65,7.65,0,0,0,90,26.43c-.23.2-.49.29-.71.11a6.52,6.52,0,0,0-1.71-.71,5.26,5.26,0,0,0-1.59-.58,17.6,17.6,0,0,1-2.6-.63,13.38,13.38,0,0,0-2.27-.34,1.16,1.16,0,0,1-.53-.07,3.59,3.59,0,0,0-1.79-.38c-2.6,0-5.2,0-7.8,0a4.11,4.11,0,0,0-1.45.2c-1.1.41-2.34,0-3.38.72a.64.64,0,0,1-.31,0c-1-.09-1.74.58-2.68.59-.3,0-.53.36-.91.36a3.16,3.16,0,0,0-1.78.66.72.72,0,0,1-1,0,5.84,5.84,0,0,0-1.9-1.28,6.11,6.11,0,0,0-2.66-.78c-1.32.1-2.63-.14-4,.39-1,.4-2,.79-3,1.24S45.79,27,44.74,27.6s-2.36,1.3-3.49,2-2.52,1.71-3.73,2.65a16.19,16.19,0,0,0-4,4.26c-.27.43-.36,1-.76,1.33Z" transform="translate(-31.65 -23.28)"/><path class="b" d="M35.87,124.9a3.2,3.2,0,0,1-2.22-2.26,22.22,22.22,0,0,1-.4-2.68c-.23-1.22.35-2.32.6-3.47.29-1.33.84-2.57,1.16-3.9s.83-2.64,1.26-4c.18-.54.27-1.09.46-1.63.47-1.3.73-2.67,1.17-4a46.52,46.52,0,0,1,1.74-5.36c.49-1,1.44-1.24,2.39-1.48a7.48,7.48,0,0,0,1.34-.33.72.72,0,0,0,.43-1.06,10.9,10.9,0,0,1-.35-4.91,24.14,24.14,0,0,1,2-7.35,32.63,32.63,0,0,1,3-5.73c.6-.91.58-.89-.21-1.66-.45-.43-1-.73-1.45-1.17a17.17,17.17,0,0,1-3.85-6,20.74,20.74,0,0,1-1.25-5.55,38.91,38.91,0,0,1,0-4.83c0-.94.49-1.8.46-2.75h.16c-.06.85,0,1.7-.13,2.56a9.11,9.11,0,0,0-.35,2.14,36.51,36.51,0,0,0,.78,6.33c.24.86.54,1.69.83,2.52a26,26,0,0,0,1.47,2.76,6.11,6.11,0,0,0,1.21,1.7,28.19,28.19,0,0,0,2.8,2.43c.42.28.51.63.15,1.11a29.5,29.5,0,0,0-2.12,3.76,24.8,24.8,0,0,0-1.22,2.55c-.41,1-.78,2-1.09,3.09-.24.81-.35,1.66-.57,2.46a17.58,17.58,0,0,0-.37,4.39,1.59,1.59,0,0,0,.13.68,4.69,4.69,0,0,1,.34,1.74c0,1.07-.08,1.22-1.18,1.24a6,6,0,0,0-2,.55,2.23,2.23,0,0,0-1.26,1.2,15.84,15.84,0,0,0-.45,1.7c-.65,1.93-1.28,3.86-1.76,5.85a10.61,10.61,0,0,1-.51,1.9,18.11,18.11,0,0,0-.83,2.52c-.38,1.25-.83,2.47-1.2,3.72a5.56,5.56,0,0,1-.32,1.41,10.74,10.74,0,0,0-.81,2.73c-.4,1.46.14,2.93,0,4.4a.88.88,0,0,0,.12.44,3.83,3.83,0,0,0,2.38,2.14Z" transform="translate(-31.65 -23.28)"/><path class="c" d="M115.39,115.69l-.15-.77a.35.35,0,0,1,.27.25c.42,1.7,1.11,3.36.82,5.15-.17,1.06.06,2.2-.64,3.15a4.59,4.59,0,0,1-2.11,1.59,7.74,7.74,0,0,1-3,.28c-6.47,0-12.94,0-19.41,0-2,0-4,0-6.06-.16-1-.05-2-.07-3-.12a3,3,0,0,0-1.75.45A9.8,9.8,0,0,1,74,126.83c-.9-.11-1.78-.25-2.66-.43a5.09,5.09,0,0,1-1.18-.56l.23,0c.53-.06.89.36,1.37.46a16.74,16.74,0,0,0,3.93.37,10,10,0,0,0,4.68-1.44,2.25,2.25,0,0,1,1.15-.33c10.36,0,20.72,0,31.08.08a3.87,3.87,0,0,0,3.42-3.37c0-1.09,0-2.18,0-3.27a1.41,1.41,0,0,0-.13-.76A5.41,5.41,0,0,1,115.39,115.69Z" transform="translate(-31.65 -23.28)"/><path class="d" d="M70.38,125.8l-.23,0c-.05,0-.12,0-.15,0a4.83,4.83,0,0,0-3.29-.8c-2.1,0-4.2.12-6.29.2-6.09.24-12.19.06-18.28.12-1.35,0-2.7,0-4,0a4.14,4.14,0,0,1-2.22-.46l.49,0,.85,0q15.24,0,30.49-.05A4.12,4.12,0,0,1,70.38,125.8Z" transform="translate(-31.65 -23.28)"/><path class="e" d="M42.29,54.86h-.16a.47.47,0,0,0-.52-.46,7.77,7.77,0,0,1-5-2.36,15.6,15.6,0,0,1-3.73-5.44A11.41,11.41,0,0,1,31.69,41a7.37,7.37,0,0,1,1.05-3.33l0,.22a1,1,0,0,1,0,.24A8.12,8.12,0,0,0,32,41.9c.05.64.16,1.25.27,1.88a15.29,15.29,0,0,0,1.81,4.62,12.54,12.54,0,0,0,3.4,4.06,7.49,7.49,0,0,0,2.77,1.4,11.8,11.8,0,0,0,1.66.4C42.14,54.28,42.55,54.4,42.29,54.86Z" transform="translate(-31.65 -23.28)"/><path class="f" d="M42.29,54.86c.26-.46-.15-.58-.4-.6a11.8,11.8,0,0,1-1.66-.4,7.49,7.49,0,0,1-2.77-1.4,12.54,12.54,0,0,1-3.4-4.06,15.29,15.29,0,0,1-1.81-4.62c-.11-.63-.22-1.24-.27-1.88a8.12,8.12,0,0,1,.78-3.79,1,1,0,0,0,0-.24c.4-.36.49-.9.76-1.33a16.19,16.19,0,0,1,4-4.26q1.81-1.41,3.73-2.65c1.13-.73,2.32-1.37,3.49-2s2.09-1.18,3.17-1.68,2-.84,3-1.24c1.34-.53,2.65-.29,4-.39a6.11,6.11,0,0,1,2.66.78,5.84,5.84,0,0,1,1.9,1.28.72.72,0,0,0,1,0,3.16,3.16,0,0,1,1.78-.66c.38,0,.61-.36.91-.36.94,0,1.73-.68,2.68-.59a.64.64,0,0,0,.31,0c1-.67,2.28-.31,3.38-.72a4.11,4.11,0,0,1,1.45-.2c2.6,0,5.2,0,7.8,0a3.59,3.59,0,0,1,1.79.38,1.16,1.16,0,0,0,.53.07,13.38,13.38,0,0,1,2.27.34,17.6,17.6,0,0,0,2.6.63,5.26,5.26,0,0,1,1.59.58,6.52,6.52,0,0,1,1.71.71c.22.18.48.09.71-.11a7.65,7.65,0,0,1,2.37-1.53,4.84,4.84,0,0,1,2.26-.63,9,9,0,0,0,1.87,0,8.61,8.61,0,0,1,3.32.8,26.86,26.86,0,0,1,3.53,1.63A42.06,42.06,0,0,1,107.37,29c1.39.86,2.77,1.76,4.08,2.74a16.13,16.13,0,0,1,5.21,5.74,8.76,8.76,0,0,1,.36,7.68c-.41.87-.65,1.84-1.14,2.69a13,13,0,0,1-5.34,5.53,8.59,8.59,0,0,1-3,.81c-.48.06-.68.3-.58.71.2.84.1,1.7.24,2.54a16.68,16.68,0,0,1,0,6c-.18.86-.22,1.72-.47,2.58a22.86,22.86,0,0,1-1.83,4.39,13.13,13.13,0,0,1-4,4.71,4.59,4.59,0,0,0-.41.36c-.28.24-.33.41-.1.82a53.76,53.76,0,0,1,2.74,5c.63,1.45,1.23,2.91,1.72,4.41a22,22,0,0,1,.92,7.8,4.34,4.34,0,0,1-.32,1.59c-.29.68-.07,1.05.69,1.05A6.72,6.72,0,0,1,109,97c1,.51,1.13,1.58,1.47,2.51.28.77.35,1.57.63,2.35.39,1.1.74,2.24,1.06,3.37a15.53,15.53,0,0,0,.89,2.91.21.21,0,0,1,0,.07c0,1.33.76,2.41,1,3.65s.65,2.19.91,3.31a.75.75,0,0,0,.4.55,5.41,5.41,0,0,0,.5,1.85,1.41,1.41,0,0,1,.13.76c0,1.09,0,2.18,0,3.27a3.87,3.87,0,0,1-3.42,3.37c-10.36-.1-20.72-.07-31.08-.08a2.25,2.25,0,0,0-1.15.33,10,10,0,0,1-4.68,1.44,16.74,16.74,0,0,1-3.93-.37c-.48-.1-.84-.52-1.37-.46a4.12,4.12,0,0,0-2.68-1q-15.24.06-30.49.05l-.85,0A3.83,3.83,0,0,1,34,122.74a.88.88,0,0,1-.12-.44c.13-1.47-.41-2.94,0-4.4a10.74,10.74,0,0,1,.81-2.73,5.56,5.56,0,0,0,.32-1.41c.37-1.25.82-2.47,1.2-3.72a18.11,18.11,0,0,1,.83-2.52,10.61,10.61,0,0,0,.51-1.9c.48-2,1.11-3.92,1.76-5.85a15.84,15.84,0,0,1,.45-1.7A2.23,2.23,0,0,1,41,96.87a6,6,0,0,1,2-.55c1.1,0,1.19-.17,1.18-1.24a4.69,4.69,0,0,0-.34-1.74,1.59,1.59,0,0,1-.13-.68,17.58,17.58,0,0,1,.37-4.39c.22-.8.33-1.65.57-2.46.31-1,.68-2.08,1.09-3.09a24.8,24.8,0,0,1,1.22-2.55,29.5,29.5,0,0,1,2.12-3.76c.36-.48.27-.83-.15-1.11a28.19,28.19,0,0,1-2.8-2.43,6.11,6.11,0,0,1-1.21-1.7,26,26,0,0,1-1.47-2.76c-.29-.83-.59-1.66-.83-2.52a36.51,36.51,0,0,1-.78-6.33,9.11,9.11,0,0,1,.35-2.14C42.27,56.56,42.23,55.71,42.29,54.86Zm62.8-4.65c.22.39.67.43,1,.63a3.39,3.39,0,0,0,3.7-.64,6.06,6.06,0,0,0,2.62-2.56,15.31,15.31,0,0,0,2-4.65,6.17,6.17,0,0,0-.8-4.71,13.34,13.34,0,0,0-3.35-3.52,45.87,45.87,0,0,0-6.63-4.39,35.74,35.74,0,0,0-5.72-2.82,6.86,6.86,0,0,0-4.25.13,4,4,0,0,0-2,1.65,1.64,1.64,0,0,1-2.09.67,30,30,0,0,0-4.39-1.81A26.62,26.62,0,0,0,80.35,27a29.44,29.44,0,0,0-4-.36,32.26,32.26,0,0,0-8.37.73c-.4.1-.89-.07-1.23.1a24.26,24.26,0,0,1-2.64.79,33.8,33.8,0,0,0-3.43,1.28,4.53,4.53,0,0,1-1.11.53,1.86,1.86,0,0,1-2-1.06,3.35,3.35,0,0,0-2.37-1.57,8.23,8.23,0,0,0-5.67,1,6.38,6.38,0,0,1-1.26.72,41,41,0,0,0-3.85,2.12,33.94,33.94,0,0,0-4.68,3.11,13.68,13.68,0,0,0-4.09,4.53c-.22.42-.2.9-.39,1.33a3.77,3.77,0,0,0-.08,2.5c.21.78.48,1.56.74,2.33a13.51,13.51,0,0,0,1.77,3.21,6.37,6.37,0,0,0,3.38,2.57,3.24,3.24,0,0,0,3.4-.68.78.78,0,0,0,.4-.21,15.46,15.46,0,0,0,3-3.3,36.61,36.61,0,0,0,2.27-4.29c.61-1.29,1-2.64,1.51-4,.31-.81.53-1.64.77-2.48a3,3,0,0,1,.67-1.21,1.52,1.52,0,0,1,1.67-.23,1.06,1.06,0,0,1,.76,1.14,10.06,10.06,0,0,1-.29,1.88A31,31,0,0,1,54,41.24a35.08,35.08,0,0,1-2.19,4.9A21.19,21.19,0,0,1,46.25,53a1.17,1.17,0,0,0-.55,1.13,1,1,0,0,1,0,.46A13.93,13.93,0,0,0,45,58.81a16.67,16.67,0,0,0,.79,7.24c.24.65.5,1.29.8,1.91a13.89,13.89,0,0,0,1.69,2.59,15.21,15.21,0,0,0,3.06,2.83c.9.66,1.92,1.15,2.87,1.74a10.51,10.51,0,0,0,2.37,1,10.51,10.51,0,0,0,2.32.58,1.48,1.48,0,0,1,1.21.88c.4.78.06,1.83-1,1.75A9.65,9.65,0,0,1,56.3,79a13.34,13.34,0,0,1-3.43-1.41.88.88,0,0,0-1.27.35c-.19.41-.47.74-.69,1.12a41.11,41.11,0,0,0-2.5,5,29,29,0,0,0-1.22,3.73,15.23,15.23,0,0,0-.47,2.56c-.31,3.43.6,6.28,3.44,8.42a12.34,12.34,0,0,0,4.63,2,8.2,8.2,0,0,0,5.54-.79,4.41,4.41,0,0,0,2.33-3.13,4.49,4.49,0,0,0-1.25-4,6.85,6.85,0,0,0-2.88-1.88c-.76-.31-1.45-1.23-1.23-1.8a1.64,1.64,0,0,1,2.47-1.05A10.91,10.91,0,0,1,64.57,92a.37.37,0,0,0,0,.15,8.49,8.49,0,0,1,1,2.82.45.45,0,0,0,.42.41c.71-.06,1.3.48,2,.37a1.52,1.52,0,0,1,.84.13,26.83,26.83,0,0,1,3.53,1.42,6.54,6.54,0,0,1,1.82,1.11c.34.39.67.27,1,0a12.87,12.87,0,0,1,3.64-1.93,8,8,0,0,1,3-.77,4.51,4.51,0,0,0,2-.48,1.2,1.2,0,0,0,.46-.78,5.2,5.2,0,0,1,1.53-3.28,10.18,10.18,0,0,1,4.06-3.1,1,1,0,0,1,.28-.12,2,2,0,0,1,1.43.09,1.62,1.62,0,0,1-.43,2.84A7.21,7.21,0,0,0,88,93.15a4.63,4.63,0,0,0-1,3.62,3.53,3.53,0,0,0,1.67,2.7,8.84,8.84,0,0,0,2.61,1.1,8.58,8.58,0,0,0,5.44-.36,9.07,9.07,0,0,0,3.4-2,7.12,7.12,0,0,0,2.3-3.68A9.38,9.38,0,0,0,102.6,90a14.28,14.28,0,0,0-.21-1.77c-.33-.8-.38-1.67-.79-2.47s-.53-1.7-1-2.47c.05-.44-.3-.7-.46-1A22.62,22.62,0,0,0,97.72,78a.62.62,0,0,0-.93-.23,9.18,9.18,0,0,1-1.4.62,17.13,17.13,0,0,1-4.3,1.12c-1.12.1-2-.59-1.7-1.6a1.69,1.69,0,0,1,1.37-1.14,26.59,26.59,0,0,0,4.07-1.35,17.93,17.93,0,0,0,5-3.31,13.41,13.41,0,0,0,2.87-4,15.27,15.27,0,0,0,1.65-5.42,39.53,39.53,0,0,0,0-4.49,2.38,2.38,0,0,0,0-.93c-.55-1.17-.32-2.48-.75-3.67a1.61,1.61,0,0,0-.43-.69A20.72,20.72,0,0,1,100,49.57a28.17,28.17,0,0,1-3.24-5.64c-.42-1-.87-2-1.24-3s-.59-2.18-1-3.21a6.74,6.74,0,0,1-.38-2,1.21,1.21,0,0,1,.81-1.28,1.53,1.53,0,0,1,1.74.51,5.87,5.87,0,0,1,.64,1.48,29,29,0,0,0,1.07,3.35,36,36,0,0,0,2.29,5.12,13.75,13.75,0,0,0,2.15,3.1A5.74,5.74,0,0,0,105.09,50.21ZM100,102.1a1.24,1.24,0,0,0-.63.25,9.45,9.45,0,0,1-3.23,1.14,19.24,19.24,0,0,0-2,.28,2,2,0,0,1-.77,0,20.44,20.44,0,0,1-4.25-.73,8.46,8.46,0,0,1-1.52-.71A9,9,0,0,1,84.41,99a.78.78,0,0,0-1-.48c-.7.22-1.43.24-2.11.44A18.05,18.05,0,0,0,78,100.28c-.79.42-1.64.9-1.59,2,.06,1.74-.17,3.47-.16,5.21,0,1.4.12,2.79.14,4.19,0,2.32,0,4.63,0,6.94,0,.71.11.73.77.47a6.83,6.83,0,0,0,1-.64,27.06,27.06,0,0,0,2.55-1.36,1.51,1.51,0,0,0,.53-.07,24.4,24.4,0,0,1,2.6-.93c.71-.27,1.47-.28,2.15-.54a4.51,4.51,0,0,1,1.65-.34,5.1,5.1,0,0,0,1.23-.09,11.79,11.79,0,0,1,3.07-.38c2.73,0,5.45,0,8.18,0a1.82,1.82,0,0,1,.62,0c1.56.61,3.25.49,4.87.81a41.47,41.47,0,0,1,5.72,1.39c.27.09.59.19.8-.06a.66.66,0,0,0,0-.74,14.89,14.89,0,0,1-.79-2.56,21.69,21.69,0,0,1-.74-2.41c-.28-1.31-.81-2.54-1.15-3.83-.2-.73-.43-1.47-.65-2.2-.45-1.49-.85-3-1.27-4.5a1.74,1.74,0,0,0-1.55-1.42,4.29,4.29,0,0,1-1-.28,1.66,1.66,0,0,0-2,.43c-.87.86-1.55,2-2.8,2.37C100.09,101.85,100,102,100,102.1ZM52,103c-.33-.36-.82-.4-1.22-.61a16,16,0,0,1-4.3-3.09A1.53,1.53,0,0,0,44.49,99a4,4,0,0,1-1,.27c-1,.11-1.46.52-1.47,1.48a8.59,8.59,0,0,1-.6,2.21,20.83,20.83,0,0,0-.83,3,.7.7,0,0,1-.22.48,1,1,0,0,0-.25.71,6.82,6.82,0,0,1-.67,2.18c-.29.68-.37,1.41-.65,2.09a25.76,25.76,0,0,0-.92,2.94,9.74,9.74,0,0,0-.56,1.91c0,.73.36,1,1,.72a5,5,0,0,1,1.64-.39,1.23,1.23,0,0,0,.44-.1,8.67,8.67,0,0,1,3-.64,14.25,14.25,0,0,0,2.82-.65l1.38,0c.85.17,1.6-.33,2.44-.32,3,0,6.06,0,9.09,0a5.26,5.26,0,0,0,2.22.32,2.1,2.1,0,0,1,1.06.16c1.37.61,2.9.6,4.31,1.15a25.8,25.8,0,0,0,2.91,1.21,11,11,0,0,1,2.22,1.17c1.25.65,1.46.55,1.46-.92,0-5.23,0-10.45,0-15.67a1.43,1.43,0,0,0-.51-1.25,15.2,15.2,0,0,0-2-1.27c-1.29-.62-2.72-.86-4-1.36-.73-.27-1.69,0-1.76.5a3.41,3.41,0,0,1-1,1.68,7.39,7.39,0,0,1-4.47,2.69,17.27,17.27,0,0,1-5,.12A11.13,11.13,0,0,0,52,103Zm57.11,18.69c.86-.06,2,.08,3.09-.09.47-.07.59-.29.61-.71s-.2-.66-.63-.71a1.83,1.83,0,0,1-.53-.07,21.08,21.08,0,0,0-4.24-1.13,41.06,41.06,0,0,0-6.72-1.06,17.3,17.3,0,0,1-2.86-.22,16,16,0,0,0-4.26-.13c-1.36.08-2.71.39-4.08.4a14.13,14.13,0,0,0-3.19.57,17.84,17.84,0,0,0-3.77,1.28l-2.69,1.33c-.12.06-.24.13-.19.3s.16.11.26.12h.39c5.08,0,10.17,0,15.25.09C100,121.8,104.38,121.73,109.07,121.73Zm-48-.1h7.63c.34,0,.67.05,1,.05a.26.26,0,0,0,.27-.23c0-.12-.11-.15-.2-.2a26,26,0,0,0-4-1.89,23.33,23.33,0,0,0-3.75-1c-2.29-.44-4.62-.49-6.93-.74-1.76-.19-3.49.35-5.24.4a46,46,0,0,0-7.92,1.24c-1.46.3-2.91.67-4.36,1-.74.17-.9.52-.5,1.15.19.3.48.25.76.25,3.4,0,6.8-.06,10.2.1,1.7.08,3.42,0,5.13-.07C55.76,121.57,58.41,121.63,61.06,121.63Z" transform="translate(-31.65 -23.28)"/><path class="g" d="M109.07,121.73c-4.69,0-9.12.07-13.56,0-5.08-.1-10.17-.06-15.25-.09h-.39c-.1,0-.22,0-.26-.12s.07-.24.19-.3l2.69-1.33a17.84,17.84,0,0,1,3.77-1.28,14.13,14.13,0,0,1,3.19-.57c1.37,0,2.72-.32,4.08-.4a16,16,0,0,1,4.26.13,17.3,17.3,0,0,0,2.86.22,41.06,41.06,0,0,1,6.72,1.06,21.08,21.08,0,0,1,4.24,1.13,1.83,1.83,0,0,0,.53.07c.43,0,.66.24.63.71s-.14.64-.61.71C111,121.81,109.93,121.67,109.07,121.73Z" transform="translate(-31.65 -23.28)"/><path class="h" d="M61.06,121.63c-2.65,0-5.3-.06-7.94,0-1.71,0-3.43.15-5.13.07-3.4-.16-6.8,0-10.2-.1-.28,0-.57,0-.76-.25-.4-.63-.24-1,.5-1.15,1.45-.33,2.9-.7,4.36-1A46,46,0,0,1,49.81,118c1.75,0,3.48-.59,5.24-.4,2.31.25,4.64.3,6.93.74a23.33,23.33,0,0,1,3.75,1,26,26,0,0,1,4,1.89c.09,0,.21.08.2.2a.26.26,0,0,1-.27.23c-.34,0-.67-.05-1-.05Z" transform="translate(-31.65 -23.28)"/><path class="i" d="M64.57,92a10.91,10.91,0,0,0-4.8-3.91,1.64,1.64,0,0,0-2.47,1.05c-.22.57.47,1.49,1.23,1.8a6.85,6.85,0,0,1,2.88,1.88,4.49,4.49,0,0,1,1.25,4,4.41,4.41,0,0,1-2.33,3.13,8.2,8.2,0,0,1-5.54.79,12.34,12.34,0,0,1-4.63-2c-2.84-2.14-3.75-5-3.44-8.42a15.23,15.23,0,0,1,.47-2.56A29,29,0,0,1,48.41,84a41.11,41.11,0,0,1,2.5-5c.22-.38.5-.71.69-1.12a.88.88,0,0,1,1.27-.35A13.34,13.34,0,0,0,56.3,79a9.65,9.65,0,0,0,2.81.37c1,.08,1.37-1,1-1.75a1.48,1.48,0,0,0-1.21-.88,10.51,10.51,0,0,1-2.32-.58,10.51,10.51,0,0,1-2.37-1c-1-.59-2-1.08-2.87-1.74a15.21,15.21,0,0,1-3.06-2.83A13.89,13.89,0,0,1,46.56,68c-.3-.62-.56-1.26-.8-1.91A16.67,16.67,0,0,1,45,58.81a13.93,13.93,0,0,1,.69-4.23,1,1,0,0,0,0-.46A1.17,1.17,0,0,1,46.25,53a21.19,21.19,0,0,0,5.58-6.85A35.08,35.08,0,0,0,54,41.24a31,31,0,0,0,1.24-3.71,10.06,10.06,0,0,0,.29-1.88,1.06,1.06,0,0,0-.76-1.14,1.52,1.52,0,0,0-1.67.23A3,3,0,0,0,52.45,36c-.24.84-.46,1.67-.77,2.48-.5,1.33-.9,2.68-1.51,4a36.61,36.61,0,0,1-2.27,4.29,15.46,15.46,0,0,1-3,3.3.78.78,0,0,1-.4.21l-.19,0a15.83,15.83,0,0,0,3.9-4.57A35.41,35.41,0,0,0,50.06,42c.54-1.25,1-2.52,1.43-3.8.33-.93.5-1.91.89-2.82A2.18,2.18,0,0,1,54.25,34a2.1,2.1,0,0,1,1.49,1.22,3.09,3.09,0,0,1-.15,2.28,13.5,13.5,0,0,0-.75,2.25,44.14,44.14,0,0,1-1.58,4.2,30,30,0,0,1-2.91,5.15,17.63,17.63,0,0,1-3.82,4,1.34,1.34,0,0,0-.63,1.09,21,21,0,0,1-.41,2.5,28.18,28.18,0,0,0-.05,6.49,5.62,5.62,0,0,0,.22,1.68c.29.66.55,1.34.77,2a11.85,11.85,0,0,0,2.48,4,15.52,15.52,0,0,0,4,3.12,16.76,16.76,0,0,0,4.78,2.11,7.54,7.54,0,0,0,1.94.47c.1,0,.21.13.32.21.72.53.75,1.16.47,2.24a1.83,1.83,0,0,1-1.61.76c-.76-.19-1.58-.13-2.28-.36a16.52,16.52,0,0,1-3.79-1.58c-.41-.25-.65-.19-.85.24-.42.86-1.11,1.55-1.47,2.44-.52,1.28-1.33,2.42-1.76,3.77-.31,1-.64,1.94-.95,2.91a12.57,12.57,0,0,0-.7,3.53,11.21,11.21,0,0,0,.21,2.75,11.79,11.79,0,0,0,.88,2.42,7,7,0,0,0,3.5,3.34,7.47,7.47,0,0,0,2.41.93,15.5,15.5,0,0,0,4.25.09,5,5,0,0,0,3.56-2.14,3.67,3.67,0,0,0,.32-3.69,5.22,5.22,0,0,0-2.91-2.87A13,13,0,0,1,58,91a1.53,1.53,0,0,1-.87-1.38c0-1.52.87-2.21,2.28-1.89a9,9,0,0,1,4,2.42A3.84,3.84,0,0,1,64.73,92Z" transform="translate(-31.65 -23.28)"/><path class="j" d="M44.3,50.18l.19,0a3.24,3.24,0,0,1-3.4.68,6.37,6.37,0,0,1-3.38-2.57,13.51,13.51,0,0,1-1.77-3.21c-.26-.77-.53-1.55-.74-2.33a3.77,3.77,0,0,1,.08-2.5c.19-.43.17-.91.39-1.33a13.68,13.68,0,0,1,4.09-4.53,33.94,33.94,0,0,1,4.68-3.11,41,41,0,0,1,3.85-2.12,6.38,6.38,0,0,0,1.26-.72,8.23,8.23,0,0,1,5.67-1A3.35,3.35,0,0,1,57.59,29a1.86,1.86,0,0,0,2,1.06,4.53,4.53,0,0,0,1.11-.53,33.8,33.8,0,0,1,3.43-1.28,24.26,24.26,0,0,0,2.64-.79c.34-.17.83,0,1.23-.1a32.26,32.26,0,0,1,8.37-.73,29.44,29.44,0,0,1,4,.36,26.62,26.62,0,0,1,4.85,1.19A30,30,0,0,1,89.59,30a1.64,1.64,0,0,0,2.09-.67,4,4,0,0,1,2-1.65,6.86,6.86,0,0,1,4.25-.13,35.74,35.74,0,0,1,5.72,2.82,45.87,45.87,0,0,1,6.63,4.39,13.34,13.34,0,0,1,3.35,3.52,6.17,6.17,0,0,1,.8,4.71,15.31,15.31,0,0,1-2,4.65,6.06,6.06,0,0,1-2.62,2.56l0-.05c.34-.35.67-.72,1-1.06a11.92,11.92,0,0,0,2.09-2.69c.21-.34.09-.75.4-1.07a3.69,3.69,0,0,0,.72-1.67,13.66,13.66,0,0,0,.16-2.71,4.28,4.28,0,0,0-.73-2.41,14.84,14.84,0,0,0-3.68-3.86,32.94,32.94,0,0,0-4.61-3.11c-1.54-.91-3.1-1.8-4.68-2.64a10.28,10.28,0,0,0-3.4-1.32c-2-.26-4,0-5.28,1.94a1.83,1.83,0,0,1-2.47.63,9.22,9.22,0,0,0-2.43-1.13A20.58,20.58,0,0,0,81,27.55a.8.8,0,0,1-.3-.06,9.38,9.38,0,0,0-3-.42c-2.17-.13-4.34.12-6.51,0a2.53,2.53,0,0,0-.78,0c-1.85.55-3.8.57-5.64,1.22a37.34,37.34,0,0,0-3.67,1.32c-.32.15-.63.32-1,.48a1.87,1.87,0,0,1-2.66-.81A3.76,3.76,0,0,0,55,27.62a6.67,6.67,0,0,0-4.1.52,43.07,43.07,0,0,0-4.31,2.25c-1.45.87-2.94,1.66-4.35,2.63a29.14,29.14,0,0,0-5.08,4.26,5.87,5.87,0,0,0-1.72,4.4,12.2,12.2,0,0,0,.93,3.7A10.93,10.93,0,0,0,38.69,49c1.31,1.37,2.84,2.2,4.84,1.52C43.8,50.42,44,50.16,44.3,50.18Z" transform="translate(-31.65 -23.28)"/><path class="k" d="M102.77,48a13.75,13.75,0,0,1-2.15-3.1,36,36,0,0,1-2.29-5.12,29,29,0,0,1-1.07-3.35A5.87,5.87,0,0,0,96.62,35a1.53,1.53,0,0,0-1.74-.51,1.21,1.21,0,0,0-.81,1.28,6.74,6.74,0,0,0,.38,2c.44,1,.64,2.15,1,3.21s.82,2,1.24,3A28.17,28.17,0,0,0,100,49.57a20.72,20.72,0,0,0,3.16,3.33,1.61,1.61,0,0,1,.43.69c.43,1.19.2,2.5.75,3.67a2.38,2.38,0,0,1,0,.93,39.53,39.53,0,0,1,0,4.49,15.27,15.27,0,0,1-1.65,5.42,13.41,13.41,0,0,1-2.87,4,17.93,17.93,0,0,1-5,3.31,26.59,26.59,0,0,1-4.07,1.35,1.69,1.69,0,0,0-1.37,1.14c-.25,1,.58,1.7,1.7,1.6a17.13,17.13,0,0,0,4.3-1.12,9.18,9.18,0,0,0,1.4-.62.62.62,0,0,1,.93.23,22.62,22.62,0,0,1,2.42,4.21c.16.35.51.61.46,1h-.16c-.86-1.51-1.59-3.1-2.58-4.55a1.16,1.16,0,0,0-1.68-.42c-.64.31-1.32.51-2,.84-.78.41-1.69.24-2.47.57a1.74,1.74,0,0,1-2.22-2.58,4.46,4.46,0,0,1,2.34-1,17.26,17.26,0,0,0,2.18-.68,11.69,11.69,0,0,0,2.3-1.19,15.24,15.24,0,0,0,5.28-4.88,17.54,17.54,0,0,0,2.49-7.21,10.53,10.53,0,0,0-.12-3.79,25.13,25.13,0,0,1-.32-2.61,17.07,17.07,0,0,0-.48-2.32c0-.21-.25-.31-.41-.45a14.09,14.09,0,0,1-2.4-2.42,47.44,47.44,0,0,1-3.09-4.69,31.1,31.1,0,0,1-1.88-4.37,30.38,30.38,0,0,1-1.32-3.83,4.06,4.06,0,0,1-.1-2.79A2.09,2.09,0,0,1,95.57,34a2.57,2.57,0,0,1,1.88,1.92A26,26,0,0,0,99,40.68a24.7,24.7,0,0,0,1.64,3.55c.71,1.29,1.52,2.51,2.28,3.76Z" transform="translate(-31.65 -23.28)"/><path class="l" d="M47.58,115.21l-1.38,0-1,0c.48-.3,1,0,1.51-.17,2.25-.7,4.59-.33,6.87-.58,1-.11,2.07.11,3.1.09A35.3,35.3,0,0,1,65,115.64a12.82,12.82,0,0,1,1.83.54,21.21,21.21,0,0,1,2,.85,24,24,0,0,1,3.12,1.58c.26.18.55.46.82.35s.16-.51.21-.79a1.61,1.61,0,0,0,0-.31c0-5.3.12-10.6-.13-15.89,0-.26,0-.51-.26-.69a11.22,11.22,0,0,0-2.42-1.34,23.32,23.32,0,0,0-3.59-1.11c-.9-.16-.94-.21-1.39.62a8.07,8.07,0,0,1-3.25,3.25A12.08,12.08,0,0,1,56.11,104c-.64,0-1.21-.34-1.83-.3a4.67,4.67,0,0,1-2.66-.64H52a11.13,11.13,0,0,1,2.49.39,17.27,17.27,0,0,0,5-.12A7.39,7.39,0,0,0,64,100.62a3.41,3.41,0,0,0,1-1.68c.07-.54,1-.77,1.76-.5,1.33.5,2.76.74,4,1.36a15.2,15.2,0,0,1,2,1.27,1.43,1.43,0,0,1,.51,1.25c0,5.22,0,10.44,0,15.67,0,1.47-.21,1.57-1.46.92a11,11,0,0,0-2.22-1.17,25.8,25.8,0,0,1-2.91-1.21c-1.41-.55-2.94-.54-4.31-1.15a2.1,2.1,0,0,0-1.06-.16,5.26,5.26,0,0,1-2.22-.32c-.15-.2-.37-.15-.57-.15-3,0-6,0-9,0A4.53,4.53,0,0,0,47.58,115.21Z" transform="translate(-31.65 -23.28)"/><path class="m" d="M80.79,117.09a27.06,27.06,0,0,1-2.55,1.36,6.83,6.83,0,0,1-1,.64c-.66.26-.77.24-.77-.47,0-2.31,0-4.62,0-6.94,0-1.4-.12-2.79-.14-4.19,0-1.74.22-3.47.16-5.21,0-1.1.8-1.58,1.59-2A18.05,18.05,0,0,1,81.3,99c.68-.2,1.41-.22,2.11-.44a.78.78,0,0,1,1,.48,9,9,0,0,0,3.14,3.35,8.46,8.46,0,0,0,1.52.71,20.44,20.44,0,0,0,4.25.73,2,2,0,0,0,.77,0,19.24,19.24,0,0,1,2-.28,9.45,9.45,0,0,0,3.23-1.14,1.24,1.24,0,0,1,.63-.25h.33a8.56,8.56,0,0,1-3.13,1.47,11,11,0,0,1-3.34.54,13.55,13.55,0,0,1-5.06-.87,8.06,8.06,0,0,1-4.22-3.51c-.19-.35-.43-.75-.9-.74a7.67,7.67,0,0,0-3.29.64c-.85.44-1.76.72-2.59,1.19a1.35,1.35,0,0,0-.88,1.35c0,5.17,0,10.34,0,15.52v.54c0,.43.32.53.57.31a8.56,8.56,0,0,1,1.67-.93c.52-.27,1-.75,1.66-.69Z" transform="translate(-31.65 -23.28)"/><path class="n" d="M100.28,102.11H100c.08-.1.14-.25.25-.29,1.25-.42,1.93-1.51,2.8-2.37a1.66,1.66,0,0,1,2-.43,4.29,4.29,0,0,0,1,.28,1.74,1.74,0,0,1,1.55,1.42c.42,1.5.82,3,1.27,4.5.22.73.45,1.47.65,2.2.34,1.29.87,2.52,1.15,3.83a21.69,21.69,0,0,0,.74,2.41,14.89,14.89,0,0,0,.79,2.56.66.66,0,0,1,0,.74c-.21.25-.53.15-.8.06a41.47,41.47,0,0,0-5.72-1.39c-1.62-.32-3.31-.2-4.87-.81a1.82,1.82,0,0,0-.62,0c-2.73,0-5.45,0-8.18,0a11.79,11.79,0,0,0-3.07.38,5.1,5.1,0,0,1-1.23.09,4.51,4.51,0,0,0-1.65.34c-.68.26-1.44.27-2.15.54a24.4,24.4,0,0,0-2.6.93,1.51,1.51,0,0,1-.53.07v-.16c.29-.11.42-.45.78-.48a8,8,0,0,0,2.09-.62c.88-.31,1.79-.48,2.67-.71a29.31,29.31,0,0,1,6.06-.68c3-.15,6.06.17,9.09.15a1.46,1.46,0,0,1,.46.06,34.36,34.36,0,0,0,4.4.79,38.24,38.24,0,0,1,4.08.94,2.08,2.08,0,0,0,.61.07c.76,0,.94-.17.65-.86s-.5-1.68-.81-2.5a8.77,8.77,0,0,1-.56-1.88,37,37,0,0,0-1.15-3.89,6.44,6.44,0,0,0-.44-1.63,13.75,13.75,0,0,1-.76-2.41c-.32-1-.6-2-.93-3.07a.88.88,0,0,0-.8-.61,5.09,5.09,0,0,1-1.87-.39.62.62,0,0,0-.84.16A8.94,8.94,0,0,1,100.28,102.11Z" transform="translate(-31.65 -23.28)"/><path class="o" d="M100.44,83.24h.16c.47.77.6,1.69,1,2.47s.46,1.67.79,2.47A14.28,14.28,0,0,1,102.6,90a9.38,9.38,0,0,1-.17,4.53,7.12,7.12,0,0,1-2.3,3.68,9.07,9.07,0,0,1-3.4,2,8.58,8.58,0,0,1-5.44.36,8.84,8.84,0,0,1-2.61-1.1A3.53,3.53,0,0,1,87,96.77a4.63,4.63,0,0,1,1-3.62,7.21,7.21,0,0,1,3.09-2.25,1.62,1.62,0,0,0,.43-2.84A2,2,0,0,0,90.08,88a1,1,0,0,0-.28.12,10.18,10.18,0,0,0-4.06,3.1,5.2,5.2,0,0,0-1.53,3.28,1.2,1.2,0,0,1-.46.78h-.94c1-.14,1.17-.89,1.26-1.69a1.53,1.53,0,0,1,.2-.59A9.93,9.93,0,0,1,87,89.48a7.67,7.67,0,0,1,3.35-1.81,1.69,1.69,0,0,1,2,.93c.44,1.52-.19,2.16-1.06,2.53a7.28,7.28,0,0,0-2.59,1.63A6.79,6.79,0,0,0,87.39,95a3.73,3.73,0,0,0,1.43,4.25,7.06,7.06,0,0,0,3.61,1.14,4.54,4.54,0,0,0,1.46.15c1.38-.38,2.84-.42,4.14-1.23a9.75,9.75,0,0,0,3.22-2.93A12.64,12.64,0,0,0,102,94.7a4.9,4.9,0,0,0,.45-2.16,18.68,18.68,0,0,0-.4-4.2,31.28,31.28,0,0,0-1.35-4.14A2.63,2.63,0,0,1,100.44,83.24Z" transform="translate(-31.65 -23.28)"/><path class="p" d="M45.23,115.21l1,0a14.25,14.25,0,0,1-2.82.65,8.67,8.67,0,0,0-3,.64,1.23,1.23,0,0,1-.44.1,5,5,0,0,0-1.64.39c-.65.32-1,0-1-.72a9.74,9.74,0,0,1,.56-1.91,25.76,25.76,0,0,1,.92-2.94c.28-.68.36-1.41.65-2.09a6.82,6.82,0,0,0,.67-2.18,1,1,0,0,1,.25-.71.7.7,0,0,0,.22-.48,20.83,20.83,0,0,1,.83-3,8.59,8.59,0,0,0,.6-2.21c0-1,.52-1.37,1.47-1.48a4,4,0,0,0,1-.27,1.53,1.53,0,0,1,1.95.32,16,16,0,0,0,4.3,3.09c.4.21.89.25,1.22.61h-.34a3.47,3.47,0,0,1-1.16-.4,15.85,15.85,0,0,1-4.24-3.07c-.91-1-1.82.17-2.74-.07-.38-.1-.69.28-.93.68-.36.61-.26,1.33-.55,1.91a12.05,12.05,0,0,0-.71,2c-.34,1.1-.6,2.22-.93,3.32l-1.11,3.72c-.46,1.54-1,3.07-1.39,4.61-.09.29-.42.6-.19.86s.53-.13.83-.16c1.25-.12,2.46-.53,3.7-.71C43.22,115.6,44.21,115.32,45.23,115.21Z" transform="translate(-31.65 -23.28)"/><path class="q" d="M82.81,95.25h.94a4.51,4.51,0,0,1-2,.48,8,8,0,0,0-3,.77,12.87,12.87,0,0,0-3.64,1.93c-.35.23-.68.35-1,0a6.54,6.54,0,0,0-1.82-1.11,26.83,26.83,0,0,0-3.53-1.42,1.52,1.52,0,0,0-.84-.13c-.72.11-1.31-.43-2-.37a.45.45,0,0,1-.42-.41,8.49,8.49,0,0,0-1-2.82.37.37,0,0,1,0-.15h.16a4.25,4.25,0,0,1,.93,2c.11,1,.14,1,1.13,1.22a14,14,0,0,1,2.32.49,15.11,15.11,0,0,1,2.22.8,11,11,0,0,1,2.85,1.6.65.65,0,0,0,1.06,0,6.14,6.14,0,0,1,1.55-1,11.86,11.86,0,0,1,2-.89c.89-.21,1.69-.8,2.67-.65A2.44,2.44,0,0,0,82.81,95.25Z" transform="translate(-31.65 -23.28)"/><path class="p" d="M47.58,115.21a4.53,4.53,0,0,1,2-.45c3,0,6,0,9,0,.2,0,.42,0,.57.15-3,0-6.06,0-9.09,0C49.18,114.88,48.43,115.38,47.58,115.21Z" transform="translate(-31.65 -23.28)"/><path class="j" d="M109.81,50.2a3.39,3.39,0,0,1-3.7.64c-.35-.2-.8-.24-1-.63l0-.05a5.63,5.63,0,0,0,3,.52c.56-.13,1-.43,1.6-.53Z" transform="translate(-31.65 -23.28)"/><path class="j" d="M102.77,48h.17l2.19,2.17,0,.05A5.74,5.74,0,0,1,102.77,48Z" transform="translate(-31.65 -23.28)"/><path class="r" d="M105.13,50.16,102.94,48c-.76-1.25-1.57-2.47-2.28-3.76A24.7,24.7,0,0,1,99,40.68a26,26,0,0,1-1.57-4.78A2.57,2.57,0,0,0,95.57,34a2.09,2.09,0,0,0-1.56.91,4.06,4.06,0,0,0,.1,2.79,30.38,30.38,0,0,0,1.32,3.83,31.1,31.1,0,0,0,1.88,4.37,47.44,47.44,0,0,0,3.09,4.69A14.09,14.09,0,0,0,102.8,53c.16.14.36.24.41.45a17.07,17.07,0,0,1,.48,2.32,25.13,25.13,0,0,0,.32,2.61,10.53,10.53,0,0,1,.12,3.79,17.54,17.54,0,0,1-2.49,7.21,15.24,15.24,0,0,1-5.28,4.88,11.69,11.69,0,0,1-2.3,1.19,17.26,17.26,0,0,1-2.18.68,4.46,4.46,0,0,0-2.34,1,1.74,1.74,0,0,0,2.22,2.58c.78-.33,1.69-.16,2.47-.57.63-.33,1.31-.53,2-.84a1.16,1.16,0,0,1,1.68.42c1,1.45,1.72,3,2.58,4.55a2.63,2.63,0,0,0,.26,1,31.28,31.28,0,0,1,1.35,4.14,18.68,18.68,0,0,1,.4,4.2A4.9,4.9,0,0,1,102,94.7a12.64,12.64,0,0,1-.75,1.68A9.75,9.75,0,0,1,98,99.31c-1.3.81-2.76.85-4.14,1.23a4.54,4.54,0,0,1-1.46-.15,7.06,7.06,0,0,1-3.61-1.14A3.73,3.73,0,0,1,87.39,95a6.79,6.79,0,0,1,1.27-2.24,7.28,7.28,0,0,1,2.59-1.63c.87-.37,1.5-1,1.06-2.53a1.69,1.69,0,0,0-2-.93A7.67,7.67,0,0,0,87,89.48,9.93,9.93,0,0,0,84.27,93a1.53,1.53,0,0,0-.2.59c-.09.8-.27,1.55-1.26,1.69a2.44,2.44,0,0,1-1.34.3c-1-.15-1.78.44-2.67.65a11.86,11.86,0,0,0-2,.89,6.14,6.14,0,0,0-1.55,1,.65.65,0,0,1-1.06,0,11,11,0,0,0-2.85-1.6,15.11,15.11,0,0,0-2.22-.8,14,14,0,0,0-2.32-.49c-1-.19-1-.23-1.13-1.22a4.25,4.25,0,0,0-.93-2,3.84,3.84,0,0,0-1.33-1.86,9,9,0,0,0-4-2.42c-1.41-.32-2.3.37-2.28,1.89A1.53,1.53,0,0,0,58,91a13,13,0,0,0,1.24.61,5.22,5.22,0,0,1,2.91,2.87,3.67,3.67,0,0,1-.32,3.69,5,5,0,0,1-3.56,2.14,15.5,15.5,0,0,1-4.25-.09,7.47,7.47,0,0,1-2.41-.93,7,7,0,0,1-3.5-3.34,11.79,11.79,0,0,1-.88-2.42A11.21,11.21,0,0,1,47,90.74a12.57,12.57,0,0,1,.7-3.53c.31-1,.64-1.94.95-2.91.43-1.35,1.24-2.49,1.76-3.77.36-.89,1-1.58,1.47-2.44.2-.43.44-.49.85-.24a16.52,16.52,0,0,0,3.79,1.58c.7.23,1.52.17,2.28.36A1.83,1.83,0,0,0,60.38,79c.28-1.08.25-1.71-.47-2.24-.11-.08-.22-.21-.32-.21a7.54,7.54,0,0,1-1.94-.47A16.76,16.76,0,0,1,52.87,74a15.52,15.52,0,0,1-4-3.12,11.85,11.85,0,0,1-2.48-4c-.22-.67-.48-1.35-.77-2a5.62,5.62,0,0,1-.22-1.68,28.18,28.18,0,0,1,.05-6.49,21,21,0,0,0,.41-2.5,1.34,1.34,0,0,1,.63-1.09,17.63,17.63,0,0,0,3.82-4,30,30,0,0,0,2.91-5.15,44.14,44.14,0,0,0,1.58-4.2,13.5,13.5,0,0,1,.75-2.25,3.09,3.09,0,0,0,.15-2.28A2.1,2.1,0,0,0,54.25,34a2.18,2.18,0,0,0-1.87,1.39c-.39.91-.56,1.89-.89,2.82-.45,1.28-.89,2.55-1.43,3.8a35.41,35.41,0,0,1-1.86,3.63,15.83,15.83,0,0,1-3.9,4.57c-.31,0-.5.24-.77.33-2,.68-3.53-.15-4.84-1.52a10.93,10.93,0,0,1-2.33-3.61,12.2,12.2,0,0,1-.93-3.7,5.87,5.87,0,0,1,1.72-4.4A29.14,29.14,0,0,1,42.23,33c1.41-1,2.9-1.76,4.35-2.63a43.07,43.07,0,0,1,4.31-2.25,6.67,6.67,0,0,1,4.1-.52,3.76,3.76,0,0,1,2.47,1.72,1.87,1.87,0,0,0,2.66.81c.32-.16.63-.33,1-.48a37.34,37.34,0,0,1,3.67-1.32c1.84-.65,3.79-.67,5.64-1.22a2.53,2.53,0,0,1,.78,0c2.17.1,4.34-.15,6.51,0a9.38,9.38,0,0,1,3,.42.8.8,0,0,0,.3.06,20.58,20.58,0,0,1,5.94,1.5,9.22,9.22,0,0,1,2.43,1.13,1.83,1.83,0,0,0,2.47-.63c1.31-1.9,3.24-2.2,5.28-1.94a10.28,10.28,0,0,1,3.4,1.32c1.58.84,3.14,1.73,4.68,2.64a32.94,32.94,0,0,1,4.61,3.11,14.84,14.84,0,0,1,3.68,3.86,4.28,4.28,0,0,1,.73,2.41,13.66,13.66,0,0,1-.16,2.71,3.69,3.69,0,0,1-.72,1.67c-.31.32-.19.73-.4,1.07a11.92,11.92,0,0,1-2.09,2.69c-.36.34-.69.71-1,1.06-.56.1-1,.4-1.6.53A5.63,5.63,0,0,1,105.13,50.16ZM70.5,60.94a2.86,2.86,0,0,0-.73,2.61c.41,1.39,1.54,2,2.69,2.52.65.31.82.49.66,1.23a9.43,9.43,0,0,0-.28,1.28,1.41,1.41,0,0,1-1.49.58,4.81,4.81,0,0,1-2-.84,1.64,1.64,0,0,0-2.32.56,1.92,1.92,0,0,0,.59,2,6.58,6.58,0,0,0,2.71,1.34A4.45,4.45,0,0,0,73.86,72a2,2,0,0,1,1.82,0,5.67,5.67,0,0,0,1.9.58,6,6,0,0,0,4.21-1.37c1.41-1.15,1.54-1.62.41-2.86a1.79,1.79,0,0,0-2.27.23,2.69,2.69,0,0,1-1.55.69,1.33,1.33,0,0,1-1.66-1,4.74,4.74,0,0,1-.15-1.45.56.56,0,0,1,.5-.65,1.9,1.9,0,0,0,1.08-.75c.65-.43,1.38-.78,1.4-1.72.56-.2.47-.67.42-1.1,0-.16-.2-.31-.24-.47a3,3,0,0,0-2.59-2.18,12.3,12.3,0,0,0-3.21-.18A4.8,4.8,0,0,0,70.5,60.94Zm-9.87-4.7a5.2,5.2,0,0,0-2.64.44,4,4,0,0,0-2.14,3.18,1.75,1.75,0,0,0,1,1.75c.74.34,1.23-.07,1.73-.52a2.54,2.54,0,0,0,.45-.7c.32-.56.73-1.15,1.45-1.12a1.61,1.61,0,0,1,1.39,1.1,2.81,2.81,0,0,0,.41.66,1.41,1.41,0,0,0,1.42.56c.59-.15,1.22-.41,1.32-1.14a3.4,3.4,0,0,0-.93-2.86A4,4,0,0,0,60.63,56.24Zm24,3.59c0,1.27,0,1.29.51,1.57,1.34.71,2.13.45,2.77-1a1.44,1.44,0,0,1,1.34-1c.8,0,1,.21,1.33,1.11A1.75,1.75,0,0,0,94.07,60c0-.52-.32-.86-.43-1.3A3,3,0,0,0,92,56.75a5.4,5.4,0,0,0-5.39,0A3.14,3.14,0,0,0,84.67,59.83Z" transform="translate(-31.65 -23.28)"/><path class="s" d="M45.23,115.21c-1,.11-2,.39-3,.54-1.24.18-2.45.59-3.7.71-.3,0-.59.44-.83.16s.1-.57.19-.86c.44-1.54.93-3.07,1.39-4.61l1.11-3.72c.33-1.1.59-2.22.93-3.32a12.05,12.05,0,0,1,.71-2c.29-.58.19-1.3.55-1.91.24-.4.55-.78.93-.68.92.24,1.83-1,2.74.07a15.85,15.85,0,0,0,4.24,3.07,3.47,3.47,0,0,0,1.16.4,4.67,4.67,0,0,0,2.66.64c.62,0,1.19.31,1.83.3a12.08,12.08,0,0,0,5.83-1.29,8.07,8.07,0,0,0,3.25-3.25c.45-.83.49-.78,1.39-.62a23.32,23.32,0,0,1,3.59,1.11,11.22,11.22,0,0,1,2.42,1.34c.28.18.25.43.26.69.25,5.29.09,10.59.13,15.89a1.61,1.61,0,0,1,0,.31c0,.28-.06.72-.21.79s-.56-.17-.82-.35A24,24,0,0,0,68.82,117a21.21,21.21,0,0,0-2-.85,12.82,12.82,0,0,0-1.83-.54,35.3,35.3,0,0,0-8.25-1.09c-1,0-2.08-.2-3.1-.09-2.28.25-4.62-.12-6.87.58C46.26,115.19,45.71,114.91,45.23,115.21Z" transform="translate(-31.65 -23.28)"/><path class="t" d="M100.28,102.11a8.94,8.94,0,0,0,3.24-2.74.62.62,0,0,1,.84-.16,5.09,5.09,0,0,0,1.87.39.88.88,0,0,1,.8.61c.33,1,.61,2.05.93,3.07a13.75,13.75,0,0,0,.76,2.41,6.44,6.44,0,0,1,.44,1.63,37,37,0,0,1,1.15,3.89,8.77,8.77,0,0,0,.56,1.88c.31.82.47,1.69.81,2.5s.11.88-.65.86a2.08,2.08,0,0,1-.61-.07,38.24,38.24,0,0,0-4.08-.94,34.36,34.36,0,0,1-4.4-.79,1.46,1.46,0,0,0-.46-.06c-3,0-6.06-.3-9.09-.15a29.31,29.31,0,0,0-6.06.68c-.88.23-1.79.4-2.67.71a8,8,0,0,1-2.09.62c-.36,0-.49.37-.78.48-.67-.06-1.14.42-1.66.69a8.56,8.56,0,0,0-1.67.93c-.25.22-.56.12-.57-.31v-.54c0-5.18,0-10.35,0-15.52a1.35,1.35,0,0,1,.88-1.35c.83-.47,1.74-.75,2.59-1.19A7.67,7.67,0,0,1,83.63,99c.47,0,.71.39.9.74a8.06,8.06,0,0,0,4.22,3.51,13.55,13.55,0,0,0,5.06.87,11,11,0,0,0,3.34-.54A8.56,8.56,0,0,0,100.28,102.11Z" transform="translate(-31.65 -23.28)"/><path class="u" d="M79.55,63.6c0,.94-.75,1.29-1.4,1.72-.1,0-.19.08-.29.1-1.56.43-1.61.48-1.59,2.09a1.61,1.61,0,0,0,0,.31,2,2,0,0,0,.9,1.44,1.9,1.9,0,0,0,2.69-.33,2.06,2.06,0,0,1,2.33-.5c.08.27.19.54.25.82a1.2,1.2,0,0,1-.5,1.41c-.22.14-.43.3-.64.45a5.1,5.1,0,0,1-5.32.54,2.07,2.07,0,0,0-2.29.06A1.42,1.42,0,0,1,73,72c-1.89.1-3.79.21-5.27-1.36a1.75,1.75,0,0,1-.25-2,1.28,1.28,0,0,1,1.7-.07,7.65,7.65,0,0,0,2,1A1.45,1.45,0,0,0,73,68.58c.61-.59.47-1.34.47-2.07,0-.33-.15-.47-.47-.6a8,8,0,0,1-1.92-1,2.92,2.92,0,0,1-.57-3.6A4.43,4.43,0,0,1,73.13,60a18.49,18.49,0,0,1,3.49,0,3.32,3.32,0,0,1,2.55,1.32C79.67,62.1,79.45,62.85,79.55,63.6Z" transform="translate(-31.65 -23.28)"/><path class="v" d="M60.63,56.24a4,4,0,0,1,3.46,1.35A3.4,3.4,0,0,1,65,60.45c-.1.73-.73,1-1.32,1.14A1.41,1.41,0,0,1,62.28,61a2.81,2.81,0,0,1-.41-.66,1.61,1.61,0,0,0-1.39-1.1c-.72,0-1.13.56-1.45,1.12a2.54,2.54,0,0,1-.45.7c-.5.45-1,.86-1.73.52a1.75,1.75,0,0,1-1-1.75A4,4,0,0,1,58,56.68,5.2,5.2,0,0,1,60.63,56.24Z" transform="translate(-31.65 -23.28)"/><path class="w" d="M73,68.58a1.45,1.45,0,0,1-1.82.94,7.65,7.65,0,0,1-2-1,1.28,1.28,0,0,0-1.7.07,1.75,1.75,0,0,0,.25,2C69.18,72.19,71.08,72.08,73,72a1.42,1.42,0,0,0,.72-.27A2.07,2.07,0,0,1,76,71.65a5.1,5.1,0,0,0,5.32-.54c.21-.15.42-.31.64-.45a1.2,1.2,0,0,0,.5-1.41c-.06-.28-.17-.55-.25-.82v-.17c1.13,1.24,1,1.71-.41,2.86a6,6,0,0,1-4.21,1.37,5.67,5.67,0,0,1-1.9-.58,2,2,0,0,0-1.82,0,4.45,4.45,0,0,1-3.55.29A6.58,6.58,0,0,1,67.6,70.9a1.92,1.92,0,0,1-.59-2,1.64,1.64,0,0,1,2.32-.56,4.81,4.81,0,0,0,2,.84,1.41,1.41,0,0,0,1.49-.58H73Z" transform="translate(-31.65 -23.28)"/><path class="x" d="M84.67,59.83a3.14,3.14,0,0,1,1.91-3.1,5.4,5.4,0,0,1,5.39,0,3,3,0,0,1,1.67,1.93c.11.44.43.78.43,1.3a1.75,1.75,0,0,1-3.45.57c-.32-.9-.53-1.11-1.33-1.11a1.44,1.44,0,0,0-1.34,1c-.64,1.42-1.43,1.68-2.77,1C84.67,61.12,84.67,61.1,84.67,59.83Zm4.49-3.57a3.69,3.69,0,0,0-1.63.39A3.89,3.89,0,0,0,85,59.09,1.93,1.93,0,0,0,85,60.87a1.42,1.42,0,0,0,1.53.52,1.3,1.3,0,0,0,1.08-1c.21-.76.82-1,1.38-1.38a.57.57,0,0,1,.72,0,2.54,2.54,0,0,1,1.18,1.46,1.66,1.66,0,0,0,1.5,1,1.4,1.4,0,0,0,1.1-.94,2.34,2.34,0,0,0-.32-2.27C92.35,56.77,90.76,56.46,89.16,56.26Z" transform="translate(-31.65 -23.28)"/><path class="y" d="M79.55,63.6c-.1-.75.12-1.5-.38-2.24A3.32,3.32,0,0,0,76.62,60a18.49,18.49,0,0,0-3.49,0,4.43,4.43,0,0,0-2.63,1.24v-.32a4.8,4.8,0,0,1,3.43-1.27,12.3,12.3,0,0,1,3.21.18A3,3,0,0,1,79.73,62c0,.16.22.31.24.47C80,62.93,80.11,63.4,79.55,63.6Z" transform="translate(-31.65 -23.28)"/><path class="z" d="M70.5,60.94v.32a2.92,2.92,0,0,0,.57,3.6,8,8,0,0,0,1.92,1c.32.13.47.27.47.6,0,.73.14,1.48-.47,2.07h-.15a9.43,9.43,0,0,1,.28-1.28c.16-.74,0-.92-.66-1.23-1.15-.55-2.28-1.13-2.69-2.52A2.86,2.86,0,0,1,70.5,60.94Z" transform="translate(-31.65 -23.28)"/><path class="aa" d="M82.2,68.26v.17a2.06,2.06,0,0,0-2.33.5,1.9,1.9,0,0,1-2.69.33,2,2,0,0,1-.9-1.44,1.61,1.61,0,0,1,0-.31c0-1.61,0-1.66,1.59-2.09.1,0,.19-.07.29-.1a1.9,1.9,0,0,1-1.08.75.56.56,0,0,0-.5.65,4.74,4.74,0,0,0,.15,1.45,1.33,1.33,0,0,0,1.66,1,2.69,2.69,0,0,0,1.55-.69A1.79,1.79,0,0,1,82.2,68.26Z" transform="translate(-31.65 -23.28)"/><path class="ab" d="M89.16,56.26c1.6.2,3.19.51,4,2.08a2.34,2.34,0,0,1,.32,2.27,1.4,1.4,0,0,1-1.1.94,1.66,1.66,0,0,1-1.5-1,2.54,2.54,0,0,0-1.18-1.46A.57.57,0,0,0,89,59c-.56.35-1.17.62-1.38,1.38a1.3,1.3,0,0,1-1.08,1A1.42,1.42,0,0,1,85,60.87,1.93,1.93,0,0,1,85,59.09a3.89,3.89,0,0,1,2.58-2.44A3.69,3.69,0,0,1,89.16,56.26Z" transform="translate(-31.65 -23.28)"/></svg>