<svg xmlns="http://www.w3.org/2000/svg" viewBox="0 0 113.83 94.26"><defs><style>.a{fill:#67555e;}.b{fill:#68575f;}.c{fill:#f8d19d;}.d{fill:#5b4545;}.e{fill:#5c4646;}.f{fill:#5a4444;}.g{fill:#f7e4d5;}.h{fill:#f0d0b9;}.i{fill:#bee9f2;}.j{fill:#f7e5d6;}.k{fill:#f1ccae;}.l{fill:#f1cdb0;}.m{fill:#5c4547;}.n{fill:#5f4a4c;}.o{fill:#5b4648;}.p{fill:#503e42;}.q{fill:#f8dca9;}.r{fill:#f7dda9;}.s{fill:#66555d;}.t{fill:#65535b;}.u{fill:#67555d;}</style></defs><path class="a" d="M28.47,76.62c1-2.24,2.47-4.07,5-4.72a3.62,3.62,0,0,1,4.66,3.25A30.57,30.57,0,0,0,38.92,80a8.83,8.83,0,0,0,2.95,4.44.63.63,0,0,0,1-.05,27.36,27.36,0,0,1,9.44-5.75c2-.82,4-1.63,6.06-2.41.55-.21.64-.37.24-.88-3-3.71-3.84-8-3.36-12.64a27.38,27.38,0,0,1,2.12-7.84,21.43,21.43,0,0,1-5.19.39c-4.65-.28-7.44-3.58-6.83-8.15a9.09,9.09,0,0,1,1.39-4C51,36.78,56.83,33.06,64.62,33A13,13,0,0,1,76,38.62c.27.39.53.29.85.23a25.81,25.81,0,0,1,11.23.56,19.82,19.82,0,0,1,4.48,1.74,4.61,4.61,0,0,0,3.15.46A11.78,11.78,0,0,1,108,47.55a36.31,36.31,0,0,1,3.91,10.16,7.3,7.3,0,0,1-3.37,7.95,6.81,6.81,0,0,1-2.08.7c-.94.17-.94.15-.5,1a12,12,0,0,1,1.24,4c.49,4.35-1.17,7.86-4.26,10.77a18.76,18.76,0,0,1-9.8,4.71c-1.08.19-1.1.18-.9,1.27a11.3,11.3,0,0,1,.09,2.6c0,.59,0,.87.77.95A21.91,21.91,0,0,1,99,92.92a10.16,10.16,0,0,1,4.56,3.16,5.88,5.88,0,0,1-3.56,9.51,6.75,6.75,0,0,1-5.1-.9,6.89,6.89,0,0,0-4.42-1c-.3,0-.71-.11-.75.41-.12,0-.26-.51-.32,0a3.81,3.81,0,0,0,.24,1.16,6.55,6.55,0,0,1-1.55,5.67c-1.86,2.22-4.55,2.28-7.14,1.25a11.57,11.57,0,0,1-3.58-2.83c-.21-.21-.35-.72-.84-.41a1.8,1.8,0,0,0-2.26-.18,23.69,23.69,0,0,1-5.67,1.6,1.19,1.19,0,0,0-1,.79,14,14,0,0,1-5.61,6.38,1.1,1.1,0,0,0-.66,1.18,5.69,5.69,0,0,1-5.24,6.6c-.78,0-1.52-.19-2.28-.22-3-1.54-4.43-4.18-4.89-7.42-.2-1.34-.17-1.17-1.54-1.1a5.12,5.12,0,0,0-4.54,2.64,6.05,6.05,0,0,1-1.82,1.7c-3.71,2.61-8.17,1-9.32-3.36-1-3.78.28-7,2.61-10a39.75,39.75,0,0,1,2.94-3,1.13,1.13,0,0,0,.34-1.15,22,22,0,0,1,.1-9.83c.17-.62-.1-.8-.63-1a13.43,13.43,0,0,1-5.17-2.73c-.1-.45-.13-.43-1.17-1.53a10,10,0,0,1-2.29-10.66C28.49,77.38,28.89,77,28.47,76.62ZM62.61,53.53c-.26.34-.72,0-1.11.37h.87c5.58,0,11.16-.12,16.73.22,1,.06,1.93.11,2.89.22,2.66.32,5.34.57,8,.92,3.06.4,6.1.94,9.15,1.4a1.7,1.7,0,0,0,1.44-.13h.4c1,.1,1.09.06,1-1a14.07,14.07,0,0,0-.77-3,2.38,2.38,0,0,0-2-1.67c-1.54-.23-3.08-.52-4.63-.79l.88-.08c-1.89-.35-3.79-.54-5.67-.82-3.32-.5-6.67-.59-10-.89a49.35,49.35,0,0,0-7-.27A5.4,5.4,0,0,1,71,47.92a2,2,0,0,0-1.47.1c-.38.21.07.27.09.4a.62.62,0,0,0-.19.07,2.77,2.77,0,0,0-1.19.7,22.36,22.36,0,0,1-6.73,4.25Zm30.74-6.45,3.52.39c-.16-.18-.21-.26-.28-.32C90.75,42.7,84.28,40.7,76.94,42c-1.11.19-2.2.34-3.12-.52a8.86,8.86,0,0,0-.74-1.63,8.92,8.92,0,0,0-6.14-3.6,16.27,16.27,0,0,0-12.24,3,15.42,15.42,0,0,0-6.16,7.45c-1,2.77.22,4.86,3.11,5.41a9.63,9.63,0,0,0,1.69.2,18.61,18.61,0,0,0,7.71-1.93,27.71,27.71,0,0,0,5.59-3.68c.09.13.22.18.34.09a5.4,5.4,0,0,1,3.51-.92c1.57.08,3.13.07,4.7.15,3.46.18,6.91.33,10.37.62,2.19.19,4.37.36,6.55.62C92.51,47.29,93,47.44,93.35,47.08ZM60,56.52a3.87,3.87,0,0,0-.69,1.55,17.73,17.73,0,0,0-1,9.17c.9,4.79,3.91,8,7.95,10.43,1.06.63,1.44,1.31,1.07,2.07a1.82,1.82,0,0,1-2.48.54,9.63,9.63,0,0,1-1-.63c-.58-.4-1.15-.81-1.73-1.2a.76.76,0,0,0-.82-.15A115,115,0,0,0,49.5,83.22a17.6,17.6,0,0,0-9.24,17.93,23.25,23.25,0,0,0,.79,3.32c.37,1.22.13,2-.85,2.36a9.68,9.68,0,0,0-3.81,3,7.63,7.63,0,0,0-1.93,6.7c.59,2.53,2.95,3.34,5,1.78a8.35,8.35,0,0,0,2.31-2.74,2.65,2.65,0,0,1,2.3-1.52,17.71,17.71,0,0,0,2.19-.28c5.67-1,9.4-5.08,10-10.21a19.86,19.86,0,0,0-.1-3.7,1.2,1.2,0,0,1,.8-1.36,1.38,1.38,0,0,1,1.69.53,3.16,3.16,0,0,1,.51,1.61,15.24,15.24,0,0,1-.6,6.15c-.31,1-.28,1.07.76,1.13a36.37,36.37,0,0,0,8.4-.5,19.7,19.7,0,0,0,4.35-1.14c-1.26-.76-2.44-1.44-3.57-2.18a11.89,11.89,0,0,1-3.13-2.65,1.61,1.61,0,0,1,.05-2.19,1.47,1.47,0,0,1,2.15.17,25.83,25.83,0,0,0,6.79,4.6,19.46,19.46,0,0,1,5.27,3.77,8.58,8.58,0,0,0,2.62,2,3.11,3.11,0,0,0,4.21-1.37,5,5,0,0,0-.25-5.16A14.76,14.76,0,0,0,83,99.5a36.08,36.08,0,0,0-6.63-4.68,1.53,1.53,0,0,1-.75-2.12,1.62,1.62,0,0,1,2.13-.51,6.91,6.91,0,0,1,.72.36,35.7,35.7,0,0,1,6.94,5.09c1,.93,1.14.93,1.89-.3a14.87,14.87,0,0,0,2.06-8.26c0-1.67-.09-1.66-1.79-1.66-.7,0-1.4,0-2.11,0s-1.4-.06-2.1-.16a1.53,1.53,0,0,1-1.46-1.6c.09-.86.81-1.34,1.82-1.26a37.71,37.71,0,0,0,5.82,0A20.62,20.62,0,0,0,98.34,82c5.8-3.34,7.39-8.33,4.46-14.32a4.48,4.48,0,0,1-.43-1.53c-.17-1.8-.4-3.6-.54-5.4a1.07,1.07,0,0,0-1-1.16A191.62,191.62,0,0,0,81.12,56.9c-1.5-.1-3-.23-4.49-.35h2.26v-.23c-1.55,0-3.1-.15-4.64-.17-4.64-.08-9.28,0-13.92,0C60.11,56.14,59.83,56.15,60,56.52ZM30.4,81.19a7,7,0,0,0,.68,3.31,10.89,10.89,0,0,0,6.45,5.22c1.6.58,1.4.66,2.11-.76a5.66,5.66,0,0,1,.58-.94c.38-.48.38-.84-.18-1.22a8.41,8.41,0,0,1-1.59-1.51c-2.22-2.6-2.89-5.73-3.18-9-.05-.51.17-1.18-.42-1.46a1.75,1.75,0,0,0-1.76.45,4.74,4.74,0,0,0-.8.75A8,8,0,0,0,30.4,81.19ZM51.59,116a8.07,8.07,0,0,0,1.9,5.35,2.75,2.75,0,0,0,2.9.9,2.65,2.65,0,0,0,1.92-2.33,3.86,3.86,0,0,0-.1-1.69c-.46-1.75-.32-2.08,1.35-2.91a11.27,11.27,0,0,0,4.21-3.63c.15-.21.44-.44.27-.69s-.44,0-.67,0a22.11,22.11,0,0,1-5.69-.3,1.09,1.09,0,0,0-1.34.51,12.29,12.29,0,0,1-4,3.49C51.76,115,51.46,115.41,51.59,116Zm37-15.23c2.78,0,5.43-.44,7.74,1.37a3.79,3.79,0,0,0,3,.58,2.91,2.91,0,0,0,2.5-3.88,4.84,4.84,0,0,0-2.33-2.53C97.2,95,94.67,95,92.18,94.75a.56.56,0,0,0-.66.46A14.63,14.63,0,0,1,88.56,100.79Zm9.88-56.13a20.35,20.35,0,0,1,2.64,3.52,1.41,1.41,0,0,0,.51.46A5.4,5.4,0,0,1,104,51.42a14.51,14.51,0,0,1,1,7.76,18,18,0,0,0,.2,3.59.51.51,0,0,0,.68.52,3.12,3.12,0,0,0,2.69-1.8,6.19,6.19,0,0,0,.22-3.75,27.18,27.18,0,0,0-3.3-8.57A8.65,8.65,0,0,0,98.44,44.66Z" transform="translate(-18.3 -33)"/><path class="b" d="M129.71,121a12.26,12.26,0,0,1-6,5c-10.25,4.19-18.43-3-19.71-10.86a14.08,14.08,0,0,1,25.16-10.41,3,3,0,0,1,.72,1.19c-.37.67.33,1,.52,1.45,1.85,4.5,1.91,8.89-.73,13.13C129.61,120.7,129.47,120.85,129.71,121Zm-12-18.93a10.7,10.7,0,0,0-1.71.15c-.48.11-.68.17-.22.63a5.64,5.64,0,0,1,1.46,2.48c1.94,6.74-1.58,12.25-7.14,14.66-.4.18-.5.26-.19.58,3.12,3.22,7.45,4.62,11.91,2.92.43-.16.5-.29.22-.69a5.73,5.73,0,0,1-1-2.69,13.05,13.05,0,0,1,1.2-7,16.83,16.83,0,0,1,4-5.07c1-1,1-1,.06-2.14A11.33,11.33,0,0,0,117.71,102.1Zm-2.85,6.13a5.89,5.89,0,0,0-1.29-3.56,1.33,1.33,0,0,0-2.16-.21,13.11,13.11,0,0,0-2.72,2.94,10.27,10.27,0,0,0-1.25,9.2c.24.75.6,1,1.41.71A9.33,9.33,0,0,0,114.86,108.23Zm14.29,5.33a7.81,7.81,0,0,0-.39-2.9c-.14-.44-.31-.52-.69-.18a11.42,11.42,0,0,0-4.11,6.91,5.1,5.1,0,0,0,.48,3.69c.3.46.57.62,1.09.16A9.83,9.83,0,0,0,129.15,113.56Z" transform="translate(-18.3 -33)"/><path class="c" d="M31.28,104a1.57,1.57,0,0,1-2.12,1.33,16.1,16.1,0,0,1-6.95-5,2.08,2.08,0,0,1-.4-1.51,1.21,1.21,0,0,1,1.89-1,4.35,4.35,0,0,1,.94.88,14.13,14.13,0,0,0,5.79,4.13C31.11,103,31.3,103.31,31.28,104Z" transform="translate(-18.3 -33)"/><path class="c" d="M26.2,111.31a10.74,10.74,0,0,1-2.22-.7,15.6,15.6,0,0,1-4.53-2.73,5.45,5.45,0,0,1-.64-.63,1.68,1.68,0,0,1-.18-2.19,1.48,1.48,0,0,1,2.08.18,13.6,13.6,0,0,0,5.71,3.22,3.68,3.68,0,0,1,.45.21c.64.34,1.1.8.92,1.59S27,111.24,26.2,111.31Z" transform="translate(-18.3 -33)"/><path class="d" d="M76.49,108.94c.49-.31.63.2.84.41a11.57,11.57,0,0,0,3.58,2.83c2.59,1,5.28,1,7.14-1.25a6.55,6.55,0,0,0,1.55-5.67,3.81,3.81,0,0,1-.24-1.16c.06-.47.2.09.32,0a7.37,7.37,0,0,1-.07,4.71c-1.75,5.06-7.07,5.33-10.54,2.59A27.69,27.69,0,0,1,76.49,108.94Z" transform="translate(-18.3 -33)"/><path class="e" d="M129.71,121c-.24-.18-.1-.33,0-.5,2.64-4.24,2.58-8.63.73-13.13-.19-.47-.89-.78-.52-1.45,2.84,3.94,2.94,10.61.22,14.54C130,120.68,129.85,120.85,129.71,121Z" transform="translate(-18.3 -33)"/><path class="f" d="M28.47,76.62c.42.39,0,.76-.09,1.09a10,10,0,0,0,2.29,10.66c1,1.1,1.07,1.08,1.17,1.53A10.59,10.59,0,0,1,28.47,76.62Z" transform="translate(-18.3 -33)"/><path class="g" d="M76.63,56.55c1.5.12,3,.25,4.49.35a191.62,191.62,0,0,1,19.67,2.67,1.07,1.07,0,0,1,1,1.16c.14,1.8.37,3.6.54,5.4a4.48,4.48,0,0,0,.43,1.53c2.93,6,1.34,11-4.46,14.32a20.62,20.62,0,0,1-8.82,2.46,37.71,37.71,0,0,1-5.82,0c-1-.08-1.73.4-1.82,1.26a1.53,1.53,0,0,0,1.46,1.6c.7.1,1.4.13,2.1.16s1.41,0,2.11,0c1.7,0,1.74,0,1.79,1.66a14.87,14.87,0,0,1-2.06,8.26c-.75,1.23-.85,1.23-1.89.3a35.7,35.7,0,0,0-6.94-5.09,6.91,6.91,0,0,0-.72-.36,1.62,1.62,0,0,0-2.13.51,1.53,1.53,0,0,0,.75,2.12A36.08,36.08,0,0,1,83,99.5a14.76,14.76,0,0,1,3.24,3.8,5,5,0,0,1,.25,5.16,3.11,3.11,0,0,1-4.21,1.37,8.58,8.58,0,0,1-2.62-2,19.46,19.46,0,0,0-5.27-3.77,25.83,25.83,0,0,1-6.79-4.6,1.47,1.47,0,0,0-2.15-.17,1.61,1.61,0,0,0-.05,2.19,11.89,11.89,0,0,0,3.13,2.65c1.13.74,2.31,1.42,3.57,2.18a19.7,19.7,0,0,1-4.35,1.14,36.37,36.37,0,0,1-8.4.5c-1-.06-1.07-.13-.76-1.13a15.24,15.24,0,0,0,.6-6.15,3.16,3.16,0,0,0-.51-1.61A1.38,1.38,0,0,0,57,98.53a1.2,1.2,0,0,0-.8,1.36,19.86,19.86,0,0,1,.1,3.7c-.58,5.13-4.31,9.2-10,10.21a17.71,17.71,0,0,1-2.19.28,2.65,2.65,0,0,0-2.3,1.52,8.35,8.35,0,0,1-2.31,2.74c-2.08,1.56-4.44.75-5-1.78a7.63,7.63,0,0,1,1.93-6.7,9.68,9.68,0,0,1,3.81-3c1-.41,1.22-1.14.85-2.36a23.25,23.25,0,0,1-.79-3.32A17.6,17.6,0,0,1,49.5,83.22,115,115,0,0,1,61.24,78.3a.76.76,0,0,1,.82.15c.58.39,1.15.8,1.73,1.2a9.63,9.63,0,0,0,1,.63,1.82,1.82,0,0,0,2.48-.54c.37-.76,0-1.44-1.07-2.07-4-2.41-7-5.64-7.95-10.43a17.73,17.73,0,0,1,1-9.17A3.87,3.87,0,0,1,60,56.52l1.2,0H73.86Zm12.83,11A2.69,2.69,0,0,0,86.69,69a3.09,3.09,0,0,0,.67,3.44,4.31,4.31,0,0,0,.57.56c.81.68.85.92.27,1.79a1.93,1.93,0,0,1-1.4.86,3.17,3.17,0,0,1-3.53-1.82,1.38,1.38,0,0,0-1.8-.83,1.48,1.48,0,0,0-.88,1.8,4.08,4.08,0,0,0,1.1,2,6.16,6.16,0,0,0,5.89,1.71,2.1,2.1,0,0,1,2,.43,4.36,4.36,0,0,0,5.84-.51,3.9,3.9,0,0,0,.31-.4,1.64,1.64,0,0,0-.29-2.18,1.46,1.46,0,0,0-2,.31c-.87.83-1.64.92-2.34.27-.17-.16-.37-.27-.22-.58.5-1.08.67-2.23,2-3,1.9-1.09,1.77-3.27-.06-4.51A5.46,5.46,0,0,0,89.46,67.51Zm-10.6-6.09A4.89,4.89,0,0,0,74.4,64a1.66,1.66,0,0,0,.5,2.15c.68.42,1.44.18,2-.65,1.14-1.53,2.13-1.5,3.11.11a1.3,1.3,0,0,0,1.59.73,1.44,1.44,0,0,0,1.07-1.52,2.23,2.23,0,0,0-.29-1A4.39,4.39,0,0,0,78.86,61.42Zm17.42,1.76a4,4,0,0,0-2.57,1,1.71,1.71,0,0,0-.45,2.17,1.43,1.43,0,0,0,2.24.24c.84-.63,1.2-.56,1.76.32l.26.43a1.39,1.39,0,0,0,1.77.7,1.44,1.44,0,0,0,.83-1.82A4.32,4.32,0,0,0,96.28,63.18Z" transform="translate(-18.3 -33)"/><path class="h" d="M66.64,46.69a27.71,27.71,0,0,1-5.59,3.68,18.61,18.61,0,0,1-7.71,1.93,9.63,9.63,0,0,1-1.69-.2c-2.89-.55-4.11-2.64-3.11-5.41a15.42,15.42,0,0,1,6.16-7.45,16.27,16.27,0,0,1,12.24-3,8.92,8.92,0,0,1,6.14,3.6,8.86,8.86,0,0,1,.74,1.63c.34.87-.17,1.41-.78,1.86-.38.28-.81.57-.93,1-.23.73-.69.81-1.3.76a6.49,6.49,0,0,0-3,.53c-.33.13-.23.23,0,.28Z" transform="translate(-18.3 -33)"/><path class="i" d="M94.49,50.12c1.55.27,3.09.56,4.63.79a2.38,2.38,0,0,1,2,1.67,14.07,14.07,0,0,1,.77,3c.13,1,.08,1.05-1,1h-.4c-4.4-.82-8.82-1.42-13.26-2s-9.1-.7-13.66-1c.3-.34.69-.18,1-.2,2-.12,3.92.15,5.89.19.22,0,.6.14.59-.28s-.29-.34-.54-.27-.44.07-.47-.18.23-.28.43-.21.45-.07.57-.27-.11-.44-.3-.62c-.62-.63-1.36-1.21-1.14-2.27.07-.33-.17-.32-.36-.31-1.07.09-2.11-.31-3.18-.21-.5.05-1,0-1.5,0v-.2h2c1.19-.07,2.38.18,3.57.18,2.54,0,5.06.3,7.58.54C90.05,49.6,92.27,49.88,94.49,50.12Z" transform="translate(-18.3 -33)"/><path class="j" d="M67.85,45.87c-.28,0-.38-.15,0-.28a6.49,6.49,0,0,1,3-.53c.61,0,1.07,0,1.3-.76.12-.41.55-.7.93-1,.61-.45,1.12-1,.78-1.86.92.86,2,.71,3.12.52,7.34-1.28,13.81.72,19.65,5.17.07.06.12.14.28.32l-3.52-.39a8.52,8.52,0,0,0-1.88-.26A205.74,205.74,0,0,0,70,45.46,4.92,4.92,0,0,0,67.85,45.87Z" transform="translate(-18.3 -33)"/><path class="g" d="M30.4,81.19A8,8,0,0,1,32.29,76a4.74,4.74,0,0,1,.8-.75,1.75,1.75,0,0,1,1.76-.45c.59.28.37,1,.42,1.46.29,3.27,1,6.4,3.18,9A8.41,8.41,0,0,0,40,86.8c.56.38.56.74.18,1.22a5.66,5.66,0,0,0-.58.94c-.71,1.42-.51,1.34-2.11.76a10.89,10.89,0,0,1-6.45-5.22A7,7,0,0,1,30.4,81.19Z" transform="translate(-18.3 -33)"/><path class="k" d="M51.59,116c-.13-.61.17-1,.79-1.35a12.29,12.29,0,0,0,4-3.49,1.09,1.09,0,0,1,1.34-.51,22.11,22.11,0,0,0,5.69.3c.23,0,.59-.07.67,0s-.12.48-.27.69a11.27,11.27,0,0,1-4.21,3.63c-1.67.83-1.81,1.16-1.35,2.91a3.86,3.86,0,0,1,.1,1.69,2.65,2.65,0,0,1-1.92,2.33,2.75,2.75,0,0,1-2.9-.9A8.07,8.07,0,0,1,51.59,116Z" transform="translate(-18.3 -33)"/><path class="l" d="M88.56,100.79a14.63,14.63,0,0,0,3-5.58.56.56,0,0,1,.66-.46c2.49.25,5,.28,7.27,1.58a4.84,4.84,0,0,1,2.33,2.53,2.91,2.91,0,0,1-2.5,3.88,3.79,3.79,0,0,1-3-.58C94,100.35,91.34,100.75,88.56,100.79Z" transform="translate(-18.3 -33)"/><path class="h" d="M98.44,44.66a8.65,8.65,0,0,1,7,4.51,27.18,27.18,0,0,1,3.3,8.57,6.19,6.19,0,0,1-.22,3.75,3.12,3.12,0,0,1-2.69,1.8.51.51,0,0,1-.68-.52,18,18,0,0,1-.2-3.59,14.51,14.51,0,0,0-1-7.76,5.4,5.4,0,0,0-2.36-2.78,1.41,1.41,0,0,1-.51-.46A20.35,20.35,0,0,0,98.44,44.66Z" transform="translate(-18.3 -33)"/><path class="i" d="M76.68,48.68h-2v.2c.5,0,1,0,1.5,0,1.07-.1,2.11.3,3.18.21.19,0,.43,0,.36.31-.22,1.06.52,1.64,1.14,2.27.19.18.5.29.3.62s-.28.38-.57.27-.45-.08-.43.21.25.25.47.18.54,0,.54.27-.37.28-.59.28c-2,0-3.92-.31-5.89-.19-.35,0-.74-.14-1,.2l-2,0c-.31-.29-.7-.16-1.05-.17H67.43a7.35,7.35,0,0,1,2.08-.2,1.46,1.46,0,0,0,1.24-.72c.22-.39-.1-.81-.31-1.2-.11-.21-.59-.2-.39-.56s.38-.54.81-.37a.39.39,0,0,0,.49-.24c.09-.21-.07-.31-.21-.39-.66-.36-.27-.64.13-.88-.64-.2-1.27.15-1.82-.25a.62.62,0,0,1,.19-.07c2,0,4.06,0,6.1.08C76.05,48.5,76.41,48.38,76.68,48.68Z" transform="translate(-18.3 -33)"/><path class="i" d="M69.45,48.49c.55.4,1.18,0,1.82.25-.4.24-.79.52-.13.88.14.08.3.18.21.39a.39.39,0,0,1-.49.24c-.43-.17-.66.1-.81.37s.28.35.39.56c.21.39.53.81.31,1.2a1.46,1.46,0,0,1-1.24.72,7.35,7.35,0,0,0-2.08.2H70.6c.35,0,.74-.12,1.05.17l-9,.06-1.08-.09a22.36,22.36,0,0,0,6.73-4.25A2.77,2.77,0,0,1,69.45,48.49Z" transform="translate(-18.3 -33)"/><path class="m" d="M62.61,53.53l9-.06,2,0c4.56.34,9.13.46,13.66,1s8.86,1.17,13.26,2a1.7,1.7,0,0,1-1.44.13c-3-.46-6.09-1-9.15-1.4-2.66-.35-5.34-.6-8-.92-1-.11-1.93-.16-2.89-.22-5.57-.34-11.15-.2-16.73-.22H61.5C61.89,53.55,62.35,53.87,62.61,53.53Z" transform="translate(-18.3 -33)"/><path class="n" d="M76.68,48.68c-.27-.3-.63-.18-.94-.18-2,0-4.07,0-6.1-.08,0-.13-.47-.19-.09-.4a2,2,0,0,1,1.47-.1,5.4,5.4,0,0,0,1.69.14,49.35,49.35,0,0,1,7,.27c3.33.3,6.68.39,10,.89,1.88.28,3.78.47,5.67.82l-.88.08c-2.22-.24-4.44-.52-6.66-.72-2.52-.24-5-.54-7.58-.54C79.06,48.86,77.87,48.61,76.68,48.68Z" transform="translate(-18.3 -33)"/><path class="o" d="M67.85,45.87A4.92,4.92,0,0,1,70,45.46a205.74,205.74,0,0,1,21.48,1.36,8.52,8.52,0,0,1,1.88.26c-.37.36-.84.21-1.24.17-2.18-.26-4.36-.43-6.55-.62-3.46-.29-6.91-.44-10.37-.62-1.57-.08-3.13-.07-4.7-.15a5.4,5.4,0,0,0-3.51.92c-.12.09-.25,0-.34-.09Z" transform="translate(-18.3 -33)"/><path class="p" d="M76.63,56.55l-2.77-.07c-.18-.2-.42-.17-.65-.17H61.86c-.23,0-.48,0-.65.18l-1.2,0c-.18-.37.1-.38.32-.38,4.64,0,9.28-.07,13.92,0,1.54,0,3.09.16,4.64.17v.23Z" transform="translate(-18.3 -33)"/><path class="q" d="M117.71,102.1a11.33,11.33,0,0,1,8.62,3.81c1,1.1,1,1.12-.06,2.14a16.83,16.83,0,0,0-4,5.07,13.05,13.05,0,0,0-1.2,7,5.73,5.73,0,0,0,1,2.69c.28.4.21.53-.22.69-4.46,1.7-8.79.3-11.91-2.92-.31-.32-.21-.4.19-.58,5.56-2.41,9.08-7.92,7.14-14.66a5.64,5.64,0,0,0-1.46-2.48c-.46-.46-.26-.52.22-.63A10.7,10.7,0,0,1,117.71,102.1Z" transform="translate(-18.3 -33)"/><path class="r" d="M114.86,108.23a9.33,9.33,0,0,1-6,9.08c-.81.26-1.17,0-1.41-.71a10.27,10.27,0,0,1,1.25-9.2,13.11,13.11,0,0,1,2.72-2.94,1.33,1.33,0,0,1,2.16.21A5.89,5.89,0,0,1,114.86,108.23Z" transform="translate(-18.3 -33)"/><path class="r" d="M129.15,113.56a9.83,9.83,0,0,1-3.62,7.68c-.52.46-.79.3-1.09-.16a5.1,5.1,0,0,1-.48-3.69,11.42,11.42,0,0,1,4.11-6.91c.38-.34.55-.26.69.18A7.81,7.81,0,0,1,129.15,113.56Z" transform="translate(-18.3 -33)"/><path class="s" d="M89.46,67.51a5.46,5.46,0,0,1,3.31.86c1.83,1.24,2,3.42.06,4.51-1.28.73-1.45,1.88-2,3-.15.31.05.42.22.58.7.65,1.47.56,2.34-.27a1.46,1.46,0,0,1,2-.31A1.64,1.64,0,0,1,95.71,78a3.9,3.9,0,0,1-.31.4,4.36,4.36,0,0,1-5.84.51,2.1,2.1,0,0,0-2-.43,6.16,6.16,0,0,1-5.89-1.71,4.08,4.08,0,0,1-1.1-2,1.48,1.48,0,0,1,.88-1.8,1.38,1.38,0,0,1,1.8.83,3.17,3.17,0,0,0,3.53,1.82,1.93,1.93,0,0,0,1.4-.86c.58-.87.54-1.11-.27-1.79a4.31,4.31,0,0,1-.57-.56A3.09,3.09,0,0,1,86.69,69,2.69,2.69,0,0,1,89.46,67.51Z" transform="translate(-18.3 -33)"/><path class="t" d="M78.86,61.42a4.39,4.39,0,0,1,3.57,2.3,2.23,2.23,0,0,1,.29,1,1.44,1.44,0,0,1-1.07,1.52,1.3,1.3,0,0,1-1.59-.73c-1-1.61-2-1.64-3.11-.11-.61.83-1.37,1.07-2,.65A1.66,1.66,0,0,1,74.4,64,4.89,4.89,0,0,1,78.86,61.42Z" transform="translate(-18.3 -33)"/><path class="u" d="M96.28,63.18a4.32,4.32,0,0,1,3.84,3A1.44,1.44,0,0,1,99.29,68a1.39,1.39,0,0,1-1.77-.7l-.26-.43c-.56-.88-.92-1-1.76-.32a1.43,1.43,0,0,1-2.24-.24,1.71,1.71,0,0,1,.45-2.17A4,4,0,0,1,96.28,63.18Z" transform="translate(-18.3 -33)"/><path class="a" d="M61.21,56.49c.17-.21.42-.18.65-.18H73.21c.23,0,.47,0,.65.17Z" transform="translate(-18.3 -33)"/></svg>