<svg xmlns="http://www.w3.org/2000/svg" viewBox="0 0 81.22 104.11"><defs><style>.a{fill:#434042;}.b{fill:#989a9c;}.c{fill:#7e8383;}.d{fill:#828384;}.e{fill:#9fa1a2;}.f{fill:#7f8083;}.g{fill:#878b8c;}.h{fill:#757879;}.i{fill:#7f8181;}.j{fill:#f6c3b3;}.k{fill:#b4dddd;}.l{fill:#b4dddb;}.m{fill:#b7ab9d;}.n{fill:#f6c1b5;}.o{fill:#b3a79a;}.p{fill:#ebebeb;}.q{fill:#dedcd9;}.r{fill:#484041;}.s{fill:#c9a593;}.t{fill:#f7e2c8;}.u{fill:#eceacb;}.v{fill:#484040;}.w{fill:#474042;}.x{fill:#474143;}.y{fill:#ac9f92;}.z{fill:#aca798;}.aa{fill:#444142;}.ab{fill:#f3ecca;}</style></defs><path class="a" d="M97,35a6.69,6.69,0,0,1,3.47,0,1.83,1.83,0,0,0,.33.3c1.88.87,2.5,2.62,2.9,4.42a15.76,15.76,0,0,1,.22,3.44,65.52,65.52,0,0,1-.74,9.38,1.65,1.65,0,0,0-.25,1.36,28.52,28.52,0,0,1,1.48,4.22,21,21,0,0,1,.72,3.15,37.44,37.44,0,0,1,.28,5.9c-.07,1.16.11,1.35,1.23,1.59.17,0,.36,0,.54,0,.68.12,1.32.75,1.23,1.23a1.33,1.33,0,0,1-1.49.91l-.35-.08c-.3-.06-.59-.14-.89-.18s-.75,0-.83.49a19.29,19.29,0,0,1-1.06,3.25c-.25.64-.16,1.11.51,1.41a2.77,2.77,0,0,1,1.09,1,1,1,0,0,1-.72,1.52,5.93,5.93,0,0,1-.73,0c-.24-.18-.48-.37-.73-.54-.79-.55-.85-.55-1.43.25a17.07,17.07,0,0,1-4.28,4.28c-.63.41-1.28.79-1.91,1.21-.41.27-.63.61-.1,1a24.19,24.19,0,0,1,5,4.73,17.91,17.91,0,0,1,3,5.06c.4,1.13.49,2.39,1.9,3.16,1.68.92,2.25,2.74,2.24,4.68,0,1.06.18,1.23,1.22,1.21a9.46,9.46,0,0,1,4.53.6,4.82,4.82,0,0,1,3,4.47c0,4.77,0,9.55,0,14.33a5,5,0,0,1-2.22,4.15,7.49,7.49,0,0,1-4.81,1.31c-.33,0-.82-.26-1,.32l-1.43,0c-.88-.14-1.72.22-2.61.16-2.19-.14-4.33.42-6.51.5a17.64,17.64,0,0,0-2.81.14,21.87,21.87,0,0,1-7,.14c-2.44-.32-4.85-1-7.35-.81a1.53,1.53,0,0,0-.67-.45c-2.14-.79-3-2.57-3.58-4.58-.33-1.21-.39-2.48-.73-3.7a43.66,43.66,0,0,1-6.25-.35c-1.1-.2-1.57.29-1.56,1.43A11.22,11.22,0,0,1,67.3,124c-.6,2.23-3.31,4.86-6.06,4.76-1.07-.05-2.13,0-3.19,0a6.77,6.77,0,0,1-4-2.59,10,10,0,0,1-1.73-5.65,81.17,81.17,0,0,1-.41-9.1,4.87,4.87,0,0,0,0-.54c0-.36-.19-.6-.55-.6a5.52,5.52,0,0,1-1.75-.46,6.82,6.82,0,0,1-4.69-6.35c-.19-3.14.69-6.1,1.48-9.08a.41.41,0,0,1,0-.16c.2,0,.27-.17.34-.36.21-.6.46-1.19.71-1.77a29.57,29.57,0,0,1,3.79-6.47c.31-.4.33-.69-.15-.94-.21-.12-.41-.25-.63-.36a20,20,0,0,1-4.66-2.88,26.28,26.28,0,0,1-3.23-3.68,1,1,0,0,0-1.22-.43c-.72.19-1.34.69-2.15.64-.48,0-.83-.12-1-.63a1,1,0,0,1,.4-1.1,8.76,8.76,0,0,1,1.77-.92c.52-.24.54-.5.45-1a26.11,26.11,0,0,1-.73-2.7c-.09-1-.54-1.18-1.56-1a8.18,8.18,0,0,1-1.64,0c-.46,0-.92-.15-.95-.76a.94.94,0,0,1,.83-1.09,12.88,12.88,0,0,0,2.45-.52.49.49,0,0,0,.21-.47,31.67,31.67,0,0,1,.74-8,27.74,27.74,0,0,1,1.22-4.15c.6-1.48,1.28-2.91.71-4.66a19.38,19.38,0,0,1-.36-3.61,25,25,0,0,1,.37-8.23,6,6,0,0,1,1.11-2.56c1.77-2.24,3.84-2.16,6.11-1.36a28.64,28.64,0,0,1,4.32,2.26c1,.57,1.37.5,1.69-.63a13,13,0,0,1,1.06-2.56A12.94,12.94,0,0,1,59.8,30a18.74,18.74,0,0,1,10.46-3.67,28.85,28.85,0,0,1,9,.39A22.73,22.73,0,0,1,84,28.14a10.85,10.85,0,0,1,4.69,4.29,21.23,21.23,0,0,1,2.07,4.8c.23.77.44.8,1.12.45a24.46,24.46,0,0,1,4.71-2.3A.49.49,0,0,0,97,35ZM50.57,107.55c1.17.36,1.61.25,1.58-.54a41.18,41.18,0,0,1,.47-6.08,18.42,18.42,0,0,1,.89-4.7,1.1,1.1,0,1,1,2.06.75,5.64,5.64,0,0,0-.26,1.15c-.11,2-.39,4.06-.64,6.06-.44,3.47-.25,6.93-.35,10.38a31.57,31.57,0,0,0,.48,7.26c.38,1.86,1,3.51,3,4.34a7.47,7.47,0,0,0,3.58.35,4.77,4.77,0,0,0,3.8-3.22,18.61,18.61,0,0,0,.51-4.5c.15-1.3.37-1.61,1.68-1.55a88.42,88.42,0,0,0,9.21,0c1-.06,1.35.29,1.35,1.28a24.05,24.05,0,0,0,.43,4.16,5,5,0,0,0,1.67,3c.19.16.4.34.65.2s.21-.51.07-.73a5.2,5.2,0,0,1-.44-2.93c0-3.93,0-7.86,0-11.78a5.51,5.51,0,0,1,2.62-4.81,9,9,0,0,1,4.92-1.32c1.18-.06,1.29-.11,1.26-1.25A4.78,4.78,0,0,1,90.21,100a.77.77,0,0,0,0-1.17,12.57,12.57,0,0,0-2.29-1.9,1.23,1.23,0,0,1-.46-1.66,1.48,1.48,0,0,1,1.89-.34,8.45,8.45,0,0,1,1.59,1.21,29.34,29.34,0,0,1,3.73,4.22,3.86,3.86,0,0,0,4.58,1.56c2.13-.79,2.83-2.61,2.62-4.69a10.18,10.18,0,0,0-1.35-3.91,22.58,22.58,0,0,0-6.82-7.21A3.5,3.5,0,0,0,91,85.27a1.05,1.05,0,0,1-1.3-.85c-.17-.7.37-1.07.91-1.3a34.14,34.14,0,0,0,4.18-1.9,17.3,17.3,0,0,0,4.77-4.29c.36-.44.33-.75-.26-.93-.41-.12-.77-.35-1.18-.46a1.48,1.48,0,0,1-1.08-1c-.11-.4.19-.62.45-.84.66-.55,1.38-.29,2.07-.08,1.63.51,1.63.52,2.32-1,1-2.08.8-2.3-1.49-2.32a4.14,4.14,0,0,1-1.71-.16.93.93,0,0,1-.65-.89,1,1,0,0,1,.59-.95,2.39,2.39,0,0,1,1.06-.21c.82,0,1.65,0,2.47,0,.64,0,.89-.24.87-.85a36.5,36.5,0,0,0-.31-6.08,30.77,30.77,0,0,0-1.88-6.1,2,2,0,0,1-.35-1.3,43.68,43.68,0,0,0,1.13-7.45,19.59,19.59,0,0,0-.38-6.78c-.58-1.88-1.74-2.54-3.57-1.82a4.29,4.29,0,0,0-2.12.71c-1,.46-2,1-2.94,1.57s-1,.83-.16,1.39c.5.36,1,.65,1.54,1a10.55,10.55,0,0,1,2.57,1.83,2.38,2.38,0,0,1,.06,3.55,10.42,10.42,0,0,1-5.7,2.95c-1.06.25-2.16.33-3.22.53a43.82,43.82,0,0,1-6.32.71c-3.94.15-7.89.37-11.85.16a96.7,96.7,0,0,1-10.32-.92,34.16,34.16,0,0,1-6.34-1.48,8.3,8.3,0,0,1-3.59-2.19,1.81,1.81,0,0,1-.18-2.67,5.41,5.41,0,0,1,1.53-1.41c.92-.64,1.86-1.25,2.81-1.84.32-.2.69-.37.69-.77s-.43-.37-.69-.5a24.25,24.25,0,0,1-2.68-1.51,16.14,16.14,0,0,0-3.29-1.47,2.07,2.07,0,0,0-2.61,1.05,6,6,0,0,0-.6,1.81c-.2,2.1-.71,4.2-.24,6.33.34,1.58.1,3.21.54,4.79A4.64,4.64,0,0,1,44.21,55a7.58,7.58,0,0,0-.5,1.25,32.39,32.39,0,0,0-1.52,6.06,21,21,0,0,0-.25,5.26.65.65,0,0,0,.76.69c.64,0,1.27,0,1.91,0a1.32,1.32,0,0,1,1.33,1.1,1.37,1.37,0,0,1-1.37,1.08l-1.64,0c-.42,0-.72.26-.53.63.36.68.4,1.45.7,2.15s.54.72,1.12.51a5.89,5.89,0,0,1,1.86-.4,1,1,0,0,1,1,.7.88.88,0,0,1-.38,1.18c-.4.21-.79.45-1.19.65-.82.41-.83.4-.25,1.17A16.51,16.51,0,0,0,52,82.19a14.6,14.6,0,0,1,2.56,1.14c1,.68,1,1.43,0,2.13a6.58,6.58,0,0,0-.9.76,22,22,0,0,0-3.09,4.47,27.79,27.79,0,0,0-3.31,9.9,9.36,9.36,0,0,0,.09,3.87A4.53,4.53,0,0,0,50.57,107.55Zm38,9.58v6a12.25,12.25,0,0,0,.12,1.91c.22,1.44.53,1.77,1.94,1.94a14.44,14.44,0,0,0,2.55.09c4.27-.22,8.54-.49,12.79-1a37.93,37.93,0,0,0,5-.45c2.16-.52,3.11-1.53,3.12-3.77,0-2,0-4,0-5.93,0-2.34-.08-4.68,0-7a3.36,3.36,0,0,0-3.57-3.29c-2.7.1-5.4.2-8.1.34-3.6.19-7.2.54-10.82.63a1,1,0,0,0-.61.11,4.36,4.36,0,0,0-2.36,3.82C88.6,112.75,88.57,114.94,88.57,117.13ZM74.17,40.7c1.82.07,3.94-.12,6.06-.22a33.14,33.14,0,0,0,4.88-.56c.83-.16,1.68-.23,2.5-.42,1-.22,1.19-.58.86-1.54-.26-.77-.51-1.55-.81-2.31a9.33,9.33,0,0,0-4-4.86c-2.75-1.6-5.81-2-8.88-2.26a25.42,25.42,0,0,0-7.75.81A15.47,15.47,0,0,0,62.56,31c-2.85,1.7-4.23,4.48-5.27,7.48-.15.44.11.53.48.67a22.31,22.31,0,0,0,4.19.74A84.42,84.42,0,0,0,74.17,40.7Zm-.62,9c.77,0,1.89,0,3,0a88.34,88.34,0,0,0,13.38-1.37,10.2,10.2,0,0,0,4.12-1.57c.77-.56.77-.77.06-1.37-1-.82-2.27-1.23-3.16-2.12a3.89,3.89,0,0,0-4.18-1,46.66,46.66,0,0,1-7.84,1,88.71,88.71,0,0,1-15.11-.45,62.27,62.27,0,0,1-6.64-1,.79.79,0,0,0-.92.38A5.76,5.76,0,0,1,55,43.37c-.84.63-1.74,1.19-2.63,1.77-1.08.71-1,1.2.13,1.78a2.37,2.37,0,0,0,.34.13,34.84,34.84,0,0,0,9.74,2.15A73.85,73.85,0,0,0,73.55,49.72ZM86,117.3h0c0-2.21,0-4.43,0-6.65a6,6,0,0,1,.66-2.8c.35-.67.2-.91-.56-.82a3.81,3.81,0,0,0-3.44,3.58q.06,5.83,0,11.67a4.29,4.29,0,0,0,2.88,4.44c.22.1.44.26.68.13s.17-.51.11-.74c-.54-1.85-.3-3.74-.34-5.61C85.94,119.43,86,118.37,86,117.3Zm17.48-13.9v0c.3,0,.6,0,.9,0s.47-.14.47-.44a3.59,3.59,0,0,0-.47-2.35c-.07-.09-.14-.25-.22-.26s-.2.17-.25.31a6.88,6.88,0,0,1-1.24,2.08c-.13.15-.4.27-.29.51s.41.17.64.19Zm-11.17.65c.37-.11,1,.07,1.23-.37s-.45-.56-.68-.86a.76.76,0,0,0-.11-.14c-.7-.73-.7-.73-1,.25,0,.11-.08.23-.11.34C91.38,103.84,91.63,104.07,92.27,104.05Z" transform="translate(-35.49 -25.79)"/><path class="b" d="M97,35a.49.49,0,0,1-.38.35,24.46,24.46,0,0,0-4.71,2.3c-.68.35-.89.32-1.12-.45a21.23,21.23,0,0,0-2.07-4.8A10.85,10.85,0,0,0,84,28.14a22.73,22.73,0,0,0-4.74-1.42,28.85,28.85,0,0,0-9-.39A18.74,18.74,0,0,0,59.8,30a12.94,12.94,0,0,0-3.38,4.34,13,13,0,0,0-1.06,2.56c-.32,1.13-.66,1.2-1.69.63a28.64,28.64,0,0,0-4.32-2.26c-2.27-.8-4.34-.88-6.11,1.36a6,6,0,0,0-1.11,2.56,25,25,0,0,0-.37,8.23A19.38,19.38,0,0,0,42.12,51c.57,1.75-.11,3.18-.71,4.66a27.74,27.74,0,0,0-1.22,4.15,31.67,31.67,0,0,0-.74,8,.49.49,0,0,1-.21.47l-.76,0a.7.7,0,0,0,.62-.82,31.41,31.41,0,0,1,.56-6.71,37.41,37.41,0,0,1,1.06-4,23.17,23.17,0,0,1,1.15-3A3,3,0,0,0,41.93,52a51,51,0,0,1-.53-9,13.37,13.37,0,0,1,1-5.49,4.87,4.87,0,0,1,6.15-2.76,25.41,25.41,0,0,1,5.33,2.63c.66.38.89.2,1.1-.42a17.41,17.41,0,0,1,2.16-4.47,12.85,12.85,0,0,1,5.45-4.52,27.58,27.58,0,0,1,8.68-2.05,30.29,30.29,0,0,1,8.39.6A17.84,17.84,0,0,1,84.32,28a11.72,11.72,0,0,1,5.29,5.44A15.19,15.19,0,0,1,91,37.13c.08.36.24.53.64.3.87-.49,1.75-1,2.64-1.4A6.28,6.28,0,0,1,97,35Z" transform="translate(-35.49 -25.79)"/><path class="c" d="M108.26,128.53c.18-.58.67-.34,1-.32a7.49,7.49,0,0,0,4.81-1.31,5,5,0,0,0,2.22-4.15c0-4.78,0-9.56,0-14.33a4.82,4.82,0,0,0-3-4.47,9.46,9.46,0,0,0-4.53-.6c-1,0-1.23-.15-1.22-1.21,0-1.94-.56-3.76-2.24-4.68-1.41-.77-1.5-2-1.9-3.16a17.91,17.91,0,0,0-3-5.06,24.19,24.19,0,0,0-5-4.73c-.53-.39-.31-.73.1-1,.63-.42,1.28-.8,1.91-1.21A17.07,17.07,0,0,0,101.73,78c.58-.8.64-.8,1.43-.25.25.17.49.36.73.54v.2a.52.52,0,0,1-.18,0c-1.33-.75-1.38-.79-2.29.45a18.94,18.94,0,0,1-5.15,4.54c-.83.53-.83.64,0,1.25a24.43,24.43,0,0,1,6.43,7.22,16.5,16.5,0,0,1,1.58,3.93,1.31,1.31,0,0,0,.68.89,5.19,5.19,0,0,1,2.75,4.15,13,13,0,0,1,.24,1.52c0,.51.38.57.77.54a11.55,11.55,0,0,1,3.79.32,5.61,5.61,0,0,1,4,4.17,18.82,18.82,0,0,1,.22,3.18c0,3.8,0,7.6,0,11.4a5.85,5.85,0,0,1-2.14,4.8,6.1,6.1,0,0,1-4,1.57C109.82,128.4,109.06,128.78,108.26,128.53Z" transform="translate(-35.49 -25.79)"/><path class="d" d="M38.48,68.24l.76,0a12.88,12.88,0,0,1-2.45.52A.94.94,0,0,0,36,69.87c0,.61.49.74.95.76a8.18,8.18,0,0,0,1.64,0c1-.14,1.47,0,1.56,1a26.11,26.11,0,0,0,.73,2.7c.09.49.07.75-.45,1a8.76,8.76,0,0,0-1.77.92,1,1,0,0,0-.4,1.1c.14.51.49.6,1,.63.81,0,1.43-.45,2.15-.64a1,1,0,0,1,1.22.43,26.28,26.28,0,0,0,3.23,3.68,20,20,0,0,0,4.66,2.88c.22.11.42.24.63.36.48.25.46.54.15.94a29.57,29.57,0,0,0-3.79,6.47c-.25.58-.5,1.17-.71,1.77-.07.19-.14.32-.34.36-.16-.89.42-1.57.74-2.28a30.18,30.18,0,0,1,3.77-6.38c.54-.68-.19-.84-.48-1a19.51,19.51,0,0,1-2.72-1.42,17.31,17.31,0,0,1-5.25-5.08c-.41-.56-.75-.65-1.27-.36s-1.15.37-1.7.62-1.1-.15-1.47-.63a1,1,0,0,1,.1-1.4,3.57,3.57,0,0,1,1.74-1.1c.76-.24.84-.73.59-1.24-.4-.81-.45-1.7-.77-2.52a.64.64,0,0,0-.73-.5c-.63,0-1.27,0-1.91.06A1.31,1.31,0,0,1,36,70.61c-.73-.73-.61-1.46.3-2A3.85,3.85,0,0,1,38.48,68.24Z" transform="translate(-35.49 -25.79)"/><path class="e" d="M46.36,94.38c-.79,3-1.67,5.94-1.48,9.08a6.82,6.82,0,0,0,4.69,6.35,5.52,5.52,0,0,0,1.75.46c.36,0,.54.24.55.6a4.87,4.87,0,0,1,0,.54,81.17,81.17,0,0,0,.41,9.1A10,10,0,0,0,54,126.16a6.77,6.77,0,0,0,4,2.59c0,.05,0,.11,0,.16a5.76,5.76,0,0,1-4.22-2.53,9.4,9.4,0,0,1-1.77-5.06,68.64,68.64,0,0,1-.46-9.72c0-.95-.13-1-1.09-1.17a7.14,7.14,0,0,1-4.87-3.33,8.26,8.26,0,0,1-1-4.26A23.75,23.75,0,0,1,46,94.65.37.37,0,0,1,46.36,94.38Z" transform="translate(-35.49 -25.79)"/><path class="f" d="M103.89,78.51v-.2a5.93,5.93,0,0,0,.73,0,1,1,0,0,0,.72-1.52,2.77,2.77,0,0,0-1.09-1c-.67-.3-.76-.77-.51-1.41a19.29,19.29,0,0,0,1.06-3.25c.08-.45.43-.55.83-.49s.59.12.89.18l.35.08a1.33,1.33,0,0,0,1.49-.91c.09-.48-.55-1.11-1.23-1.23-.18,0-.37,0-.54,0-1.12-.24-1.3-.43-1.23-1.59a37.44,37.44,0,0,0-.28-5.9,21,21,0,0,0-.72-3.15,28.52,28.52,0,0,0-1.48-4.22,1.65,1.65,0,0,1,.25-1.36h.23c-.37,1.32.38,2.39.74,3.56a36.89,36.89,0,0,1,1.28,5.25,38.63,38.63,0,0,1,.32,6.26c0,.3,0,.6.4.59.55,0,1,.36,1.47.45a1.28,1.28,0,0,1,1,1.41,1.17,1.17,0,0,1-1.25,1.06,7.76,7.76,0,0,1-1.36-.08.76.76,0,0,0-1,.65,13.58,13.58,0,0,1-1,2.92c-.21.45,0,.69.35.9a4.89,4.89,0,0,1,1.09.94,1.19,1.19,0,0,1,.13,1.65A1.21,1.21,0,0,1,103.89,78.51Z" transform="translate(-35.49 -25.79)"/><path class="g" d="M80.56,128.7c2.5-.15,4.91.49,7.35.81a21.87,21.87,0,0,0,7-.14,17.64,17.64,0,0,1,2.81-.14c2.18-.08,4.32-.64,6.51-.5.89.06,1.73-.3,2.61-.16-.09.45-.47.29-.74.31-3.65.31-7.32.52-11,.86a53.55,53.55,0,0,1-8.11,0,14.83,14.83,0,0,1-2.73-.65,1.29,1.29,0,0,0-.8-.07,5.05,5.05,0,0,1-3.36-.3Z" transform="translate(-35.49 -25.79)"/><path class="e" d="M58.06,128.91s0-.11,0-.16c1.06,0,2.12-.05,3.19,0,2.75.1,5.46-2.53,6.06-4.76a11.22,11.22,0,0,0,.47-2.94c0-1.14.46-1.63,1.56-1.43a43.66,43.66,0,0,0,6.25.35v.21l-4.47-.09c-.64,0-1.27,0-1.91-.11s-.88.15-1,.84a10.28,10.28,0,0,1-1.73,5.39,6.89,6.89,0,0,1-5.66,2.89,6.4,6.4,0,0,1-2.39,0A3,3,0,0,1,58.06,128.91Z" transform="translate(-35.49 -25.79)"/><path class="h" d="M103.36,52.56h-.23a65.52,65.52,0,0,0,.74-9.38,15.76,15.76,0,0,0-.22-3.44c-.4-1.8-1-3.55-2.9-4.42a1.83,1.83,0,0,1-.33-.3A3.57,3.57,0,0,1,103,37a11.84,11.84,0,0,1,1.27,5.32,48.32,48.32,0,0,1-.44,7.88C103.75,51,103.42,51.75,103.36,52.56Z" transform="translate(-35.49 -25.79)"/><path class="i" d="M75.57,120.18V120c.34,1.22.4,2.49.73,3.7.55,2,1.44,3.79,3.58,4.58a1.53,1.53,0,0,1,.67.45l-.44,0a6.75,6.75,0,0,1-4.08-4.9A13.82,13.82,0,0,1,75.57,120.18Z" transform="translate(-35.49 -25.79)"/><path class="j" d="M88.57,117.13c0-2.19,0-4.38,0-6.57a4.36,4.36,0,0,1,2.36-3.82,1,1,0,0,1,.61-.11c3.62-.09,7.22-.44,10.82-.63,2.7-.14,5.4-.24,8.1-.34A3.36,3.36,0,0,1,114,109c0,2.34,0,4.68,0,7,0,2,0,4,0,5.93,0,2.24-1,3.25-3.12,3.77a37.93,37.93,0,0,1-5,.45c-4.25.48-8.52.75-12.79,1a14.44,14.44,0,0,1-2.55-.09c-1.41-.17-1.72-.5-1.94-1.94a12.25,12.25,0,0,1-.12-1.91Zm12.57-4.65h0a3,3,0,0,0-1.65-2.72,2.37,2.37,0,0,0-2.4-.37c-1.63.75-3.28,1.45-4.93,2.17a2.13,2.13,0,0,0-1.11,2.49c.28,1.12.77,2.15,1.12,3.24.5,1.56,1.47,2.08,3,1.46s2.86-1.22,4.28-1.86a4.11,4.11,0,0,0,2.1-1.78A2.44,2.44,0,0,0,101.14,112.48Zm7,11.26a2.14,2.14,0,0,0,2.18-1.38,19.77,19.77,0,0,0,1.29-3.57,1.51,1.51,0,0,0-1.06-2.07c-1.31-.51-2.61-1.07-4-1.52a1.86,1.86,0,0,0-2.33.62,12.45,12.45,0,0,0-1.8,4.22,1.56,1.56,0,0,0,.93,1.95c.43.21.85.46,1.29.63A18.83,18.83,0,0,0,108.11,123.74Z" transform="translate(-35.49 -25.79)"/><path class="k" d="M74.17,40.7A84.42,84.42,0,0,1,62,39.93a22.31,22.31,0,0,1-4.19-.74c-.37-.14-.63-.23-.48-.67,1-3,2.42-5.78,5.27-7.48A15.47,15.47,0,0,1,67,29.34a25.42,25.42,0,0,1,7.75-.81c3.07.24,6.13.66,8.88,2.26a9.33,9.33,0,0,1,4,4.86c.3.76.55,1.54.81,2.31.33,1,.14,1.32-.86,1.54-.82.19-1.67.26-2.5.42a33.14,33.14,0,0,1-4.88.56C78.11,40.58,76,40.77,74.17,40.7Z" transform="translate(-35.49 -25.79)"/><path class="l" d="M73.55,49.72a73.85,73.85,0,0,1-11-.52,34.84,34.84,0,0,1-9.74-2.15,2.37,2.37,0,0,1-.34-.13c-1.16-.58-1.21-1.07-.13-1.78.89-.58,1.79-1.14,2.63-1.77a5.76,5.76,0,0,0,1.3-1.26.79.79,0,0,1,.92-.38,62.27,62.27,0,0,0,6.64,1,88.71,88.71,0,0,0,15.11.45,46.66,46.66,0,0,0,7.84-1,3.89,3.89,0,0,1,4.18,1c.89.89,2.18,1.3,3.16,2.12.71.6.71.81-.06,1.37a10.2,10.2,0,0,1-4.12,1.57,88.34,88.34,0,0,1-13.38,1.37C75.44,49.76,74.32,49.72,73.55,49.72Z" transform="translate(-35.49 -25.79)"/><path class="m" d="M97.64,37.72c1.83-.72,3-.06,3.57,1.82a19.59,19.59,0,0,1,.38,6.78,43.68,43.68,0,0,1-1.13,7.45,2,2,0,0,0,.35,1.3,30.77,30.77,0,0,1,1.88,6.1,36.5,36.5,0,0,1,.31,6.08c0,.61-.23.89-.87.85-.82,0-1.65,0-2.47,0a2.39,2.39,0,0,0-1.06.21,1,1,0,0,0-.59.95.93.93,0,0,0,.65.89,4.14,4.14,0,0,0,1.71.16c2.29,0,2.44.24,1.49,2.32-.69,1.51-.69,1.5-2.32,1-.69-.21-1.41-.47-2.07.08-.26.22-.56.44-.45.84a1.48,1.48,0,0,0,1.08,1c.41.11.77.34,1.18.46.59.18.62.49.26.93a17.3,17.3,0,0,1-4.77,4.29,34.14,34.14,0,0,1-4.18,1.9c-.54.23-1.08.6-.91,1.3a1.05,1.05,0,0,0,1.3.85,3.5,3.5,0,0,1,2.69.81,22.58,22.58,0,0,1,6.82,7.21,10.18,10.18,0,0,1,1.35,3.91c.21,2.08-.49,3.9-2.62,4.69a3.86,3.86,0,0,1-4.58-1.56,29.34,29.34,0,0,0-3.73-4.22,8.45,8.45,0,0,0-1.59-1.21,1.48,1.48,0,0,0-1.89.34,1.23,1.23,0,0,0,.46,1.66,12.57,12.57,0,0,1,2.29,1.9.77.77,0,0,1,0,1.17,4.78,4.78,0,0,0-1.12,3.18c0,1.14-.08,1.19-1.26,1.25a9,9,0,0,0-4.92,1.32,5.51,5.51,0,0,0-2.62,4.81c.07,3.92,0,7.85,0,11.78a5.2,5.2,0,0,0,.44,2.93c.14.22.25.54-.07.73s-.46,0-.65-.2a5,5,0,0,1-1.67-3,24.05,24.05,0,0,1-.43-4.16c0-1-.4-1.34-1.35-1.28a88.42,88.42,0,0,1-9.21,0c-1.31-.06-1.53.25-1.68,1.55a18.61,18.61,0,0,1-.51,4.5,4.77,4.77,0,0,1-3.8,3.22,7.47,7.47,0,0,1-3.58-.35c-2-.83-2.62-2.48-3-4.34a31.57,31.57,0,0,1-.48-7.26c.1-3.45-.09-6.91.35-10.38.25-2,.53-4,.64-6.06A5.64,5.64,0,0,1,55.57,97a1.1,1.1,0,1,0-2.06-.75,18.42,18.42,0,0,0-.89,4.7,41.18,41.18,0,0,0-.47,6.08c0,.79-.41.9-1.58.54v-.18c1.24,0,1.18,0,1.29-1.25s.06-2.55.21-3.81c.23-1.89.58-3.76.87-5.64a1.85,1.85,0,0,1,1.67-1.51,1.4,1.4,0,0,1,1.27,1.66,33.27,33.27,0,0,1-.49,3.87,72.65,72.65,0,0,0-.74,8.31,74.28,74.28,0,0,0,.29,11.74,11.49,11.49,0,0,0,.81,3c.73,1.82,2.31,2.37,4.1,2.59a6.33,6.33,0,0,0,2.63-.51,3.24,3.24,0,0,0,1.87-1.5,7.72,7.72,0,0,0,1-3.6c0-.76,0-1.52,0-2.28a1.56,1.56,0,0,1,1.81-1.56,9.74,9.74,0,0,0,2.08.13c2.52,0,5,0,7.57,0,.66,0,1.23.2,1.28.88a37.65,37.65,0,0,1,.44,4,6,6,0,0,0,1.23,3.25c.08.12.2.29.36.23s.07-.3,0-.45a25.73,25.73,0,0,1-.41-4.88c.06-1.4,0-2.8,0-4.2.1-2.26-.29-4.54.33-6.79a6,6,0,0,1,2.42-3.49,9.16,9.16,0,0,1,5.32-1.46c.58,0,.85-.11.89-.79a5.17,5.17,0,0,1,1-3.3.74.74,0,0,0,0-1.16,9.67,9.67,0,0,0-2.13-1.69,1,1,0,0,1-.59-.85c0-.66-.06-1.3.63-1.68a1.78,1.78,0,0,1,1.9.07,14.88,14.88,0,0,1,2.19,1.77,44.8,44.8,0,0,1,3.46,4.09A3.55,3.55,0,0,0,101.5,98a7.06,7.06,0,0,0-.45-2.54,14.71,14.71,0,0,0-2.2-4.1,25.78,25.78,0,0,0-5.67-5.21,3.28,3.28,0,0,0-2.27-.67c-.84.07-1.34-.29-1.46-.9a1.42,1.42,0,0,1,1-1.69L92,82.22a26.5,26.5,0,0,0,3.69-2,22.63,22.63,0,0,0,3.29-3c.14-.14.17-.39.28-.57s.18-.34-.12-.36c-.57,0-1-.47-1.51-.6a1.43,1.43,0,0,1-.86-1.64,1.15,1.15,0,0,1,1.26-1c.79.11,1.65-.13,2.36.45a.5.5,0,0,0,.86-.29,17.37,17.37,0,0,0,.67-2c.08-.62-.12-.66-.59-.65-.73,0-1.46,0-2.19,0a1.44,1.44,0,0,1-1.46-1.76,1.85,1.85,0,0,1,1.56-1.17c.92,0,1.83,0,2.74,0,.45,0,.74-.1.78-.64a25.69,25.69,0,0,0-1-8.69,12.8,12.8,0,0,0-1.59-3.83,1.08,1.08,0,0,1-.08-1,25.13,25.13,0,0,0,.58-2.65,42.38,42.38,0,0,0,.63-5.48,16.4,16.4,0,0,0-.37-5.88c-.3-1.18-.77-1.89-2.11-1.8-.37,0-.73,0-1.1,0Z" transform="translate(-35.49 -25.79)"/><path class="n" d="M86,117.3c0,1.07,0,2.13,0,3.2,0,1.87-.2,3.76.34,5.61.06.23.21.56-.11.74s-.46,0-.68-.13a4.29,4.29,0,0,1-2.88-4.44q.08-5.84,0-11.67A3.81,3.81,0,0,1,86.09,107c.76-.09.91.15.56.82a6,6,0,0,0-.66,2.8c0,2.22,0,4.44,0,6.65Z" transform="translate(-35.49 -25.79)"/><path class="o" d="M50.57,107.37v.18a4.53,4.53,0,0,1-3.15-3.09,9.36,9.36,0,0,1-.09-3.87,27.79,27.79,0,0,1,3.31-9.9,22,22,0,0,1,3.09-4.47,6.58,6.58,0,0,1,.9-.76c1-.7,1-1.45,0-2.13A14.6,14.6,0,0,0,52,82.19a16.51,16.51,0,0,1-6.82-5.11c-.58-.77-.57-.76.25-1.17.4-.2.79-.44,1.19-.65A.88.88,0,0,0,47,74.08a1,1,0,0,0-1-.7,5.89,5.89,0,0,0-1.86.4c-.58.21-.87.06-1.12-.51s-.34-1.47-.7-2.15c-.19-.37.11-.62.53-.63l1.64,0a1.37,1.37,0,0,0,1.37-1.08,1.32,1.32,0,0,0-1.33-1.1c-.64,0-1.27,0-1.91,0a.65.65,0,0,1-.76-.69,21,21,0,0,1,.25-5.26,32.39,32.39,0,0,1,1.52-6.06,7.58,7.58,0,0,1,.5-1.25,4.64,4.64,0,0,0,.32-3.71c-.44-1.58-.2-3.21-.54-4.79-.47-2.13,0-4.23.24-6.33a6,6,0,0,1,.6-1.81,2.07,2.07,0,0,1,2.61-1.05,16.14,16.14,0,0,1,3.29,1.47,24.25,24.25,0,0,0,2.68,1.51c.26.13.69.13.69.5s-.37.57-.69.77c-.95.59-1.89,1.2-2.81,1.84a5.41,5.41,0,0,0-1.53,1.41,1.81,1.81,0,0,0,.18,2.67,8.3,8.3,0,0,0,3.59,2.19,34.16,34.16,0,0,0,6.34,1.48,96.7,96.7,0,0,0,10.32.92c4,.21,7.91,0,11.85-.16a43.82,43.82,0,0,0,6.32-.71c1.06-.2,2.16-.28,3.22-.53a10.42,10.42,0,0,0,5.7-2.95,2.38,2.38,0,0,0-.06-3.55A10.55,10.55,0,0,0,94,42.36c-.51-.32-1-.61-1.54-1-.79-.56-.74-.92.16-1.39s1.93-1.11,2.94-1.57a4.29,4.29,0,0,1,2.12-.71l.08.1a37.83,37.83,0,0,0-4.91,2.41c-.65.31-.66.63-.06,1,.31.19.59.41.91.59a10.83,10.83,0,0,1,3.41,2.53,2.86,2.86,0,0,1,.19,3,8,8,0,0,1-4.22,3,29.78,29.78,0,0,1-4.29,1c-1.73.34-3.48.54-5.21.73-2.33.25-4.71.3-7.08.4a43.48,43.48,0,0,1-7.82-.13c-2.13-.3-4.28-.16-6.43-.48A62.51,62.51,0,0,1,54,50.39a11.93,11.93,0,0,1-4.56-2.27C48.07,47,48,45.59,48.94,44.46a8.41,8.41,0,0,1,2.24-1.82c.73-.41,1.44-.87,2.14-1.35.3-.2.5-.38-.06-.67C52,40,50.79,39.15,49.51,38.48a8.52,8.52,0,0,0-2.74-.87,1.31,1.31,0,0,0-1.53.84,8.52,8.52,0,0,0-.89,3.84c0,2,0,4,0,6a18.43,18.43,0,0,0,.63,4,3,3,0,0,1-.29,2.29,24,24,0,0,0-2.09,6.69,23.56,23.56,0,0,0-.49,5.33c.07,1.14.14,1.26,1.26,1.27a5,5,0,0,1,1.72.15,1.43,1.43,0,0,1,1,1.66c-.11.62-.58.94-1.43,1-.58,0-1.16,0-1.74,0-.2,0-.5.06-.3.37.41.67.34,1.47.69,2.16.16.32.39.48.61.29.59-.48,1.29-.27,1.93-.41a1.4,1.4,0,0,1,1.54.88c.32.6-.08,1-.42,1.36a3.47,3.47,0,0,1-1.39.82c-.57.24-.51.41-.19.82a15.48,15.48,0,0,0,4.68,3.92,15,15,0,0,0,2.41,1.2,6.21,6.21,0,0,1,2.58,1.25A1.34,1.34,0,0,1,55,85.52a10.58,10.58,0,0,0-1,.84,21.7,21.7,0,0,0-3.58,5.32,35.4,35.4,0,0,0-1.89,4.39,20,20,0,0,0-1,8,3.06,3.06,0,0,0,.71,1.6A8,8,0,0,0,50.57,107.37Z" transform="translate(-35.49 -25.79)"/><path class="p" d="M103.44,103.4H103c-.23,0-.52.08-.64-.19s.16-.36.29-.51a6.88,6.88,0,0,0,1.24-2.08c0-.14.06-.34.25-.31s.15.17.22.26a3.59,3.59,0,0,1,.47,2.35c0,.3-.19.43-.47.44s-.6,0-.9,0Z" transform="translate(-35.49 -25.79)"/><path class="q" d="M92.27,104.05c-.64,0-.89-.21-.69-.78,0-.11.07-.23.11-.34.32-1,.32-1,1-.25a.76.76,0,0,1,.11.14c.23.3.83.55.68.86S92.64,103.94,92.27,104.05Z" transform="translate(-35.49 -25.79)"/><path class="r" d="M108.11,123.74a18.83,18.83,0,0,1-3.45-1.12c-.44-.17-.86-.42-1.29-.63a1.56,1.56,0,0,1-.93-1.95,12.45,12.45,0,0,1,1.8-4.22,1.86,1.86,0,0,1,2.33-.62c1.34.45,2.64,1,4,1.52a1.51,1.51,0,0,1,1.06,2.07,19.77,19.77,0,0,1-1.29,3.57A2.14,2.14,0,0,1,108.11,123.74Zm-.31-2.65c.18,0,.56,0,.59-.41.06-.65.78-1.15.43-1.87,0-.11-.25-.14-.38-.21-.61-.34-1.32-.42-1.93-.78-.24-.14-.62-.22-.77.19a9.93,9.93,0,0,0-.58,1.52c0,.34,0,.69.28.8A7.28,7.28,0,0,0,107.8,121.09Z" transform="translate(-35.49 -25.79)"/><path class="s" d="M101.14,112.48a2.44,2.44,0,0,1,.38,2.63,4.11,4.11,0,0,1-2.1,1.78c-1.42.64-2.84,1.27-4.28,1.86s-2.47.1-3-1.46c-.35-1.09-.84-2.12-1.12-3.24a2.13,2.13,0,0,1,1.11-2.49c1.65-.72,3.3-1.42,4.93-2.17a2.37,2.37,0,0,1,2.4.37,3,3,0,0,1,1.65,2.72,3.71,3.71,0,0,1-.57-1,2.75,2.75,0,0,0-3.37-1.68c-1.57.56-3,1.29-4.58,1.95a1.76,1.76,0,0,0-1.23,2.37,17.75,17.75,0,0,0,1.3,3.55,1.39,1.39,0,0,0,2,.87,43.41,43.41,0,0,0,5.14-2.24,2.56,2.56,0,0,0,1.3-3.27A2.41,2.41,0,0,1,101.14,112.48Z" transform="translate(-35.49 -25.79)"/><path class="t" d="M50.57,107.37a8,8,0,0,1-2.21-1.72,3.06,3.06,0,0,1-.71-1.6,20,20,0,0,1,1-8,35.4,35.4,0,0,1,1.89-4.39,21.7,21.7,0,0,1,3.58-5.32,10.58,10.58,0,0,1,1-.84,1.34,1.34,0,0,0,.13-2.17,6.21,6.21,0,0,0-2.58-1.25,15,15,0,0,1-2.41-1.2A15.48,15.48,0,0,1,45.49,77c-.32-.41-.38-.58.19-.82a3.47,3.47,0,0,0,1.39-.82c.34-.39.74-.76.42-1.36A1.4,1.4,0,0,0,46,73.1c-.64.14-1.34-.07-1.93.41-.22.19-.45,0-.61-.29-.35-.69-.28-1.49-.69-2.16-.2-.31.1-.36.3-.37.58,0,1.16,0,1.74,0,.85,0,1.32-.33,1.43-1a1.43,1.43,0,0,0-1-1.66,5,5,0,0,0-1.72-.15c-1.12,0-1.19-.13-1.26-1.27a23.56,23.56,0,0,1,.49-5.33,24,24,0,0,1,2.09-6.69A3,3,0,0,0,45,52.33a18.43,18.43,0,0,1-.63-4c-.09-2,0-4,0-6a8.52,8.52,0,0,1,.89-3.84,1.31,1.31,0,0,1,1.53-.84,8.52,8.52,0,0,1,2.74.87c1.28.67,2.47,1.49,3.75,2.14.56.29.36.47.06.67-.7.48-1.41.94-2.14,1.35a8.41,8.41,0,0,0-2.24,1.82c-1,1.13-.87,2.52.45,3.66A11.93,11.93,0,0,0,54,50.39a62.51,62.51,0,0,0,8.26,1.52c2.15.32,4.3.18,6.43.48a43.48,43.48,0,0,0,7.82.13c2.37-.1,4.75-.15,7.08-.4,1.73-.19,3.48-.39,5.21-.73a29.78,29.78,0,0,0,4.29-1,8,8,0,0,0,4.22-3,2.86,2.86,0,0,0-.19-3,10.83,10.83,0,0,0-3.41-2.53c-.32-.18-.6-.4-.91-.59-.6-.38-.59-.7.06-1a37.83,37.83,0,0,1,4.91-2.41c.37,0,.73,0,1.1,0,1.34-.09,1.81.62,2.11,1.8a16.4,16.4,0,0,1,.37,5.88,42.38,42.38,0,0,1-.63,5.48,25.13,25.13,0,0,1-.58,2.65,1.08,1.08,0,0,0,.08,1,12.8,12.8,0,0,1,1.59,3.83,25.69,25.69,0,0,1,1,8.69c0,.54-.33.64-.78.64-.91,0-1.82,0-2.74,0a1.85,1.85,0,0,0-1.56,1.17,1.44,1.44,0,0,0,1.46,1.76c.73,0,1.46,0,2.19,0,.47,0,.67,0,.59.65a17.37,17.37,0,0,1-.67,2,.5.5,0,0,1-.86.29c-.71-.58-1.57-.34-2.36-.45a1.15,1.15,0,0,0-1.26,1,1.43,1.43,0,0,0,.86,1.64c.55.13.94.58,1.51.6.3,0,.24.17.12.36s-.14.43-.28.57a22.63,22.63,0,0,1-3.29,3,26.5,26.5,0,0,1-3.69,2l-1.58.65a1.42,1.42,0,0,0-1,1.69c.12.61.62,1,1.46.9a3.28,3.28,0,0,1,2.27.67,25.78,25.78,0,0,1,5.67,5.21,14.71,14.71,0,0,1,2.2,4.1A7.06,7.06,0,0,1,101.5,98a3.55,3.55,0,0,1-6.24,2.57,44.8,44.8,0,0,0-3.46-4.09,14.88,14.88,0,0,0-2.19-1.77,1.78,1.78,0,0,0-1.9-.07c-.69.38-.66,1-.63,1.68a1,1,0,0,0,.59.85,9.67,9.67,0,0,1,2.13,1.69.74.74,0,0,1,0,1.16,5.17,5.17,0,0,0-1,3.3c0,.68-.31.8-.89.79a9.16,9.16,0,0,0-5.32,1.46A6,6,0,0,0,80.13,109c-.62,2.25-.23,4.53-.33,6.79-.06,1.4,0,2.8,0,4.2a25.73,25.73,0,0,0,.41,4.88c0,.15.23.35,0,.45s-.28-.11-.36-.23a6,6,0,0,1-1.23-3.25,37.65,37.65,0,0,0-.44-4c0-.68-.62-.89-1.28-.88-2.52,0-5,0-7.57,0a9.74,9.74,0,0,1-2.08-.13,1.56,1.56,0,0,0-1.81,1.56c0,.76,0,1.52,0,2.28a7.72,7.72,0,0,1-1,3.6,3.24,3.24,0,0,1-1.87,1.5,6.33,6.33,0,0,1-2.63.51c-1.79-.22-3.37-.77-4.1-2.59a11.49,11.49,0,0,1-.81-3A74.28,74.28,0,0,1,54.65,109a72.65,72.65,0,0,1,.74-8.31,33.27,33.27,0,0,0,.49-3.87,1.4,1.4,0,0,0-1.27-1.66,1.85,1.85,0,0,0-1.67,1.51c-.29,1.88-.64,3.75-.87,5.64-.15,1.26-.09,2.54-.21,3.81S51.81,107.37,50.57,107.37ZM72,66h0c-.46,0-.92,0-1.37,0-1.25.12-2,.87-1.93,2A2.1,2.1,0,0,0,70.1,69.7c1,.47,1.09.77.68,1.79-.07.19-.14.4-.23.59a1.66,1.66,0,0,1-3,.31,1,1,0,0,0-.8-.51,1.08,1.08,0,0,0-1.07.55,1.3,1.3,0,0,0,0,1.38,3.47,3.47,0,0,0,5.3,1,1.18,1.18,0,0,1,1.72,0A3.59,3.59,0,0,0,78.13,74,1.23,1.23,0,0,0,78,72.16c-.54-.44-1.11-.31-1.68.4-.25.3-.44.64-.9.7-1,.12-1.89-.62-2.36-2-.25-.75-.06-1.07,1-1.64a2.13,2.13,0,0,0,1.16-2.26A2.23,2.23,0,0,0,73.38,66C72.92,65.93,72.47,66,72,66Zm15.23-1a2.84,2.84,0,0,0-.5-2,2.24,2.24,0,0,0-2.06-1.25,2.21,2.21,0,0,0-2.16,1.2,4.18,4.18,0,0,0-.3,3.51,2.46,2.46,0,0,0,3.87,1.34A3,3,0,0,0,87.24,65Zm-25.33-.2a4.39,4.39,0,0,0-.54-2.26,2.42,2.42,0,0,0-3.43-1,3.9,3.9,0,0,0-.88,5.74c1.08,1.23,2.37,1.55,3.78.17A3.71,3.71,0,0,0,61.91,64.76Z" transform="translate(-35.49 -25.79)"/><path class="u" d="M107.8,121.09a7.28,7.28,0,0,1-2.36-.76c-.29-.11-.33-.46-.28-.8a9.93,9.93,0,0,1,.58-1.52c.15-.41.53-.33.77-.19.61.36,1.32.44,1.93.78.13.07.33.1.38.21.35.72-.37,1.22-.43,1.87C108.36,121,108,121.08,107.8,121.09Z" transform="translate(-35.49 -25.79)"/><path class="v" d="M101.14,112.48a2.41,2.41,0,0,0,0,.54,2.56,2.56,0,0,1-1.3,3.27,43.41,43.41,0,0,1-5.14,2.24,1.39,1.39,0,0,1-2-.87,17.75,17.75,0,0,1-1.3-3.55,1.76,1.76,0,0,1,1.23-2.37c1.53-.66,3-1.39,4.58-1.95a2.75,2.75,0,0,1,3.37,1.68,3.71,3.71,0,0,0,.57,1ZM99,113.74c0-1.25-.83-1.95-1.82-1.52s-2,.88-3,1.29c-.25.11-.51.22-.46.48a4.32,4.32,0,0,0,.78,2,.49.49,0,0,0,.59.09c1.14-.47,2.28-.92,3.38-1.48A.8.8,0,0,0,99,113.74Z" transform="translate(-35.49 -25.79)"/><path class="w" d="M72,66c.46,0,.91,0,1.37,0a2.23,2.23,0,0,1,1.85,1.4,2.13,2.13,0,0,1-1.16,2.26c-1,.57-1.22.89-1,1.64.47,1.37,1.38,2.11,2.36,2,.46-.06.65-.4.9-.7.57-.71,1.14-.84,1.68-.4A1.23,1.23,0,0,1,78.13,74a3.59,3.59,0,0,1-5.39.78,1.18,1.18,0,0,0-1.72,0,3.47,3.47,0,0,1-5.3-1,1.3,1.3,0,0,1,0-1.38,1.08,1.08,0,0,1,1.07-.55,1,1,0,0,1,.8.51,1.66,1.66,0,0,0,3-.31c.09-.19.16-.4.23-.59.41-1,.3-1.32-.68-1.79a2.1,2.1,0,0,1-1.39-1.76c-.07-1.11.68-1.86,1.93-2,.45,0,.91,0,1.37,0Z" transform="translate(-35.49 -25.79)"/><path class="x" d="M87.24,65a3,3,0,0,1-1.15,2.79,2.46,2.46,0,0,1-3.87-1.34,4.18,4.18,0,0,1,.3-3.51,2.21,2.21,0,0,1,2.16-1.2A2.24,2.24,0,0,1,86.74,63,2.84,2.84,0,0,1,87.24,65Z" transform="translate(-35.49 -25.79)"/><path class="y" d="M61.91,64.76a3.71,3.71,0,0,1-1.07,2.68c-1.41,1.38-2.7,1.06-3.78-.17a3.9,3.9,0,0,1,.88-5.74,2.42,2.42,0,0,1,3.43,1A4.39,4.39,0,0,1,61.91,64.76Zm-.36-.11a3.89,3.89,0,0,0-.24-1.44,2.25,2.25,0,0,0-4.1-.6,4.14,4.14,0,0,0-.37,3.66,2.15,2.15,0,0,0,1.73,1.58A2.2,2.2,0,0,0,60.83,67,4.64,4.64,0,0,0,61.55,64.65Z" transform="translate(-35.49 -25.79)"/><path class="z" d="M99,113.74a.8.8,0,0,1-.5.84c-1.1.56-2.24,1-3.38,1.48a.49.49,0,0,1-.59-.09,4.32,4.32,0,0,1-.78-2c0-.26.21-.37.46-.48,1-.41,2-.86,3-1.29S99,112.49,99,113.74Zm-.35-.12c0-.93-.44-1.48-1-1.24-.92.37-1.83.75-2.73,1.18-.31.15-1,0-.71.77.16.42.07.92.5,1.24a.61.61,0,0,0,.67.1l2.82-1.23A.71.71,0,0,0,98.61,113.62Z" transform="translate(-35.49 -25.79)"/><path class="aa" d="M61.55,64.65A4.64,4.64,0,0,1,60.83,67a2.2,2.2,0,0,1-2.26.81,2.15,2.15,0,0,1-1.73-1.58,4.14,4.14,0,0,1,.37-3.66,2.25,2.25,0,0,1,4.1.6A3.89,3.89,0,0,1,61.55,64.65Z" transform="translate(-35.49 -25.79)"/><path class="ab" d="M98.61,113.62a.71.71,0,0,1-.49.82l-2.82,1.23a.61.61,0,0,1-.67-.1c-.43-.32-.34-.82-.5-1.24-.27-.72.4-.62.71-.77.9-.43,1.81-.81,2.73-1.18C98.17,112.14,98.62,112.69,98.61,113.62Z" transform="translate(-35.49 -25.79)"/></svg>