<?xml version="1.0" standalone="no"?><!DOCTYPE svg PUBLIC "-//W3C//DTD SVG 1.1//EN" "http://www.w3.org/Graphics/SVG/1.1/DTD/svg11.dtd"><svg t="1755332158823" class="icon" viewBox="0 0 1024 1024" version="1.1" xmlns="http://www.w3.org/2000/svg" p-id="1535" width="28" height="28" xmlns:xlink="http://www.w3.org/1999/xlink"><path d="M480 899.072V842.666667a32 32 0 0 1 64 0v56.405333c1.621333-0.832 3.2-1.706667 4.8-2.645333l279.253333-167.872a74.901333 74.901333 0 0 0 35.946667-64.277334v-45.738666a32 32 0 0 1 64 0v45.738666a138.901333 138.901333 0 0 1-66.965333 119.125334l-279.253334 167.893333a135.210667 135.210667 0 0 1-139.541333 0l-279.274667-167.893333A138.901333 138.901333 0 0 1 96 664.277333v-45.738666a32 32 0 0 1 64 0v45.738666c0 26.474667 13.717333 50.922667 35.925333 64.277334l279.274667 167.872c1.578667 0.938667 3.178667 1.813333 4.8 2.645333z m64-774.144V181.333333a32 32 0 0 1-64 0V124.928c-1.621333 0.832-3.2 1.706667-4.8 2.645333L195.946667 295.466667A74.901333 74.901333 0 0 0 160 359.722667v46.122666a32 32 0 0 1-64 0v-46.122666a138.901333 138.901333 0 0 1 66.965333-119.125334l279.253334-167.893333a135.210667 135.210667 0 0 1 139.541333 0l279.274667 167.893333a138.901333 138.901333 0 0 1 66.965333 119.125334v45.738666a32 32 0 0 1-64 0v-45.738666a74.901333 74.901333 0 0 0-35.925333-64.277334L548.8 127.573333a72.341333 72.341333 0 0 0-4.8-2.645333z m5.333333 201.002667l105.130667 60.714666a74.666667 74.666667 0 0 1 37.333333 64.64v121.408a74.666667 74.666667 0 0 1-37.333333 64.661334l-105.130667 60.714666a74.666667 74.666667 0 0 1-74.666666 0l-105.130667-60.714666a74.666667 74.666667 0 0 1-37.333333-64.64v-121.408a74.666667 74.666667 0 0 1 37.333333-64.661334l105.130667-60.714666a74.666667 74.666667 0 0 1 74.666666 0z m-32 55.424a10.666667 10.666667 0 0 0-10.666666 0l-105.130667 60.714666a10.666667 10.666667 0 0 0-5.333333 9.237334v121.386666a10.666667 10.666667 0 0 0 5.333333 9.237334l105.130667 60.714666a10.666667 10.666667 0 0 0 10.666666 0l105.130667-60.714666a10.666667 10.666667 0 0 0 5.333333-9.237334v-121.386666a10.666667 10.666667 0 0 0-5.333333-9.237334l-105.130667-60.714666z" fill="#000000" p-id="1536"></path></svg>