<?xml version="1.0" encoding="utf-8"?>
<!-- Generator: Adobe Illustrator 28.0.0, SVG Export Plug-In . SVG Version: 6.00 Build 0)  -->
<svg version="1.1" id="图层_1" xmlns="http://www.w3.org/2000/svg" xmlns:xlink="http://www.w3.org/1999/xlink" x="0px" y="0px"
	 viewBox="0 0 24 24" style="enable-background:new 0 0 24 24;" xml:space="preserve">
<g>
	<path d="M21,17H9c-0.6,0-1,0.4-1,1c0,0.5,0.4,0.9,0.9,1L9,19h12c0.6,0,1-0.4,1-1c0-0.5-0.4-0.9-0.9-1L21,17H9H21z M21,11H3
		c-0.6,0-1,0.4-1,1c0,0.5,0.4,0.9,0.9,1L3,13h18c0.6,0,1-0.4,1-1c0-0.5-0.4-0.9-0.9-1L21,11H3H21z M21,5H6C5.4,5,5,5.4,5,6
		c0,0.5,0.4,0.9,0.9,1L6,7h15c0.6,0,1-0.4,1-1c0-0.5-0.4-0.9-0.9-1L21,5H6H21z"/>
</g>
</svg>
