<?xml version="1.0" encoding="UTF-8"?>
<svg id="_l_1" data-name="l_1" xmlns="http://www.w3.org/2000/svg" version="1.1" viewBox="0 0 24 24">
  <!-- Generator: Adobe Illustrator 29.6.0, SVG Export Plug-In . SVG Version: 2.1.1 Build 207)  -->
  <path d="M21.2,18h-12.5c-.4,0-.7.3-.7.8,0,.4.3.7.6.7h.1s12.5,0,12.5,0c.4,0,.8-.3.8-.7,0-.4-.3-.7-.7-.8h-.1s-12.5,0-12.5,0h12.5ZM21.2,11.5H2.7c-.4,0-.7.3-.7.8,0,.4.3.7.6.7h.1s18.5,0,18.5,0c.4,0,.7-.3.7-.8,0-.4-.3-.7-.6-.7h-.1s-18.5,0-18.5,0h18.5ZM21.2,5H5.7c-.4,0-.7.3-.7.8,0,.4.3.7.6.7h.1s15.5,0,15.5,0c.4,0,.7-.3.7-.8,0-.4-.3-.7-.6-.7h-.1s-15.5,0-15.5,0h15.5Z"/>
</svg>