<?xml version="1.0" encoding="UTF-8"?>
<svg id="_图层_1" data-name="图层_1" xmlns="http://www.w3.org/2000/svg" version="1.1" viewBox="0 0 28 28">
  <!-- Generator: Adobe Illustrator 29.6.0, SVG Export Plug-In . SVG Version: 2.1.1 Build 207)  -->
  <defs>
    <style>
      .st0 {
        fill: #ff3b30;
      }
    </style>
  </defs>
  <path class="st0" d="M9.5,10.6L2.2,3.3c-.3-.3-.3-.8,0-1.1s.8-.3,1.1,0c0,0,0,0,0,0l22.5,22.5c.3.3.3.8,0,1.1-.3.3-.7.3-1,0l-5.4-5.4c-1.3,1.2-2.9,1.9-4.6,2v2.8c0,.4-.3.8-.8.8s-.8-.3-.8-.8v-2.8c-4.1-.4-7.3-3.8-7.3-8v-.8c0-.4.3-.8.8-.8s.8.3.8.8v.8c0,3.6,2.9,6.5,6.5,6.5,1.6,0,3.1-.6,4.3-1.6l-1.4-1.4c-1.9,1.6-4.7,1.3-6.3-.6-.7-.8-1.1-1.8-1.1-2.9,0,0,0-3.9,0-3.9ZM15.8,16.9l-4.8-4.8v2.4c0,1.7,1.3,3,3,3,.7,0,1.3-.2,1.8-.6ZM9.5,6.3l1.5,1.5v-1.3c0-1.7,1.3-3,3-3s3,1.3,3,3v7.3l1.4,1.4c0-.2,0-.5,0-.8V6.5c0-2.5-2-4.5-4.5-4.5-2.4,0-4.4,1.9-4.5,4.3ZM20.1,16.9l1.1,1.1c.5-1.1.8-2.2.8-3.5v-.7c0-.4-.3-.8-.8-.8s-.8.3-.8.8v.7c0,.8-.2,1.6-.4,2.4h0Z"/>
</svg>