<?xml version="1.0" encoding="UTF-8"?>
<svg id="_图层_1" data-name="图层_1" xmlns="http://www.w3.org/2000/svg" version="1.1" viewBox="0 0 24 24">
  <!-- Generator: Adobe Illustrator 29.6.0, SVG Export Plug-In . SVG Version: 2.1.1 Build 207)  -->
  <path d="M10.8,8v8.1c0,.5-.4.9-.9.9s-.9-.4-.9-.9V8c0-.5.4-.9.9-.9s.9.4.9.9ZM18.3,8v8.1c0,.5-.4.9-.9.9s-.9-.4-.9-.9V8c0-.5.4-.9.9-.9s.9.4.9.9ZM14.6,9.8v4.4c0,.5-.4.9-.9.9s-.9-.4-.9-.9h0v-4.4c0-.5.4-.9.9-.9s.9.4.9.9ZM7.1,10.4v3.1c0,.5-.4.9-.9.9s-.9-.4-.9-.9v-3.1c0-.5.4-.9.9-.9s.9.4.9.9Z"/>
</svg>