<?xml version="1.0" encoding="utf-8"?>
<!-- Generator: Adobe Illustrator 28.0.0, SVG Export Plug-In . SVG Version: 6.00 Build 0)  -->
<svg version="1.1" id="图层_1" xmlns="http://www.w3.org/2000/svg" xmlns:xlink="http://www.w3.org/1999/xlink" x="0px" y="0px"
	 viewBox="0 0 24 24" style="enable-background:new 0 0 24 24;" xml:space="preserve">
<style type="text/css">
	.st0{fill:#FFFFFF;}
</style>
<g>
	<path d="M12,2C6.5,2,2,6.5,2,12s4.5,10,10,10s10-4.5,10-10S17.5,2,12,2z"/>
</g>
<g>
	<path class="st0" d="M13.6,10.9l-3,4.2c-0.1,0.1-0.1,0.2,0,0.3l2.1,4.5c0.2,0.4,0.8,0.4,0.9,0L17.9,7c0.1-0.3-0.1-0.6-0.3-0.6
		c-0.1,0-0.2,0-0.3,0L4.4,10.7c-0.4,0.1-0.5,0.8,0,0.9l4.5,2.1c0.1,0,0.2,0,0.3,0l4.2-3c0.1,0,0.1,0,0.2,0
		C13.7,10.8,13.7,10.8,13.6,10.9L13.6,10.9z"/>
</g>
</svg>
