<?xml version="1.0" encoding="UTF-8"?>
<svg id="_图层_1" data-name="图层_1" xmlns="http://www.w3.org/2000/svg" version="1.1" viewBox="0 0 28 28">
  <!-- Generator: Adobe Illustrator 29.6.0, SVG Export Plug-In . SVG Version: 2.1.1 Build 207)  -->
  <defs>
    <style>
      .st0 {
        fill: #ff3b30;
      }
    </style>
  </defs>
  <path class="st0" d="M3.3,2.2c-.3-.3-.8-.3-1.1,0s-.3.8,0,1.1c0,0,0,0,0,0l5.7,5.7h-2.7c-1.8,0-3.2,1.5-3.2,3.2v3.5c0,1.8,1.5,3.2,3.2,3.2h3c.4,0,.9.2,1.2.5l4.9,4.6c.8.7,2.1.2,2.1-.9v-5.6l8.2,8.2c.3.3.8.3,1.1,0,.3-.3.3-.8,0-1L3.3,2.2ZM15,16.1v6.5l-4.5-4.2c-.6-.6-1.4-.9-2.2-.9h-3c-1,0-1.8-.8-1.8-1.8v-3.5c0-1,.8-1.8,1.8-1.8h3c.4,0,.7,0,1-.2l5.7,5.7h0ZM10.6,7.4l1.1,1.1,3.3-3.1v6.4l1.5,1.5V4.8c0-1.1-1.3-1.7-2.1-.9,0,0-3.8,3.5-3.8,3.5ZM20.2,17l1.1,1.1c.6-1.3.9-2.7.9-4.1,0-2.1-.7-4.1-1.9-5.7-.2-.3-.7-.4-1-.2-.3.2-.4.7-.2,1.1,1,1.4,1.6,3.1,1.6,4.8,0,1-.2,2-.6,3ZM23,19.8l1.1,1.1c1.3-2.1,1.9-4.5,1.9-6.9,0-3.4-1.2-6.4-3.3-8.7-.3-.3-.8-.3-1.1,0-.3.3-.3.7,0,1,1.9,2.1,2.9,4.9,2.9,7.8,0,2.1-.6,4.1-1.5,5.8Z"/>
</svg>