<?xml version="1.0" encoding="UTF-8"?>
<svg id="_图层_2" data-name="图层 2" xmlns="http://www.w3.org/2000/svg" viewBox="0 0 492.12 146.12">
  <defs>
    <style>
      .cls-1 {
        fill: #232323;
      }
    </style>
  </defs>
  <g id="_图层_1-2" data-name="图层 1">
    <g>
      <path class="cls-1" d="M491.9,98.93c.58,1.39-.07,2.99-1.46,3.58-11.63,4.89-23.17,11.74-35.6,20.77-9.82,7.13-24.78,21.26-36.81,22.6-8.76.97-15.98-3.36-18.72-11.71-.36-1.12-1.5-5.42-1.5-6.27v-15.26c-1.45-.22-.86.13-1.15.79-6.76,15.43-20.66,34.4-39.6,32.44-12.56-1.3-30.59-16.73-37.23-27.18-1.64-2.58-3.46-5.08-.19-7.31,12.55-2.71,32.55-11.56,36.95-24.68,3.22-9.62-4.28-15.1-13.23-12.66-16.57,4.52-32.02,36.36-38.01,51.37-2.2,5.52-3.93,13.51-6.51,18.47-1.47,2.83-5.01,2.52-5.98-.44.28-10.62,2.25-21.1,3.33-31.63.08-.74.28-1.73-.83-1.39-8.43,12.8-19.81,34.72-37.22,35.52-17.63.82-16.2-18.54-14.03-30.67,1.71-9.54,9.15-30.71-.5-37.5s-20.4,7-25.3,13.93c-11.14,15.76-18.55,34.43-25.3,52.42-1.71,3.15-5.95,1.62-5.71-1.77,2.09-18.61,7.48-36.93,9.47-55.52.19-1.81.73-9.72-.51-10.58-.78-.54-1.98-.3-2.8.06-2.75,1.21-7.46,10.19-9,13.2-8.47,16.58-13.95,38.25-29.15,50.23-11.57,9.12-28.45,9.35-32.68-7.11-.36-1.4-1.38-5.83-1.38-6.95v-13.04l-5.65,10.17c-12.84,20.74-38.22,35.97-53.62,8.26-1.18-1.37-4.16-13.47-4.88-13.43-.2.01-2.22,2.28-2.79,2.75-13.32,11.16-37.78,20.7-50.83,24.08-1.57.41-3.15-.62-3.43-2.22h0c-.25-1.44.66-2.83,2.08-3.18,12.62-3.07,36.46-11.96,47.73-22.01.98-.87,5.81-5.43,6.11-6.1.44-.96.36-2.04.31-3.07-.45-10.59-1.41-19.68-.59-30.51,1.42-18.61,7.65-51.72,20.01-66.03,10.73-12.43,26.17-7.7,27.76,8.87,2.58,26.98-18.38,63.96-34.75,84.59-2.06,2.59-4.56,4.9-6.36,7.56,1.46,11.84,7.32,28.9,21.96,28,25.02-1.55,39.11-46.56,44.43-66.6,1.13-3.12,4.26-2.94,5.76-.15-1.31,7.08-3.81,14.08-5.22,21.22-1.92,9.77-5.07,32.89.61,41.06,2.57,3.7,7.25,4.88,11.58,4.42,18.86-2.03,30.36-37.56,37.69-52.23,2.29-4.58,7.31-14.91,11.87-16.99s8.72-.9,10.46,3.81c1.56,4.23.73,10.66.23,15.19-1.01,9.09-3.26,18.53-4.94,27.53,1.21.23,1.27-.57,1.69-1.36,7.35-14.02,14.27-30.56,26.92-40.8,6.24-5.05,15.61-7.31,22.22-1.69,14.64,12.46-.77,41.36.82,58,.42,4.42,3.11,7.86,7.64,8.46,13.12,1.73,25.05-17.86,31.25-27.31,3.02-4.61,9.75-14.02,10.48-18.94,3.29-22.24,5.29-71.3,19.77-87.91,9.66-11.08,24.15-6.3,25.3,8.59,2.23,28.92-28.25,61.07-40.52,85.53.11,6.97-1.66,13.79-1.71,20.76.84-.13,1.03-1.05,1.39-1.65,2.66-4.49,4.73-10.64,7.27-15.49,5.93-11.29,15.6-26.77,27.06-32.9,11.84-6.33,28.08-1.95,26.42,13.64-1.3,12.2-15.84,22.45-26.22,27.07-1.55.69-11.43,3.92-11.47,4.61-.09,1.56,11.09,12.55,13.05,14.14,27.16,22.02,42.98,3.74,54.79-21.81,5.34-11.55,7.45-22.94,11.85-34.22.44-1.12.88-2.59,2.22-2.8s3.07.06,3.5,1.51c.81,2.75-3.36,14.06-4.19,17.8-2.54,11.33-5.76,32.9-1,43.44,2.11,4.68,6.66,6.49,11.63,6.02,11.93-1.14,31.61-19.46,42.14-26.7,10-6.87,19.64-12.19,29.26-16.17,1.4-.58,3,.08,3.59,1.48h0ZM303.96,85.44c1.18.25,1.26-.6,1.76-1.29,6.64-9.15,14.53-22.22,19.99-32.19,6.05-11.04,12.81-24.95,11.56-37.83-.74-7.67-7.15-11.51-13.59-6.37-9.72,7.76-14.47,38.48-16.33,50.83l-3.39,26.85ZM93.84,11.29c-12.13-7.5-21.42,15.54-24.27,23.92-5.91,17.36-7.87,36.2-8.9,54.37l.58,14.73c.92.21,1.13-.3,1.66-.84,4.54-4.64,10.78-14.86,14.34-20.64,10.09-16.41,24.24-45.16,20.41-64.57-.36-1.83-2.23-5.99-3.82-6.98Z"/>
      <path class="cls-1" d="M143.82,44c3.36,3.39,3.41,9.69-.97,12.27-7.86,4.63-16.57-4.07-10.8-11.35,2.68-3.39,8.73-3.99,11.77-.92ZM135.28,46.77c-4.76,4.29,3.55,10.34,6.53,5.69s-2.92-8.96-6.53-5.69Z"/>
      <path class="cls-1" d="M412.1,42.28c6.35-1.31,10.54,2.02,10.18,8.5-.51,8.99-13.59,8.99-15.33.85-.78-3.67,1.19-8.53,5.15-9.34ZM417.65,53.1c4.83-4.17-3.94-11.49-6.64-5.25-2.18,5.05,3.51,7.96,6.64,5.25Z"/>
    </g>
  </g>
</svg>