<?xml version="1.0" encoding="UTF-8"?>
<svg id="_图层_2" data-name="图层 2" xmlns="http://www.w3.org/2000/svg" viewBox="0 0 497.11 151.14">
  <defs>
    <style>
      .cls-1, .cls-2 {
        fill: #222;
      }

      .cls-2 {
        stroke: #222;
        stroke-miterlimit: 10;
        stroke-width: 3px;
      }
    </style>
  </defs>
  <g id="_图层_1-2" data-name="图层 1">
    <g>
      <g>
        <path class="cls-1" d="M494.4,101.45c.58,1.39-.07,2.99-1.46,3.58-11.63,4.89-23.17,11.74-35.6,20.77-9.82,7.13-24.78,21.26-36.81,22.6-8.76.97-15.98-3.36-18.72-11.71-.36-1.12-1.5-5.42-1.5-6.27v-15.26c-1.45-.22-.86.13-1.15.79-6.76,15.43-20.66,34.4-39.6,32.44-12.56-1.3-30.59-16.73-37.23-27.18-1.64-2.58-3.46-5.08-.19-7.31,12.55-2.71,32.55-11.56,36.95-24.68,3.22-9.62-4.28-15.1-13.23-12.66-16.57,4.52-32.02,36.36-38.01,51.37-2.2,5.52-3.93,13.51-6.51,18.47-1.47,2.83-5.01,2.52-5.98-.44.28-10.62,2.25-21.1,3.33-31.63.08-.74.28-1.73-.83-1.39-8.43,12.8-19.81,34.72-37.22,35.52-17.63.82-16.2-18.54-14.03-30.67,1.71-9.54,9.15-30.71-.5-37.5-9.49-6.67-20.4,7-25.3,13.93-11.14,15.76-18.55,34.43-25.3,52.42-1.71,3.15-5.95,1.62-5.71-1.77,2.09-18.61,7.48-36.93,9.47-55.52.19-1.81.73-9.72-.51-10.58-.78-.54-1.98-.3-2.8.06-2.75,1.21-7.46,10.19-9,13.2-8.47,16.58-13.95,38.25-29.15,50.23-11.57,9.12-28.45,9.35-32.68-7.11-.36-1.4-1.38-5.83-1.38-6.95v-13.04l-5.65,10.17c-12.84,20.74-38.22,35.97-53.62,8.26-1.18-1.37-4.16-13.47-4.88-13.43-.2.01-2.22,2.28-2.79,2.75-13.32,11.16-37.78,20.7-50.83,24.08-1.57.41-3.15-.62-3.43-2.22h0c-.25-1.44.66-2.83,2.08-3.18,12.62-3.07,36.46-11.96,47.73-22.01.98-.87,5.81-5.43,6.11-6.1.44-.96.36-2.04.31-3.07-.45-10.59-1.41-19.68-.59-30.51,1.42-18.61,7.65-51.72,20.01-66.03,10.73-12.43,26.17-7.7,27.76,8.87,2.58,26.98-18.38,63.96-34.75,84.59-2.06,2.59-4.56,4.9-6.36,7.56,1.46,11.84,7.32,28.9,21.96,28,25.02-1.55,39.11-46.56,44.43-66.6,1.13-3.12,4.26-2.94,5.76-.15-1.31,7.08-3.81,14.08-5.22,21.22-1.92,9.77-5.07,32.89.61,41.06,2.57,3.7,7.25,4.88,11.58,4.42,18.86-2.03,30.36-37.56,37.69-52.23,2.29-4.58,7.31-14.91,11.87-16.99s8.72-.9,10.46,3.81c1.56,4.23.73,10.66.23,15.19-1.01,9.09-3.26,18.53-4.94,27.53,1.21.23,1.27-.57,1.69-1.36,7.35-14.02,14.27-30.56,26.92-40.8,6.24-5.05,15.61-7.31,22.22-1.69,14.64,12.46-.77,41.36.82,58,.42,4.42,3.11,7.86,7.64,8.46,13.12,1.73,25.05-17.86,31.25-27.31,3.02-4.61,9.75-14.02,10.48-18.94,3.29-22.24,5.29-71.3,19.77-87.91,9.66-11.08,24.15-6.3,25.3,8.59,2.23,28.92-28.25,61.07-40.52,85.53.11,6.97-1.66,13.79-1.71,20.76.84-.13,1.03-1.05,1.39-1.65,2.66-4.49,4.73-10.64,7.27-15.49,5.93-11.29,15.6-26.77,27.06-32.9,11.84-6.33,28.08-1.95,26.42,13.64-1.3,12.2-15.84,22.45-26.22,27.07-1.55.69-11.43,3.92-11.47,4.61-.09,1.56,11.09,12.55,13.05,14.14,27.16,22.02,42.98,3.74,54.79-21.81,5.34-11.55,7.45-22.94,11.85-34.22.44-1.12.88-2.59,2.22-2.8s3.07.06,3.5,1.51c.81,2.75-3.36,14.06-4.19,17.8-2.54,11.33-5.76,32.9-1,43.44,2.11,4.68,6.66,6.49,11.63,6.02,11.93-1.14,31.61-19.46,42.14-26.7,10-6.87,19.64-12.19,29.26-16.17,1.4-.58,3,.08,3.59,1.48h0ZM306.45,87.96c1.18.25,1.26-.6,1.76-1.29,6.64-9.15,14.53-22.22,19.99-32.19,6.05-11.04,12.81-24.95,11.56-37.83-.74-7.67-7.15-11.51-13.59-6.37-9.72,7.76-14.47,38.48-16.33,50.83l-3.39,26.85ZM96.34,13.81c-12.13-7.5-21.42,15.54-24.27,23.92-5.91,17.36-7.87,36.2-8.9,54.37l.58,14.73c.92.21,1.13-.3,1.66-.84,4.54-4.64,10.78-14.86,14.34-20.64,10.09-16.41,24.24-45.16,20.41-64.57-.36-1.83-2.23-5.99-3.82-6.98Z"/>
        <path class="cls-1" d="M85.62,151.14c-.18,0-.36,0-.55,0-6.32-.15-15.37-3.08-22.71-16.18-.77-1.1-1.49-3.3-2.93-7.97-.23-.75-.49-1.6-.75-2.41-.1.1-.19.18-.28.25-14.07,11.79-39.25,21.33-51.81,24.58-1.42.36-2.94.12-4.17-.67-1.24-.8-2.09-2.09-2.35-3.54-.48-2.73,1.26-5.38,3.96-6.04,12.9-3.13,35.91-11.86,46.66-21.44,1.11-.99,4.72-4.44,5.55-5.42.1-.38.07-.99.05-1.58v-.19c-.12-2.53-.25-4.98-.39-7.39-.43-7.73-.84-15.02-.2-23.42,1.26-16.54,7.19-51.93,20.61-67.47,5.75-6.65,13.23-9.33,20-7.17,6.76,2.15,11.29,8.67,12.13,17.44,2.82,29.54-20.85,68.2-35.29,86.38-.89,1.12-1.84,2.18-2.77,3.2-1.06,1.18-2.08,2.3-2.94,3.46.88,6.04,4.84,25.75,19.19,24.85,22.09-1.37,35.9-41.15,42.16-64.74l.07-.21c.84-2.3,2.61-3.77,4.73-3.92,2.22-.16,4.36,1.16,5.58,3.44l.42.77-.16.86c-.7,3.75-1.72,7.5-2.71,11.12-.91,3.32-1.85,6.76-2.51,10.13-2.87,14.58-4.02,33.05.21,39.15,1.76,2.54,5.22,3.79,9.26,3.36,13.95-1.5,24.32-25.19,31.18-40.87,1.63-3.72,3.17-7.24,4.54-9.99l.25-.5c3.69-7.39,8.02-15.45,12.82-17.65,3.02-1.38,6.09-1.56,8.64-.5,2.38.99,4.18,2.97,5.2,5.71,1.69,4.57.97,10.97.45,15.64l-.08.7c-.49,4.39-1.26,8.86-2.11,13.29,5.73-11.18,12.02-22.27,21.73-30.14,6.75-5.47,17.58-8.32,25.41-1.65,10.62,9.04,7.23,25.25,4.23,39.56-1.58,7.53-3.06,14.64-2.54,20.12.16,1.67,1.01,5.63,5.48,6.22,10.83,1.43,21.84-15.46,27.75-24.54l1.09-1.67c.42-.65.92-1.39,1.46-2.19,3.02-4.51,8.09-12.06,8.63-15.74.68-4.58,1.29-10.21,2-16.73,2.69-24.78,6.38-58.71,18.36-72.46,5.21-5.98,12.11-8.29,18.46-6.19,6.4,2.12,10.59,8.19,11.21,16.23,1.63,21.09-13.22,43.51-26.33,63.29-5.43,8.2-10.57,15.96-14.18,23.03,0,2.65-.24,5.27-.54,7.84.88-2.04,1.79-4.09,2.78-5.96,6.3-12,16.28-27.62,28.09-33.94,7.75-4.14,17.13-4.11,23.35.08,5.08,3.42,7.47,9.12,6.74,16.03-1.38,12.99-15.78,23.79-27.69,29.09-.54.24-1.6.62-3.44,1.28-1.39.5-3.76,1.34-5.48,2.02,2.75,3.28,9.2,9.72,11.06,11.23,9.44,7.65,17.62,10.53,25.03,8.81,9.32-2.17,17.55-11.61,25.92-29.73,3.01-6.51,5.01-13.12,6.95-19.52,1.45-4.77,2.94-9.7,4.84-14.56l.1-.27c.49-1.28,1.4-3.67,4.05-4.09,3.04-.48,5.57.83,6.29,3.27.73,2.46-.62,7.24-2.77,14.25-.59,1.94-1.15,3.77-1.38,4.8-3.07,13.7-5.21,32.89-1.16,41.87,2.04,4.53,6.58,4.8,9.11,4.56,8.09-.77,21.34-11.16,31.02-18.75,3.67-2.87,7.13-5.59,9.94-7.52,10.15-6.97,19.87-12.34,29.72-16.42,2.67-1.11,5.74.16,6.85,2.83,1.11,2.66-.15,5.73-2.8,6.84-11.16,4.69-22.32,11.2-35.1,20.49-2.1,1.53-4.48,3.41-7,5.41-9.3,7.37-20.89,16.53-31,17.66-10.1,1.13-18.29-4.02-21.37-13.42-.2-.6-1.63-5.6-1.63-7.05v-6.16c-6.38,11.45-19.26,28.62-38.51,26.62-13.77-1.42-32.34-17.72-39.08-28.32l-.22-.34c-1.43-2.24-4.41-6.88.73-10.38l.4-.27.48-.1c11.42-2.47,31.04-10.91,35.1-23.03,1.09-3.24.75-6.01-.94-7.8-1.94-2.05-5.49-2.68-9.27-1.65-13.61,3.71-28.08,29.19-36.35,49.88-.87,2.17-1.66,4.74-2.49,7.46-1.23,3.99-2.5,8.11-4.12,11.24-1.15,2.22-3.29,3.47-5.61,3.29-2.29-.19-4.2-1.76-4.96-4.11l-.13-.41v-.43c.2-7.1,1.13-14.19,2.04-21.05.14-1.08.29-2.17.43-3.27-8.05,12.69-18.92,28.66-34.56,29.38-5.74.27-10.19-1.38-13.26-4.88-4.74-5.4-5.83-14.8-3.34-28.73.32-1.78.83-3.95,1.37-6.25,2.27-9.62,5.69-24.17-.85-28.76-6.84-4.81-15.64,4.59-21.82,13.33-10.91,15.43-18.33,34.08-25,51.85l-.15.32c-1.31,2.41-3.88,3.53-6.39,2.8-2.56-.75-4.2-3.2-4-5.94,1.05-9.38,2.92-18.69,4.74-27.69,1.84-9.15,3.75-18.61,4.74-27.92.24-2.25.37-6.07.17-7.96-.76.39-3.37,3.41-7.77,12.04-2.26,4.42-4.27,9.15-6.41,14.16-5.82,13.65-11.84,27.77-23.42,36.9-7.67,6.05-17.06,8.24-24.49,5.73-4.25-1.44-9.82-5.07-12.16-14.18-.01-.06-1.46-5.82-1.46-7.57v-3.38l-1.02,1.83c-7.03,11.36-20.26,24.49-34.6,24.49ZM66.43,132.05l.22.33c4.98,8.96,11.22,13.59,18.54,13.76.14,0,.28,0,.42,0,10.13,0,21.98-8.61,30.33-22.08l10.3-18.57v22.7c.02.75.83,4.47,1.3,6.32,1.41,5.5,4.5,9.19,8.92,10.69,5.76,1.95,13.53.02,19.8-4.92,10.58-8.34,16.34-21.86,21.92-34.93,2.08-4.87,4.22-9.9,6.56-14.47,6.49-12.71,9.2-13.9,10.22-14.35,1.91-.84,3.86-.77,5.23.17,2.27,1.58,2.11,7.89,1.58,12.9-1.02,9.54-2.95,19.12-4.81,28.37-1.79,8.9-3.64,18.1-4.66,27.16-.03.48.29.64.44.68.1.03.29.08.52-.28,6.76-18.02,14.31-36.92,25.52-52.78,13.57-19.2,23.14-18.5,28.78-14.54,9.3,6.54,5.57,22.41,2.84,34-.55,2.33-1.02,4.34-1.32,5.99-2.18,12.16-1.44,20.42,2.18,24.55,2.05,2.33,5.08,3.37,9.27,3.18,13.9-.64,24.28-17.1,31.86-29.12,1.18-1.87,2.3-3.65,3.38-5.29l.5-.75.86-.26c1.55-.47,2.57.11,3.04.5,1.29,1.07,1.12,2.63,1.03,3.39l-.02.15c-.38,3.65-.86,7.35-1.33,10.92-.86,6.55-1.76,13.33-1.97,19.99.13.22.3.35.48.37.29.02.56-.21.77-.61,1.42-2.72,2.62-6.63,3.78-10.4.83-2.7,1.69-5.48,2.63-7.84,3.14-7.88,19.84-47.45,39.67-52.85,5.65-1.54,10.96-.4,14.21,3.05,2.97,3.15,3.72,7.82,2.04,12.82-4.69,14.01-25.26,23.28-38.28,26.22-.6.48-.49.91,1.04,3.29l.22.35c6.13,9.64,23.69,24.82,35.38,26.03,16.49,1.71,29.89-14.73,36.97-30.75.09-.82.42-1.46.99-1.93,1.01-.82,2.2-.64,2.91-.54l2.13.32v17.42c.06.67,1.01,4.38,1.38,5.49,2.33,7.13,8.34,10.87,16.06,10.01,8.68-.97,19.64-9.64,28.45-16.61,2.56-2.03,4.98-3.94,7.17-5.53,13.11-9.52,24.58-16.21,36.1-21.05.12-.05.17-.19.12-.31h0c-.05-.13-.2-.18-.32-.13-9.52,3.94-18.94,9.15-28.8,15.92-2.68,1.84-6.09,4.51-9.69,7.33-10.73,8.41-24.09,18.88-33.63,19.79-6.45.62-11.75-2.18-14.14-7.48-5.88-13.03-.33-39.79.84-45.02.27-1.22.83-3.05,1.48-5.17.93-3.04,2.81-9.19,2.77-11.13-.12-.02-.28-.03-.47-.02-.14.24-.3.68-.41.96l-.12.31c-1.83,4.68-3.23,9.3-4.71,14.19-1.99,6.56-4.05,13.34-7.2,20.17-5.71,12.35-14.96,29.16-29.33,32.5-8.88,2.07-18.74-1.23-29.31-9.8-.14-.12-14.2-12.5-13.97-16.24.13-2.13,1.61-2.66,9.86-5.61,1.33-.47,2.7-.97,3.09-1.14,8.61-3.83,23.52-13.42,24.75-25.05.54-5.06-1.04-8.99-4.56-11.36-4.65-3.14-12.13-3.06-18.2.19-10.69,5.72-20.05,20.48-26.02,31.86-1.08,2.06-2.12,4.46-3.12,6.79-1.31,3.04-2.66,6.17-4.22,8.81-.05.08-.08.17-.13.26-.32.69-1.08,2.3-3.04,2.6l-2.9.45.02-2.93c.02-3.49.46-6.92.88-10.23.46-3.61.89-7.02.83-10.48v-.61s.27-.55.27-.55c2.5-4.98,5.7-10.21,9.23-15.68-.53.76-1.06,1.5-1.59,2.22-.05.08-.09.16-.13.23-.97,1.74-2.37,2.42-4.18,2.03l-2.24-.48,3.68-29.12c2.85-18.92,7.73-44.86,17.25-52.47,3.56-2.84,7.58-3.63,11.03-2.17,3.67,1.55,6.14,5.39,6.61,10.26,1.28,13.21-5.28,27.27-11.86,39.28-2.81,5.12-6.75,11.94-10.98,18.69,12.09-18.32,24.85-38.68,23.43-57-.46-5.96-3.38-10.4-7.8-11.87-4.37-1.45-9.28.32-13.12,4.73-10.95,12.56-14.54,45.59-17.16,69.71-.71,6.57-1.33,12.25-2.02,16.92-.66,4.43-4.83,10.95-9.43,17.79-.53.79-1.02,1.52-1.44,2.15l-1.08,1.65c-6.97,10.7-18.62,28.61-32.59,26.77-5.48-.72-9.23-4.82-9.8-10.7-.6-6.23.97-13.71,2.62-21.62,2.84-13.57,5.78-27.61-2.58-34.72-5.66-4.81-13.83-2.48-19.02,1.73-10.2,8.27-16.57,20.89-22.74,33.09-1.19,2.35-2.36,4.67-3.54,6.93-.05.09-.09.19-.13.28-.86,1.96-2.29,2.76-4.25,2.38l-2.44-.47.45-2.44c.5-2.68,1.05-5.39,1.6-8.13,1.28-6.36,2.61-12.93,3.31-19.22l.08-.7c.47-4.17,1.11-9.89-.17-13.34-.53-1.43-1.34-2.38-2.43-2.83-1.26-.52-2.91-.37-4.64.42-3.6,1.65-8.56,11.59-10.42,15.33l-.25.51c-1.32,2.64-2.77,5.94-4.44,9.76-7.76,17.74-18.39,42.03-35.23,43.84-5.88.64-11.07-1.41-13.9-5.47-7.02-10.1-2.08-37.56-1.01-42.97.7-3.55,1.66-7.08,2.6-10.48.87-3.18,1.77-6.46,2.42-9.68-.17-.15-.32-.26-.36-.21-.02.01-.19.16-.35.56-8.08,30.38-22.73,66.85-46.65,68.33-15.26.95-22.71-14.97-24.59-30.18l-.12-.93.53-.78c1.17-1.72,2.56-3.26,3.91-4.76.91-1.01,1.77-1.96,2.56-2.95,18.11-22.82,36.55-58.46,34.22-82.79-.64-6.71-3.88-11.62-8.67-13.15-4.81-1.53-10.31.59-14.7,5.68-11.66,13.5-17.99,46.02-19.41,64.58-.61,8.06-.21,15.2.21,22.76.14,2.43.27,4.9.38,7.45v.18c.06,1.15.12,2.58-.54,4.03-.67,1.48-6.67,6.88-6.73,6.93-11.4,10.16-35.4,19.32-48.81,22.57-.15.04-.24.17-.21.32.02.1.08.16.13.2.07.04.14.05.21.04,13.04-3.37,37.13-12.91,49.85-23.57.16-.14.73-.73,1.1-1.12,1.58-1.66,2.06-2.16,3.17-2.21,2.28-.13,2.76,1.41,4.75,7.85.66,2.14,1.76,5.7,2.22,6.53ZM66.36,131.97h0s0,0,0,0ZM332.08,10.44c-1.36,0-2.85.61-4.34,1.8-9.09,7.26-13.86,38.86-15.42,49.25l-2.3,18.24c5.96-8.87,12.1-19.31,16-26.43,6.22-11.34,12.42-24.53,11.27-36.39-.29-3.02-1.63-5.31-3.58-6.13-.51-.22-1.06-.32-1.62-.32ZM64.14,109.38c-.29,0-.6-.03-.94-.11l-1.87-.42-.66-16.77v-.12c.97-16.92,2.8-36.7,9.04-55.04,2.32-6.82,8.74-23.06,18.17-26.44,3.24-1.16,6.63-.75,9.78,1.2,2.61,1.61,4.6,6.82,4.96,8.62,4.52,22.92-14.73,56.59-20.74,66.36l-.24.4c-3.67,5.96-9.8,15.95-14.43,20.68-.06.07-.12.13-.17.19-.38.42-1.28,1.45-2.88,1.45ZM65.68,92.12l.37,9.33c3.88-4.88,8.41-12.26,11.33-17.01l.25-.4c5.77-9.38,24.26-41.63,20.09-62.78-.31-1.6-1.92-4.78-2.69-5.34-1.89-1.16-3.62-1.4-5.45-.74-6.03,2.16-11.77,13.48-15.12,23.34-6.03,17.73-7.82,37.03-8.76,53.59Z"/>
      </g>
      <path class="cls-2" d="M146.32,46.52c3.36,3.39,3.41,9.69-.97,12.27-7.86,4.63-16.57-4.07-10.8-11.35,2.68-3.39,8.73-3.99,11.77-.92ZM137.78,49.29c-4.76,4.29,3.55,10.34,6.53,5.69s-2.92-8.96-6.53-5.69Z"/>
      <path class="cls-2" d="M414.6,44.8c6.35-1.31,10.54,2.02,10.18,8.5-.51,8.99-13.59,8.99-15.33.85-.78-3.67,1.19-8.53,5.15-9.34ZM420.15,55.61c4.83-4.17-3.94-11.49-6.64-5.25-2.18,5.05,3.51,7.96,6.64,5.25Z"/>
    </g>
  </g>
</svg>