<?xml version="1.0" encoding="UTF-8"?>
<svg id="_图层_2" data-name="图层 2" xmlns="http://www.w3.org/2000/svg" viewBox="0 0 200 200">
  <defs>
    <style>
      .cls-1 {
        fill: #ff936b;
      }

      .cls-2 {
        fill: none;
      }
    </style>
  </defs>
  <g id="_图层_1-2" data-name="图层 1">
    <g>
      <path d="M168.85,138.35c-.63.18-1.29-.18-1.48-.81-.74-2.43-1.47-4.82-2.28-6.92-1.79-4.66-4.03-9.13-5.8-13.81-2.93-7.8-4.81-15.99-7.63-23.69-4.23-11.55-13.01-20.78-25.52-22.59-3.61-.52-7.34.16-10.45,2.06-7.88,4.8-12.12,12.72-12.88,21.39-.04.47-.35.88-.8,1.03h0c-.81.28-1.65-.38-1.56-1.23.33-3.2,1.67-8.19,2.27-9.6,3.29-7.78,13.13-16.87,22.07-16.12,27.97,2.33,29.8,30.76,37.96,51.18,2.45,6.13,4.71,11.41,6.91,17.56.23.66-.14,1.39-.81,1.57h0Z"/>
      <path d="M101.75,110.6c-3.79,2.09-7.72,4.82-10.7,7.98-4.98,5.28-7.28,11.55-13.67,15.87-3.47,2.35-6.07,1.99-7.91,6.09-2.26,5.03-2.78,9.88-3.96,15.14-.21.92-1.12,5.24-1.62,5.57-.62.42-1.29.26-1.74-.21-.23-.25-.31-.61-.22-.94,1.15-4.23,1.59-8.71,2.71-12.93.44-1.67,3.04-9.51,3.75-10.51,1.52-2.14,4.78-3.09,6.95-4.51,6.72-4.4,8.65-11.44,14.18-16.38,5.04-4.5,12.15-7.36,17.04-11.48,3.26-2.74,2.51-6.66-1.87-5.95-5.64.92-12.14,6.74-17.51,7.96-3.62.82-2.95-1.85-1.69-3.98,4.29-7.21,10.43-13.85,14.91-21,.68-1.4.34-3.34-.96-4.25-1.91-1.34-3.07-.23-4.45,1.13-5.39,5.34-10.08,13.36-15.39,18.99-2.11,1.25-3.28.12-2.68-2.16,2.26-8.61,7.85-17.71,10.24-26.45.41-3.68-4.09-5.83-6.26-2.43-3.81,7.85-6.82,16.36-10.78,24.12-.55,1.07-1.31,3.39-2.66,3.47-.95.06-1.73-.78-1.88-1.67-1.21-7.5.2-16.84-.52-24.44-.52-5.51-5.94-5.32-6.62.27-.83,6.83-.42,14.45-1.03,21.38-.32,3.61-.49,5.35-2.59,8.36-.77,1.1-2.74,3.88-4.21,3.3-1.33-.53-6.11-9.17-7.35-11-1.61-2.36-5.7-9.12-7.69-3.4.97,11.3,8.48,24.87,4.79,36.11-1.55,4.71-4.95,9.18-7.24,13.6-.2.39-.56.69-1,.75-.98.12-1.69-.82-1.33-2.02.5-1.67,3.73-5.97,4.77-7.97,2.57-4.91,3.84-7.99,2.93-13.71-1.23-7.8-5.01-16.99-5.74-24.56-.51-5.25,2.95-9.33,8.09-6.31,3.36,1.97,9.68,14.84,10.59,14.87.29,0,1.33-1.67,1.53-2.03,3.09-5.44,1.38-21.48,2.74-28.59,1.63-8.53,12.41-7,12.41.7v19.99c.4-.06.48-.47.63-.77,3.15-6.16,6.31-17.6,10.01-22.59,4.14-5.6,12.42-1.07,11.24,5.38l-7.61,19.76c3.69-3.69,6.45-8.54,9.94-12.34,2.57-2.8,5.42-4.82,9.03-1.92,4.7,3.78,1.19,8.22-1.19,11.79-3,4.49-6.58,8.61-9.58,13.08-.22.33-1.76,2.46-1.57,2.63.2.18,4.37-1.81,4.93-2.07,1.92-.91,6.11-3.21,7.81-4.01,1.27-.6,4.2-.8,5.6-.66,1.71.17,3.62,2.45,3.97,4.18,1.01,5-3.54,7.19-7.06,9.18-.65.37-1.86,1.21-2.51,1.57Z"/>
      <path d="M103.29,111.74c.79-.54,1.88-.17,2.17.74,3.87,11.84,7.18,23.87,10.99,35.72,1.28,4,3.26,8.01,4.27,12.03.27,1.06,1.1,2.88.11,3.68-1.97,1.6-2.38-2.6-2.72-3.62-1.05-3.15-2.34-6.21-3.38-9.35-4.21-12.66-7.48-24.99-11.98-37.53-.22-.61,0-1.3.54-1.67h0Z"/>
      <g>
        <path class="cls-1" d="M126.13,126.71c-1.06,0-2.05-.42-3.04-1.28-3.11-2.7-1.68-5.82-.17-9.13.37-.8.71-1.56.99-2.32.34-.92.6-1.92.85-2.88.86-3.32,1.6-6.19,5.34-6.74.71-.1,1.35-.16,1.93-.16,2.66,0,3.68,1.08,5.37,2.86.6.64,1.28,1.36,2.12,2.1.8.71,1.68,1.33,2.54,1.93,2.93,2.06,5.24,3.68,4.16,7.74-1.04,3.87-4.16,3.93-7.78,3.99-1.18.02-2.39.04-3.48.23-1.36.23-2.65.99-4.02,1.79-1.57.92-3.2,1.87-4.8,1.87Z"/>
        <path d="M132.01,105.09c2.29,0,3.1.87,4.74,2.59.61.65,1.31,1.38,2.18,2.15.83.74,1.74,1.38,2.62,1.99,3.12,2.19,4.7,3.49,3.82,6.79-.83,3.08-3.06,3.27-6.95,3.34-1.21.02-2.46.04-3.61.24-1.52.26-2.94,1.09-4.32,1.89-1.47.86-2.99,1.75-4.36,1.75-.85,0-1.64-.34-2.47-1.06-2.49-2.16-1.6-4.49.05-8.1.36-.78.73-1.59,1.02-2.38.36-.97.62-1.98.87-2.97.93-3.59,1.6-5.65,4.62-6.09.66-.1,1.27-.15,1.8-.15M132.01,103.34c-.61,0-1.29.05-2.05.17-5.56.82-5.42,6.24-6.88,10.19-1.42,3.84-5.02,8.56-.57,12.41,1.25,1.08,2.45,1.49,3.62,1.49,3.26,0,6.21-3.19,8.97-3.67,4.14-.71,10.35,1.14,11.95-4.85,1.61-6-3.62-7.58-6.97-10.55-3.12-2.77-3.97-5.18-8.08-5.18h0Z"/>
      </g>
      <g>
        <path class="cls-1" d="M131.57,94.94c-2.78,0-4.48-3.2-4.66-6.21-.18-2.94,1.01-6.54,4.95-7.02.34-.04.67-.06.99-.06,2.66,0,4.61,1.5,5.22,4.02.7,2.85-.52,6.73-4.2,8.64-.81.42-1.58.63-2.3.63Z"/>
        <path d="M132.85,82.52c3.21,0,4.13,2.34,4.37,3.35.61,2.52-.48,5.96-3.75,7.65-.68.35-1.32.53-1.9.53-2.25,0-3.63-2.77-3.79-5.38-.06-.93-.12-5.57,4.18-6.1.3-.04.6-.06.89-.06M132.85,80.77c-.35,0-.72.02-1.1.07-8.47,1.04-6.71,14.97-.18,14.97.83,0,1.74-.22,2.71-.73,7.12-3.69,6.23-14.31-1.43-14.31h0Z"/>
      </g>
      <g>
        <path class="cls-1" d="M145.98,108.34c-3.25,0-5.37-3.71-5.72-7.2-.24-2.44.36-5.46,2.85-5.96.48-.1.96-.15,1.42-.15,3.74,0,5.92,3.29,6.36,6.35.36,2.53-.33,5.81-3.48,6.74-.49.14-.97.22-1.42.22Z"/>
        <path d="M144.53,94.16v1.75c3.22,0,5.1,2.9,5.49,5.6.31,2.18-.25,5.01-2.87,5.78-.41.12-.8.18-1.18.18-2.74,0-4.54-3.3-4.85-6.41-.21-2.07.24-4.63,2.15-5.01.43-.09.84-.13,1.24-.13v-1.75M144.53,94.16c-.51,0-1.04.05-1.59.16-6.2,1.24-3.89,14.89,3.04,14.89.53,0,1.09-.08,1.67-.25,6.99-2.06,4.78-14.8-3.12-14.8h0Z"/>
      </g>
      <g>
        <path class="cls-1" d="M116.11,99.18c-3.08,0-4.95-3-5.2-5.97-.22-2.58.81-5.81,4.42-6.42.46-.08.9-.12,1.31-.12,3.03,0,4.89,2.1,5.12,5.75.09,1.43-.74,3.37-2.06,4.83-1.08,1.19-2.32,1.9-3.41,1.94h-.19Z"/>
        <path d="M116.65,87.54c3.43,0,4.13,3.09,4.24,4.93.07,1.21-.66,2.89-1.83,4.18-.91,1-1.95,1.62-2.79,1.65-.05,0-.1,0-.15,0-2.56,0-4.11-2.6-4.33-5.17-.2-2.32.67-4.97,3.7-5.49.41-.07.8-.1,1.17-.1M116.64,85.79c-.46,0-.95.04-1.46.13-7.99,1.36-5.99,14.13.93,14.13.07,0,.15,0,.22,0,3.22-.12,6.5-4.54,6.31-7.69-.24-3.91-2.32-6.57-5.99-6.57h0Z"/>
      </g>
      <g>
        <path class="cls-1" d="M114.76,118.13c-2.36,0-4.35-1.74-5.31-4.65-.55-1.67-.51-4.47.53-6.26.51-.89,1.21-1.42,2.06-1.6.24-.05.5-.07.76-.07,2.59,0,5.82,2.25,6.52,4.55.71,2.33.47,4.47-.68,6.03-.93,1.25-2.38,2-3.9,2Z"/>
        <path d="M112.81,106.43c2.22,0,5.09,1.99,5.69,3.93.63,2.06.44,3.92-.54,5.25-.76,1.03-1.95,1.64-3.19,1.64-1.99,0-3.63-1.47-4.48-4.04-.48-1.46-.44-3.99.46-5.55.39-.67.87-1.06,1.48-1.18.18-.04.38-.06.59-.06M112.81,104.68c-.32,0-.64.03-.94.09-3.57.72-4.21,6.1-3.25,8.99,1.21,3.67,3.73,5.24,6.14,5.24,3.66,0,7.1-3.64,5.41-9.15-.83-2.72-4.41-5.17-7.36-5.17h0Z"/>
      </g>
      <path d="M116.69,55.06c-.33,0-.67-.09-.97-.27-.88-.54-1.16-1.69-.62-2.57l8.3-13.6c.54-.88,1.69-1.16,2.57-.62.88.54,1.16,1.69.62,2.57l-8.3,13.6c-.35.58-.97.9-1.6.9Z"/>
      <path d="M100.56,53.74c-.91,0-1.71-.67-1.85-1.6l-3.48-23.84c-.15-1.02.56-1.97,1.58-2.12,1.02-.15,1.97.56,2.12,1.58l3.48,23.84c.15,1.02-.56,1.97-1.58,2.12-.09.01-.18.02-.27.02Z"/>
      <path d="M83.13,55.06c-.38,0-.76-.12-1.09-.35l-12.47-9.01c-.84-.61-1.03-1.77-.42-2.61.6-.84,1.78-1.03,2.61-.42l12.47,9.01c.84.61,1.03,1.77.42,2.61-.37.51-.94.78-1.52.78Z"/>
      <rect class="cls-2" width="200" height="200"/>
      <rect class="cls-2" x="29.33" y="29.33" width="141.34" height="141.34" rx="70.67" ry="70.67"/>
    </g>
  </g>
</svg>