<?xml version="1.0" encoding="UTF-8"?>
<svg id="_图层_2" data-name="图层 2" xmlns="http://www.w3.org/2000/svg" viewBox="0 0 359.5 359.5">
  <defs>
    <style>
      .cls-1 {
        fill: #f4c2b7;
      }

      .cls-1, .cls-2, .cls-3, .cls-4, .cls-5, .cls-6, .cls-7 {
        stroke-width: 0px;
      }

      .cls-2 {
        fill: #e7ae5b;
      }

      .cls-3 {
        fill: #8eb3bb;
      }

      .cls-5 {
        fill: #faeccb;
      }

      .cls-6 {
        fill: #ece2d2;
      }

      .cls-7 {
        fill: #736360;
      }

      .cls-8 {
        fill: none;
        stroke: #231815;
        stroke-linecap: round;
        stroke-linejoin: round;
        stroke-width: .5px;
      }
    </style>
  </defs>
  <g id="_图层_1-2" data-name="图层 1">
    <g>
      <g>
        <path class="cls-1" d="m176.05,247.21c.63,2.02,1.71,3.75,3.31,5.13,2.78,2.41,6.03,3.49,9.43,3.21,3.15.39,5.78-.18,8.21-1.83,2.34-1.58,3.04-4.21,1.59-6.65-1.25-2.1-2.45-2.35-4.47-.94-.33.23-.69.41-.99.67-1.88,1.66-3.93,1.45-6.04.55-2.04-.87-3.55-2.32-4.83-4.12-1.33-1.9-3.74-2.1-5.12-.46-1.05,1.25-1.63,2.73-1.09,4.44Zm37.31,60.21c4.73.7,9.21-.03,13.52-1.92,2.21-.97,4.15-2.41,5.62-4.35,1.09-1.43,1.32-3.07.46-4.72-.62-1.19-2.45-1.74-4.28-1.3-.69.17-1.36.46-1.99.8-2.02,1.09-3.97,2.33-6.03,3.33-3.25,1.59-7.83.66-9.83-1.99-1.55-2.05-2.62-4.37-3.01-6.95-.3-2.04-.6-4.09-.9-6.14-.23-1.5.06-2.24,1.4-2.93.69-.36,1.5-.5,2.27-.7,1.63-.4,2.91-1.26,3.75-2.73,1.02-1.8.82-3.12-.77-4.43-1.26-1.05-2.74-1.62-4.4-1.64-1.92-.02-3.84-.01-5.75-.01v-.04c-2,0-4-.09-5.99.02-3.11.17-4.81,3.52-3.03,6.07.7,1.01,1.75,1.84,2.78,2.55,1.2.83,1.63,1.81,1.48,3.24-.29,2.75-1.21,5.25-2.66,7.59-1.73,2.77-4.7,3.56-7.67,2.12-2.4-1.16-4.48-2.6-6.25-4.66-2-2.34-3.96-2.22-5.88-.1-1.14,1.25-1.26,3.51-.19,5.11,2.04,3.06,4.8,5.18,8.26,6.56,5.24,2.09,10.22,2.18,14.98-1.2,1.71-1.21,2.31-1.09,3.6.52,1.09,1.37,2.08,2.82,3.26,4.11,1.94,2.12,4.34,3.36,7.25,3.79Zm9.98,39.53c-3.08.69-6,2.25-9.3,2.01-.6-.04-1.23.28-1.84.46-.69.2-1.35.5-2.05.64-2.58.51-5.15,1.16-7.75,1.42-5.01.5-10.04.78-15.06,1.12-.63.04-1.27-.1-1.91-.17-1.18-.12-1.91-.82-2.16-1.93-.18-.85-.23-1.73-.27-2.6-.18-3.27-.14-6.55-.54-9.79-.31-2.42-1.02-4.83-1.79-7.16-1.11-3.3-2.01-6.67-3.93-9.69-2.1-3.29-4.1-6.64-6.82-9.46-4-4.15-7.39-8.7-9.96-13.88-1.36-2.72-2.22-5.5-3.02-8.43-1.82-6.7-1.23-13.25-.13-19.89.12-.7.25-1.42.26-2.13.09-4.87,1.53-9.49,3.36-13.85,2.65-6.31,6.18-12.19,10.91-17.27,1.2-1.28,2.46-1.8,4.19-1.78,4.48.06,8.95.01,13.43-.08,1.67-.04,3.34-.28,5-.5,1.89-.26,3.8-.51,5.66-.92,2.25-.49,4.54-.95,6.68-1.77,6.97-2.68,13.37-6.4,18.92-11.4,4.27-3.85,8.16-8.08,10.88-13.23.63-1.2,1.55-1.8,2.87-1.76,1.92.04,3.88-.11,5.74.25,4.31.81,8.67,1.16,12.96,2.22,3.27.81,6.41,1.84,9.54,3.03,1.56.6,2.95.29,4.18-.89,3.79-3.65,7.47-7.37,10.94-11.34,4.44-5.1,9.44-9.72,14.85-13.84,3.03-2.31,6.08-4.6,9.16-6.86,1.03-.75,2.11-1.44,3.23-2.04,1.55-.83,2.32-.58,3.14.92.27.48.49,1.01.6,1.55.95,4.84,2.01,9.67,1.66,14.67-.05.79-.01,1.59-.01,2.39.19,5.76-.24,11.47-1.14,17.16-.21,1.33-.16,2.71-.35,4.05-.24,1.64-.6,3.26-.93,4.89-.11.55-.37,1.08-.4,1.62-.14,3.02-1.61,5.64-2.48,8.44-.59,1.89-1.34,3.76-1.71,5.69-.19,1.01.09,2.24.52,3.21,1.26,2.83,2.77,5.55,4.07,8.37,1.78,3.9,3.12,7.91,4.21,12.1,1.81,6.89,1.19,13.77,1.27,20.67.01,1.16-.32,2.16-1.1,3.07-3.19,3.67-6.23,7.46-9.5,11.04-3.17,3.48-6.4,6.92-9.88,10.08-5.53,5.04-11.02,10.17-17.18,14.46-4.3,3-8.8,5.73-13.24,8.53-6.41,4.04-13.1,7.54-20.09,10.5-3.97,1.68-7.94,3.29-12.09,4.49-3.9,1.12-7.66,2.72-11.6,3.61Zm24.11-81.35c2.88.33,5.39-.83,7.78-2.05,1.82-.93,3.48-2.22,5.07-3.51,1.36-1.09,1.28-2.69.78-4.18-.53-1.56-1.87-2.22-3.4-2.09-1.13.09-2.28.5-3.33.99-1.29.59-2.38,1.73-3.71,2.06-3.85.97-7.22-.09-9.95-3.03-.48-.51-1.01-1.02-1.6-1.4-1.87-1.19-3.17-.98-4.88.72-1.17,1.16-1.49,3.22-.45,4.61,3.42,4.58,7.79,7.6,13.69,7.88Z"/>
        <path class="cls-3" d="m54.54,60.44c.49-.57,1.14-1.01,2.12-1.31-.16.8-.24,1.64-.5,2.41-1.13,3.3-2.4,6.56-3.47,9.88-1.42,4.38-2.67,8.8-4.04,13.2-.59,1.89-1.3,3.75-1.9,5.64-1.35,4.24-2.6,8.5-4.01,12.72-.91,2.7-1.97,5.37-3.09,8-1.33,3.14-2.6,6.33-4.23,9.32-3.93,7.22-8.51,14-14.5,19.73-2.19,2.09-4.37,4.19-6.64,6.18-.94.82-2.11,1.37-3.36,2.17-.79-1.25-.41-2.12-.15-3.04.3-1.06.48-2.16.67-3.25.1-.54,0-1.14.16-1.66,1.42-4.69,1.82-9.64,4.01-14.17,1.53-3.18,2.33-6.71,3.5-10.08.5-1.42,1.07-2.82,1.66-4.21,1.36-3.21,2.61-6.49,4.17-9.6,2.06-4.1,3.99-8.28,6.75-12.03,2.74-3.71,5.07-7.71,7.76-11.45,2.32-3.22,4.86-6.28,7.37-9.35,2.52-3.08,5.12-6.09,7.72-9.1Z"/>
        <path class="cls-6" d="m344.52,127.29c.67,2.28,1.23,4.6,1.82,6.9.81,3.15,1.61,6.31,2.41,9.46.04.16.1.31.13.46.65,4.41,1.31,8.81,1.94,13.21.14.95.08,1.92.22,2.86.27,1.82.79,3.61.9,5.42.24,4.14.29,8.29.46,13.9-.34,4.35-.81,10.14-1.26,15.94-.12,1.51-.13,3.03-.33,4.53-.26,2.05-.64,4.08-.98,6.12-.06.39-.19.77-.25,1.16-.65,4.01-1.24,8.02-1.97,12.01-.38,2.1-.97,4.17-1.56,6.22-.73,2.52-1.56,5.01-2.36,7.5-1.14,3.54-2.26,7.09-3.44,10.61-.46,1.35-1.05,2.65-1.63,3.95-2.76,6.25-5.75,12.38-9.42,18.16-.38.6-.54,1.34-.96,1.91-.28.38-.86.84-1.26.79-.42-.05-.95-.58-1.12-1.02-.26-.65-.33-1.41-.33-2.12,0-3.95-1.1-7.73-2.09-11.48-.84-3.19-2.35-6.21-3.63-9.28-.94-2.27-2.03-4.48-2.96-6.75-.21-.53-.14-1.26.01-1.84.3-1.15.74-2.26,1.14-3.38,1.31-3.67,1.98-7.51,3-11.24,1.3-4.72,1.11-9.48,1.55-14.22.4-4.2.88-8.42.86-12.63-.01-4.2-.61-8.41-.94-12.62-.22-2.7-.59-5.32-1.64-7.89-.92-2.26-2.21-4.21-3.74-6.04-.69-.82-1.62-1.13-2.72-1.29-4.73-.66-8.82.86-12.55,3.53-3.82,2.73-7.62,5.5-11.26,8.46-2.47,2-4.72,4.27-6.94,6.55-4.45,4.56-8.87,9.16-13.18,13.85-1.6,1.73-3.34,2.36-5.56,1.81-1.39-.35-2.76-.76-4.15-1.1-.92-.23-1.86-.41-2.8-.6-1.02-.2-2.03-.39-3.06-.57-1.72-.29-3.44-.64-5.17-.83-1.83-.19-3.67-.22-5.5-.36-.64-.04-1.28-.14-1.88-.33-1.9-.57-2.23-1.18-2.13-3.13.14-2.79.43-5.59.23-8.35-.26-3.67-1.73-6.8-4.87-9.12-4.28-3.15-9.17-4.37-14.29-4.82-1.79-.16-3.64.38-5.47.52-1.19.1-2.4.15-3.59.05-1.06-.09-1.36-.67-.98-1.68.19-.51.45-1.05.83-1.44,1.71-1.82,2.01-4.12,2.1-6.43.05-1.25.52-2.05,1.48-2.79,2.65-2.07,4.94-4.49,7.06-7.11,1.61-2,2.66-4.14,2.78-6.71.03-.72.11-1.43.21-2.14.26-1.81.97-2.47,2.84-2.59,1.11-.07,2.24-.06,3.36-.04,2.92.05,5.74-.52,8.37-1.75,2.58-1.22,4.46-3.25,4.66-6.2.25-3.88.24-7.74-1.04-11.57-1-2.99-1.37-6.2-2.01-9.31-.13-.62-.09-1.29-.3-1.88-1.27-3.64-1.12-7.4-.92-11.14.19-3.42,1.06-6.72,2.27-9.95,1.32-3.48,2.37-7.07,3.68-10.55,3.22-8.51,3.16-17.34,2.57-26.17-.25-3.77-.89-7.58-2.49-11.13-.61-1.37-.9-2.89-1.2-4.37-.11-.58,0-1.29.24-1.84,1.58-3.6,2.45-7.38,3.21-11.2.35-1.73,1.09-2.07,2.73-1.31,6.51,2.99,12.94,6.16,18.94,10.06,5.06,3.29,9.96,6.86,14.75,10.55,8.09,6.23,15.81,12.92,22.69,20.5,3.2,3.53,6.06,7.37,8.96,11.17,3.09,4.04,6.18,8.1,9.01,12.33,2.07,3.09,3.77,6.43,5.53,9.72,1.76,3.28,3.48,6.59,5.07,9.96,1.38,2.94,2.59,5.97,3.84,8.97.82,1.98,1.59,3.98,2.33,5.99.63,1.71,1.25,3.43,1.75,5.18Z"/>
        <path class="cls-3" d="m172.72,6.89c6.3-.05,12.6.33,18.9.54,1.12.03,2.24.1,3.35.22,2.37.27,4.75.52,7.11.89,3.54.55,7.1,1.06,10.59,1.85,5.34,1.22,10.76,2.16,15.92,4.13,3.33,1.28,6.8,2.21,10.2,3.31,2.28.74,2.68,1.34,2.17,3.69-.75,3.44-2.1,6.65-4,9.63-4.16,6.54-9.64,11.89-15.57,16.74-4.69,3.83-9.81,7.13-15.21,9.89-4.31,2.21-8.77,4.14-13.27,5.96-2.34.94-4.89,1.36-7.34,2.04-2.23.62-4.44,1.28-6.65,1.93-.69.2-1.35.52-2.05.65-2.74.51-5.48,1.14-8.24,1.42-5.16.53-10.34,1.02-15.53,1.19-2.92.09-5.88-.43-8.8-.83-.79-.11-1.63-.65-2.22-1.22-1.54-1.5-2.95-3.13-4.41-4.7-2.87-3.09-6.42-5.04-10.53-5.71-7.5-1.22-14.31-.27-19.15,6.58-2.06,2.92-3.35,6.07-4.36,9.44-1.5,4.99-1.44,10.1-1.08,15.17.22,2.97,1.26,5.89,2.08,8.79.45,1.59,1.34,3.06,1.81,4.65.2.66.03,1.62-.34,2.22-3.25,5.31-6.91,10.29-11.52,14.54-3.34,3.08-6.51,6.33-9.86,9.4-4.42,4.06-9.57,7.13-14.59,10.36-3.02,1.94-5.95,4-8.92,6.01-6.64,4.47-12.69,9.64-18.39,15.24-5.07,4.98-9.5,10.46-13.28,16.53-2.59,4.13-4.83,8.4-6.72,12.85-2.38,5.62-3.11,11.58-1.8,17.56.57,2.56,1.83,5.14,3.35,7.31,3.17,4.48,6.63,8.76,10.19,12.95,1.1,1.3,1.14,2.38.58,3.67-2.24,5.17-4.53,10.32-6.8,15.48-.64,1.46-1.24,2.93-1.86,4.39-.43,1.02-1,1.82-2.48,1.65-1.15-2.6-2.39-5.26-3.49-7.96-1.32-3.24-2.56-6.5-3.74-9.78-.85-2.39-1.62-4.81-2.33-7.25-.9-3.1-1.7-6.24-2.55-9.36-.06-.23-.12-.46-.16-.7-.63-3.68-1.1-7.4-1.92-11.04-1.67-7.43-1.63-15.03-2.41-22.54-.63-5.97-.2-11.94.55-17.89.2-1.58.37-3.17.46-4.75.08-1.43.72-2.35,1.99-3,4.29-2.21,7.97-5.28,11.52-8.48,2.78-2.5,5.42-5.16,8.05-7.82,1.28-1.3,2.47-2.71,3.53-4.2,2.77-3.89,5.68-7.71,8.09-11.82,2.17-3.69,3.85-7.68,5.53-11.63,1.49-3.48,2.73-7.07,4.01-10.64.69-1.94,1.23-3.93,1.85-5.9,1.4-4.46,2.81-8.92,4.21-13.38.59-1.9,1.08-3.83,1.74-5.7,1.38-3.89,2.79-7.77,4.28-11.62,1.51-3.92,3.09-7.82,4.71-11.7,2-4.79,4.66-9.23,7.64-13.46,1.02-1.45,2.58-2.62,4.1-3.58,3.57-2.25,7.25-4.32,10.91-6.43,3.86-2.22,7.72-4.43,11.62-6.57,1.53-.84,3.17-1.45,4.74-2.21,2.28-1.11,4.52-2.32,6.81-3.4,2.02-.94,4.08-1.77,6.14-2.61,1.47-.6,2.94-1.2,4.45-1.7,3.77-1.26,7.51-2.68,11.36-3.64,5.41-1.34,10.91-2.33,16.38-3.47,1.32-.28,2.65-.54,3.98-.82.7-.14,1.39-.38,2.1-.43,4.85-.35,9.71-.9,14.57-.93Z"/>
        <path class="cls-4" d="m210.15,350.06c.7-.14,1.36-.44,2.05-.64.61-.18,1.24-.5,1.84-.46,3.3.24,6.22-1.32,9.3-2.01,3.94-.89,7.7-2.49,11.6-3.61,4.15-1.2,8.12-2.81,12.09-4.49,6.99-2.96,13.68-6.46,20.09-10.5,4.44-2.8,8.94-5.53,13.24-8.53,6.16-4.29,11.65-9.42,17.18-14.46,3.48-3.16,6.71-6.6,9.88-10.08,3.27-3.58,6.31-7.37,9.5-11.04.78-.91,1.11-1.91,1.1-3.07-.08-6.9.54-13.78-1.27-20.67-1.09-4.19-2.43-8.2-4.21-12.1-1.3-2.82-2.81-5.54-4.07-8.37-.43-.97-.71-2.2-.52-3.21.37-1.93,1.12-3.8,1.71-5.69.87-2.8,2.34-5.42,2.48-8.44.03-.54.29-1.07.4-1.62.33-1.63.69-3.25.93-4.89.19-1.34.14-2.72.35-4.05.9-5.69,1.33-11.4,1.14-17.16,0-.8-.04-1.6.01-2.39.35-5-.71-9.83-1.66-14.67-.11-.54-.33-1.07-.6-1.55-.82-1.5-1.59-1.75-3.14-.92-1.12.6-2.2,1.29-3.23,2.04-3.08,2.26-6.13,4.55-9.16,6.86-5.41,4.12-10.41,8.74-14.85,13.84-3.47,3.97-7.15,7.69-10.94,11.34-1.23,1.18-2.62,1.49-4.18.89-3.13-1.19-6.27-2.22-9.54-3.03-4.29-1.06-8.65-1.41-12.96-2.22-1.86-.36-3.82-.21-5.74-.25-1.32-.04-2.24.56-2.87,1.76-2.72,5.15-6.61,9.38-10.88,13.23-5.55,5-11.95,8.72-18.92,11.4-2.14.82-4.43,1.28-6.68,1.77-1.86.41-3.77.66-5.66.92-1.66.22-3.33.46-5,.5-4.48.09-8.95.14-13.43.08-1.73-.02-2.99.5-4.19,1.78-4.73,5.08-8.26,10.96-10.91,17.27-1.83,4.36-3.27,8.98-3.36,13.85-.01.71-.14,1.43-.26,2.13-1.1,6.64-1.69,13.19.13,19.89.8,2.93,1.66,5.71,3.02,8.43,2.57,5.18,5.96,9.73,9.96,13.88,2.72,2.82,4.72,6.17,6.82,9.46,1.92,3.02,2.82,6.39,3.93,9.69.77,2.33,1.48,4.74,1.79,7.16.4,3.24.36,6.52.54,9.79.04.87.09,1.75.27,2.6.25,1.11.98,1.81,2.16,1.93.64.07,1.28.21,1.91.17,5.02-.34,10.05-.62,15.06-1.12,2.6-.26,5.17-.91,7.75-1.42Zm136.19-215.87c-.59-2.3-1.15-4.62-1.82-6.9-.5-1.75-1.12-3.47-1.75-5.18-.74-2.01-1.51-4.01-2.33-5.99-1.25-3-2.46-6.03-3.84-8.97-1.59-3.37-3.31-6.68-5.07-9.96-1.76-3.29-3.46-6.63-5.53-9.72-2.83-4.23-5.92-8.29-9.01-12.33-2.9-3.8-5.76-7.64-8.96-11.17-6.88-7.58-14.6-14.27-22.69-20.5-4.79-3.69-9.69-7.26-14.75-10.55-6-3.9-12.43-7.07-18.94-10.06-1.64-.76-2.38-.42-2.73,1.31-.76,3.82-1.63,7.6-3.21,11.2-.24.55-.35,1.26-.24,1.84.3,1.48.59,3,1.2,4.37,1.6,3.55,2.24,7.36,2.49,11.13.59,8.83.65,17.66-2.57,26.17-1.31,3.48-2.36,7.07-3.68,10.55-1.21,3.23-2.08,6.53-2.27,9.95-.2,3.74-.35,7.5.92,11.14.21.59.17,1.26.3,1.88.64,3.11,1.01,6.32,2.01,9.31,1.28,3.83,1.29,7.69,1.04,11.57-.2,2.95-2.08,4.98-4.66,6.2-2.63,1.23-5.45,1.8-8.37,1.75-1.12-.02-2.25-.03-3.36.04-1.87.12-2.58.78-2.84,2.59-.1.71-.18,1.42-.21,2.14-.12,2.57-1.17,4.71-2.78,6.71-2.12,2.62-4.41,5.04-7.06,7.11-.96.74-1.43,1.54-1.48,2.79-.09,2.31-.39,4.61-2.1,6.43-.38.39-.64.93-.83,1.44-.38,1.01-.08,1.59.98,1.68,1.19.1,2.4.05,3.59-.05,1.83-.14,3.68-.68,5.47-.52,5.12.45,10.01,1.67,14.29,4.82,3.14,2.32,4.61,5.45,4.87,9.12.2,2.76-.09,5.56-.23,8.35-.1,1.95.23,2.56,2.13,3.13.6.19,1.24.29,1.88.33,1.83.14,3.67.17,5.5.36,1.73.19,3.45.54,5.17.83,1.03.18,2.04.37,3.06.57.94.19,1.88.37,2.8.6,1.39.34,2.76.75,4.15,1.1,2.22.55,3.96-.08,5.56-1.81,4.31-4.69,8.73-9.29,13.18-13.85,2.22-2.28,4.47-4.55,6.94-6.55,3.64-2.96,7.44-5.73,11.26-8.46,3.73-2.67,7.82-4.19,12.55-3.53,1.1.16,2.03.47,2.72,1.29,1.53,1.83,2.82,3.78,3.74,6.04,1.05,2.57,1.42,5.19,1.64,7.89.33,4.21.93,8.42.94,12.62.02,4.21-.46,8.43-.86,12.63-.44,4.74-.25,9.5-1.55,14.22-1.02,3.73-1.69,7.57-3,11.24-.4,1.12-.84,2.23-1.14,3.38-.15.58-.22,1.31-.01,1.84.93,2.27,2.02,4.48,2.96,6.75,1.28,3.07,2.79,6.09,3.63,9.28.99,3.75,2.1,7.53,2.09,11.48,0,.71.07,1.47.33,2.12.17.44.7.97,1.12,1.02.4.05.98-.41,1.26-.79.42-.57.58-1.31.96-1.91,3.67-5.78,6.66-11.91,9.42-18.16.58-1.3,1.17-2.6,1.63-3.95,1.18-3.52,2.3-7.07,3.44-10.61.8-2.49,1.63-4.98,2.36-7.5.59-2.05,1.18-4.12,1.56-6.22.73-3.99,1.32-8,1.97-12.01.06-.39.19-.77.25-1.16.34-2.04.72-4.07.98-6.12.2-1.5.21-3.02.33-4.53.45-5.8.92-11.59,1.26-15.94-.17-5.61-.22-9.76-.46-13.9-.11-1.81-.63-3.6-.9-5.42-.14-.94-.08-1.91-.22-2.86-.63-4.4-1.29-8.8-1.94-13.21-.03-.15-.09-.3-.13-.46-.8-3.15-1.6-6.31-2.41-9.46ZM56.66,59.13c-.98.3-1.63.74-2.12,1.31-2.6,3.01-5.2,6.02-7.72,9.1-2.51,3.07-5.05,6.13-7.37,9.35-2.69,3.74-5.02,7.74-7.76,11.45-2.76,3.75-4.69,7.93-6.75,12.03-1.56,3.11-2.81,6.39-4.17,9.6-.59,1.39-1.16,2.79-1.66,4.21-1.17,3.37-1.97,6.9-3.5,10.08-2.19,4.53-2.59,9.48-4.01,14.17-.16.52-.06,1.12-.16,1.66-.19,1.09-.37,2.19-.67,3.25-.26.92-.64,1.79.15,3.04,1.25-.8,2.42-1.35,3.36-2.17,2.27-1.99,4.45-4.09,6.64-6.18,5.99-5.73,10.57-12.51,14.5-19.73,1.63-2.99,2.9-6.18,4.23-9.32,1.12-2.63,2.18-5.3,3.09-8,1.41-4.22,2.66-8.48,4.01-12.72.6-1.89,1.31-3.75,1.9-5.64,1.37-4.4,2.62-8.82,4.04-13.2,1.07-3.32,2.34-6.58,3.47-9.88.26-.77.34-1.61.5-2.41ZM7.95,166.78c-.75,5.95-1.18,11.92-.55,17.89.78,7.51.74,15.11,2.41,22.54.82,3.64,1.29,7.36,1.92,11.04.04.24.1.47.16.7.85,3.12,1.65,6.26,2.55,9.36.71,2.44,1.48,4.86,2.33,7.25,1.18,3.28,2.42,6.54,3.74,9.78,1.1,2.7,2.34,5.36,3.49,7.96,1.48.17,2.05-.63,2.48-1.65.62-1.46,1.22-2.93,1.86-4.39,2.27-5.16,4.56-10.31,6.8-15.48.56-1.29.52-2.37-.58-3.67-3.56-4.19-7.02-8.47-10.19-12.95-1.52-2.17-2.78-4.75-3.35-7.31-1.31-5.98-.58-11.94,1.8-17.56,1.89-4.45,4.13-8.72,6.72-12.85,3.78-6.07,8.21-11.55,13.28-16.53,5.7-5.6,11.75-10.77,18.39-15.24,2.97-2.01,5.9-4.07,8.92-6.01,5.02-3.23,10.17-6.3,14.59-10.36,3.35-3.07,6.52-6.32,9.86-9.4,4.61-4.25,8.27-9.23,11.52-14.54.37-.6.54-1.56.34-2.22-.47-1.59-1.36-3.06-1.81-4.65-.82-2.9-1.86-5.82-2.08-8.79-.36-5.07-.42-10.18,1.08-15.17,1.01-3.37,2.3-6.52,4.36-9.44,4.84-6.85,11.65-7.8,19.15-6.58,4.11.67,7.66,2.62,10.53,5.71,1.46,1.57,2.87,3.2,4.41,4.7.59.57,1.43,1.11,2.22,1.22,2.92.4,5.88.92,8.8.83,5.19-.17,10.37-.66,15.53-1.19,2.76-.28,5.5-.91,8.24-1.42.7-.13,1.36-.45,2.05-.65,2.21-.65,4.42-1.31,6.65-1.93,2.45-.68,5-1.1,7.34-2.04,4.5-1.82,8.96-3.75,13.27-5.96,5.4-2.76,10.52-6.06,15.21-9.89,5.93-4.85,11.41-10.2,15.57-16.74,1.9-2.98,3.25-6.19,4-9.63.51-2.35.11-2.95-2.17-3.69-3.4-1.1-6.87-2.03-10.2-3.31-5.16-1.97-10.58-2.91-15.92-4.13-3.49-.79-7.05-1.3-10.59-1.85-2.36-.37-4.74-.62-7.11-.89-1.11-.12-2.23-.19-3.35-.22-6.3-.21-12.6-.59-18.9-.54-4.86.03-9.72.58-14.57.93-.71.05-1.4.29-2.1.43-1.33.28-2.66.54-3.98.82-5.47,1.14-10.97,2.13-16.38,3.47-3.85.96-7.59,2.38-11.36,3.64-1.51.5-2.98,1.1-4.45,1.7-2.06.84-4.12,1.67-6.14,2.61-2.29,1.08-4.53,2.29-6.81,3.4-1.57.76-3.21,1.37-4.74,2.21-3.9,2.14-7.76,4.35-11.62,6.57-3.66,2.11-7.34,4.18-10.91,6.43-1.52.96-3.08,2.13-4.1,3.58-2.98,4.23-5.64,8.67-7.64,13.46-1.62,3.88-3.2,7.78-4.71,11.7-1.49,3.85-2.9,7.73-4.28,11.62-.66,1.87-1.15,3.8-1.74,5.7-1.4,4.46-2.81,8.92-4.21,13.38-.62,1.97-1.16,3.96-1.85,5.9-1.28,3.57-2.52,7.16-4.01,10.64-1.68,3.95-3.36,7.94-5.53,11.63-2.41,4.11-5.32,7.93-8.09,11.82-1.06,1.49-2.25,2.9-3.53,4.2-2.63,2.66-5.27,5.32-8.05,7.82-3.55,3.2-7.23,6.27-11.52,8.48-1.27.65-1.91,1.57-1.99,3-.09,1.58-.26,3.17-.46,4.75ZM179.75.25c99.13,0,179.5,80.36,179.5,179.5s-80.37,179.49-179.5,179.49S.25,278.88.25,179.75,80.61.25,179.75.25Zm58.34,77.6c1.58-4.6,2.88-9.26,2.78-14.18-.09-4.78-.04-9.58-.4-14.34-.16-2.24-1.15-4.42-1.78-6.62-.03-.1-.27-.13-.59-.27-.48.36-1.11.71-1.59,1.21-1.28,1.31-2.46,2.72-3.72,4.04-3.58,3.77-7.37,7.3-11.65,10.27-5.1,3.54-10.19,7.08-15.99,9.46-4.25,1.75-8.45,3.63-12.74,5.29-2.14.83-4.42,1.29-6.63,1.94-4.21,1.24-8.41,2.47-12.84,2.68-.55.03-1.13.08-1.65.25-3.57,1.14-7.26,1-10.93,1.13-1.76.06-3.52.11-5.27.15-4,.09-7.99.15-11.99.25-2.87.07-5.09-1.03-6.65-3.46-.43-.67-.93-1.31-1.46-1.89-2.61-2.88-5.07-5.74-8.83-7.46-4.83-2.21-10.56.53-12.27,4.64-.79,1.89-1.35,3.88-1.93,5.85-.34,1.13-.67,2.29-.77,3.46-.16,1.82-.07,3.67-.19,5.49-.33,4.84.93,9.3,3.17,13.53,1.87,3.53,4.5,6.34,8.14,8.12,1.78.86,3.65,1.56,5.41,2.46,1.61.83,2.21,2.55,1.69,4.25-.82,2.68-3.02,3.78-5.87,2.79-2.25-.78-4.48-1.67-6.63-2.68-1.21-.57-2.24-1.53-3.39-2.23-1.33-.81-1.82-.69-2.86.51-.26.3-.49.63-.73.95-2.38,3.18-4.72,6.4-7.16,9.53-1.11,1.42-2.43,2.67-3.85,4.21,1.45,1.06,2.76.62,4.08.38,2.35-.43,4.7-.82,7.05-1.21.71-.12,1.42-.23,2.13-.31,3.01-.37,6-.95,9.02-1.03,9.82-.26,19.57.01,29.19,2.65,4.73,1.3,9.25,3.04,13.54,5.23,7.74,3.93,13.84,9.86,18.54,17.16,2.15,3.33,4.12,6.78,6.14,10.2,2.27,3.84,5.51,6.54,9.54,8.38.87.39,1.59.27,2.49-.1,2.3-.96,3.57-2.84,4.83-4.8,1.91-2.96,1.67-5.88-.71-8.44-.6-.64-1.09-1.37-1.68-2.01-1.1-1.21-1.11-2.66-.8-4.07.62-2.84,3.36-3.76,5.64-1.95.75.59,1.43,1.27,2.12,1.92,1.04.98,2.26,1.13,3.58.82,2-.47,3.21-1.95,3.38-4.06.12-1.5.22-3.01.44-4.49.28-1.8.76-3.56,1-5.36.13-1.02.48-1.72,1.28-2.41,1.63-1.4,3.42-1.28,5.2-.69,2.1.69,4.22.83,6.38.75,3.3-.12,5.23-2.66,4.46-5.86-.27-1.08-.68-2.13-.84-3.23-.64-4.33-1.21-8.67-1.81-13.01-.08-.63-.18-1.26-.34-1.88-1.66-6.46-.96-12.83.92-19.09,1.3-4.32,2.93-8.55,4.4-12.82Zm-12.07,129.43c-.71-.75-1.07-1.18-1.48-1.55-2.93-2.69-5.92-5.32-8.79-8.09-1.89-1.82-3.9-3.67-4.69-6.25-.83-2.72-1.91-5.41-1.81-8.37.04-1.08-.31-2.22-.71-3.25-.22-.58-.83-1.31-1.38-1.43-2.8-.62-5.62-1.34-8.47-1.49-2.53-.13-4.72-1.07-6.71-2.26-3.62-2.17-6.98-4.8-9.3-8.45-2.09-3.28-4.01-6.67-6.1-9.95-5.3-8.32-12-14.97-21.62-18.27-3.07-1.06-6.07-2.28-9.23-3.1-5.29-1.39-10.73-1.74-16.11-2.02-4.27-.23-8.61.43-12.89.87-4.44.46-8.86,1.13-13.29,1.71-.23.03-.47.1-.7.17-2.88.85-5.8,1.63-8.66,2.56-3.39,1.11-6.86,2.1-10.08,3.6-8.25,3.87-15.84,8.84-22.99,14.47-7.53,5.93-14.46,12.46-20.45,20-3.81,4.79-6.72,10-9.17,15.53-.74,1.66-1.39,3.41-1.75,5.19-1.2,5.79.2,11.06,3.67,15.77,1.51,2.04,3.28,3.9,4.84,5.91,4.29,5.48,9.13,10.47,14.52,14.85,4.26,3.45,8.74,6.65,13.3,9.71,2.47,1.66,5.1,3.26,8.26,3.48.53.04,1.02.42,1.55.61.75.26,1.49.53,2.26.7,1.56.35,3.12.67,4.69.93,5.48.92,10.56.22,14.52-4.07,3.59-3.88,5.92-8.43,6.6-13.74.09-.71.29-1.4.43-2.1.35-1.7.96-3.4.98-5.11.1-6.93.09-13.87-.03-20.81-.07-3.82-.41-7.64-.69-11.45-.18-2.38-.38-4.76-.76-7.12-.52-3.29-.88-6.67-1.94-9.79-.84-2.47-1.04-4.98-1.53-7.46-.31-1.58.65-2.61,1.92-3.26,1.18-.61,2.44-.66,3.58.29,1.11.94,2.11,1.88,2.6,3.34.65,1.95,1.66,3.79,2.24,5.76.9,3.02,2.27,5.96,2.06,9.25-.04.71.07,1.43.14,2.14.46,4.43,1.49,8.8,1.19,13.29,0,.16.01.32.02.48.01,8.77.05,17.54.02,26.31,0,1.26-.28,2.52-.49,3.77-.27,1.57-.6,3.12-.9,4.68-.15.78-.2,1.59-.46,2.33-1.07,3.07-2.27,6.07-3.82,8.97-1.89,3.54-4.47,6.42-7.53,8.84-2.18,1.71-4.73,3.04-7.53,3.44-8.17,1.18-16.26,1.08-23.85-2.72-4.4-2.2-8.87-4.35-12.97-7.04-3.91-2.56-7.4-5.78-11.06-8.72-.67-.54-1.31-1.12-2.15-1.85-.69.73-1.46,1.25-1.8,1.97-1.59,3.29-3.1,6.62-4.54,9.97-1.72,4-3.34,8.05-5.01,12.07-.3.73-.74,1.41-.99,2.15-.97,2.75.34,5.03,1.82,7.11,4.15,5.83,8.46,11.54,12.66,17.34,4.41,6.1,9.66,11.46,15.02,16.67,4.61,4.49,9.77,8.43,14.69,12.6.97.82,1.93,1.69,2.99,2.39,3.58,2.37,7.25,4.61,10.81,7.01,7.41,4.99,15.38,8.92,23.49,12.59,1.16.52,2.27,1.16,3.46,1.59,3.58,1.3,7.16,2.56,10.78,3.75,3.69,1.21,7.39,2.43,11.15,3.43,2.99.8,6.06,1.25,9.1,1.88.78.16,1.54.41,2.32.58,1.24.26,2.48.54,3.74.71,1.58.22,3.21.17,4.75.53,4.89,1.12,9.86.93,14.8.95,2.18.01,2.55-.31,2.33-2.56-.42-4.28-1.01-8.55-1.54-12.82-.03-.23-.14-.45-.22-.68-.76-2.07-1.39-4.2-2.31-6.21-1.15-2.52-2.26-5.12-3.87-7.34-2.28-3.15-4.98-5.99-7.53-8.93-3.95-4.56-6.97-9.69-9.32-15.2-1.8-4.2-2.49-8.75-2.91-13.22-.41-4.39-.53-8.9.72-13.29.41-1.43.35-3,.5-4.5.12-1.19.13-2.4.39-3.56.65-2.95,1.57-5.84,2.11-8.8.92-5.04,3.32-9.4,5.9-13.69,2.52-4.19,5.77-7.81,9.19-11.28,2.64-2.66,5.65-4.34,9.59-3.88,1.5.17,3.03.14,4.55.1,6.28-.19,12.58.26,18.8-1.44,3.88-1.07,7.46-2.52,11-4.43,4.17-2.25,7.9-5.07,11.59-7.96,1.65-1.29,2.91-3.09,4.49-4.83Z"/>
        <path class="cls-4" d="m255.23,263.55c-2.39,1.22-4.9,2.38-7.78,2.05-5.9-.28-10.27-3.3-13.69-7.88-1.04-1.39-.72-3.45.45-4.61,1.71-1.7,3.01-1.91,4.88-.72.59.38,1.12.89,1.6,1.4,2.73,2.94,6.1,4,9.95,3.03,1.33-.33,2.42-1.47,3.71-2.06,1.05-.49,2.2-.9,3.33-.99,1.53-.13,2.87.53,3.4,2.09.5,1.49.58,3.09-.78,4.18-1.59,1.29-3.25,2.58-5.07,3.51Z"/>
        <path class="cls-5" d="m213.58,94.71c-1.63.82-3.16,1.01-4.67-.24-1.16-.96-2.34-1.89-3.5-2.85-.56-.46-1.03-1.02-1.61-1.43-2.09-1.43-4.7-.29-5.07,2.21-.22,1.48.15,2.86,1.09,4.04s1.92,2.34,2.91,3.48c1.78,2.03,3.99,3.13,6.76,3.02,1.34-.17,2.68-.39,4.03-.49,2.32-.17,4.04-1.44,5.48-3.06,1.01-1.16,1.09-2.65.47-4.05-.62-1.38-1.91-1.67-3.23-1.51-.91.11-1.83.47-2.66.88Zm27.29-31.04c.1,4.92-1.2,9.58-2.78,14.18-1.47,4.27-3.1,8.5-4.4,12.82-1.88,6.26-2.58,12.63-.92,19.09.16.62.26,1.25.34,1.88.6,4.34,1.17,8.68,1.81,13.01.16,1.1.57,2.15.84,3.23.77,3.2-1.16,5.74-4.46,5.86-2.16.08-4.28-.06-6.38-.75-1.78-.59-3.57-.71-5.2.69-.8.69-1.15,1.39-1.28,2.41-.24,1.8-.72,3.56-1,5.36-.22,1.48-.32,2.99-.44,4.49-.17,2.11-1.38,3.59-3.38,4.06-1.32.31-2.54.16-3.58-.82-.69-.65-1.37-1.33-2.12-1.92-2.28-1.81-5.02-.89-5.64,1.95-.31,1.41-.3,2.86.8,4.07.59.64,1.08,1.37,1.68,2.01,2.38,2.56,2.62,5.48.71,8.44-1.26,1.96-2.53,3.84-4.83,4.8-.9.37-1.62.49-2.49.1-4.03-1.84-7.27-4.54-9.54-8.38-2.02-3.42-3.99-6.87-6.14-10.2-4.7-7.3-10.8-13.23-18.54-17.16-4.29-2.19-8.81-3.93-13.54-5.23-9.62-2.64-19.37-2.91-29.19-2.65-3.02.08-6.01.66-9.02,1.03-.71.08-1.42.19-2.13.31-2.35.39-4.7.78-7.05,1.21-1.32.24-2.63.68-4.08-.38,1.42-1.54,2.74-2.79,3.85-4.21,2.44-3.13,4.78-6.35,7.16-9.53.24-.32.47-.65.73-.95,1.04-1.2,1.53-1.32,2.86-.51,1.15.7,2.18,1.66,3.39,2.23,2.15,1.01,4.38,1.9,6.63,2.68,2.85.99,5.05-.11,5.87-2.79.52-1.7-.08-3.42-1.69-4.25-1.76-.9-3.63-1.6-5.41-2.46-3.64-1.78-6.27-4.59-8.14-8.12-2.24-4.23-3.5-8.69-3.17-13.53.12-1.82.03-3.67.19-5.49.1-1.17.43-2.33.77-3.46.58-1.97,1.14-3.96,1.93-5.85,1.71-4.11,7.44-6.85,12.27-4.64,3.76,1.72,6.22,4.58,8.83,7.46.53.58,1.03,1.22,1.46,1.89,1.56,2.43,3.78,3.53,6.65,3.46,4-.1,7.99-.16,11.99-.25,1.75-.04,3.51-.09,5.27-.15,3.67-.13,7.36.01,10.93-1.13.52-.17,1.1-.22,1.65-.25,4.43-.21,8.63-1.44,12.84-2.68,2.21-.65,4.49-1.11,6.63-1.94,4.29-1.66,8.49-3.54,12.74-5.29,5.8-2.38,10.89-5.92,15.99-9.46,4.28-2.97,8.07-6.5,11.65-10.27,1.26-1.32,2.44-2.73,3.72-4.04.48-.5,1.11-.85,1.59-1.21.32.14.56.17.59.27.63,2.2,1.62,4.38,1.78,6.62.36,4.76.31,9.56.4,14.34Z"/>
        <path class="cls-4" d="m208.91,94.47c1.51,1.25,3.04,1.06,4.67.24.83-.41,1.75-.77,2.66-.88,1.32-.16,2.61.13,3.23,1.51.62,1.4.54,2.89-.47,4.05-1.44,1.62-3.16,2.89-5.48,3.06-1.35.1-2.69.32-4.03.49-2.77.11-4.98-.99-6.76-3.02-.99-1.14-1.97-2.3-2.91-3.48s-1.31-2.56-1.09-4.04c.37-2.5,2.98-3.64,5.07-2.21.58.41,1.05.97,1.61,1.43,1.16.96,2.34,1.89,3.5,2.85Z"/>
        <path class="cls-4" d="m177.14,242.77c1.38-1.64,3.79-1.44,5.12.46,1.28,1.8,2.79,3.25,4.83,4.12,2.11.9,4.16,1.11,6.04-.55.3-.26.66-.44.99-.67,2.02-1.41,3.22-1.16,4.47.94,1.45,2.44.75,5.07-1.59,6.65-2.43,1.65-5.06,2.22-8.21,1.83-3.4.28-6.65-.8-9.43-3.21-1.6-1.38-2.68-3.11-3.31-5.13-.54-1.71.04-3.19,1.09-4.44Z"/>
        <path class="cls-4" d="m176.2,288.53c1.92-2.12,3.88-2.24,5.88.1,1.77,2.06,3.85,3.5,6.25,4.66,2.97,1.44,5.94.65,7.67-2.12,1.45-2.34,2.37-4.84,2.66-7.59.15-1.43-.28-2.41-1.48-3.24-1.03-.71-2.08-1.54-2.78-2.55-1.78-2.55-.08-5.9,3.03-6.07,1.99-.11,3.99-.02,5.99-.02v.04c1.91,0,3.83,0,5.75.01,1.66.02,3.14.59,4.4,1.64,1.59,1.31,1.79,2.63.77,4.43-.84,1.47-2.12,2.33-3.75,2.73-.77.2-1.58.34-2.27.7-1.34.69-1.63,1.43-1.4,2.93.3,2.05.6,4.1.9,6.14.39,2.58,1.46,4.9,3.01,6.95,2,2.65,6.58,3.58,9.83,1.99,2.06-1,4.01-2.24,6.03-3.33.63-.34,1.3-.63,1.99-.8,1.83-.44,3.66.11,4.28,1.3.86,1.65.63,3.29-.46,4.72-1.47,1.94-3.41,3.38-5.62,4.35-4.31,1.89-8.79,2.62-13.52,1.92-2.91-.43-5.31-1.67-7.25-3.79-1.18-1.29-2.17-2.74-3.26-4.11-1.29-1.61-1.89-1.73-3.6-.52-4.76,3.38-9.74,3.29-14.98,1.2-3.46-1.38-6.22-3.5-8.26-6.56-1.07-1.6-.95-3.86.19-5.11Z"/>
        <path class="cls-2" d="m138.94,182.48c2.66,1.39,5.45,2.22,8.51,2.03,1.59-.15,3.4.14,4.71-.53,3.35-1.74,6.23-4.16,7.74-7.81.68-1.64.11-3.68-1.25-4.78-1.13-.91-2.82-.75-4.38.44-.76.58-1.52,1.16-2.21,1.83-1.41,1.36-3.06,1.69-4.99,1.8-2.84.17-5.14-.86-7.35-2.34-1.09-.73-2.17-1.05-3.33-.33-1.18.72-1.74,1.88-1.68,3.24.12,2.97,1.63,5.09,4.23,6.45Zm85.6,23.25c.41.37.77.8,1.48,1.55-1.58,1.74-2.84,3.54-4.49,4.83-3.69,2.89-7.42,5.71-11.59,7.96-3.54,1.91-7.12,3.36-11,4.43-6.22,1.7-12.52,1.25-18.8,1.44-1.52.04-3.05.07-4.55-.1-3.94-.46-6.95,1.22-9.59,3.88-3.42,3.47-6.67,7.09-9.19,11.28-2.58,4.29-4.98,8.65-5.9,13.69-.54,2.96-1.46,5.85-2.11,8.8-.26,1.16-.27,2.37-.39,3.56-.15,1.5-.09,3.07-.5,4.5-1.25,4.39-1.13,8.9-.72,13.29.42,4.47,1.11,9.02,2.91,13.22,2.35,5.51,5.37,10.64,9.32,15.2,2.55,2.94,5.25,5.78,7.53,8.93,1.61,2.22,2.72,4.82,3.87,7.34.92,2.01,1.55,4.14,2.31,6.21.08.23.19.45.22.68.53,4.27,1.12,8.54,1.54,12.82.22,2.25-.15,2.57-2.33,2.56-4.94-.02-9.91.17-14.8-.95-1.54-.36-3.17-.31-4.75-.53-1.26-.17-2.5-.45-3.74-.71-.78-.17-1.54-.42-2.32-.58-3.04-.63-6.11-1.08-9.1-1.88-3.76-1-7.46-2.22-11.15-3.43-3.62-1.19-7.2-2.45-10.78-3.75-1.19-.43-2.3-1.07-3.46-1.59-8.11-3.67-16.08-7.6-23.49-12.59-3.56-2.4-7.23-4.64-10.81-7.01-1.06-.7-2.02-1.57-2.99-2.39-4.92-4.17-10.08-8.11-14.69-12.6-5.36-5.21-10.61-10.57-15.02-16.67-4.2-5.8-8.51-11.51-12.66-17.34-1.48-2.08-2.79-4.36-1.82-7.11.25-.74.69-1.42.99-2.15,1.67-4.02,3.29-8.07,5.01-12.07,1.44-3.35,2.95-6.68,4.54-9.97.34-.72,1.11-1.24,1.8-1.97.84.73,1.48,1.31,2.15,1.85,3.66,2.94,7.15,6.16,11.06,8.72,4.1,2.69,8.57,4.84,12.97,7.04,7.59,3.8,15.68,3.9,23.85,2.72,2.8-.4,5.35-1.73,7.53-3.44,3.06-2.42,5.64-5.3,7.53-8.84,1.55-2.9,2.75-5.9,3.82-8.97.26-.74.31-1.55.46-2.33.3-1.56.63-3.11.9-4.68.21-1.25.49-2.51.49-3.77.03-8.77-.01-17.54-.02-26.31-.01-.16-.03-.32-.02-.48.3-4.49-.73-8.86-1.19-13.29-.07-.71-.18-1.43-.14-2.14.21-3.29-1.16-6.23-2.06-9.25-.58-1.97-1.59-3.81-2.24-5.76-.49-1.46-1.49-2.4-2.6-3.34-1.14-.95-2.4-.9-3.58-.29-1.27.65-2.23,1.68-1.92,3.26.49,2.48.69,4.99,1.53,7.46,1.06,3.12,1.42,6.5,1.94,9.79.38,2.36.58,4.74.76,7.12.28,3.81.62,7.63.69,11.45.12,6.94.13,13.88.03,20.81-.02,1.71-.63,3.41-.98,5.11-.14.7-.34,1.39-.43,2.1-.68,5.31-3.01,9.86-6.6,13.74-3.96,4.29-9.04,4.99-14.52,4.07-1.57-.26-3.13-.58-4.69-.93-.77-.17-1.51-.44-2.26-.7-.53-.19-1.02-.57-1.55-.61-3.16-.22-5.79-1.82-8.26-3.48-4.56-3.06-9.04-6.26-13.3-9.71-5.39-4.38-10.23-9.37-14.52-14.85-1.56-2.01-3.33-3.87-4.84-5.91-3.47-4.71-4.87-9.98-3.67-15.77.36-1.78,1.01-3.53,1.75-5.19,2.45-5.53,5.36-10.74,9.17-15.53,5.99-7.54,12.92-14.07,20.45-20,7.15-5.63,14.74-10.6,22.99-14.47,3.22-1.5,6.69-2.49,10.08-3.6,2.86-.93,5.78-1.71,8.66-2.56.23-.07.47-.14.7-.17,4.43-.58,8.85-1.25,13.29-1.71,4.28-.44,8.62-1.1,12.89-.87,5.38.28,10.82.63,16.11,2.02,3.16.82,6.16,2.04,9.23,3.1,9.62,3.3,16.32,9.95,21.62,18.27,2.09,3.28,4.01,6.67,6.1,9.95,2.32,3.65,5.68,6.28,9.3,8.45,1.99,1.19,4.18,2.13,6.71,2.26,2.85.15,5.67.87,8.47,1.49.55.12,1.16.85,1.38,1.43.4,1.03.75,2.17.71,3.25-.1,2.96.98,5.65,1.81,8.37.79,2.58,2.8,4.43,4.69,6.25,2.87,2.77,5.86,5.4,8.79,8.09Z"/>
        <path class="cls-4" d="m158.65,171.39c1.36,1.1,1.93,3.14,1.25,4.78-1.51,3.65-4.39,6.07-7.74,7.81-1.31.67-3.12.38-4.71.53-3.06.19-5.85-.64-8.51-2.03-2.6-1.36-4.11-3.48-4.23-6.45-.06-1.36.5-2.52,1.68-3.24,1.16-.72,2.24-.4,3.33.33,2.21,1.48,4.51,2.51,7.35,2.34,1.93-.11,3.58-.44,4.99-1.8.69-.67,1.45-1.25,2.21-1.83,1.56-1.19,3.25-1.35,4.38-.44Z"/>
      </g>
      <path class="cls-8" d="m359.25,179.75c0,99.13-80.37,179.49-179.5,179.49S.25,278.88.25,179.75,80.61.25,179.75.25s179.5,80.36,179.5,179.5Z"/>
    </g>
    <path class="cls-7" d="m232.57,190.49c.12,2.55.05,5.08-1.27,7.4-.77,1.35-1.42,1.6-2.62.58-3.54-3-6.84-6.3-8.85-10.5-.92-1.92-.96-4.3-1.18-6.5-.12-1.23.72-1.91,1.99-1.81,3.28.27,6.43,1.07,9.3,2.74,1.72,1,2.63,2.5,2.62,4.51,0,1.19,0,2.38,0,3.58Z"/>
  </g>
</svg>