<?xml version="1.0" encoding="UTF-8"?>
<svg id="_图层_1" data-name="图层_1" xmlns="http://www.w3.org/2000/svg" version="1.1" viewBox="0 0 16 16">
  <!-- Generator: Adobe Illustrator 29.6.0, SVG Export Plug-In . SVG Version: 2.1.1 Build 207)  -->
  <path d="M8,13.9c3.3,0,5.9-2.6,5.9-5.9s-2.6-5.9-5.9-5.9S2.1,4.7,2.1,8s2.6,5.9,5.9,5.9ZM15.1,8c0,3.9-3.2,7.1-7.1,7.1S.9,11.9.9,8,4.1.9,8,.9s7.1,3.2,7.1,7.1ZM7.2,4.6l3,3c.2.2.2.6,0,.8,0,0,0,0,0,0l-3,3c-.2.2-.6.2-.8,0s-.2-.6,0-.8l2.5-2.5-2.5-2.5c-.2-.2-.2-.6,0-.8s.6-.2.8,0Z"/>
</svg>