<?xml version="1.0" encoding="UTF-8"?>
<svg id="_图层_1" data-name="图层_1" xmlns="http://www.w3.org/2000/svg" version="1.1" viewBox="0 0 28 28">
  <!-- Generator: Adobe Illustrator 29.6.0, SVG Export Plug-In . SVG Version: 2.1.1 Build 207)  -->
  <path d="M12.2,1.7c.4-.4,1.1-.4,1.5,0l3.2,3.2c.4.4.4,1.1,0,1.5,0,0,0,0,0,0l-3.2,3.2c-.4.4-1.1.4-1.5,0-.4-.4-.4-1.1,0-1.5,0,0,0,0,0,0l1.4-1.4c-4.9.2-8.8,4.5-8.5,9.4.2,4.9,4.5,8.8,9.4,8.5,4.6-.2,8.3-3.9,8.5-8.5,0-.6.5-1,1.1-1,.6,0,1,.5,1,1.1,0,0,0,0,0,0-.3,5.8-5.1,10.5-11.1,10.5S2.9,21.7,2.9,15.6,7.7,4.7,13.6,4.5l-1.4-1.4c-.4-.4-.4-1.1,0-1.5,0,0,0,0,0,0ZM18.4,12.2c.4.4.4,1.1,0,1.5l-5.3,5.3c-.4.4-1.1.4-1.5,0l-2.1-2.1c-.4-.4-.4-1.1,0-1.5s1.1-.4,1.5,0c0,0,0,0,0,0l1.4,1.4,4.5-4.5c.4-.4,1.1-.4,1.5,0Z"/>
</svg>