<svg xmlns="http://www.w3.org/2000/svg" viewBox="0 0 98.54 111.43"><defs><style>.a{fill:#745962;}.b{fill:#694a4d;}.c{fill:#69494b;}.d{fill:#b5dff1;}.e{fill:#6b4442;}.f{fill:#735760;}.g{fill:#f7ac8a;}.h{fill:#72565f;}.i{fill:#f7e19f;}.j{fill:#f7e1a0;}.k{fill:#735860;}</style></defs><path class="a" d="M122.9,84a53.33,53.33,0,0,1-8.67,20.3,72.46,72.46,0,0,1-12,13.18,102.16,102.16,0,0,1-25,15.42,5.23,5.23,0,0,1-4.52,0,106.4,106.4,0,0,1-23.5-14.43,73.16,73.16,0,0,1-15.65-18,51.58,51.58,0,0,1-6.18-16.24.71.71,0,0,0,.18-.77c-.25-1.17-.31-2.37-.53-3.53a73.5,73.5,0,0,1-.87-9.59c-.16-2.91.14-5.81.21-8.72.16-6.78-.23-13.57.19-20.35,0-.08-.14-.17-.22-.25a6.28,6.28,0,0,1,5.75-3.62,75.38,75.38,0,0,0,17.71-3.47,88.52,88.52,0,0,0,22-10.62,7,7,0,0,1,2.32-1.22,4.81,4.81,0,0,1,3.86.81,89.21,89.21,0,0,0,15.66,8.51,77.64,77.64,0,0,0,24.78,6,6,6,0,0,1,5.08,3.15c-.48.75.32,1.29.32,2,0,8.3-.08,16.6,0,24.9a53.53,53.53,0,0,1-.29,8.94c-.33,2.15-.5,4.32-.91,6.46C122.69,83.23,122.53,83.62,122.9,84Zm-15.27,24.28a33.26,33.26,0,0,0,3.62-4.81c.35-.51.69-1,1-1.53a49.76,49.76,0,0,0,5.11-9,54,54,0,0,0,4-18.38c.33-8.43-.05-16.87,0-25.31,0-1.92,0-3.84,0-5.76s-.87-2.6-2.65-2.93c-2.09-.4-4.19-.59-6.29-.89A73.92,73.92,0,0,1,89,32.32c-4.13-2.1-8.13-4.44-12.08-6.88a2.71,2.71,0,0,0-3.12-.05c-2.22,1.36-4.5,2.61-6.74,3.92A77.45,77.45,0,0,1,41.55,39c-3.23.58-6.5.8-9.72,1.39-2.55.46-3,1-3,3.58,0,4.16,0,8.32,0,12.48a5.48,5.48,0,0,1-.19,2.13c-.15-.57.1-1.18-.22-1.93V74.38h.23V71.9a2.47,2.47,0,0,1,.14,1.29,47.76,47.76,0,0,0,1.3,10.66,52.2,52.2,0,0,0,3.28,10,44.63,44.63,0,0,0,4.78,8.25,58.37,58.37,0,0,0,9.16,10.74A71.64,71.64,0,0,0,57.38,121l4.33,2.8a59.31,59.31,0,0,0,7.42,4.07,1.93,1.93,0,0,0,1,.46c1.12.57,2.22,1.18,3.36,1.7a2.82,2.82,0,0,0,2.39.19,49.77,49.77,0,0,0,4.9-2.3c2.61-1.38,5.26-2.69,7.82-4.15a32.17,32.17,0,0,0,4.83-3.09c.93-.78,2-1.39,2.92-2.19,1.78-1.64,3.72-3.08,5.55-4.65C103.94,112.11,105.67,110.06,107.63,108.23Z" transform="translate(-25.86 -21.94)"/><path class="b" d="M26.4,41c.08.08.23.17.22.25-.42,6.78,0,13.57-.19,20.35-.07,2.91-.37,5.81-.21,8.72a73.5,73.5,0,0,0,.87,9.59c.22,1.16.28,2.36.53,3.53a.71.71,0,0,1-.18.77,26.65,26.65,0,0,1-1-5.45c-1.13-9.46-.29-18.94-.36-28.42,0-2.19-.08-4.38-.11-6.58A5.66,5.66,0,0,1,26.4,41Z" transform="translate(-25.86 -21.94)"/><path class="c" d="M122.9,84c-.37-.33-.21-.72-.14-1.11.41-2.14.58-4.31.91-6.46a53.53,53.53,0,0,0,.29-8.94c-.13-8.3,0-16.6,0-24.9,0-.71-.8-1.25-.32-2a7.29,7.29,0,0,1,.69,4.29c-.29,8.24.16,16.47.12,24.71a95.18,95.18,0,0,1-.74,9.83C123.5,80.91,123.16,82.43,122.9,84Z" transform="translate(-25.86 -21.94)"/><path class="d" d="M33.36,93.82a52.2,52.2,0,0,1-3.28-10,47.76,47.76,0,0,1-1.3-10.66,2.47,2.47,0,0,0-.14-1.29V58.57a5.48,5.48,0,0,0,.19-2.13c0-4.16,0-8.32,0-12.48,0-2.55.46-3.12,3-3.58,3.22-.59,6.49-.81,9.72-1.39a77.45,77.45,0,0,0,25.52-9.68c2.24-1.31,4.52-2.56,6.74-3.92a2.71,2.71,0,0,1,3.12.05c3.95,2.44,7.95,4.78,12.08,6.88a73.92,73.92,0,0,0,23.48,7.25c2.1.3,4.2.49,6.29.89,1.78.33,2.59,1.12,2.65,2.93s0,3.84,0,5.76c-.08,8.44.3,16.88,0,25.31a54,54,0,0,1-4,18.38c-.22-.63.14-1.36-.44-2-.22-.23.11-.85-.51-.91a1.29,1.29,0,0,0-1.32.63c-.28.43-.82.62-1.13.92-.48.46-2,.42-1.26,1.8.11.22-.16.78-.43.76-.84-.07-1.08.51-1.37,1.07-.16.3-.43.3-.71.32-1.91.19-2.42.8-2.27,2.71,0,.2.11.43-.1.54s-.36-.07-.48-.24-.23-.7-.68-.34a.63.63,0,0,0-.12,1c.2.23.62.51.44.78a5.77,5.77,0,0,0-.77,2.82c0,.25-.31.34-.53.45a3.11,3.11,0,0,1-1.35.43c-.45,0-.8.25-.44.79s.24.63-.36.47-1.18-.31-1.4.26a2.61,2.61,0,0,1-1.2,1.25.75.75,0,0,0-.35.93c.46,1-.17,1.15-.88,1.31-.35.08-.7.15-1,.25-.78.22-.79.24-.41,1.06.08.18.07.32,0,.42-.49.44-.69,1.16-1.16,1.49-.68.49-1,.86-.46,1.6.12.16.19.41,0,.55s-.44-.06-.55-.25c-.51-.87-1-.56-1.5,0a2.27,2.27,0,0,0-.7,1.48,1,1,0,0,1-.79,1.07.93.93,0,0,0-.64.48.77.77,0,0,1-1.1.41c-.56-.26-.76,0-1,.44a4.33,4.33,0,0,1-2.28,2c-.79.28-1.53.69-2.29,1-.23.1-.43.21-.35.51.13.49,0,.72-.52.5-.37-.14-.59.05-.81.34a5,5,0,0,1-2.45,1.79,1.57,1.57,0,0,0-1.24,1.53c0,.22,0,.41-.29.44s-.27-.14-.33-.29c-.35-.91-.92-.62-1.38-.18a1.65,1.65,0,0,1-1.37.56,47.24,47.24,0,0,1-6.34-.83c-.83-.22-1.65,0-2.31-.9-1.12-1.44-3.58-1.24-4.25-3.32,0-.08-.22-.09-.31-.16-.81-.72-2.28-.45-2.7-1.79,0-.1-.37-.08-.55-.14-1.54-.52-3-1.09-3.64-2.81a1,1,0,0,0-.72-.74c-.8-.11-1.09-.74-1.4-1.32a1.19,1.19,0,0,0-.61-.66c-.81-.34-1.46-.76-.9-1.84a.68.68,0,0,0-.21-1c-.31-.16-.49.12-.69.32-.44.47-.78.48-1-.2-.15-.41-.48-.75-.62-1.15s-.31-.74-.93-.57-.89-.17-.59-.82.06-.81-.57-.62a1.86,1.86,0,0,1-1.62-.2c-.79-.53-2.24-2.64-1.8-4a1.1,1.1,0,0,0-.35-1.36c-.41-.36-.65-.81-.11-1.19s0-.78.37-1a6.85,6.85,0,0,0,1.93,2.08,20.67,20.67,0,0,0,8.18,4.83,1.79,1.79,0,0,1,.83.43c4.83,5,10.87,7.9,17.28,10.2a5.05,5.05,0,0,0,3.84-.1c2.07-.87,4.15-1.69,6.18-2.62A35,35,0,0,0,93,108a6,6,0,0,1,3.07-1.9,8.66,8.66,0,0,0,1.87-.79c3.36-1.54,5.82-4.1,8.08-7,7.31-9.31,8.45-19.35,3.87-30.16-.1-.22-.22-.4-.08-.67a13.51,13.51,0,0,0,1.14-7,15,15,0,0,0-6.23-11.64,14.18,14.18,0,0,0-9.51-2.64,2.33,2.33,0,0,1-1.87-.78A23,23,0,0,0,87.2,41a25.91,25.91,0,0,0-10.08-2.31,33.31,33.31,0,0,0-10.43,1.05,23,23,0,0,0-9.8,6,1.65,1.65,0,0,1-1.47.53,13.21,13.21,0,0,0-3.82.11C42.26,48.25,37.42,57.29,39.88,66a4.86,4.86,0,0,1-.08,3.42,28.14,28.14,0,0,0-1.64,16,28.58,28.58,0,0,0,4.37,10.76,8,8,0,0,1-2.92-1.42c-.16-.12-.39-.28-.39-.42,0-1-.76-1.17-1.41-1.4a2.82,2.82,0,0,1-1.67-1.24c-.32-.54-.9-.81-1.38-.24s-.75.47-1.16,0c-.13-.14-.3-.33-.5-.21s-.11.4-.05.63C33.19,92.54,33.65,93.12,33.36,93.82Z" transform="translate(-25.86 -21.94)"/><path class="d" d="M45.13,99.56c-.34.26.06.74-.37,1s-.3.83.11,1.19a1.1,1.1,0,0,1,.35,1.36c-.44,1.41,1,3.52,1.8,4a1.86,1.86,0,0,0,1.62.2c.63-.19.87,0,.57.62s0,1,.59.82.76.08.93.57.47.74.62,1.15c.25.68.59.67,1,.2.2-.2.38-.48.69-.32a.68.68,0,0,1,.21,1c-.56,1.08.09,1.5.9,1.84a1.19,1.19,0,0,1,.61.66c.31.58.6,1.21,1.4,1.32a1,1,0,0,1,.72.74c.6,1.72,2.1,2.29,3.64,2.81.18.06.52,0,.55.14.42,1.34,1.89,1.07,2.7,1.79.09.07.29.08.31.16.67,2.08,3.13,1.88,4.25,3.32.66.86,1.48.68,2.31.9a47.24,47.24,0,0,0,6.34.83,1.65,1.65,0,0,0,1.37-.56c.46-.44,1-.73,1.38.18.06.15.15.31.33.29s.29-.22.29-.44a1.57,1.57,0,0,1,1.24-1.53,5,5,0,0,0,2.45-1.79c.22-.29.44-.48.81-.34.55.22.65,0,.52-.5-.08-.3.12-.41.35-.51.76-.35,1.5-.76,2.29-1a4.33,4.33,0,0,0,2.28-2c.27-.42.47-.7,1-.44a.77.77,0,0,0,1.1-.41.93.93,0,0,1,.64-.48,1,1,0,0,0,.79-1.07,2.27,2.27,0,0,1,.7-1.48c.48-.56,1-.87,1.5,0,.11.19.27.45.55.25s.12-.39,0-.55c-.54-.74-.22-1.11.46-1.6.47-.33.67-1,1.16-1.49.12-.1.13-.24,0-.42-.38-.82-.37-.84.41-1.06.34-.1.69-.17,1-.25.71-.16,1.34-.33.88-1.31a.75.75,0,0,1,.35-.93,2.61,2.61,0,0,0,1.2-1.25c.22-.57.91-.39,1.4-.26s.72.07.36-.47,0-.76.44-.79a3.11,3.11,0,0,0,1.35-.43c.22-.11.51-.2.53-.45A5.77,5.77,0,0,1,107,100c.18-.27-.24-.55-.44-.78a.63.63,0,0,1,.12-1c.45-.36.51.11.68.34s.28.34.48.24.11-.34.1-.54c-.15-1.91.36-2.52,2.27-2.71.28,0,.55,0,.71-.32.29-.56.53-1.14,1.37-1.07.27,0,.54-.54.43-.76C112,92,113.53,92,114,91.53c.31-.3.85-.49,1.13-.92a1.29,1.29,0,0,1,1.32-.63c.62.06.29.68.51.91.58.59.22,1.32.44,2a49.76,49.76,0,0,1-5.11,9c-.36.5-.7,1-1,1.53a1,1,0,0,0-.67.47c-1,1.29-2,2.59-3,3.88-.13.16-.28.31,0,.46-2,1.83-3.69,3.88-5.74,5.64-1.83,1.57-3.77,3-5.55,4.65-.88.8-2,1.41-2.92,2.19-.11-.19-.23-.13-.38,0-1.3.82-2.6,1.61-3.87,2.46-.22.14-.8.09-.58.66-2.56,1.46-5.21,2.77-7.82,4.15a49.77,49.77,0,0,1-4.9,2.3,15.31,15.31,0,0,1-5.25-2c-.2-.1-.37-.1-.5.11a1.93,1.93,0,0,1-1-.46,1.76,1.76,0,0,0,.09-.2s0,0-.08-.07c-1.87-1-3.71-2.09-5.62-3-.58-.28-1-1.05-1.81-.79L57.38,121a.94.94,0,0,0-.45-.67,90.5,90.5,0,0,1-9.17-7.52c-.14-.13-.29-.32-.46,0a58.37,58.37,0,0,1-9.16-10.74,44.63,44.63,0,0,1-4.78-8.25c.29-.7-.17-1.28-.31-1.91-.06-.23-.21-.47.05-.63s.37.07.5.21c.41.42.71.49,1.16,0s1.06-.3,1.38.24a2.82,2.82,0,0,0,1.67,1.24c.65.23,1.41.44,1.41,1.4,0,.14.23.3.39.42a8,8,0,0,0,2.92,1.42A29.41,29.41,0,0,1,45.13,99.56Z" transform="translate(-25.86 -21.94)"/><path class="d" d="M47.3,112.81c.17-.29.32-.1.46,0a90.5,90.5,0,0,0,9.17,7.52.94.94,0,0,1,.45.67A71.64,71.64,0,0,1,47.3,112.81Z" transform="translate(-25.86 -21.94)"/><path class="e" d="M28.63,58.57V74.38h-.23V56.64C28.73,57.39,28.48,58,28.63,58.57Z" transform="translate(-25.86 -21.94)"/><path class="d" d="M61.71,123.83c.82-.26,1.23.51,1.81.79,1.91.92,3.75,2,5.62,3,0,0,.08.06.08.07a1.76,1.76,0,0,1-.09.2A59.31,59.31,0,0,1,61.71,123.83Z" transform="translate(-25.86 -21.94)"/><path class="d" d="M70.12,128.36c.13-.21.3-.21.5-.11a15.31,15.31,0,0,0,5.25,2,2.82,2.82,0,0,1-2.39-.19C72.34,129.54,71.24,128.93,70.12,128.36Z" transform="translate(-25.86 -21.94)"/><path class="d" d="M107.63,108.23c-.28-.15-.13-.3,0-.46,1-1.29,2-2.59,3-3.88a1,1,0,0,1,.67-.47A33.26,33.26,0,0,1,107.63,108.23Z" transform="translate(-25.86 -21.94)"/><path class="d" d="M88.59,123.8c-.22-.57.36-.52.58-.66,1.27-.85,2.57-1.64,3.87-2.46.15-.1.27-.16.38,0A32.17,32.17,0,0,1,88.59,123.8Z" transform="translate(-25.86 -21.94)"/><path class="f" d="M45.13,99.56a29.41,29.41,0,0,0-2.6-3.4A28.58,28.58,0,0,1,38.16,85.4a28.14,28.14,0,0,1,1.64-16A4.86,4.86,0,0,0,39.88,66c-2.46-8.71,2.38-17.75,11.72-19.57a13.21,13.21,0,0,1,3.82-.11,1.65,1.65,0,0,0,1.47-.53,23,23,0,0,1,9.8-6,33.31,33.31,0,0,1,10.43-1.05A25.91,25.91,0,0,1,87.2,41a23,23,0,0,1,6.18,4.48,2.33,2.33,0,0,0,1.87.78,14.18,14.18,0,0,1,9.51,2.64A15,15,0,0,1,111,60.57a13.51,13.51,0,0,1-1.14,7c-.14.27,0,.45.08.67,4.58,10.81,3.44,20.85-3.87,30.16-2.26,2.87-4.72,5.43-8.08,7a8.66,8.66,0,0,1-1.87.79A6,6,0,0,0,93,108a35,35,0,0,1-9.67,6.35c-2,.93-4.11,1.75-6.18,2.62a5.05,5.05,0,0,1-3.84.1c-6.41-2.3-12.45-5.22-17.28-10.2a1.79,1.79,0,0,0-.83-.43,20.67,20.67,0,0,1-8.18-4.83A6.85,6.85,0,0,1,45.13,99.56ZM40.63,80c0,.8-.06,1.61,0,2.4a27.42,27.42,0,0,0,.43,2.84c1.62,8,5.82,14.16,13.13,17.88a32.16,32.16,0,0,1,6.33,4.06,41,41,0,0,0,11.06,6.42,7.74,7.74,0,0,0,6.15.33A46,46,0,0,0,90,107a28.47,28.47,0,0,1,6-3.77c6.93-3.4,11-9.21,13-16.52a23,23,0,0,0,.61-9.62,32.64,32.64,0,0,0-2.6-8.82,2,2,0,0,1,.07-1.74,15.72,15.72,0,0,0,1.15-4.26,11.57,11.57,0,0,0-6.27-11.91,15.39,15.39,0,0,0-8.15-1.46,1.65,1.65,0,0,1-1.55-.66,17.31,17.31,0,0,0-9.43-5.8,34.65,34.65,0,0,0-11.67-.52,18.64,18.64,0,0,0-12.58,6.19,2.16,2.16,0,0,1-1.89.8,18.06,18.06,0,0,0-3.12,0c-4.06.51-7.56,2.06-9.76,5.71s-2.2,7.66-.59,11.62a2.77,2.77,0,0,1,0,2.29A27.86,27.86,0,0,0,40.63,80Z" transform="translate(-25.86 -21.94)"/><path class="g" d="M40.63,80A27.86,27.86,0,0,1,43.2,68.56a2.77,2.77,0,0,0,0-2.29c-1.61-4-1.66-7.87.59-11.62s5.7-5.2,9.76-5.71a18.06,18.06,0,0,1,3.12,0,2.16,2.16,0,0,0,1.89-.8,18.64,18.64,0,0,1,12.58-6.19,34.65,34.65,0,0,1,11.67.52,17.31,17.31,0,0,1,9.43,5.8,1.65,1.65,0,0,0,1.55.66,15.39,15.39,0,0,1,8.15,1.46,11.57,11.57,0,0,1,6.27,11.91A15.72,15.72,0,0,1,107,66.54a2,2,0,0,0-.07,1.74,32.64,32.64,0,0,1,2.6,8.82,23,23,0,0,1-.61,9.62c-2,7.31-6,13.12-13,16.52A28.47,28.47,0,0,0,90,107,46,46,0,0,1,77.74,114a7.74,7.74,0,0,1-6.15-.33,41,41,0,0,1-11.06-6.42,32.16,32.16,0,0,0-6.33-4.06c-7.31-3.72-11.51-9.9-13.13-17.88a27.42,27.42,0,0,1-.43-2.84C40.57,81.63,40.63,80.82,40.63,80ZM50,81.1c0,.36,0,.72,0,1.08s.11.71.14,1.07a19.37,19.37,0,0,0,8.39,14.44,27.69,27.69,0,0,0,17.86,5A28.44,28.44,0,0,0,89.78,99a20.4,20.4,0,0,0,9.54-11.54,21.62,21.62,0,0,0,.85-8.4,49.83,49.83,0,0,0-1.74-10.59c-.23-.75-.14-1.08.58-1.48a8.2,8.2,0,0,0,4.43-6.83,6.89,6.89,0,0,0-4-6.84,7.54,7.54,0,0,0-7.86.18A9.85,9.85,0,0,0,89,56.13a1.16,1.16,0,0,1-1.5.45A24.93,24.93,0,0,0,82,55.39a88.29,88.29,0,0,0-10.54-.18,26.22,26.22,0,0,0-8.95,1.39.78.78,0,0,1-1.1-.33c-.22-.33-.53-.6-.77-.92a7.26,7.26,0,0,0-6.67-3c-3.84.24-7.49,4-7.18,7.74A8.12,8.12,0,0,0,51.29,67c.65.35.79.64.56,1.37A51.85,51.85,0,0,0,50,81.1Z" transform="translate(-25.86 -21.94)"/><path class="h" d="M50,81.1a51.85,51.85,0,0,1,1.82-12.75c.23-.73.09-1-.56-1.37a8.12,8.12,0,0,1-4.47-6.91c-.31-3.76,3.34-7.5,7.18-7.74a7.26,7.26,0,0,1,6.67,3c.24.32.55.59.77.92a.78.78,0,0,0,1.1.33,26.22,26.22,0,0,1,8.95-1.39A88.29,88.29,0,0,1,82,55.39a24.93,24.93,0,0,1,5.48,1.19,1.16,1.16,0,0,0,1.5-.45,9.85,9.85,0,0,1,2.58-2.65,7.54,7.54,0,0,1,7.86-.18,6.89,6.89,0,0,1,4,6.84A8.2,8.2,0,0,1,99,67c-.72.4-.81.73-.58,1.48A49.83,49.83,0,0,1,100.17,79a21.62,21.62,0,0,1-.85,8.4A20.4,20.4,0,0,1,89.78,99a28.44,28.44,0,0,1-13.36,3.73,27.69,27.69,0,0,1-17.86-5,19.37,19.37,0,0,1-8.39-14.44c0-.36-.11-.71-.14-1.07S50,81.46,50,81.1ZM75.24,57.88c-2.45.16-4.77.22-7.09.35-6.63.39-11.3,5.28-13.36,10.4a31.09,31.09,0,0,0-1.9,13.55,17.31,17.31,0,0,0,7.67,13.5,26.67,26.67,0,0,0,27.8.87A17.14,17.14,0,0,0,96.77,85.8c1.15-3.82.67-7.66.12-11.52a19.6,19.6,0,0,0-3.26-9c-2.58-3.55-5.8-6.15-10.28-6.85A78.18,78.18,0,0,0,75.24,57.88Zm25.4,2.19a5.63,5.63,0,0,0-.38-2.31A4.87,4.87,0,0,0,95.54,55,5.27,5.27,0,0,0,91,57.87c-.31.49,0,.7.35.94a11.13,11.13,0,0,1,2.52,2.37c.92,1.16,1.86,2.3,2.79,3.45.25.32.46.64,1,.31C99.47,63.71,100.78,62.17,100.64,60.07Zm-51,.38a5.16,5.16,0,0,0,2.46,4.13c.78.54,1.16.45,1.73-.25,1.65-2,3.07-4.3,5.38-5.71.37-.22.27-.49.11-.81a5.39,5.39,0,0,0-5.89-2.63C51,55.68,49.7,57.3,49.66,60.45Z" transform="translate(-25.86 -21.94)"/><path class="i" d="M75.24,57.88a78.18,78.18,0,0,1,8.11.52c4.48.7,7.7,3.3,10.28,6.85a19.6,19.6,0,0,1,3.26,9c.55,3.86,1,7.7-.12,11.52a17.14,17.14,0,0,1-8.41,10.75,26.67,26.67,0,0,1-27.8-.87,17.31,17.31,0,0,1-7.67-13.5,31.09,31.09,0,0,1,1.9-13.55c2.06-5.12,6.73-10,13.36-10.4C70.47,58.1,72.79,58,75.24,57.88Zm-.09,22.46v0c-.56,0-1.12,0-1.68,0a17.73,17.73,0,0,0-1.79.12A1.94,1.94,0,0,0,70,82a1.79,1.79,0,0,0,.65,2c.86.72,1.71,1.44,2.58,2.14a2.86,2.86,0,0,1,0,3.89,2.73,2.73,0,0,1-3.44.1,10.94,10.94,0,0,1-1.57-1.47,1.19,1.19,0,0,0-1.81,0,1.14,1.14,0,0,0-.14,1.7c1.74,2.28,4.56,3.93,7.76,2.28a2.3,2.3,0,0,1,2.3,0c3.46,1.6,6.08.06,7.88-2.49a1.07,1.07,0,0,0,0-1.34,1.3,1.3,0,0,0-1.36-.56,1.77,1.77,0,0,0-1,.76,4.32,4.32,0,0,1-1.61,1.39c-1.34.62-3.33,0-3.8-1.1a3.57,3.57,0,0,1,1-3.53l1.76-1.43c1.08-.89,1.34-1.57,1-2.58s-1-1.41-2.37-1.46C76.91,80.31,76,80.34,75.15,80.34ZM66,76.65c0-1.7-.88-2.92-2.14-3A2.58,2.58,0,0,0,61.06,76a3.83,3.83,0,0,0,.25,2.34,2.37,2.37,0,0,0,2.14,1.5,2.18,2.18,0,0,0,2.08-1.37A4.89,4.89,0,0,0,66,76.65Zm23.14.16A9.57,9.57,0,0,0,89,75.62a2.45,2.45,0,0,0-2.6-2,2.35,2.35,0,0,0-2.16,2.19,4.33,4.33,0,0,0,.58,2.88,2.19,2.19,0,0,0,3.85,0A3.4,3.4,0,0,0,89.15,76.81Z" transform="translate(-25.86 -21.94)"/><path class="j" d="M100.64,60.07c.14,2.1-1.17,3.64-3.06,4.87-.5.33-.71,0-1-.31-.93-1.15-1.87-2.29-2.79-3.45a11.13,11.13,0,0,0-2.52-2.37c-.36-.24-.66-.45-.35-.94A5.27,5.27,0,0,1,95.54,55a4.87,4.87,0,0,1,4.72,2.72A5.63,5.63,0,0,1,100.64,60.07Z" transform="translate(-25.86 -21.94)"/><path class="j" d="M49.66,60.45c0-3.15,1.37-4.77,3.79-5.27a5.39,5.39,0,0,1,5.89,2.63c.16.32.26.59-.11.81C56.92,60,55.5,62.3,53.85,64.33c-.57.7-1,.79-1.73.25A5.16,5.16,0,0,1,49.66,60.45Z" transform="translate(-25.86 -21.94)"/><path class="f" d="M75.15,80.34c.88,0,1.76,0,2.63,0,1.33.05,2.06.52,2.37,1.46s.08,1.69-1,2.58l-1.76,1.43a3.57,3.57,0,0,0-1,3.53c.47,1.14,2.46,1.72,3.8,1.1a4.32,4.32,0,0,0,1.61-1.39,1.77,1.77,0,0,1,1-.76,1.3,1.3,0,0,1,1.36.56,1.07,1.07,0,0,1,0,1.34c-1.8,2.55-4.42,4.09-7.88,2.49a2.3,2.3,0,0,0-2.3,0c-3.2,1.65-6,0-7.76-2.28a1.14,1.14,0,0,1,.14-1.7,1.19,1.19,0,0,1,1.81,0,10.94,10.94,0,0,0,1.57,1.47,2.73,2.73,0,0,0,3.44-.1,2.86,2.86,0,0,0,0-3.89c-.87-.7-1.72-1.42-2.58-2.14A1.79,1.79,0,0,1,70,82a1.94,1.94,0,0,1,1.66-1.52,17.73,17.73,0,0,1,1.79-.12c.56,0,1.12,0,1.68,0Z" transform="translate(-25.86 -21.94)"/><path class="k" d="M66,76.65a4.89,4.89,0,0,1-.48,1.8,2.18,2.18,0,0,1-2.08,1.37,2.37,2.37,0,0,1-2.14-1.5A3.83,3.83,0,0,1,61.06,76a2.58,2.58,0,0,1,2.81-2.37C65.13,73.73,66,75,66,76.65Z" transform="translate(-25.86 -21.94)"/><path class="f" d="M89.15,76.81a3.4,3.4,0,0,1-.44,1.85,2.19,2.19,0,0,1-3.85,0,4.33,4.33,0,0,1-.58-2.88,2.35,2.35,0,0,1,2.16-2.19,2.45,2.45,0,0,1,2.6,2A9.57,9.57,0,0,1,89.15,76.81Z" transform="translate(-25.86 -21.94)"/></svg>