<svg xmlns="http://www.w3.org/2000/svg" viewBox="0 0 103.01 90.31"><defs><style>.a{fill:#817da2;}.b{fill:#6f6a91;}.c{fill:#716c92;}.d{fill:#f8d6c7;}.e{fill:#f8eece;}.f{fill:#a0dfe2;}.g{fill:#dcd6f9;}.h{fill:#dcd7fa;}.i{fill:#cac7ed;}.j{fill:#cbc7ed;}.k{fill:#dfbd8c;}.l{fill:#dfbe8c;}.m{fill:#e0be8c;}.n{fill:#dfbe8b;}.o{fill:#e0be8d;}.p{fill:#e0be8b;}.q{fill:#827ea2;}.r{fill:#817da1;}.s{fill:#debd8c;}.t{fill:#dfbc89;}.u{fill:#debc8a;}.v{fill:#dfbc8a;}.w{fill:#debc8b;}.x{fill:#ddbc8c;}.y{fill:#debe8d;}</style></defs><path class="a" d="M33.32,83.24c.2-1.84,1-2.62,2.88-2.62H51.56c.53,0,1.31.19,1.44-.42.09-.41-.74-.48-1.16-.61a45.21,45.21,0,0,1-14.15-7.82,82.23,82.23,0,0,1-10.18-8.91,24.37,24.37,0,0,1-2.67-3.23,4.28,4.28,0,0,1-.16-4.84,23.47,23.47,0,0,1,3.2-4.32C36.29,41.6,46.06,34.9,58.09,32A44.3,44.3,0,0,1,81,32.42,58.06,58.06,0,0,1,102.8,44.36a52.71,52.71,0,0,1,8.71,8.7,11.77,11.77,0,0,1,1.58,2.79,3.37,3.37,0,0,1-.67,3.56,9,9,0,0,1-1.72,1.83c-.55.4-.55.68,0,1.16A22.66,22.66,0,0,1,116.84,71c3,7.81,2.61,15.38-1.78,22.62a14.7,14.7,0,0,1-1.6,2.37c-.62.69-.55,1.13.05,1.76,3.85,4.11,7.45,8.46,11.53,12.35,2.46,2.33,2.36,5.36,1.16,7.92-1.72,3.71-7.44,3.71-9.61,1.4-1.68-1.78-3.06-3.79-4.57-5.7q-3.8-4.78-7.53-9.62a.71.71,0,0,0-1-.26,25.83,25.83,0,0,1-20.68-.55,28.18,28.18,0,0,1-8-6.37v5.2l0,14.64c0,2.47-1,3.57-3.57,3.91-.32-.35-.75-.2-1.13-.2q-16.37,0-32.73,0c-.39,0-.81-.14-1.14.19a3,3,0,0,1-2.86-2.38c.33-.34.19-.76.19-1.14q0-16.38,0-32.76C33.55,84,33.7,83.55,33.32,83.24Zm74.4,20.65c3.38,4.34,6.73,8.7,10.15,13a3.7,3.7,0,0,0,5.34.5,3.87,3.87,0,0,0-.08-5.44c-3.9-3.89-7.63-7.95-11.24-12.11-1-1.17-1.08-1.18-2.12,0a1.39,1.39,0,0,0-.11.21c-.71.43-1.22,1.1-1.91,1.57-1.41,1-1.4.48-.31,2A1.6,1.6,0,0,0,107.72,103.89ZM79.09,97.18c.13.15.25.31.39.45,5,4.65,11,6,17.54,5.14a20.54,20.54,0,0,0,13.64-7.71c4.83-6,6.61-12.71,4.59-20.27A21.94,21.94,0,0,0,95.81,58.6c-8-.73-14.5,2.33-19.54,8.55a1.79,1.79,0,0,0-.36.31c-4.64,6.6-5.7,13.71-2.86,21.29A18.25,18.25,0,0,0,79.09,97.18ZM69.36,33.54H68a40.47,40.47,0,0,0-14.84,2.75A68.5,68.5,0,0,0,42,42.17a50.53,50.53,0,0,0-14.41,13c-1.24,1.71-1.18,2.7.26,4.22,1.95,2.07,4,4,6.12,5.92,9.51,8.9,20.66,14.11,33.72,15,.55,0,.85,0,1-.69.2-1.23,0-2.48.35-3.7.15-.59-.29-.61-.71-.64a25.94,25.94,0,0,1-6-1.21c-12.92-4.21-15.53-18.1-9.51-27a18.15,18.15,0,0,1,18.41-8.28c7.56,1,15.34,7.19,16,16.69.07,1,.47.85,1.15.71a25.41,25.41,0,0,1,17.91,2.86c2.19,1.2,1.45,1.45,3.39-.54,1.1-1.13,1.13-1.77.29-3.07a24,24,0,0,0-2.19-2.54A58.27,58.27,0,0,0,87.55,37.77C81.69,35.1,75.62,33.18,69.36,33.54ZM53.71,118.22H70.26c1.62,0,1.9-.28,1.9-1.87,0-7.31,0-14.62.06-21.94a3.54,3.54,0,0,0-.44-1.71A22.42,22.42,0,0,1,69,84.37c-.1-1-.46-1.2-1.41-1.19-10.15,0-20.3,0-30.45,0-1.39,0-1.39,0-1.39,1.36V116.7c0,1.49,0,1.52,1.56,1.52Zm-1-59.72c-.16,3.57,1.61,7.36,5.17,10.16a19,19,0,0,0,10.89,3.81,1.48,1.48,0,0,0,1.69-1.08C73.05,65,77.75,60.67,83.86,57.73a1.29,1.29,0,0,0,.86-1.37,13.35,13.35,0,0,0-1-4.77A16,16,0,0,0,72,41.79c-5.47-1.28-10.39.42-14.53,4.07C54,48.89,52.72,53,52.69,58.5Z" transform="translate(-24.01 -30.68)"/><path class="b" d="M33.32,83.24c.38.31.23.74.23,1.12q0,16.38,0,32.76c0,.38.14.8-.19,1.14a9.52,9.52,0,0,1-.11-1.06V84.07A7.74,7.74,0,0,1,33.32,83.24Z" transform="translate(-24.01 -30.68)"/><path class="c" d="M36.22,120.64c.33-.33.75-.19,1.14-.19q16.37,0,32.73,0c.38,0,.81-.15,1.13.2q-9.1,0-18.22,0C47.41,120.68,41.81,120.65,36.22,120.64Z" transform="translate(-24.01 -30.68)"/><path class="d" d="M69.36,33.54c6.26-.36,12.33,1.56,18.19,4.23a58.27,58.27,0,0,1,20.28,15.16A24,24,0,0,1,110,55.47c.84,1.3.81,1.94-.29,3.07-1.94,2-1.2,1.74-3.39.54a25.41,25.41,0,0,0-17.91-2.86c-.68.14-1.08.26-1.15-.71-.69-9.5-8.47-15.67-16-16.69A18.15,18.15,0,0,0,52.84,47.1c-6,8.9-3.41,22.79,9.51,27a25.94,25.94,0,0,0,6,1.21c.42,0,.86,0,.71.64-.3,1.22-.15,2.47-.35,3.7-.11.66-.41.73-1,.69C54.66,79.41,43.51,74.2,34,65.3c-2.08-1.94-4.17-3.85-6.12-5.92-1.44-1.52-1.5-2.51-.26-4.22A50.53,50.53,0,0,1,42,42.17a68.5,68.5,0,0,1,11.1-5.88A40.47,40.47,0,0,1,68,33.54Z" transform="translate(-24.01 -30.68)"/><path class="e" d="M53.71,118.22H37.28c-1.53,0-1.56,0-1.56-1.52V84.57c0-1.36,0-1.36,1.39-1.36,10.15,0,20.3,0,30.45,0,1,0,1.31.22,1.41,1.19a22.42,22.42,0,0,0,2.81,8.33,3.54,3.54,0,0,1,.44,1.71c0,7.32,0,14.63-.06,21.94,0,1.59-.28,1.86-1.9,1.87ZM44.15,93.55c1.42,0,2.15-.63,2.14-1.9S45.72,90,44.51,90c-1.53,0-2.29.54-2.31,1.73A1.72,1.72,0,0,0,44.15,93.55Zm.17,9.61c1.38,0,1.94-.51,2-1.78a1.68,1.68,0,0,0-1.82-1.82,2,2,0,0,0-2.23,1.74A1.85,1.85,0,0,0,44.32,103.16Zm11.33-1.67c0-1.49-.39-1.92-1.76-1.93s-1.83.41-1.84,1.74.38,1.85,1.82,1.86S55.64,103,55.65,101.49Zm0-9.71c0-1.52-.08-1.59-1.77-1.59-1.54,0-1.8.24-1.81,1.65s.41,1.72,1.94,1.72S55.64,93.37,55.64,91.78Zm7.75-1.59c-1.56,0-1.75.18-1.76,1.56s.41,1.81,1.88,1.81,1.73-.34,1.73-1.79S65.07,90.2,63.39,90.19Zm.07,13c1.37,0,1.76-.35,1.78-1.6s-.61-2-1.53-2a2.22,2.22,0,0,0-2.08,2C61.61,102.7,62.13,103.16,63.46,103.16Zm-19.29,5.75c-1.36,0-1.86.44-1.91,1.68a1.88,1.88,0,0,0,2,1.71c1.27,0,1.82-.51,1.8-1.66S45.46,108.91,44.17,108.91Zm11.46,1.57c0-1.14-.53-1.58-1.88-1.57s-1.72.5-1.7,1.62a1.78,1.78,0,0,0,1.82,1.77A1.73,1.73,0,0,0,55.63,110.48Zm7.71,1.81a1.72,1.72,0,0,0,1.9-1.64,1.69,1.69,0,0,0-1.85-1.73,1.52,1.52,0,0,0-1.75,1.61A1.49,1.49,0,0,0,63.34,112.29Z" transform="translate(-24.01 -30.68)"/><path class="f" d="M52.69,58.5c0-5.55,1.3-9.61,4.74-12.64,4.14-3.65,9.06-5.35,14.53-4.07a16,16,0,0,1,11.75,9.8,13.35,13.35,0,0,1,1,4.77,1.29,1.29,0,0,1-.86,1.37C77.75,60.67,73.05,65,70.44,71.39a1.48,1.48,0,0,1-1.69,1.08,19,19,0,0,1-10.89-3.81C54.3,65.86,52.53,62.07,52.69,58.5Zm22.67-1.18a6.69,6.69,0,0,0-6.74-7.14,7,7,0,0,0-7,7c.08,4.05,2.92,6.73,7.31,6.7A6.29,6.29,0,0,0,75.36,57.32Z" transform="translate(-24.01 -30.68)"/><path class="g" d="M76.27,67.15c5-6.22,11.58-9.28,19.54-8.55a21.94,21.94,0,0,1,19.44,16.19c2,7.56.24,14.26-4.59,20.27A20.54,20.54,0,0,1,97,102.77c-6.49.87-12.56-.49-17.54-5.14-.14-.14-.26-.3-.39-.45a3.51,3.51,0,0,1,1.28.17c1,.22,2.58-.31,2.86-.91A18.47,18.47,0,0,0,95.77,99.5a18.21,18.21,0,0,0,12.4-6.75c4.51-5.55,5.73-11.88,3.3-18.53A18,18,0,0,0,98,62.44a18.09,18.09,0,0,0-15.63,3.24,18.45,18.45,0,0,0-7.31,13.47A13.89,13.89,0,0,0,74.18,77a2,2,0,0,1-.28-1.48c.34-1.53.53-3.11,1.61-4.39a25.77,25.77,0,0,0,1.67-2.45,1.5,1.5,0,0,0,.19-1.58C77.05,66.53,76.66,67.5,76.27,67.15Z" transform="translate(-24.01 -30.68)"/><path class="h" d="M109.66,100.07a1.39,1.39,0,0,1,.11-.21c1-1.19,1.1-1.18,2.12,0,3.61,4.16,7.34,8.22,11.24,12.11a3.87,3.87,0,0,1,.08,5.44,3.7,3.7,0,0,1-5.34-.5c-3.42-4.31-6.77-8.67-10.15-13A3,3,0,0,0,109.66,100.07Z" transform="translate(-24.01 -30.68)"/><path class="i" d="M76.27,67.15c.39.35.78-.62,1.1,0a1.5,1.5,0,0,1-.19,1.58,25.77,25.77,0,0,1-1.67,2.45c-1.08,1.28-1.27,2.86-1.61,4.39A2,2,0,0,0,74.18,77a13.89,13.89,0,0,1,.87,2.14,24.32,24.32,0,0,0,.89,7.54,18.72,18.72,0,0,0,7.29,9.75c-.28.6-1.86,1.13-2.86.91a3.51,3.51,0,0,0-1.28-.17,18.25,18.25,0,0,1-6-8.43c-2.84-7.58-1.78-14.69,2.86-21.29A1.79,1.79,0,0,1,76.27,67.15Z" transform="translate(-24.01 -30.68)"/><path class="j" d="M109.66,100.07a3,3,0,0,1-1.94,3.82,1.6,1.6,0,0,1-.28-.22c-1.09-1.55-1.1-1.08.31-2C108.44,101.17,109,100.5,109.66,100.07Z" transform="translate(-24.01 -30.68)"/><path class="k" d="M44.15,93.55A1.72,1.72,0,0,1,42.2,91.7c0-1.19.78-1.75,2.31-1.73,1.21,0,1.78.55,1.78,1.68S45.57,93.56,44.15,93.55Z" transform="translate(-24.01 -30.68)"/><path class="l" d="M44.32,103.16a1.85,1.85,0,0,1-2.1-1.86,2,2,0,0,1,2.23-1.74,1.68,1.68,0,0,1,1.82,1.82C46.26,102.65,45.7,103.16,44.32,103.16Z" transform="translate(-24.01 -30.68)"/><path class="m" d="M55.65,101.49c0,1.49-.22,1.68-1.78,1.67s-1.83-.41-1.82-1.86.46-1.74,1.84-1.74S55.65,100,55.65,101.49Z" transform="translate(-24.01 -30.68)"/><path class="n" d="M55.64,91.78c0,1.59-.17,1.78-1.64,1.78s-2-.37-1.94-1.72.27-1.65,1.81-1.65C55.56,90.19,55.64,90.26,55.64,91.78Z" transform="translate(-24.01 -30.68)"/><path class="o" d="M63.39,90.19c1.68,0,1.85.15,1.85,1.58s-.33,1.79-1.73,1.79-1.88-.39-1.88-1.81S61.83,90.19,63.39,90.19Z" transform="translate(-24.01 -30.68)"/><path class="l" d="M63.46,103.16c-1.33,0-1.85-.46-1.83-1.6a2.22,2.22,0,0,1,2.08-2c.92,0,1.55.85,1.53,2S64.83,103.17,63.46,103.16Z" transform="translate(-24.01 -30.68)"/><path class="m" d="M44.17,108.91c1.29,0,1.86.52,1.88,1.73s-.53,1.65-1.8,1.66a1.88,1.88,0,0,1-2-1.71C42.31,109.35,42.81,108.91,44.17,108.91Z" transform="translate(-24.01 -30.68)"/><path class="p" d="M55.63,110.48a1.73,1.73,0,0,1-1.76,1.82,1.78,1.78,0,0,1-1.82-1.77c0-1.12.49-1.61,1.7-1.62S55.62,109.34,55.63,110.48Z" transform="translate(-24.01 -30.68)"/><path class="m" d="M63.34,112.29a1.49,1.49,0,0,1-1.7-1.76,1.52,1.52,0,0,1,1.75-1.61,1.69,1.69,0,0,1,1.85,1.73A1.72,1.72,0,0,1,63.34,112.29Z" transform="translate(-24.01 -30.68)"/><path class="q" d="M75.36,57.32A6.29,6.29,0,0,1,69,63.93c-4.39,0-7.23-2.65-7.31-6.7a7,7,0,0,1,7-7A6.69,6.69,0,0,1,75.36,57.32Z" transform="translate(-24.01 -30.68)"/><path class="r" d="M83.23,96.44a18.72,18.72,0,0,1-7.29-9.75,24.32,24.32,0,0,1-.89-7.54,18.45,18.45,0,0,1,7.31-13.47A18.09,18.09,0,0,1,98,62.44a18,18,0,0,1,13.48,11.78c2.43,6.65,1.21,13-3.3,18.53a18.21,18.21,0,0,1-12.4,6.75A18.47,18.47,0,0,1,83.23,96.44Zm10.61.28c8.4.34,15.86-7.16,15.85-16.11A15.64,15.64,0,0,0,93.93,64.75c-9.32,0-16,6.62-15.94,16.08A15.61,15.61,0,0,0,93.84,96.72Z" transform="translate(-24.01 -30.68)"/><path class="e" d="M93.84,96.72A15.61,15.61,0,0,1,78,80.83c0-9.46,6.62-16.1,15.94-16.08a15.64,15.64,0,0,1,15.76,15.86C109.7,89.56,102.24,97.06,93.84,96.72ZM95.22,89a1.71,1.71,0,0,0-1.53-1.65,1.86,1.86,0,0,0-1.77,1.28,1.93,1.93,0,0,0,1.69,1.81A1.73,1.73,0,0,0,95.22,89Zm6-1.43c-1.1,0-1.42.28-1.44,1.27s.44,1.59,1.45,1.61,1.41-.39,1.41-1.46S102.37,87.56,101.26,87.55ZM93.54,74.84c.57-.14,1.33-.31,1.39-1.17A1.63,1.63,0,0,0,93.19,72c-1,0-1.36.46-1.32,1.43A1.45,1.45,0,0,0,93.54,74.84Zm7.35,5.06c-1,0-1.34.3-1.33,1.35s.35,1.51,1.35,1.5,1.51-.52,1.52-1.3A1.42,1.42,0,0,0,100.89,79.9Zm-6.13,1.29c0-1.19-.11-1.3-1.26-1.31s-1.34.19-1.41,1.36c-.06,1,.34,1.33,1.31,1.29C94.67,82.47,94.76,82.43,94.76,81.19ZM86,74.61c.8.12,1.14-.28,1.12-1.16,0-1.14-.33-1.5-1.38-1.49a1.55,1.55,0,0,0-1.45,1.42C84.3,74,85.08,74.61,86,74.61Zm1.34,6.74c0-1.13-.31-1.43-1.36-1.48s-1.08.53-1.07,1.3c0,1.23.28,1.58,1.24,1.58S87.37,82.19,87.33,81.35Zm13.54-6.53c1,0,1.31-.3,1.34-1.3s-.33-1.33-1.25-1.32-1.39.32-1.41,1.3S99.9,74.85,100.87,74.82ZM86.22,87.55c-1,0-1.26.2-1.3,1.12s.41,1.48,1.28,1.51a1.16,1.16,0,0,0,1.36-1.26C87.58,87.86,87.29,87.57,86.22,87.55Z" transform="translate(-24.01 -30.68)"/><path class="k" d="M95.22,89a1.73,1.73,0,0,1-1.61,1.44,1.93,1.93,0,0,1-1.69-1.81,1.86,1.86,0,0,1,1.77-1.28A1.71,1.71,0,0,1,95.22,89Z" transform="translate(-24.01 -30.68)"/><path class="s" d="M101.26,87.55c1.11,0,1.42.31,1.42,1.42s-.39,1.47-1.41,1.46-1.48-.54-1.45-1.61S100.16,87.55,101.26,87.55Z" transform="translate(-24.01 -30.68)"/><path class="t" d="M93.54,74.84a1.45,1.45,0,0,1-1.67-1.43c0-1,.34-1.38,1.32-1.43a1.63,1.63,0,0,1,1.74,1.69C94.87,74.53,94.11,74.7,93.54,74.84Z" transform="translate(-24.01 -30.68)"/><path class="u" d="M100.89,79.9a1.42,1.42,0,0,1,1.54,1.55c0,.78-.6,1.29-1.52,1.3s-1.34-.37-1.35-1.5S99.84,79.89,100.89,79.9Z" transform="translate(-24.01 -30.68)"/><path class="v" d="M94.76,81.19c0,1.24-.09,1.28-1.36,1.34-1,0-1.37-.29-1.31-1.29.07-1.17.22-1.37,1.41-1.36S94.76,80,94.76,81.19Z" transform="translate(-24.01 -30.68)"/><path class="w" d="M86,74.61c-.91,0-1.69-.59-1.71-1.23A1.55,1.55,0,0,1,85.73,72c1,0,1.34.35,1.38,1.49C87.13,74.33,86.79,74.73,86,74.61Z" transform="translate(-24.01 -30.68)"/><path class="x" d="M87.33,81.35c0,.84-.25,1.39-1.19,1.4s-1.22-.35-1.24-1.58c0-.77.08-1.34,1.07-1.3S87.34,80.22,87.33,81.35Z" transform="translate(-24.01 -30.68)"/><path class="y" d="M100.87,74.82c-1,0-1.35-.44-1.32-1.32s.38-1.29,1.41-1.3,1.27.44,1.25,1.32S101.85,74.85,100.87,74.82Z" transform="translate(-24.01 -30.68)"/><path class="s" d="M86.22,87.55c1.07,0,1.36.31,1.34,1.37a1.16,1.16,0,0,1-1.36,1.26c-.87,0-1.32-.56-1.28-1.51S85.21,87.54,86.22,87.55Z" transform="translate(-24.01 -30.68)"/></svg>