<svg xmlns="http://www.w3.org/2000/svg" viewBox="0 0 100.9 98.9"><defs><style>.a{fill:#957d81;}.b{fill:#957e82;}.c{fill:#967e83;}.d{fill:#957e83;}.e{fill:#967f83;}.f{fill:#f8eac3;}.g{fill:#827079;}.h{fill:#826f79;}.i{fill:#83707a;}</style></defs><path class="a" d="M109.25,77.09a32.54,32.54,0,0,1-11,24.25A33.17,33.17,0,0,1,80,109.84a33.77,33.77,0,0,1-21.4-4A32.34,32.34,0,0,1,42.36,85.24a28.49,28.49,0,0,1-.7-12c2.09-13.55,9.78-22.59,22.49-27.34A32.5,32.5,0,0,1,82.89,45a33.07,33.07,0,0,1,17.35,9.76,31.81,31.81,0,0,1,8.48,16.85A37.11,37.11,0,0,1,109.25,77.09ZM76.11,47.71a34.41,34.41,0,0,0-7.11.71,28.61,28.61,0,0,0-14.59,7.5c-8,7.9-11,17.4-8.33,28.43A27.83,27.83,0,0,0,56.26,99.89a30.51,30.51,0,0,0,13.49,6A31.18,31.18,0,0,0,84.62,105a29.4,29.4,0,0,0,20.61-32,28,28,0,0,0-7.84-16A30.58,30.58,0,0,0,76.11,47.71Z" transform="translate(-24.61 -27.14)"/><path class="b" d="M72.91,33.38c0-1.35,0-2.71,0-4.07a2,2,0,0,1,2-2.17,2.07,2.07,0,0,1,2.24,2.13c0,2.79.06,5.59,0,8.38a2.15,2.15,0,1,1-4.29,0c0-1.43,0-2.87,0-4.31Z" transform="translate(-24.61 -27.14)"/><path class="c" d="M31.7,73.88c1.12,0,2.24,0,3.35,0a1.89,1.89,0,0,1,2,1.86,2.08,2.08,0,0,1-1.64,2.4,2.88,2.88,0,0,1-.72,0c-2.59,0-5.17-.15-7.77,0a1.9,1.9,0,0,1-2.25-1.92,1.87,1.87,0,0,1,1.94-2.2C28.27,73.91,30,73.94,31.7,73.88Z" transform="translate(-24.61 -27.14)"/><path class="d" d="M97,108.26a2.59,2.59,0,0,1,2,1.21c1.32,2,2.65,4.09,4,6.15a2.14,2.14,0,0,1-.44,3,2.1,2.1,0,0,1-3.07-.53c-1.54-2.23-3-4.51-4.42-6.83C94.25,110,95.5,108.22,97,108.26Z" transform="translate(-24.61 -27.14)"/><path class="e" d="M97.39,45.66c-1.85,0-2.79-1.58-1.91-3.1s1.85-2.87,2.8-4.3c.51-.76,1-1.54,1.57-2.25a2.19,2.19,0,0,1,3.15-.55,2.09,2.09,0,0,1,.31,3.08c-1.32,2-2.66,4-4,5.94A2.12,2.12,0,0,1,97.39,45.66Z" transform="translate(-24.61 -27.14)"/><path class="d" d="M46.93,37a1.82,1.82,0,0,1,1.39-2,1.79,1.79,0,0,1,2.35.57c1.56,2.26,3.08,4.55,4.54,6.87a1.78,1.78,0,0,1-.5,2.61,2.13,2.13,0,0,1-2.91-.25A11.76,11.76,0,0,1,51,43.64c-1.14-1.68-2.28-3.37-3.43-5A2.45,2.45,0,0,1,46.93,37Z" transform="translate(-24.61 -27.14)"/><path class="e" d="M48.37,118.33a2,2,0,0,1-1.84-3.16c.93-1.81,2.22-3.4,3.3-5.11a13.7,13.7,0,0,1,1-1.48,2.29,2.29,0,0,1,3.09-.51c1,.75,1.1,1.72.35,2.92q-1.86,3-3.7,6A2.24,2.24,0,0,1,48.37,118.33Z" transform="translate(-24.61 -27.14)"/><path class="d" d="M41.78,58c.28,1.3-1.7,2.7-3,2-2.21-1.26-4.53-2.34-6.81-3.49a2.38,2.38,0,0,1-1.51-1.59,2.21,2.21,0,0,1,2.68-2.49,5.06,5.06,0,0,1,1,.39c2.06,1.06,4.12,2.1,6.16,3.2C41.09,56.37,41.82,56.89,41.78,58Z" transform="translate(-24.61 -27.14)"/><path class="d" d="M118.42,53a2.28,2.28,0,0,1,2.19,1.62,1.77,1.77,0,0,1-1,2.18c-2.42,1.28-4.89,2.47-7.35,3.7a2,2,0,0,1-1.4.15,1.84,1.84,0,0,1-1.58-1.43,2,2,0,0,1,.73-2,5.17,5.17,0,0,1,.69-.46l6.56-3.44A2,2,0,0,1,118.42,53Z" transform="translate(-24.61 -27.14)"/><path class="c" d="M72.69,120.81a44,44,0,0,1,.19-4.52,2.14,2.14,0,1,1,4.25.44c-.2,2.34-.09,4.7-.14,7.06a2.14,2.14,0,0,1-3.26,1.93,2.11,2.11,0,0,1-1-1.9C72.67,122.94,72.69,122.06,72.69,120.81Z" transform="translate(-24.61 -27.14)"/><path class="b" d="M121.17,78.76c-1.83,0-3.66,0-5.49,0a1.87,1.87,0,0,1-1.94-2.19,2,2,0,0,1,2.11-2.1c2.59.12,5.17.25,7.76.4,1.23.07,1.82.63,1.89,1.7.09,1.4-.37,2.06-1.71,2.27-.86.13-1.75.11-2.62.16Z" transform="translate(-24.61 -27.14)"/><path class="d" d="M32.07,99.88a2.05,2.05,0,0,1-2.29-1.6A2,2,0,0,1,31.06,96c2.32-.95,4.56-2.07,6.85-3.09,1.54-.7,2.88-.07,3.15,1.41a1.91,1.91,0,0,1-1,2.1A27.22,27.22,0,0,1,36.84,98c-1.13.5-2.24,1-3.35,1.58A3,3,0,0,1,32.07,99.88Z" transform="translate(-24.61 -27.14)"/><path class="d" d="M119.84,98.69a2.16,2.16,0,0,1-3.29,1.82c-1.74-.88-3.4-1.89-5.1-2.85-.49-.27-1-.51-1.46-.81a1.88,1.88,0,0,1-.8-2.66,2.07,2.07,0,0,1,2.71-1c1.27.49,2.36,1.32,3.57,1.93,1,.52,2,1.07,3,1.64A2.19,2.19,0,0,1,119.84,98.69Z" transform="translate(-24.61 -27.14)"/><path class="f" d="M76.11,47.71A30.58,30.58,0,0,1,97.39,57.1a28,28,0,0,1,7.84,16,29.4,29.4,0,0,1-20.61,32,31.18,31.18,0,0,1-14.87.91,30.51,30.51,0,0,1-13.49-6A27.83,27.83,0,0,1,46.08,84.35c-2.66-11,.36-20.53,8.33-28.43A28.61,28.61,0,0,1,69,48.42,34.41,34.41,0,0,1,76.11,47.71ZM74.22,91.45c5.73,0,10-2.07,12.53-5.54a4.68,4.68,0,0,0,1-2.26,1.44,1.44,0,0,0-.63-1.56,1.71,1.71,0,0,0-1.82,0,2.91,2.91,0,0,0-.94,1.06,10.7,10.7,0,0,1-18,0,7.33,7.33,0,0,0-.75-1.07,1.61,1.61,0,0,0-2-.36,1.49,1.49,0,0,0-.77,1.83,5.52,5.52,0,0,0,1,2.14A13.42,13.42,0,0,0,74.22,91.45ZM56.82,73.18v.24c0,1.38.63,2.18,1.68,2.2s1.38-.51,1.51-2a2.3,2.3,0,0,1,3.22-2,2.55,2.55,0,0,1,1.67,2,1.32,1.32,0,0,0,1.39,1.2A1.6,1.6,0,0,0,68,73.81a2,2,0,0,0,0-1.4,6,6,0,0,0-5.76-4.19C59.16,68.33,56.84,70.47,56.82,73.18Zm31.32-4.86c-.2,0-.6,0-1,.08a5.07,5.07,0,0,0-4.4,4.88A1.48,1.48,0,0,0,84,74.88a1.5,1.5,0,0,0,1.87-1.23c.44-1.51,1.36-2.23,2.72-2.11s1.89.87,2,2.49a1.53,1.53,0,0,0,3,.46A3.84,3.84,0,0,0,93.72,72C93.08,69.72,91.07,68.35,88.14,68.32Z" transform="translate(-24.61 -27.14)"/><path class="g" d="M74.22,91.45A13.42,13.42,0,0,1,63.94,85.7a5.52,5.52,0,0,1-1-2.14,1.49,1.49,0,0,1,.77-1.83,1.61,1.61,0,0,1,2,.36,7.33,7.33,0,0,1,.75,1.07,10.7,10.7,0,0,0,18,0,2.91,2.91,0,0,1,.94-1.06,1.71,1.71,0,0,1,1.82,0,1.44,1.44,0,0,1,.63,1.56,4.68,4.68,0,0,1-1,2.26C84.23,89.38,80,91.45,74.22,91.45Z" transform="translate(-24.61 -27.14)"/><path class="h" d="M56.82,73.18c0-2.71,2.34-4.85,5.39-5A6,6,0,0,1,68,72.41a2,2,0,0,1,0,1.4,1.6,1.6,0,0,1-1.66,1.1,1.32,1.32,0,0,1-1.39-1.2,2.55,2.55,0,0,0-1.67-2,2.3,2.3,0,0,0-3.22,2c-.13,1.45-.53,2-1.51,2s-1.66-.82-1.68-2.2Z" transform="translate(-24.61 -27.14)"/><path class="i" d="M88.14,68.32c2.93,0,4.94,1.4,5.58,3.71a3.84,3.84,0,0,1-.09,2.46,1.53,1.53,0,0,1-3-.46c-.13-1.62-.75-2.38-2-2.49s-2.28.6-2.72,2.11A1.5,1.5,0,0,1,84,74.88a1.48,1.48,0,0,1-1.27-1.6,5.07,5.07,0,0,1,4.4-4.88C87.54,68.34,87.94,68.34,88.14,68.32Z" transform="translate(-24.61 -27.14)"/></svg>