<svg xmlns="http://www.w3.org/2000/svg" viewBox="0 0 96 101.58"><defs><style>.a{fill:#7b6c73;}.b{fill:#f8e7da;}.c{fill:#f8e6d9;}.d{fill:#f8bbc2;}.e{fill:#f8e6c9;}</style></defs><path class="a" d="M79.76,123.75c-6.44-.32-12.73-1.71-19.05-2.86a21.38,21.38,0,0,0-6.08-.42,8.92,8.92,0,0,0-5.87,2.9c-1.42,1.54-2.55,1.66-4.3.45a56.27,56.27,0,0,1-9.28-8.44c-1.94-2.11-3.79-4.31-5.52-6.61a14.24,14.24,0,0,1-1-1.62,2.05,2.05,0,0,1,.05-2.16c3.72-6.19,8.08-11.82,14.23-15.78A22.4,22.4,0,0,1,57.73,86,25.21,25.21,0,0,1,67,89a27.22,27.22,0,0,0,11.15,2.9c3.23.23,6.47.25,9.68.7a17,17,0,0,1,3.26.74,2.18,2.18,0,0,0,2.47-.57c3-2.67,6-5.3,9-7.95A22.62,22.62,0,0,1,109.91,80c2.55-.9,5.66,0,6.75,2.31.3.62.69.36,1.1.31,3.11-.41,5.25.74,6.25,3.41a7,7,0,0,1-.05,4.47c-1.09,3.79-3.43,6.82-5.93,9.74a102.78,102.78,0,0,1-14.14,13.92c-4.46,3.54-9.15,6.69-14.68,8.36A29.9,29.9,0,0,1,79.76,123.75Zm2.51-19.59a29.39,29.39,0,0,0,5.36-.28c1.94-.28,3.88-.67,5.36-2.12s1.4-2.82,0-4.15a8.74,8.74,0,0,0-4.23-1.85c-4.13-.88-8.33-.9-12.51-1.17a26,26,0,0,1-10.41-2.93,23.39,23.39,0,0,0-10.31-2.82c-6.17-.14-11.21,2.4-15.55,6.59a62.19,62.19,0,0,0-8.09,10.21c-.38.56-.16.91.19,1.36,1.66,2.15,3.45,4.2,5.29,6.19a54.9,54.9,0,0,0,8.38,7.67.89.89,0,0,0,1.39-.07,13.53,13.53,0,0,1,11.46-3.25c6.37.87,12.62,2.45,19,3.06a27.42,27.42,0,0,0,17.65-4,81.35,81.35,0,0,0,13.42-10.77c3.9-3.78,7.73-7.65,10.61-12.31a10.64,10.64,0,0,0,1.95-5.08c.1-2.49-1.66-3.64-3.94-2.6A12.87,12.87,0,0,0,114,88.24,126.83,126.83,0,0,1,99.88,99.85c-1.53,1-3.26,1.81-4.33,3.49a6.41,6.41,0,0,1-3.13,2.31,24.92,24.92,0,0,1-8.79,1.57,65.29,65.29,0,0,1-8.73-.44A97.76,97.76,0,0,1,64,105.16a1.58,1.58,0,0,1-1.4-1.65,1.67,1.67,0,0,1,1.8-1.25,3.51,3.51,0,0,1,.71.12A94.43,94.43,0,0,0,82.27,104.16Zm29.92-21.58a8.6,8.6,0,0,0-4.34,1.89c-4,3-7.46,6.6-11.34,9.72-.46.37-1.12.71-1.28,1.2s.7.85.92,1.39c.08.18.25.33.3.52.28,1,.75.85,1.46.36A181.54,181.54,0,0,0,113.62,84.6a.81.81,0,0,0,.11-1.24A1.92,1.92,0,0,0,112.19,82.58Z" transform="translate(-28.35 -23.06)"/><path class="a" d="M58.8,29.88a19.62,19.62,0,0,1,13.93,6.28,23.43,23.43,0,0,1,2.14,2.42c.47.63.73.67,1.22,0A21.06,21.06,0,0,1,82.41,33a17.14,17.14,0,0,1,11.27-2.34,1.26,1.26,0,0,0,1.6-.91,11.6,11.6,0,1,1,16.11,15.07,16.06,16.06,0,0,1-2.22.89.71.71,0,0,0-.57.87A25,25,0,0,1,104,63c-3.78,5.54-8.74,9.91-14,14a122.72,122.72,0,0,1-11.51,7.77,5.24,5.24,0,0,1-5.83.08A95.63,95.63,0,0,1,51.24,68.6c-4.3-4.42-7.78-9.34-8.91-15.55-1.19-6.51-.26-12.6,4.37-17.69A16.64,16.64,0,0,1,58.8,29.88Zm46.78,19c0-.52,0-1,0-1.56,0-.78-.21-1.12-1.08-1.18a10.7,10.7,0,0,1-7.41-3.94,11.07,11.07,0,0,1-2.82-7.57c0-.63-.16-1-.85-1a21,21,0,0,0-4.19.14c-5.24.94-9.07,3.93-11.89,8.33-1.13,1.75-2.3,1.79-3.5.09a22.45,22.45,0,0,0-9.07-8,13.57,13.57,0,0,0-17.64,5.66c-3,5.13-3,10.66-.86,16.17a32.09,32.09,0,0,0,6.95,10.24,78,78,0,0,0,12.19,10.4,61.4,61.4,0,0,0,9.06,5.58,2,2,0,0,0,1.73.2,20.91,20.91,0,0,0,2.45-1.25,113.23,113.23,0,0,0,9.43-6.55,66.52,66.52,0,0,0,12.76-12.38A22.49,22.49,0,0,0,105.58,48.84Zm8.72-14.11a8.51,8.51,0,0,0-17-.28,8.68,8.68,0,0,0,8.49,8.74A8.35,8.35,0,0,0,114.3,34.73Z" transform="translate(-28.35 -23.06)"/><path class="b" d="M82.27,104.16a94.43,94.43,0,0,1-17.16-1.78,3.51,3.51,0,0,0-.71-.12,1.67,1.67,0,0,0-1.8,1.25,1.58,1.58,0,0,0,1.4,1.65,97.76,97.76,0,0,0,10.9,1.62,65.29,65.29,0,0,0,8.73.44,24.92,24.92,0,0,0,8.79-1.57,6.41,6.41,0,0,0,3.13-2.31c1.07-1.68,2.8-2.45,4.33-3.49A126.83,126.83,0,0,0,114,88.24a12.87,12.87,0,0,1,3.25-2.42c2.28-1,4,.11,3.94,2.6a10.64,10.64,0,0,1-1.95,5.08c-2.88,4.66-6.71,8.53-10.61,12.31a81.35,81.35,0,0,1-13.42,10.77,27.42,27.42,0,0,1-17.65,4c-6.41-.61-12.66-2.19-19-3.06a13.53,13.53,0,0,0-11.46,3.25.89.89,0,0,1-1.39.07,54.9,54.9,0,0,1-8.38-7.67c-1.84-2-3.63-4-5.29-6.19-.35-.45-.57-.8-.19-1.36a62.19,62.19,0,0,1,8.09-10.21c4.34-4.19,9.38-6.73,15.55-6.59a23.39,23.39,0,0,1,10.31,2.82A26,26,0,0,0,76.2,94.59c4.18.27,8.38.29,12.51,1.17a8.74,8.74,0,0,1,4.23,1.85c1.45,1.33,1.46,2.76,0,4.15s-3.42,1.84-5.36,2.12A29.39,29.39,0,0,1,82.27,104.16Z" transform="translate(-28.35 -23.06)"/><path class="c" d="M112.19,82.58a1.92,1.92,0,0,1,1.54.78.81.81,0,0,1-.11,1.24A181.54,181.54,0,0,1,97.91,97.66c-.71.49-1.18.62-1.46-.36,0-.19-.22-.34-.3-.52-.22-.54-1.12-.81-.92-1.39s.82-.83,1.28-1.2c3.88-3.12,7.36-6.72,11.34-9.72A8.6,8.6,0,0,1,112.19,82.58Z" transform="translate(-28.35 -23.06)"/><path class="d" d="M105.58,48.84a22.49,22.49,0,0,1-4.73,13.42A66.52,66.52,0,0,1,88.09,74.64a113.23,113.23,0,0,1-9.43,6.55,20.91,20.91,0,0,1-2.45,1.25,2,2,0,0,1-1.73-.2,61.4,61.4,0,0,1-9.06-5.58,78,78,0,0,1-12.19-10.4A32.09,32.09,0,0,1,46.28,56c-2.12-5.51-2.13-11,.86-16.17a13.57,13.57,0,0,1,17.64-5.66,22.45,22.45,0,0,1,9.07,8c1.2,1.7,2.37,1.66,3.5-.09,2.82-4.4,6.65-7.39,11.89-8.33a21,21,0,0,1,4.19-.14c.69,0,.86.37.85,1a11.07,11.07,0,0,0,2.82,7.57,10.7,10.7,0,0,0,7.41,3.94c.87.06,1.12.4,1.08,1.18C105.56,47.8,105.58,48.32,105.58,48.84Z" transform="translate(-28.35 -23.06)"/><path class="e" d="M114.3,34.73a8.35,8.35,0,0,1-8.52,8.46,8.68,8.68,0,0,1-8.49-8.74,8.51,8.51,0,0,1,17,.28Z" transform="translate(-28.35 -23.06)"/></svg>