<svg xmlns="http://www.w3.org/2000/svg" viewBox="0 0 87.3 86.54"><defs><style>.a{fill:#85746e;}.b{fill:#86756e;}.c{fill:#badcd8;}.d{fill:#f8cec0;}.e{fill:#f8dea2;}.f{fill:#f8dea3;}.g{fill:#726364;}.h{fill:#7f6e6b;}.i{fill:#806d6b;}</style></defs><path class="a" d="M65.38,61.43a17.6,17.6,0,0,1,.87-24.07A18.13,18.13,0,0,1,87.72,34.5c6.6,3.58,10.55,12.38,7.15,22.19A16.29,16.29,0,0,0,101,47.05a6.87,6.87,0,0,1,3.23-4.95,5.74,5.74,0,0,1,6.43.39,5.59,5.59,0,0,1,2.52,5.72c-1.27,8.65-5.75,15.26-13,20-2.21,1.45-4.63,2.53-7,3.76a1.44,1.44,0,0,0-.87,1.49A43.56,43.56,0,0,1,89.55,90a44.59,44.59,0,0,0-2.1,7.6c-.39,1.86.42,3.35,1.41,4.79a8.86,8.86,0,0,0,1,1.21,5.28,5.28,0,0,1,.94,6,14.19,14.19,0,0,1-7.08,7.64,6,6,0,0,1-3,.63,3.82,3.82,0,0,1-3.79-4.4,6.6,6.6,0,0,1,1.18-3.34c.45-.6.3-.94-.18-1.41a20.48,20.48,0,0,1-3.25-3.82C73,102.28,73,99.39,73.28,96.45a13.27,13.27,0,0,1,.4-2.35c.24-.89-.15-1.12-.91-1.19a84.5,84.5,0,0,0-10.06-.27,3.8,3.8,0,0,0-3.26,1.92,37.44,37.44,0,0,0-2.6,5.51c-.6,1.47-1.41,2.81-3.09,3.27a6,6,0,0,1-3,0,16.72,16.72,0,0,1-8.27-4.79,6.61,6.61,0,0,1-1.87-3.68c-.39-2.68,1.23-4.55,4.27-4.31.66,0,1.43.49,1.94.27s.31-1.15.51-1.75a26,26,0,0,1,.91-2.47c1.75-4.07,5-5.82,9.28-6,1.47-.06,2.95-.08,4.43,0,.57,0,.62-.2.69-.67.3-1.81.58-3.62,1-5.4.2-.84-.1-1-.76-1a32.35,32.35,0,0,1-4.37-.71,30.44,30.44,0,0,1-12.65-5.72,7.59,7.59,0,0,1-3.22-6.51,5.13,5.13,0,0,1,3.18-4.81,6.66,6.66,0,0,1,7.77,1.12A18.87,18.87,0,0,0,65.38,61.43Zm3.51,2.86A2.51,2.51,0,0,0,67,63.65a21.65,21.65,0,0,1-15.19-5.4,4.48,4.48,0,0,0-6.09.11,3.69,3.69,0,0,0-.66,4,6.88,6.88,0,0,0,2.74,3.39,31.63,31.63,0,0,0,11.78,5.06c1.88.43,3.8.32,5.69.66a1.8,1.8,0,0,1,.89,2.16,49.14,49.14,0,0,0-1.65,7.57,1.73,1.73,0,0,1-1.78,1.48,27,27,0,0,0-6,.12c-3.06.25-5.38,1.61-6.58,4.57A37.32,37.32,0,0,0,49,91.5c-.43,1.56-1,1.88-2.52,1.48-.23-.06-.47-.09-.7-.15-1-.27-2.16-.51-2.83.52s-.14,2,.52,2.88A15.89,15.89,0,0,0,51,101.5a3.09,3.09,0,0,0,3.9-2,28.2,28.2,0,0,1,2.58-5.64A6,6,0,0,1,63,90.51c2.32-.05,4.64-.06,7,0a19.24,19.24,0,0,1,4.27.45,2.06,2.06,0,0,1,1.64,2.6c-.15.86-.35,1.72-.45,2.59-.36,3.16-.28,6.23,1.91,8.85a32.47,32.47,0,0,0,2.5,2.75c1.33,1.27,1.33,1.36.41,2.94a9,9,0,0,0-1.24,2.7,1.94,1.94,0,0,0,2.28,2.4,5.58,5.58,0,0,0,1.92-.64A13.53,13.53,0,0,0,88,110.69,8.07,8.07,0,0,0,89,108.17c.39-1.53-.36-2.7-1.31-3.78a8.31,8.31,0,0,1-2.41-6.07,30.16,30.16,0,0,1,2.22-8.77A43.55,43.55,0,0,0,90.26,73c0-1.84.24-2.29,1.9-3a41.75,41.75,0,0,0,4.9-2.49,27.66,27.66,0,0,0,12.67-14.17,18.55,18.55,0,0,0,1.34-5.67,3.72,3.72,0,0,0-2.33-3.82,3.66,3.66,0,0,0-4.29.82A5.3,5.3,0,0,0,103,47.75C102,52.54,99,56,95.46,59.1c-1.94,1.68-4.25,2.83-6.18,4.51a17.77,17.77,0,0,1-15,3.1A20.11,20.11,0,0,1,68.89,64.29Zm25-14.7c.28-8.81-6.6-15.21-15-15.23A15.34,15.34,0,0,0,63.2,49.93c0,8.67,6.74,14.82,15.36,14.82C87.51,64.75,94.24,58,93.89,49.59Z" transform="translate(-34.83 -31.35)"/><path class="a" d="M111.56,86.44a1.9,1.9,0,0,1-1.92-1.14,12.32,12.32,0,0,1-.9-2,6.91,6.91,0,0,0-4.54-4.42l-1.46-.54a2.15,2.15,0,0,1-1.53-2.18,2.31,2.31,0,0,1,1.57-2.31l2.35-.89a6.21,6.21,0,0,0,3.57-3.65c.25-.59.46-1.19.72-1.77A2.39,2.39,0,0,1,111.5,66a2.22,2.22,0,0,1,2.21,1.34,12.55,12.55,0,0,1,.74,1.63,6.22,6.22,0,0,0,4,4.11c.72.24,1.41.55,2.12.82a2.27,2.27,0,0,1,1.52,2.19,2.06,2.06,0,0,1-1.47,2.2c-3.43,1-5.89,2.91-6.89,6.46a2.34,2.34,0,0,1-1,1.43A2.09,2.09,0,0,1,111.56,86.44ZM120,76.11c0-.24-.1-.34-.83-.52a8.76,8.76,0,0,1-6.66-6.06c-.16-.48-.17-1.32-.81-1.29s-.62.83-.81,1.33a9.05,9.05,0,0,1-6.51,6,3,3,0,0,0-.77.31c-.37.22-.42.49,0,.69s.89.34,1.34.5a9.11,9.11,0,0,1,5.3,4.72c.29.56.47,1.18.74,1.76.13.27.19.68.56.71s.52-.44.67-.74c.3-.65.55-1.32.85-2a8,8,0,0,1,4.54-4.19l1.89-.73C119.72,76.49,119.93,76.39,120,76.11Z" transform="translate(-34.83 -31.35)"/><path class="a" d="M55.73,41.43a2.09,2.09,0,0,1-1.65,2.32c-.56.21-1.1.45-1.67.65a7.07,7.07,0,0,0-4.29,4.52,10.25,10.25,0,0,1-.56,1.32,2.24,2.24,0,0,1-2.05,1.4,2.33,2.33,0,0,1-2.24-1.31,7.19,7.19,0,0,1-.62-1.42,7.13,7.13,0,0,0-5.16-4.85c-.34-.1-.68-.22-1-.35a2.32,2.32,0,0,1-1.64-2,2.63,2.63,0,0,1,1.53-2.36c.67-.27,1.35-.5,2-.73a5.75,5.75,0,0,0,3.8-3.52c.29-.79.62-1.56,1-2.31a2.17,2.17,0,0,1,2-1.45,2.14,2.14,0,0,1,2.19,1.34c.28.61.65,1.19.89,1.82a7,7,0,0,0,4.94,4.32l.91.28A2,2,0,0,1,55.73,41.43Zm-10.36-8a.58.58,0,0,0-.44.37,11.63,11.63,0,0,0-.46,1.1,8.4,8.4,0,0,1-5.36,5.57l-1.57.57c-.24.08-.48.17-.51.44s.25.39.47.47.6.19.91.28a8.53,8.53,0,0,1,3.87,2.27,11.62,11.62,0,0,1,2.35,3.86c.19.44.22,1.19.82,1.16s.54-.72.71-1.16c1.09-3,2.9-5.19,6.06-6.14.53-.16,1.44-.16,1.45-.79s-.91-.63-1.44-.79a8.3,8.3,0,0,1-5.75-5.32c-.19-.52-.44-1-.68-1.53A.55.55,0,0,0,45.37,33.44Z" transform="translate(-34.83 -31.35)"/><path class="b" d="M96.61,101.59c-.67,0-1.23-.22-1.3-.94s.37-1,1-1.13A8.65,8.65,0,0,0,102.45,94c.09-.22.18-.45.29-.66a.89.89,0,0,1,1.12-.44,1,1,0,0,1,.72,1.1C104.39,96.93,99.54,101.55,96.61,101.59Z" transform="translate(-34.83 -31.35)"/><path class="c" d="M92.16,70c-1.66.74-1.94,1.19-1.9,3a43.55,43.55,0,0,1-2.75,16.52,30.16,30.16,0,0,0-2.22,8.77,8.31,8.31,0,0,0,2.41,6.07c1,1.08,1.7,2.25,1.31,3.78A8.07,8.07,0,0,1,88,110.69a13.53,13.53,0,0,1-4.73,4.48,5.58,5.58,0,0,1-1.92.64,1.94,1.94,0,0,1-2.28-2.4,9,9,0,0,1,1.24-2.7c.92-1.58.92-1.67-.41-2.94a32.47,32.47,0,0,1-2.5-2.75c-2.19-2.62-2.27-5.69-1.91-8.85.1-.87.3-1.73.45-2.59A2.06,2.06,0,0,0,74.26,91,19.24,19.24,0,0,0,70,90.53c-2.32-.08-4.64-.07-7,0a6,6,0,0,0-5.56,3.3,28.2,28.2,0,0,0-2.58,5.64,3.09,3.09,0,0,1-3.9,2,15.89,15.89,0,0,1-7.54-5.27c-.66-.84-1.17-1.88-.52-2.88s1.8-.79,2.83-.52c.23.06.47.09.7.15,1.53.4,2.09.08,2.52-1.48a37.32,37.32,0,0,1,1.24-4.11c1.2-3,3.52-4.32,6.58-4.57a27,27,0,0,1,6-.12,1.73,1.73,0,0,0,1.78-1.48,49.14,49.14,0,0,1,1.65-7.57,1.8,1.8,0,0,0-.89-2.16c.24-.45.51-.89.74-1.35a52.66,52.66,0,0,0,2.85-5.85,20.11,20.11,0,0,0,5.44,2.42,17.77,17.77,0,0,0,15-3.1,4.93,4.93,0,0,0,.6,1.42C90.63,66.69,91.79,68.17,92.16,70Z" transform="translate(-34.83 -31.35)"/><path class="d" d="M93.89,49.59c.35,8.42-6.38,15.16-15.33,15.16-8.62,0-15.33-6.15-15.36-14.82A15.34,15.34,0,0,1,78.9,34.36C87.29,34.38,94.17,40.78,93.89,49.59ZM77.09,55a4.81,4.81,0,0,0,3.77-1.3A1,1,0,0,0,81,52.38,1,1,0,0,0,79.7,52a2.87,2.87,0,0,1-.55.22c-1.21.21-2.46.52-3.55-.34-.55-.43-1.08-.8-1.64-.15A1.34,1.34,0,0,0,74,53.55,3.64,3.64,0,0,0,77.09,55Zm-3.4-7.5a1.86,1.86,0,0,0-1.62-1.89,2.24,2.24,0,0,0-2,2.15,1.83,1.83,0,0,0,1.62,1.88A2.17,2.17,0,0,0,73.69,47.5Zm13,1.16a1.64,1.64,0,0,0-1.51-1.91,2.13,2.13,0,0,0-2.08,1.91,1.78,1.78,0,0,0,1.64,2A1.92,1.92,0,0,0,86.68,48.66Z" transform="translate(-34.83 -31.35)"/><path class="d" d="M92.16,70c-.37-1.83-1.53-3.31-2.28-5a4.93,4.93,0,0,1-.6-1.42c1.93-1.68,4.24-2.83,6.18-4.51C99,56,102,52.54,103,47.75a5.3,5.3,0,0,1,1.47-3.08,3.66,3.66,0,0,1,4.29-.82,3.72,3.72,0,0,1,2.33,3.82,18.55,18.55,0,0,1-1.34,5.67A27.66,27.66,0,0,1,97.06,67.51,41.75,41.75,0,0,1,92.16,70Z" transform="translate(-34.83 -31.35)"/><path class="d" d="M68.89,64.29A52.66,52.66,0,0,1,66,70.14c-.23.46-.5.9-.74,1.35-1.89-.34-3.81-.23-5.69-.66a31.63,31.63,0,0,1-11.78-5.06,6.88,6.88,0,0,1-2.74-3.39,3.69,3.69,0,0,1,.66-4,4.48,4.48,0,0,1,6.09-.11A21.65,21.65,0,0,0,67,63.65,2.51,2.51,0,0,1,68.89,64.29Z" transform="translate(-34.83 -31.35)"/><path class="e" d="M120,76.11c0,.28-.25.38-.48.47l-1.89.73a8,8,0,0,0-4.54,4.19c-.3.65-.55,1.32-.85,2-.15.3-.2.77-.67.74s-.43-.44-.56-.71c-.27-.58-.45-1.2-.74-1.76a9.11,9.11,0,0,0-5.3-4.72c-.45-.16-.91-.31-1.34-.5s-.39-.47,0-.69a3,3,0,0,1,.77-.31,9.05,9.05,0,0,0,6.51-6c.19-.5.23-1.31.81-1.33s.65.81.81,1.29a8.76,8.76,0,0,0,6.66,6.06C119.87,75.77,120,75.87,120,76.11Z" transform="translate(-34.83 -31.35)"/><path class="f" d="M45.37,33.44a.55.55,0,0,1,.43.36c.24.51.49,1,.68,1.53a8.3,8.3,0,0,0,5.75,5.32c.53.16,1.44.14,1.44.79s-.92.63-1.45.79c-3.16,1-5,3.18-6.06,6.14-.17.44-.23,1.14-.71,1.16s-.63-.72-.82-1.16a11.62,11.62,0,0,0-2.35-3.86,8.53,8.53,0,0,0-3.87-2.27c-.31-.09-.62-.17-.91-.28s-.49-.17-.47-.47.27-.36.51-.44l1.57-.57a8.4,8.4,0,0,0,5.36-5.57,11.63,11.63,0,0,1,.46-1.1A.58.58,0,0,1,45.37,33.44Z" transform="translate(-34.83 -31.35)"/><path class="g" d="M77.09,55A3.64,3.64,0,0,1,74,53.55,1.34,1.34,0,0,1,74,51.7c.56-.65,1.09-.28,1.64.15,1.09.86,2.34.55,3.55.34A2.87,2.87,0,0,0,79.7,52a1,1,0,0,1,1.34.41,1,1,0,0,1-.18,1.32A4.81,4.81,0,0,1,77.09,55Z" transform="translate(-34.83 -31.35)"/><path class="h" d="M73.69,47.5a2.17,2.17,0,0,1-2,2.14,1.83,1.83,0,0,1-1.62-1.88,2.24,2.24,0,0,1,2-2.15A1.86,1.86,0,0,1,73.69,47.5Z" transform="translate(-34.83 -31.35)"/><path class="i" d="M86.68,48.66a1.92,1.92,0,0,1-2,2,1.78,1.78,0,0,1-1.64-2,2.13,2.13,0,0,1,2.08-1.91A1.64,1.64,0,0,1,86.68,48.66Z" transform="translate(-34.83 -31.35)"/></svg>