<svg xmlns="http://www.w3.org/2000/svg" viewBox="0 0 60.47 104.87"><defs><style>.a{fill:#85716b;}.b{fill:#85706a;}.c{fill:#806963;}.d{fill:#f6c0cc;}.e{fill:#f7caba;}</style></defs><path class="a" d="M104.93,93.46a21.88,21.88,0,0,1-5.12,14.7,72.5,72.5,0,0,1-14.44,13.21q-4.11,3-8.48,5.61a3.7,3.7,0,0,1-4.07.14c-8.49-5.18-16.45-11-22.86-18.74A22,22,0,0,1,44.53,96.1,14.53,14.53,0,0,1,54.65,80.66c6.21-1.83,11.63,0,16.4,4.14a22.6,22.6,0,0,1,3,3.23c.69.89.71.88,1.46,0a21.33,21.33,0,0,1,7.1-6c4.64-2.27,9.46-2.92,14.2-.59C102.29,84.11,104.82,88.78,104.93,93.46ZM58.47,83.23C53.24,83,47.83,87.68,47.74,94.44a17.21,17.21,0,0,0,3.78,10.75,58,58,0,0,0,9.87,9.88,118.75,118.75,0,0,0,12.06,8.64,2.08,2.08,0,0,0,2.5,0q4-2.4,7.67-5.12C88.7,114.91,93.55,111,97.44,106c2.73-3.52,4.61-7.39,4.28-12s-2.38-7.9-6.54-9.68c-4.77-2-9.23-.9-13.31,2a24,24,0,0,0-5.2,5.43c-1.33,1.77-2.48,1.75-3.82,0a34.41,34.41,0,0,0-2.67-3.23A15.79,15.79,0,0,0,58.47,83.23Z" transform="translate(-44.46 -22.8)"/><path class="b" d="M77.59,26.86a24.72,24.72,0,0,1,8.53,10.41A21.84,21.84,0,0,1,88,48.87a11.64,11.64,0,0,0,3-4.32c.89-2.46,3.13-2,4.2-.63,4,5.14,6,10.92,5,17.44-1.09,7.23-5.45,12.15-11.73,15.52a26.12,26.12,0,0,1-9.86,2.63A34,34,0,0,1,68,79c-7.41-1.57-15.38-7-17-16.71a15.26,15.26,0,0,1,.83-8.12,5,5,0,0,1,2.9,1.29A19,19,0,0,0,54.07,61c.84,7.49,6.62,12.44,12.77,14.34a30,30,0,0,0,10.67,1,22.19,22.19,0,0,0,13.25-4.82,16.51,16.51,0,0,0,6.41-12.85,19,19,0,0,0-2.88-10.23c-.84-1.41-.8-1.39-1.7,0a16.65,16.65,0,0,1-6,5.75,1.78,1.78,0,0,1-2,0,1.84,1.84,0,0,1-.66-1.92,16.88,16.88,0,0,1,.37-1.88c1.27-4.61.37-8.92-1.77-13a25.73,25.73,0,0,0-6.22-7.51c0-.53.54-1.07,0-1.57-.24-.21-.82-.05-.74-.59s.64-.45,1-.53Z" transform="translate(-44.46 -22.8)"/><path class="c" d="M77.59,26.86l-1,.22c-.4.08-1-.07-1,.53s.5.38.74.59c.58.5.06,1,0,1.57a4.05,4.05,0,0,1-.91-.56,19.24,19.24,0,0,0-5.08-2.61c-.56-.19-.58-.07-.44.44,1.25,4.8-.19,9-3.16,12.71a69.63,69.63,0,0,1-5.38,5.62c-2.89,2.91-5.39,6.07-6.65,10.07a5,5,0,0,0-2.9-1.29A19.33,19.33,0,0,1,55.3,47.3a53.53,53.53,0,0,1,5.9-6.42,22,22,0,0,0,4.74-6,9.2,9.2,0,0,0-.09-8.83c-1-1.75,0-3.32,2-3.29A16,16,0,0,1,75,25.08,14.21,14.21,0,0,1,77.59,26.86Z" transform="translate(-44.46 -22.8)"/><path class="d" d="M58.47,83.23a15.79,15.79,0,0,1,11.71,5.23,34.41,34.41,0,0,1,2.67,3.23c1.34,1.78,2.49,1.8,3.82,0a24,24,0,0,1,5.2-5.43c4.08-2.92,8.54-4.07,13.31-2,4.16,1.78,6.23,5.22,6.54,9.68s-1.55,8.48-4.28,12c-3.89,5-8.74,9-13.82,12.67q-3.72,2.72-7.67,5.12a2.08,2.08,0,0,1-2.5,0,118.75,118.75,0,0,1-12.06-8.64,58,58,0,0,1-9.87-9.88,17.21,17.21,0,0,1-3.78-10.75C47.83,87.68,53.24,83,58.47,83.23Z" transform="translate(-44.46 -22.8)"/><path class="e" d="M54.68,55.44c1.26-4,3.76-7.16,6.65-10.07a69.63,69.63,0,0,0,5.38-5.62c3-3.76,4.41-7.91,3.16-12.71-.14-.51-.12-.63.44-.44a19.24,19.24,0,0,1,5.08,2.61,4.05,4.05,0,0,0,.91.56,25.73,25.73,0,0,1,6.22,7.51c2.14,4.13,3,8.44,1.77,13a16.88,16.88,0,0,0-.37,1.88,1.84,1.84,0,0,0,.66,1.92,1.78,1.78,0,0,0,2,0,16.65,16.65,0,0,0,6-5.75c.9-1.37.86-1.39,1.7,0a19,19,0,0,1,2.88,10.23,16.51,16.51,0,0,1-6.41,12.85,22.19,22.19,0,0,1-13.25,4.82,30,30,0,0,1-10.67-1C60.69,73.44,54.91,68.49,54.07,61A19,19,0,0,1,54.68,55.44Z" transform="translate(-44.46 -22.8)"/></svg>