<svg xmlns="http://www.w3.org/2000/svg" viewBox="0 0 104.03 87.89"><defs><style>.a{fill:#4e9bb9;}.b{fill:#498fb4;}.c{fill:#bfecdf;}.d{fill:#f8ecbe;}.e{fill:#f8ebbe;}.f{fill:#f8c7ce;}.g{fill:#4a90b4;}.h{fill:#4a8fb4;}</style></defs><path class="a" d="M72.5,57.05a2.74,2.74,0,0,0,2.08-.3A32.67,32.67,0,0,1,85.14,55c8.55-.11,15.79,3.06,22.08,8.67,4.77,4.26,7.8,9.64,9.92,15.6a31,31,0,0,1,2,7A2.81,2.81,0,0,0,121,88.55a9.14,9.14,0,0,0,3.37.76c2.88.09,4.11,2.11,2.92,4.76s-3.49,4.29-6,5.55c-.29.14-.58.26-.88.38-1.42.58-1.44.69-.53,1.91,1.75,2.33,3.19,4.77,3.17,7.84,0,4.39-2.56,7.47-6.93,8.09a12.72,12.72,0,0,1-12.21-4.51c-.86-1-.92-1-2-.17-3.14,2.33-6.55,3.22-10.35,1.8a9,9,0,0,1-4-3.2c-.34-.44-.69-.87-1-1.3a2.12,2.12,0,0,0-1.77-.81c-1.12,0-2.23-.13-3.35-.16-1.61,0-1.61,0-1.61,1.54a25,25,0,0,1-.18,3.46,8.9,8.9,0,0,1-8.57,7.75c-7.43.46-14.08-6.28-12.55-15,0-.12.08-.23.09-.35,0-.48.4-1.12-.21-1.4a1.83,1.83,0,0,0-1.83.11,3.13,3.13,0,0,0-1,1.43,18.69,18.69,0,0,1-3.17,5c-3.94,4.2-11,3.29-13.51-1.76-1.11-2.26-.83-4.61-.17-6.9a23.76,23.76,0,0,1,4.12-8.32A2.17,2.17,0,0,0,43,92.62,27,27,0,0,1,40.6,82.31c.23-.13.42-.7.71-.27.53.8,1.42.64,2.13,1-.68,0-1,.08-.81.94a25.46,25.46,0,0,0,9.08,15.34,16.58,16.58,0,0,0,6.18,3.33c1.49.41,1.49.4,2.11-1a5.21,5.21,0,0,1,.47-.83,1.36,1.36,0,0,1,1.86-.59,1.3,1.3,0,0,1,.41,1.9,14.87,14.87,0,0,0-1.65,5.58c-.69,5.82,2.28,10.65,8.34,11.48,2.85.39,5.44-.65,6.59-3.44a9.58,9.58,0,0,0,.65-5.16c-.17-1.18-.34-2.37-.47-3.56-.07-.66,0-1.34.73-1.62a1.35,1.35,0,0,1,1.83.68,1.16,1.16,0,0,0,1,.7c1.11,0,2.23.19,3.34.2a64.55,64.55,0,0,0,17.17-2.08c1.62-.43,2-.22,2.63,1.37.25.63.53,1.25.77,1.88a10.77,10.77,0,0,0,12.45,6.76,4.62,4.62,0,0,0,3.87-3.62,8.48,8.48,0,0,0-1.15-6.2,36.24,36.24,0,0,0-2.89-4c-1.06-1.46-.7-2.48,1-2.89a15,15,0,0,0,3.17-1.08c1.87-.92,3.74-1.87,4.63-4,.46-1.07.3-1.4-.84-1.5a18.23,18.23,0,0,1-5.11-1.21,1,1,0,0,0-1.25.29,17.82,17.82,0,0,1-6.07,4,43.7,43.7,0,0,1-8.45,2.6A56.56,56.56,0,0,1,87.79,99a46.56,46.56,0,0,1-16.7-3.79,21.24,21.24,0,0,1-10.47-9.12c-.73-1.33-1.54-2.61-2.31-3.92a7.79,7.79,0,0,1,1.5-1.64c.22-.25.44-.61.86-.52s.1.7.44.92c.23-.39-.13-.91.34-1.21a5,5,0,0,0,.53,3c2.11,4.74,5.79,7.83,10.41,9.94.53.25.74.21.82-.46.29-2.45.85-4.86,1.35-7.28.8-3.83,1.93-7.57,3-11.33.4-1.45.4-1.44-.9-2s-2.6-1.23-3.93-1.78c-.6-.25-1.14-.77-1.89-.6,0-.22.29-.27.14-.67-.56-1.46-.18-2.13,1.06-2.3a19.43,19.43,0,0,0,3.81,2.24A31.87,31.87,0,0,0,94.1,70.54a17.66,17.66,0,0,0,9.71-4.79c.62-.62.56-.93-.12-1.46a34.36,34.36,0,0,0-6.86-4.11A29.25,29.25,0,0,0,79.4,58.1a33.47,33.47,0,0,0-6.2,2.15c-.17-.3-.39-.14-.62-.08-.6.14-1.07-.29-1-.72.14-.65.28-1.52,1-1.79C73.62,57.24,72.05,57.29,72.5,57.05ZM91.05,96.3A33.72,33.72,0,0,0,96.91,96a41.61,41.61,0,0,0,6.44-1.34c.54-.18.8-.38.69-1A49.71,49.71,0,0,0,99.1,78.06a11.28,11.28,0,0,0-3.5-4.2,3.25,3.25,0,0,0-2.49-.61,38.62,38.62,0,0,1-11.56-.1c-.64-.09-.93,0-1.18.61a37,37,0,0,0-2,5.77,77.93,77.93,0,0,0-2.31,13c-.17,1.8-.07,1.8,1.65,2.28A57.19,57.19,0,0,0,91.05,96.3Zm25.42-9c-.07-.43-.12-.86-.2-1.29A53.19,53.19,0,0,0,114,78.06a27.29,27.29,0,0,0-7-10.61c-.3-.28-.55-.75-1.07-.25A26.58,26.58,0,0,1,98.8,72c-.41.2-.62.35-.2.83A29.49,29.49,0,0,1,104.4,84a60.93,60.93,0,0,1,1.86,8.76c.13.94.46.93,1.15.59.93-.47,1.87-.9,2.83-1.31a26.74,26.74,0,0,0,5.61-3.4A1.37,1.37,0,0,0,116.47,87.27Zm-75.9,19.21a5.56,5.56,0,0,0,.91,3.29,5.9,5.9,0,0,0,7.71,1.44c2.52-1.47,3.62-3.95,4.81-6.39.29-.59-.24-.69-.54-.86a29.25,29.25,0,0,1-7.66-6.44c-1-1.2-1.09-1.17-1.95.11A16.89,16.89,0,0,0,40.57,106.48ZM95,112.82a6.65,6.65,0,0,0,3.21-.54,6.91,6.91,0,0,0,2.78-2.21,1.77,1.77,0,0,0-.09-2.13c-.35-.61-.84,0-1.25,0-3.07.46-6.09,1.22-9.18,1.51-.28,0-.63-.06-.75.25s.13.6.33.84A5.45,5.45,0,0,0,95,112.82Z" transform="translate(-23.66 -34.37)"/><path class="b" d="M43.44,83c-.71-.32-1.6-.16-2.13-1-.29-.43-.48.14-.71.27-.22-.8-1-.9-1.58-1.14a26.25,26.25,0,0,1-10-6.69,20.08,20.08,0,0,1-5.35-12.41c-.51-7.79,2.4-14.28,7.63-19.85a24,24,0,0,1,14.46-7.61A22,22,0,0,1,62.9,39.27a24,24,0,0,1,9.6,17.78c-.45.24,1.12.19.07.61-.69.27-.83,1.14-1,1.79-.09.43.38.86,1,.72.23-.06.45-.22.62.08a1.08,1.08,0,0,0-.51.86,19.85,19.85,0,0,1-.59,3.24A3,3,0,0,0,72,66.19c-1.24.17-1.62.84-1.06,2.3.15.4-.15.45-.14.67a21.27,21.27,0,0,1-9.37,10.52c-.47.3-.11.82-.34,1.21-.34-.22.06-.82-.44-.92s-.64.27-.86.52a7.79,7.79,0,0,0-1.5,1.64,4.48,4.48,0,0,0-2,.34A30.47,30.47,0,0,1,43.44,83Zm-17-22.27c-.17,1.77-.2,3.5.95,5a16.58,16.58,0,0,0,4.39,7.58,22.89,22.89,0,0,0,20.64,6.83A18.83,18.83,0,0,0,67.63,68.47a23.72,23.72,0,0,0,1.52-15.79,20.41,20.41,0,0,0-7.77-11.07A19.82,19.82,0,0,0,45,37.6a22.1,22.1,0,0,0-13.39,8.22A21.72,21.72,0,0,0,26.41,60.73Z" transform="translate(-23.66 -34.37)"/><path class="c" d="M43.44,83a30.47,30.47,0,0,0,12.89-.53,4.48,4.48,0,0,1,2-.34c.77,1.31,1.58,2.59,2.31,3.92a21.24,21.24,0,0,0,10.47,9.12A46.56,46.56,0,0,0,87.79,99a56.56,56.56,0,0,0,15.29-1.58,43.7,43.7,0,0,0,8.45-2.6,17.82,17.82,0,0,0,6.07-4,1,1,0,0,1,1.25-.29A18.23,18.23,0,0,0,124,91.72c1.14.1,1.3.43.84,1.5-.89,2.08-2.76,3-4.63,4A15,15,0,0,1,117,98.25c-1.72.41-2.08,1.43-1,2.89a36.24,36.24,0,0,1,2.89,4,8.48,8.48,0,0,1,1.15,6.2,4.62,4.62,0,0,1-3.87,3.62,10.77,10.77,0,0,1-12.45-6.76c-.24-.63-.52-1.25-.77-1.88-.63-1.59-1-1.8-2.63-1.37A64.55,64.55,0,0,1,83.13,107c-1.11,0-2.23-.15-3.34-.2a1.16,1.16,0,0,1-1-.7,1.35,1.35,0,0,0-1.83-.68c-.7.28-.8,1-.73,1.62.13,1.19.3,2.38.47,3.56a9.58,9.58,0,0,1-.65,5.16c-1.15,2.79-3.74,3.83-6.59,3.44-6.06-.83-9-5.66-8.34-11.48a14.87,14.87,0,0,1,1.65-5.58,1.3,1.3,0,0,0-.41-1.9,1.36,1.36,0,0,0-1.86.59,5.21,5.21,0,0,0-.47.83c-.62,1.35-.62,1.36-2.11,1a16.58,16.58,0,0,1-6.18-3.33,25.46,25.46,0,0,1-9.08-15.34C42.47,83.08,42.76,83,43.44,83Z" transform="translate(-23.66 -34.37)"/><path class="d" d="M91.05,96.3a57.19,57.19,0,0,1-13.29-1.54c-1.72-.48-1.82-.48-1.65-2.28a77.93,77.93,0,0,1,2.31-13,37,37,0,0,1,2-5.77c.25-.57.54-.7,1.18-.61a38.62,38.62,0,0,0,11.56.1,3.25,3.25,0,0,1,2.49.61,11.28,11.28,0,0,1,3.5,4.2A49.71,49.71,0,0,1,104,93.62c.11.63-.15.83-.69,1A41.61,41.61,0,0,1,96.91,96,33.72,33.72,0,0,1,91.05,96.3Z" transform="translate(-23.66 -34.37)"/><path class="d" d="M72,66.19a3,3,0,0,1,.08-1.84,19.85,19.85,0,0,0,.59-3.24,1.08,1.08,0,0,1,.51-.86,33.47,33.47,0,0,1,6.2-2.15,29.25,29.25,0,0,1,17.43,2.08,34.36,34.36,0,0,1,6.86,4.11c.68.53.74.84.12,1.46a17.66,17.66,0,0,1-9.71,4.79,31.87,31.87,0,0,1-18.27-2.11A19.43,19.43,0,0,1,72,66.19Z" transform="translate(-23.66 -34.37)"/><path class="e" d="M116.47,87.27a1.37,1.37,0,0,1-.62,1.34,26.74,26.74,0,0,1-5.61,3.4c-1,.41-1.9.84-2.83,1.31-.69.34-1,.35-1.15-.59A60.93,60.93,0,0,0,104.4,84,29.49,29.49,0,0,0,98.6,72.8c-.42-.48-.21-.63.2-.83a26.58,26.58,0,0,0,7.13-4.77c.52-.5.77,0,1.07.25a27.29,27.29,0,0,1,7,10.61A53.19,53.19,0,0,1,116.27,86C116.35,86.41,116.4,86.84,116.47,87.27Z" transform="translate(-23.66 -34.37)"/><path class="d" d="M61.45,79.68a21.27,21.27,0,0,0,9.37-10.52c.75-.17,1.29.35,1.89.6,1.33.55,2.62,1.19,3.93,1.78s1.3.58.9,2c-1.05,3.76-2.18,7.5-3,11.33-.5,2.42-1.06,4.83-1.35,7.28-.08.67-.29.71-.82.46-4.62-2.11-8.3-5.2-10.41-9.94A5,5,0,0,1,61.45,79.68Z" transform="translate(-23.66 -34.37)"/><path class="c" d="M40.57,106.48a16.89,16.89,0,0,1,3.28-8.85c.86-1.28.91-1.31,1.95-.11A29.25,29.25,0,0,0,53.46,104c.3.17.83.27.54.86-1.19,2.44-2.29,4.92-4.81,6.39a5.9,5.9,0,0,1-7.71-1.44A5.56,5.56,0,0,1,40.57,106.48Z" transform="translate(-23.66 -34.37)"/><path class="c" d="M95,112.82A5.45,5.45,0,0,1,90,110.56c-.2-.24-.46-.51-.33-.84s.47-.23.75-.25c3.09-.29,6.11-1,9.18-1.51.41-.07.9-.63,1.25,0a1.77,1.77,0,0,1,.09,2.13,6.91,6.91,0,0,1-2.78,2.21A6.65,6.65,0,0,1,95,112.82Z" transform="translate(-23.66 -34.37)"/><path class="c" d="M26.41,60.73a21.72,21.72,0,0,1,5.24-14.91A22.1,22.1,0,0,1,45,37.6a19.82,19.82,0,0,1,16.34,4,20.41,20.41,0,0,1,7.77,11.07,23.72,23.72,0,0,1-1.52,15.79A18.83,18.83,0,0,1,52.39,80.16a22.89,22.89,0,0,1-20.64-6.83,16.58,16.58,0,0,1-4.39-7.58,8.63,8.63,0,0,0,3,.77c2.25-.1,3.74-1.38,3.76-3.44a4.41,4.41,0,0,0-3.84-4.55C28.43,58.43,27.37,59.46,26.41,60.73Zm36.71,6.39a4.27,4.27,0,0,0-4.38-4.24,4,4,0,0,0-4.28,3.87,4.51,4.51,0,0,0,4.39,4.48A4.11,4.11,0,0,0,63.12,67.12ZM44.26,69.19a6.84,6.84,0,0,0,2.53-.6,6.75,6.75,0,0,0,3.44-3.2,1.38,1.38,0,0,0-.42-2,1.37,1.37,0,0,0-2,.55c-.12.16-.2.34-.31.51A4.37,4.37,0,0,1,41.77,66a6.73,6.73,0,0,1-2.37-2.31c-.7-1-1.27-1.21-2.06-.74s-.91,1.25-.33,2.2A8,8,0,0,0,44.26,69.19Zm15-10.3c0-.11-.07-.27-.1-.42A4.06,4.06,0,0,0,55,55.22,4.48,4.48,0,0,0,51,59a1.25,1.25,0,0,0,1,1.44,1.28,1.28,0,0,0,1.69-.72,6,6,0,0,1,.49-1.09,1.12,1.12,0,0,1,2,0,3.45,3.45,0,0,1,.28.78,1.32,1.32,0,0,0,1.55,1C58.85,60.33,59.13,59.71,59.23,58.89ZM37.92,55.77a2.55,2.55,0,0,0-.48-1.53,4.09,4.09,0,0,0-4.2-2.17c-1.49.27-2.06,1.49-2.57,2.73a1.19,1.19,0,0,0,.6,1.61A1.27,1.27,0,0,0,33,56.2a3.32,3.32,0,0,0,.42-.71c.45-.88.86-.9,1.41-.1a2.32,2.32,0,0,1,.27.79c.28,1.06.79,1.51,1.58,1.42S37.92,56.83,37.92,55.77Z" transform="translate(-23.66 -34.37)"/><path class="f" d="M26.41,60.73c1-1.27,2-2.3,3.83-2.2a4.41,4.41,0,0,1,3.84,4.55c0,2.06-1.51,3.34-3.76,3.44a8.63,8.63,0,0,1-3-.77C26.21,64.23,26.24,62.5,26.41,60.73Z" transform="translate(-23.66 -34.37)"/><path class="f" d="M63.12,67.12a4.11,4.11,0,0,1-4.27,4.11,4.51,4.51,0,0,1-4.39-4.48,4,4,0,0,1,4.28-3.87A4.27,4.27,0,0,1,63.12,67.12Z" transform="translate(-23.66 -34.37)"/><path class="g" d="M44.26,69.19A8,8,0,0,1,37,65.1c-.58-.95-.42-1.74.33-2.2s1.36-.27,2.06.74A6.73,6.73,0,0,0,41.77,66a4.37,4.37,0,0,0,5.78-1.49c.11-.17.19-.35.31-.51a1.37,1.37,0,0,1,2-.55,1.38,1.38,0,0,1,.42,2,6.75,6.75,0,0,1-3.44,3.2A6.84,6.84,0,0,1,44.26,69.19Z" transform="translate(-23.66 -34.37)"/><path class="h" d="M59.23,58.89c-.1.82-.38,1.44-1.25,1.58a1.32,1.32,0,0,1-1.55-1,3.45,3.45,0,0,0-.28-.78,1.12,1.12,0,0,0-2,0,6,6,0,0,0-.49,1.09,1.28,1.28,0,0,1-1.69.72A1.25,1.25,0,0,1,51,59a4.48,4.48,0,0,1,4-3.81,4.06,4.06,0,0,1,4.15,3.25C59.16,58.62,59.21,58.78,59.23,58.89Z" transform="translate(-23.66 -34.37)"/><path class="b" d="M37.92,55.77c0,1.06-.46,1.73-1.23,1.83s-1.3-.36-1.58-1.42a2.32,2.32,0,0,0-.27-.79c-.55-.8-1-.78-1.41.1a3.32,3.32,0,0,1-.42.71,1.27,1.27,0,0,1-1.74.21,1.19,1.19,0,0,1-.6-1.61c.51-1.24,1.08-2.46,2.57-2.73a4.09,4.09,0,0,1,4.2,2.17A2.55,2.55,0,0,1,37.92,55.77Z" transform="translate(-23.66 -34.37)"/></svg>