<?xml version="1.0" encoding="UTF-8"?>
<svg id="_图层_2" data-name="图层 2" xmlns="http://www.w3.org/2000/svg" viewBox="0 0 104.4 103.89">
  <defs>
    <style>
      .cls-1 {
        fill: #c0d6db;
      }

      .cls-2 {
        fill: #9cb3bb;
      }

      .cls-3 {
        fill: #705b5f;
      }

      .cls-4 {
        fill: #da9b69;
      }
    </style>
  </defs>
  <g id="_图层_2-2" data-name=" 图层 2">
    <g id="_图层_1-2" data-name=" 图层 1-2">
      <path class="cls-3" d="M15.95,89.83c-1.51-.79-3.06-1.52-4.64-2.17-1.52-.64-3.07-1.19-4.51-1.99-2.96-1.65-5.05-4.54-6.07-7.73-.39-1.22-.58-2.48-.64-3.76-.16-3.03-.02-6.12-.01-9.16l.03-16.22v-18.29c0-.99-.03-1.99.05-2.98.14-1.7.61-3.35,1.39-4.86,1.12-2.16,3-4.12,5.07-5.39,1.65-1.01,3.62-1.65,5.41-2.37,2.49-.99,4.97-2,7.45-3.02l18.31-7.55c2.81-1.14,5.61-2.54,8.51-3.44,3.41-1.03,7.02-1.17,10.5-.42,2.3.5,5.41,1.98,7.61,2.9l10.81,4.48,14.12,5.78c2.4.97,5.47,2,7.71,3.19,3.18,1.69,5.72,4.55,6.78,8.02.29.96.46,1.96.51,2.96.17,3.05.03,6.15.03,9.2l.02,17.31v13.13c-.01,2.52.14,5.11-.11,7.62-.19,1.92-.76,3.73-1.67,5.43-1.08,2.04-2.86,3.9-4.82,5.11-1.63,1.01-4.2,1.92-6.01,2.72-4.04,1.8-8.09,3.56-12.16,5.28-1,.42-2,.83-3.01,1.22-.61.23-1.24.41-1.84.67-.8.35-1.56.8-2.37,1.14-.99.43-1.98.88-2.98,1.28-.78.32-1.59.58-2.36.94-1.76.81-3.48,1.75-5.28,2.48-1.01.41-1.72.76-2.73,1.13-.6.22-1.46.57-2.06.76-2.22.7-5.58.87-7.84.42-1-.2-2.23-.58-3.17-1-1.23-.54-2.36-1.23-3.61-1.74-1.09-.44-2.23-.71-3.31-1.15-1.98-.78-3.92-1.67-5.87-2.53-.63-.28-1.28-.51-1.91-.79-.71-.32-1.39-.69-2.1-1.01-1.45-.65-2.95-1.21-4.39-1.88"/>
      <path class="cls-2" d="M8.72,18.08l1.55-.71c2.91-1.32,5.93-2.44,8.89-3.65l15.38-6.32c1.53-.61,3.05-1.24,4.56-1.89,1.49-.66,2.99-1.29,4.51-1.9,1.26-.52,2.53-1.07,3.85-1.42.85-.23,1.75-.37,2.62-.47,2.26-.26,4.85-.11,7.06.49,1.59.43,3.1,1.13,4.62,1.76l7.14,2.99,16.17,6.6,7.48,3.03c.89.36,1.75.79,2.64,1.13,2.34.69,4.92,3.23,6.07,5.34.83,1.51,1.32,3.28,1.47,4.99.21,2.34.06,5.23.05,7.62v12.95s-.02,16.28-.02,16.28v5.24c.02,2.36.13,4.84-.56,7.12-.88,2.91-3.06,5.79-5.76,7.22-2.34,1.23-4.89,2.2-7.32,3.24l-13.45,5.78-10.73,4.71c-1.94.87-3.9,1.74-5.88,2.52-1.04.41-2.09.85-3.19,1.1-2.63.61-6.05.47-8.62-.34-1.95-.62-3.78-1.6-5.66-2.39-5.39-2.31-10.76-4.65-16.12-7.02l-11.12-4.8c-1.37-.58-2.73-1.17-4.09-1.76-1.07-.47-2.2-.9-3.18-1.55-1.84-1.2-3.23-3.05-4.22-4.98-.68-1.34-1-2.91-1.11-4.4-.18-2.46-.07-4.97-.07-7.44l.02-13.35v-16.57c-.01-2.88-.12-5.8.01-8.68.05-1.15.16-2.37.52-3.46.9-2.76,3.19-5.47,5.8-6.75.21-.1.46-.24.69-.27h0Z"/>
      <path class="cls-1" d="M8.72,18.08l1.55-.71c2.91-1.32,5.93-2.44,8.89-3.65l15.38-6.32c1.53-.61,3.05-1.24,4.56-1.89,1.49-.66,2.99-1.29,4.51-1.9,1.26-.52,2.53-1.07,3.85-1.42.85-.23,1.75-.37,2.62-.47,2.26-.26,4.85-.11,7.06.49,1.59.43,3.1,1.13,4.62,1.76l7.14,2.99,16.17,6.6,7.48,3.03c.89.36,1.75.79,2.64,1.13l-.03.09-.28-.11c-.09.34.46,1.04.6,1.39.57,1.37-.18,3.03-.94,4.15l.06.03-.06-.06.16.09c-.15.01-.29,0-.42.07l-23.13,9.79c-2.52,1.05-5.04,2.12-7.55,3.2-.99.42-2.01.8-2.98,1.27-.21.1-.49.22-.6.44-.11.22-.07.5.02.72.05.12.12.23.19.34-.02.02-.04.03-.06.05-.09.06-.15.08-.25.12-.39.15-.77.44-1.12.67-2.33,1.55-4.15,3.88-5.27,6.44-.14.31-.54,1.7-.68,1.82-.04.03-.09.04-.14.06-.13-.07-.18-.13-.25-.26-.06-.49-.27-1.05-.44-1.52-1.05-2.82-3.07-5.53-5.51-7.31-1.92-1.4-4.14-2.22-6.31-3.13l-6.22-2.61-14.37-6.09c-3.2-1.36-6.41-2.67-9.58-4.11-.26-.2-.46-.68-.6-.98-.51-1.05-.55-1.94-.44-3.09.02-.26.02-.56.12-.8.05-.12.08-.23.1-.36-.14.04-.24.08-.39.07-.03,0-.06,0-.09,0h0Z"/>
      <path class="cls-3" d="M51.14,16.31c2.34-.19,5.36.14,7.24,1.69.61.5,1.02,1.13,1.08,1.93.06.75-.18,1.46-.67,2.02-1.27,1.46-3.54,1.94-5.38,2.1-2.2.26-5.22-.21-7.03-1.57-.66-.49-1.19-1.15-1.29-1.99-.09-.71.14-1.35.58-1.91,1.27-1.58,3.54-2.08,5.46-2.26h0Z"/>
      <path class="cls-4" d="M51.27,17.89c1.65-.27,4.28.07,5.68,1.05.39.27.8.65.87,1.15.05.32-.07.62-.28.87-.89,1.07-2.94,1.4-4.23,1.49-1.75.17-4.24.04-5.74-1-.38-.26-.77-.64-.83-1.12-.04-.33.07-.63.28-.88.94-1.14,2.88-1.41,4.25-1.56h0Z"/>
      <path class="cls-3" d="M10.03,23.24c3.17,1.44,6.38,2.75,9.58,4.11l14.37,6.09,6.22,2.61c2.17.91,4.39,1.74,6.31,3.13,2.44,1.77,4.45,4.49,5.51,7.31.18.47.38,1.02.44,1.52.58,2.35.51,4.73.52,7.13v6.31s.02,19.77.02,19.77v9.28c.02.86.01,1.71.03,2.56,0,.47.06.95.02,1.41-.03.3-.13.73-.39.91-.14.1-.28.13-.44.09-.34-.07-.58-.41-.78-.66-.1-1.38-.03-2.82-.03-4.21v-7.84s.01-22.02.01-22.02v-5.89c0-2.09.09-4.26-.41-6.3-.79-3.21-2.64-5.96-5.25-7.98-1.8-1.39-3.93-2.18-6-3.05l-5.06-2.13-16.7-7.01c-1.59-.67-3.17-1.37-4.77-2.03-1.04-.43-2.18-.8-3.18-1.32-.27-.14-.55-.33-.7-.6-.1-.18-.14-.37-.06-.57.13-.31.46-.49.75-.61h0Z"/>
      <path class="cls-3" d="M94.28,23.36c.31.03.47.07.67.32.15.19.23.42.19.67-.02.15-.07.34-.19.43-.64.46-1.55.73-2.28,1.04-1.39.56-2.77,1.13-4.15,1.71l-22.06,9.33c-1.28.56-2.57,1.11-3.87,1.63-.54.23-1.11.54-1.68.7-.13.04-.28.04-.41.02-.1-.02-.18-.06-.27-.12-.07-.11-.14-.22-.19-.34-.09-.22-.13-.5-.02-.72.11-.22.39-.33.6-.44.97-.46,1.99-.84,2.98-1.27,2.51-1.08,5.02-2.15,7.55-3.2l23.13-9.79h0Z"/>
      <path class="cls-3" d="M38.13,75.04c1.13-.1,2.17.25,3.1.87,2.06,1.37,3.38,3.66,3.85,6.06.32,1.65.15,3.66-.82,5.07-.69,1-1.66,1.54-2.83,1.75-1.49.04-2.72-.38-3.89-1.3-1.91-1.5-3.13-4-3.41-6.39-.18-1.57.1-3.28,1.11-4.54.75-.93,1.72-1.38,2.89-1.5h0Z"/>
      <path class="cls-4" d="M37.92,76.62c.75-.1,1.46.03,2.12.38,1.64.88,2.79,2.77,3.3,4.51.39,1.34.48,3.01-.23,4.27-.4.71-.95,1.18-1.74,1.41-.62.04-1.19,0-1.77-.23-1.61-.65-2.76-2.4-3.37-3.95-.58-1.45-.8-3.27-.14-4.74.38-.84.99-1.34,1.83-1.65h0Z"/>
      <path class="cls-3" d="M11.45,37.87c1.2-.11,2.3.31,3.27,1,2.04,1.44,3.32,3.8,3.71,6.23.26,1.58.03,3.54-.94,4.87-.71.97-1.66,1.46-2.83,1.65-1.48.03-2.72-.42-3.87-1.35-1.9-1.52-3.1-4.03-3.36-6.42-.17-1.56.13-3.29,1.16-4.53.75-.91,1.71-1.33,2.87-1.45h0Z"/>
      <path class="cls-4" d="M11.22,39.45c.78-.09,1.49.04,2.19.42,1.6.89,2.73,2.74,3.23,4.45.39,1.36.5,3.05-.23,4.31-.4.7-.95,1.17-1.72,1.38-.63.04-1.21.01-1.8-.24-1.56-.65-2.66-2.3-3.29-3.81-.61-1.46-.86-3.33-.22-4.82.37-.86.99-1.38,1.85-1.71h0Z"/>
      <path class="cls-3" d="M24.45,55.82c1.19-.11,2.27.27,3.25.93,2.05,1.39,3.35,3.73,3.79,6.14.29,1.62.1,3.59-.87,4.96-.69.99-1.66,1.51-2.83,1.71-1.44.04-2.68-.39-3.83-1.27-1.95-1.5-3.17-4.05-3.45-6.46-.19-1.57.12-3.28,1.13-4.53.71-.88,1.69-1.37,2.81-1.48h0Z"/>
      <path class="cls-4" d="M24.29,57.4c.71-.08,1.37.02,2.02.34,1.58.78,2.77,2.59,3.3,4.23.45,1.4.64,3.15-.06,4.5-.38.73-.95,1.25-1.74,1.5-.68.06-1.3.02-1.93-.27-1.58-.71-2.7-2.43-3.3-4-.54-1.43-.74-3.27-.08-4.69.37-.8.98-1.32,1.8-1.61h0Z"/>
      <path class="cls-3" d="M93.2,67.1c1-.12,2.12-.01,2.99.52,1.09.68,1.82,1.86,2.1,3.1.49,2.18-.1,4.52-1.28,6.38-1.05,1.64-2.57,2.81-4.49,3.23-1.17.18-2.39-.05-3.36-.73-1.12-.78-1.7-2-1.94-3.31-.38-2.14.22-4.3,1.46-6.07,1.12-1.61,2.58-2.76,4.53-3.11h0Z"/>
      <path class="cls-4" d="M93.41,68.62c.69-.06,1.37,0,1.97.37.79.49,1.19,1.4,1.37,2.28.36,1.77-.17,3.58-1.16,5.05-.83,1.22-1.97,2.2-3.44,2.48-.67.08-1.32-.01-1.91-.36-.8-.47-1.25-1.31-1.45-2.19-.4-1.7.15-3.46,1.05-4.9.85-1.35,1.98-2.37,3.56-2.73h0Z"/>
      <path class="cls-3" d="M67.32,44.15c1.03-.1,2.16.14,3,.75,1.11.81,1.75,2.11,1.95,3.45.34,2.27-.4,4.59-1.76,6.41-1.09,1.46-2.57,2.5-4.39,2.76-1.15.05-2.27-.19-3.2-.89-1.15-.87-1.67-2.22-1.86-3.61-.29-2.16.51-4.39,1.82-6.09,1.1-1.43,2.61-2.53,4.43-2.77h0Z"/>
      <path class="cls-4" d="M67.28,45.73c.71-.07,1.41,0,2.02.39.75.48,1.16,1.32,1.35,2.17.39,1.69-.09,3.55-1.01,4.99-.8,1.26-1.99,2.35-3.47,2.69-.76.06-1.43.01-2.09-.42-.77-.51-1.21-1.38-1.39-2.26-.34-1.73.2-3.54,1.18-4.99.8-1.19,1.97-2.29,3.41-2.57h0Z"/>
      <path class="cls-3" d="M93.74,34.13c1.12-.03,2.19.21,3.04.98,1.1,1,1.56,2.45,1.61,3.9.08,2.36-.79,4.66-2.43,6.37-1.1,1.15-2.45,2-4.07,2.05-1.17,0-2.23-.3-3.12-1.08-1.09-.96-1.56-2.36-1.64-3.78-.14-2.22.72-4.49,2.18-6.15,1.18-1.33,2.64-2.2,4.43-2.3h0Z"/>
      <path class="cls-4" d="M93.37,35.7c.77-.06,1.52.01,2.17.48.73.52,1.08,1.39,1.22,2.24.31,1.86-.27,3.72-1.36,5.24-.8,1.12-1.86,1.94-3.24,2.16-.68.06-1.37-.01-1.97-.38-.76-.47-1.21-1.3-1.41-2.15-.38-1.66.11-3.4.99-4.82.86-1.38,1.99-2.4,3.59-2.78h0Z"/>
      <path class="cls-3" d="M80.31,55.82s.08,0,.12-.01c1.12-.1,2.24.24,3.11.96,1.08.89,1.64,2.2,1.77,3.57.21,2.31-.65,4.7-2.12,6.47-1,1.2-2.37,2.2-3.96,2.33-1.24.03-2.44-.22-3.42-1.02-1.12-.92-1.57-2.35-1.71-3.74-.2-2.06.6-4.36,1.9-5.96,1.12-1.36,2.52-2.42,4.31-2.59h0Z"/>
      <path class="cls-4" d="M80.07,57.41c.66-.05,1.28-.06,1.89.22.74.34,1.24.99,1.5,1.74.57,1.62.25,3.38-.49,4.89-.73,1.5-2,2.75-3.6,3.3-.61.09-1.29.04-1.85-.21-.79-.35-1.31-1.07-1.59-1.87-.51-1.47-.23-3.28.44-4.65.77-1.57,2.03-2.85,3.69-3.42h0Z"/>
      <path class="cls-3" d="M67.08,77.83c1.13-.1,2.24,0,3.2.65,1.06.73,1.7,1.99,1.93,3.23.42,2.2-.19,4.48-1.45,6.31-1.1,1.59-2.53,2.68-4.44,3.03-1.07.1-2.18-.03-3.1-.62-1.08-.69-1.75-1.84-2.02-3.08-.44-2.03.05-4.34,1.18-6.07,1.08-1.67,2.72-3.03,4.69-3.45h0Z"/>
      <path class="cls-4" d="M67.21,79.41c.71-.07,1.38-.04,2.01.33.74.43,1.17,1.16,1.38,1.96.44,1.67.03,3.51-.83,4.97-.84,1.42-2,2.4-3.61,2.81-.72.1-1.42.01-2.05-.38-.8-.49-1.21-1.36-1.39-2.25-.37-1.74.17-3.38,1.13-4.84.81-1.23,1.88-2.29,3.36-2.6h0Z"/>
    </g>
  </g>
</svg>