<svg xmlns="http://www.w3.org/2000/svg" viewBox="0 0 105.76 92.88"><defs><style>.a{fill:#f8d0d5;}.b{fill:#8e7479;}.c{fill:#8d7479;}.d{fill:#f7cfd5;}.e{fill:#f8e4c2;}.f{fill:#9ed5da;}.g{fill:#9dd6da;}.h{fill:#f7e4c1;}</style></defs><path class="a" d="M98,99.61c-.62.71-.69,1.7-1.22,2.46a1.52,1.52,0,0,0-2.13.38,5.08,5.08,0,0,0-.53,1.07,9.21,9.21,0,0,1-4.64,4.8c-.53.24-1,.42-.87-.54a8.78,8.78,0,0,0-.16-2.5A9.75,9.75,0,0,0,80.18,97a5.75,5.75,0,0,0-2.85.19,1.52,1.52,0,0,0,.48,2.9c.4,0,.8,0,1.2,0a6.53,6.53,0,0,1,6.33,5.52c.92,8.09-5.22,15-14,13.14-3.79-.8-6.9-4.4-6.9-8.06q0-26.92,0-53.85A6.79,6.79,0,0,1,65.1,54,8.6,8.6,0,0,1,77.29,50.5a9.34,9.34,0,0,1,4.42,5.59c.36,1.28,1.41,1.69,2.36,1,.64-.43.59-1.08.65-1.71.07,1.29,1.37,1.42,2,2.16a22.76,22.76,0,0,0-.09,8.31A21,21,0,0,0,92.3,76.66c2.22,2.31,3.79,4.92,3.89,8.23A1.24,1.24,0,0,1,95.77,86c-1.86,1.68-1.77,5.66.16,7.32A2,2,0,0,1,96.68,95,8.14,8.14,0,0,0,98,99.61ZM77.56,84a8.15,8.15,0,0,0,3.17-.51,1.32,1.32,0,0,0,.92-1.61A1.52,1.52,0,0,0,80,80.69a4.3,4.3,0,0,0-.7.13c-2.48.3-4.71-.18-6.4-2.18a4.51,4.51,0,0,1,.79-6.9c.61-.46,1.28-.82,1.89-1.27A1.71,1.71,0,0,0,76,68.21a1.41,1.41,0,0,0-2.09-.34A17.79,17.79,0,0,0,71,69.94a7,7,0,0,0-2.46,5A8.78,8.78,0,0,0,77.56,84Z" transform="translate(-22.7 -29.37)"/><path class="b" d="M84.72,55.43c-.06.63,0,1.28-.65,1.71-.95.64-2,.23-2.36-1a9.34,9.34,0,0,0-4.42-5.59A8.6,8.6,0,0,0,65.1,54a6.79,6.79,0,0,0-.62,2.9q0,26.92,0,53.85c0,3.66,3.11,7.26,6.9,8.06,8.73,1.83,14.87-5,14-13.14A6.53,6.53,0,0,0,79,100.11c-.4,0-.8,0-1.2,0a1.52,1.52,0,0,1-.48-2.9A5.75,5.75,0,0,1,80.18,97a9.75,9.75,0,0,1,8.31,8.26,8.78,8.78,0,0,1,.16,2.5c-.14,1,.34.78.87.54a9.21,9.21,0,0,0,4.64-4.8,5.08,5.08,0,0,1,.53-1.07,1.52,1.52,0,0,1,2.13-.38,2.06,2.06,0,0,1,.27,2.35,12.16,12.16,0,0,1-8.31,7.49,1.63,1.63,0,0,0-1.3,1.14,14,14,0,0,1-15.12,9,13.58,13.58,0,0,1-8.7-5c-.78-1-.84-1-1.66,0-2.57,3-5.78,4.68-9.78,4.31A11.06,11.06,0,0,1,43.38,116a1.45,1.45,0,0,0-1.45-.78c-7.2.13-13.23-7.41-11.49-14.69.19-.78,0-1.06-.66-1.44a13.32,13.32,0,0,1-7-11.16,13.86,13.86,0,0,1,5.08-12.34.94.94,0,0,0,.31-1.13c-1.59-6.82,1.71-12.93,8.41-15,1.74-.52,2-1.26,2.29-2.76a13.71,13.71,0,0,1,23.54-6c.48.51.73.56,1.18,0,4.33-5.54,13.05-6.72,18.89.22A8.75,8.75,0,0,1,84.72,55.43ZM61.33,83q0-13.74,0-27.47a3.12,3.12,0,0,0-.59-1.89,10.71,10.71,0,0,0-15.94-1.49A8.85,8.85,0,0,0,41.92,61a6.74,6.74,0,0,0,4.46,5.21c.6.22,1.28.36,1.5,1.07a1.46,1.46,0,0,1-.3,1.57,1.74,1.74,0,0,1-1.76.45,9.3,9.3,0,0,1-6.61-6.21c-.17-.49-.22-1-1-.83a9.24,9.24,0,0,0-5.59,3.45A9.79,9.79,0,0,0,42.67,80.75c1.21-.25,2,.14,2.15,1.07A1.84,1.84,0,0,1,43.26,84a12,12,0,0,1-2.74.14,13.43,13.43,0,0,1-10.18-5.32c-.44-.6-.72-.64-1.28-.1A10.22,10.22,0,0,0,26,85.53a11,11,0,0,0,3.06,9,7.27,7.27,0,0,0,4,2.06c1.52.29,2.1,1.23,1.4,2.36-1.35,2.19-1.25,4.46-.68,6.82,1.15,4.7,5.34,6.66,9.65,6,1.5-.22,2.07,0,2.41,1.49a4.71,4.71,0,0,0,1,2A8.16,8.16,0,0,0,56,117.73a8.5,8.5,0,0,0,5.36-7.82Z" transform="translate(-22.7 -29.37)"/><path class="b" d="M98,99.61A8.14,8.14,0,0,1,96.68,95a2,2,0,0,0-.75-1.63c-1.93-1.66-2-5.64-.16-7.32a1.24,1.24,0,0,0,.42-1.14c-.1-3.31-1.67-5.92-3.89-8.23A21,21,0,0,1,86.66,65.9a22.76,22.76,0,0,1,.09-8.31,24.35,24.35,0,0,1,4-8.35A20.67,20.67,0,0,1,108,41.09c11.67.16,19.69,10,20.38,18.69a21.44,21.44,0,0,1-5.68,16.94,14.13,14.13,0,0,0-3.48,5.22,12.3,12.3,0,0,0-.44,2,2.73,2.73,0,0,0,.77,2.57c1.68,1.71,1.32,5.37-.56,6.91a1.4,1.4,0,0,0-.68,1.27,8,8,0,0,1-7,8.21,24.34,24.34,0,0,1-7.76,0A8.49,8.49,0,0,1,98,99.61Zm13.22-17.82h-.21c0,.92,0,1.84,0,2.76,0,.52.2.71.71.7,1,0,2,0,3,0,.61,0,.85-.2.84-.82a11.56,11.56,0,0,1,.59-3.29,17.52,17.52,0,0,1,4.29-6.7A18.19,18.19,0,0,0,125.25,60a18,18,0,0,0-17.53-15.8A17.87,17.87,0,0,0,92,71.07a37.35,37.35,0,0,0,3.73,4.68,14.33,14.33,0,0,1,3.62,8.68c0,.61.21.85.84.83,1,0,2-.05,3,0,.78,0,.94-.28.91-1-.16-3.67-.3-7.35-.42-11,0-.56-.2-.75-.76-.79a5.69,5.69,0,0,1-2.61-.8,4.29,4.29,0,0,1-1.86-4.58,3.66,3.66,0,0,1,3.35-3,4,4,0,0,1,4,2.85,8.42,8.42,0,0,1,.4,1.87c.1,1,.82.67,1.35.69s1.13.22,1.22-.69a6.35,6.35,0,0,1,1-2.93,4.12,4.12,0,0,1,5.38-1.41,3.93,3.93,0,0,1,1.36,5.17c-.86,1.89-2.54,2.45-4.36,2.74-.68.11-.84.34-.83,1C111.28,76.2,111.26,79,111.26,81.79Zm-3.73,12.34h-6.82c-.44,0-.86,0-.84.67a4.81,4.81,0,0,0,4.72,5,52.68,52.68,0,0,0,5.62,0,5,5,0,0,0,4.94-4.58c0-.81-.17-1.13-1-1.1C111.91,94.16,109.72,94.13,107.53,94.13Zm0-5.61H98.7c-.34,0-.83-.15-1,.23a2.54,2.54,0,0,0,0,1.76c.18.53.66.5,1.1.5H116.2c1,0,1.08-.18,1.14-1.48,0-.92-.4-1-1.15-1C113.31,88.54,110.44,88.52,107.56,88.52Zm.86-11.29c0-1.24-.09-2.49,0-3.72s-.75-.76-1.3-.88c-.87-.19-.67.45-.65.88.14,3.63.29,7.26.43,10.89,0,.47,0,.88.68.84s.57-.43.57-.83C108.16,82,108.46,79.63,108.42,77.23Zm5.44-9.51c-.07-.42-.26-.76-.84-.63A2.25,2.25,0,0,0,111.57,69c0,.24.1.35.33.38A1.92,1.92,0,0,0,113.86,67.72ZM103.2,68.8a2.21,2.21,0,0,0-.54-1.26.8.8,0,0,0-.84-.32.91.91,0,0,0-.56.72.93.93,0,0,0,.46,1,1.75,1.75,0,0,0,1.34.36C103.25,69.29,103.28,69.13,103.2,68.8Z" transform="translate(-22.7 -29.37)"/><path class="c" d="M128.34,36.41a1.51,1.51,0,0,1-.51,1.17c-1.16,1.25-2.29,2.53-3.45,3.79a1.6,1.6,0,0,1-2.39.31,1.62,1.62,0,0,1,.08-2.43c1.17-1.3,2.35-2.59,3.53-3.89a1.45,1.45,0,0,1,1.73-.41A1.51,1.51,0,0,1,128.34,36.41Z" transform="translate(-22.7 -29.37)"/><path class="c" d="M93.54,39.9a1.49,1.49,0,0,1-.85,1.35A1.32,1.32,0,0,1,91,41.09c-1.4-1.53-2.77-3.08-4.06-4.7a1.35,1.35,0,0,1,.29-1.85,1.48,1.48,0,0,1,2.06,0c1.39,1.49,2.7,3,4,4.59A1.14,1.14,0,0,1,93.54,39.9Z" transform="translate(-22.7 -29.37)"/><path class="c" d="M105.73,33.6c0-.88,0-1.75,0-2.63a1.57,1.57,0,0,1,1.57-1.6,1.53,1.53,0,0,1,1.58,1.57c0,1.75,0,3.51,0,5.26a1.58,1.58,0,0,1-3.15,0C105.7,35.35,105.73,34.47,105.73,33.6Z" transform="translate(-22.7 -29.37)"/><path class="b" d="M77.56,84a8.78,8.78,0,0,1-9-9,7,7,0,0,1,2.46-5,17.79,17.79,0,0,1,2.93-2.07,1.41,1.41,0,0,1,2.09.34,1.71,1.71,0,0,1-.41,2.26c-.61.45-1.28.81-1.89,1.27a4.51,4.51,0,0,0-.79,6.9c1.69,2,3.92,2.48,6.4,2.18a4.3,4.3,0,0,1,.7-.13,1.52,1.52,0,0,1,1.61,1.17,1.32,1.32,0,0,1-.92,1.61A8.15,8.15,0,0,1,77.56,84Z" transform="translate(-22.7 -29.37)"/><path class="d" d="M61.33,83v26.87A8.5,8.5,0,0,1,56,117.73a8.16,8.16,0,0,1-9.23-2.44,4.71,4.71,0,0,1-1-2c-.34-1.45-.91-1.71-2.41-1.49-4.31.65-8.5-1.31-9.65-6-.57-2.36-.67-4.63.68-6.82.7-1.13.12-2.07-1.4-2.36a7.27,7.27,0,0,1-4-2.06,11,11,0,0,1-3.06-9,10.22,10.22,0,0,1,3.11-6.81c.56-.54.84-.5,1.28.1a13.43,13.43,0,0,0,10.18,5.32A12,12,0,0,0,43.26,84a1.84,1.84,0,0,0,1.56-2.18c-.18-.93-.94-1.32-2.15-1.07A9.79,9.79,0,0,1,32.61,65.68a9.24,9.24,0,0,1,5.59-3.45c.79-.18.84.34,1,.83a9.3,9.3,0,0,0,6.61,6.21,1.74,1.74,0,0,0,1.76-.45,1.46,1.46,0,0,0,.3-1.57c-.22-.71-.9-.85-1.5-1.07A6.74,6.74,0,0,1,41.92,61a8.85,8.85,0,0,1,2.89-8.78,10.71,10.71,0,0,1,15.94,1.49,3.12,3.12,0,0,1,.59,1.89Q61.31,69.3,61.33,83Zm-15.57,11h1a4.73,4.73,0,0,1,4.75,4.72c.09,2.4-1.53,4.1-4.24,4.43a1.57,1.57,0,0,0,0,3.14,6.2,6.2,0,0,0,3.78-.92A7.49,7.49,0,0,0,54.59,98a7.63,7.63,0,0,0-5.37-6.71,10.69,10.69,0,0,0-4.74-.42,1.64,1.64,0,0,0-1.62,1.73c0,.93.68,1.45,1.82,1.5C45,94.06,45.4,94.05,45.76,94.05Z" transform="translate(-22.7 -29.37)"/><path class="e" d="M111.26,81.79c0-2.8,0-5.59,0-8.39,0-.63.15-.86.83-1,1.82-.29,3.5-.85,4.36-2.74a3.93,3.93,0,0,0-1.36-5.17,4.12,4.12,0,0,0-5.38,1.41,6.35,6.35,0,0,0-1,2.93c-.09.91-.71.71-1.22.69s-1.25.3-1.35-.69a8.42,8.42,0,0,0-.4-1.87,4,4,0,0,0-4-2.85,3.66,3.66,0,0,0-3.35,3,4.29,4.29,0,0,0,1.86,4.58,5.69,5.69,0,0,0,2.61.8c.56,0,.74.23.76.79.12,3.67.26,7.35.42,11,0,.7-.13,1-.91,1-1-.05-2,0-3,0-.63,0-.82-.22-.84-.83a14.33,14.33,0,0,0-3.62-8.68A37.35,37.35,0,0,1,92,71.07a17.87,17.87,0,0,1,15.76-26.86A18,18,0,0,1,125.25,60a18.19,18.19,0,0,1-4.78,14.43,17.52,17.52,0,0,0-4.29,6.7,11.56,11.56,0,0,0-.59,3.29c0,.62-.23.84-.84.82-1,0-2,0-3,0-.51,0-.72-.18-.71-.7,0-.92,0-1.84,0-2.76Z" transform="translate(-22.7 -29.37)"/><path class="f" d="M107.53,94.13c2.19,0,4.38,0,6.58,0,.87,0,1.07.29,1,1.1a5,5,0,0,1-4.94,4.58,52.68,52.68,0,0,1-5.62,0,4.81,4.81,0,0,1-4.72-5c0-.72.4-.67.84-.67Z" transform="translate(-22.7 -29.37)"/><path class="g" d="M107.56,88.52c2.88,0,5.75,0,8.63,0,.75,0,1.19.1,1.15,1-.06,1.3-.1,1.48-1.14,1.48H98.84c-.44,0-.92,0-1.1-.5a2.54,2.54,0,0,1,0-1.76c.15-.38.64-.22,1-.23Z" transform="translate(-22.7 -29.37)"/><path class="h" d="M108.42,77.23c0,2.4-.26,4.78-.25,7.18,0,.4,0,.81-.57.83s-.66-.37-.68-.84c-.14-3.63-.29-7.26-.43-10.89,0-.43-.22-1.07.65-.88.55.12,1.41-.37,1.3.88S108.42,76,108.42,77.23Z" transform="translate(-22.7 -29.37)"/><path class="b" d="M45.76,94.05c-.36,0-.72,0-1.08,0-1.14,0-1.77-.57-1.82-1.5a1.64,1.64,0,0,1,1.62-1.73,10.69,10.69,0,0,1,4.74.42A7.63,7.63,0,0,1,54.59,98,7.49,7.49,0,0,1,51,105.42a6.2,6.2,0,0,1-3.78.92,1.57,1.57,0,0,1,0-3.14c2.71-.33,4.33-2,4.24-4.43a4.73,4.73,0,0,0-4.75-4.72Z" transform="translate(-22.7 -29.37)"/></svg>