<?xml version="1.0" encoding="UTF-8"?>
<svg id="_图层_2" data-name="图层 2" xmlns="http://www.w3.org/2000/svg" viewBox="0 0 216.87 192.63">
  <defs>
    <style>
      .cls-1 {
        fill: #ed6f4e;
      }

      .cls-2 {
        fill: #e1d5c6;
      }

      .cls-3 {
        fill: #23252a;
      }

      .cls-4 {
        fill: #232932;
      }

      .cls-5 {
        fill: #262b35;
      }

      .cls-6 {
        fill: #26221e;
      }

      .cls-7 {
        fill: #25231f;
      }

      .cls-8 {
        fill: #282520;
      }

      .cls-9 {
        fill: #35231d;
      }

      .cls-10 {
        fill: #75615a;
      }

      .cls-11 {
        fill: #23221f;
      }

      .cls-12 {
        fill: #28231e;
      }

      .cls-13 {
        fill: #ed704f;
      }

      .cls-14 {
        fill: #23262d;
      }

      .cls-15 {
        fill: #292520;
      }

      .cls-16 {
        fill: #29251f;
      }

      .cls-17 {
        fill: #28241f;
      }

      .cls-18 {
        fill: #f9cd65;
      }

      .cls-19 {
        fill: #27221e;
      }

      .cls-20 {
        fill: #27231f;
      }

      .cls-21 {
        fill: #e2d5c5;
      }

      .cls-22 {
        fill: #2c2721;
      }

      .cls-23 {
        fill: #26231c;
      }

      .cls-24 {
        fill: #2e201c;
      }

      .cls-25 {
        fill: #e0d5c7;
      }

      .cls-26 {
        fill: #262420;
      }

      .cls-27 {
        fill: #26231f;
      }

      .cls-28 {
        fill: #75625a;
      }

      .cls-29 {
        fill: #24241f;
      }

      .cls-30 {
        fill: #242320;
      }

      .cls-31 {
        fill: #f19891;
      }

      .cls-32 {
        fill: #2a2521;
      }

      .cls-33 {
        fill: #3e271e;
      }

      .cls-34 {
        fill: #31231f;
      }

      .cls-35 {
        fill: #f19791;
      }

      .cls-36 {
        fill: #5b82c2;
      }

      .cls-37 {
        fill: #5b83c2;
      }

      .cls-38 {
        fill: #e1d5c5;
      }

      .cls-39 {
        fill: #2b211c;
      }

      .cls-40 {
        fill: #f19892;
      }

      .cls-41 {
        fill: #39261f;
      }

      .cls-42 {
        fill: #262521;
      }
    </style>
  </defs>
  <g id="_图层_1-2" data-name="图层 1">
    <g>
      <g>
        <path class="cls-11" d="M68.48,13.66c-.2-3.6,2.38-8.79,6.21-9.43.72-.12,2.76.07,2.95,0,.13-.05,1.55-1.62,1.91-1.91,1.7-1.34,4.8-3.02,6.96-2.03,1.7.78,1.17,2.71,1.36,2.94.07.08,1.42-.49,1.75-.53,5.44-.75,6.82,4.57,1.72,7.3-3.85,2.07-8.55,1.66-12.62.55-.16,2.13-1.4,4.53-3.23,5.64-.43.26-2.4,1.13-2.77.91-.12-.07-.99-1.79-1.51-2.24-.47-.41-2.15-1.19-2.73-1.2Z"/>
        <g>
          <g>
            <path class="cls-38" d="M52.93,169.34l-1.5,11.21c-.07.51-.49.64-.87.86-.97.31-1.95.61-2.97.76-7.27,1.05-14.54,2.08-21.74,3.04-8.31,1.1-16.8,1.87-24.97,2.14l-.62-.26c.4-5.17,1.85-9.15,6.24-12.15,1.14-.78,2.68-1.71,4.01-1.94l.48.05c1.91,2.11,3.67,4.24,4.72,6.96.02.03.53.21.61.14.73-.67-3.48-6.88-4.65-7.42-.43-.04-.7-.19-.79-.47.39-.27.71-.11,1.09-.28.73-.31,2.6-1.86,3.65-2.38.46-.23,1.26-.74,1.65-.45l.66.02c1.77,1.1,3.51,2.51,4.92,4.05,2.16,3.79,3.44,2.77.71-.37-1.33-1.53-2.97-2.89-4.68-3.96l-.15-.47c-.05-1.26,1.32-1.29,2.2-1.83l1.4-.09c9.75.81,19.5,1.63,29.25,2.48l1.36.35Z"/>
            <path class="cls-2" d="M51.1,182.87c-.31,1.31-.34,3-.77,4.26-.11.32-.4.47-.69.6-13.78,2.05-28.03,4.44-41.98,4.85-1.3.04-6.21.2-7.03-.3-.21-.12-.46-.34-.53-.57-.14-.49-.22-3.24.33-3.34l.11-.37,19.51-.91c9.81-1.74,19.66-3.16,29.54-4.28l1.51.07Z"/>
            <path class="cls-30" d="M50.55,181.41c1.44.16.68.89.55,1.46-10.38,1.19-20.7,2.89-31.01,4.57l-19.66.92c-.61-.53-.22-.86-.18-1.28,2.08-.41,4.22-.25,6.32-.36,10.27-.51,18.85-1.79,28.92-3.28,5.01-.74,10.05-1.37,15.07-2.03Z"/>
            <path class="cls-23" d="M18.72,168.42c1.12.43,3.83,2.78,4.69,3.72.57.63,2.92,3.28,1.71,3.88-.89.44-2.07-1.99-2.56-2.56-1.53-1.79-3.41-2.96-5.3-4.3-.05-.91.73-1.01,1.46-.73Z"/>
            <path class="cls-8" d="M10.49,173s-.19-.03-.18-.09c0-.04.51-.62.55-.64.55-.08.92.06,1.34.39,1.14.9,3.94,5.03,4.37,6.42.36,1.18.05,1.88-1.15,1.15-.64-1.34-1.3-2.67-2.14-3.89-.8-1.16-2.12-2.31-2.78-3.34Z"/>
          </g>
          <g>
            <path class="cls-21" d="M107.44,166.04l-1.1.18.36.36-.45.34c-2.88.04-7.4.77-9.88,2.37-.36.23.22.83.63.48,3.53-1.52,7.67-2.78,11.52-1.77l.02.42c.88.55,2,2.68,2.93,3.39l-.91.27c.23.03.52-.04.73,0l-.48.47c-.49-.48-9.12,2.82-5.2,2.2l3.94-1.29c1.31.04,2.37-.18,3.19-.64,2.9,3.01,4.6,4.93,4.57,9.51l-.17.37c-14.68.18-29.36.36-44.05.54l-.23-.36c.56-5.2,1.58-10.35,2.2-15.55l1.1-.25c10.06-.43,20.11-.84,30.16-1.23l1.12.2Z"/>
            <path class="cls-25" d="M117.14,183.42c-.04.72.11,3.96-.69,4.2-.68.21-2.59.3-3.43.37-10.82.85-22.56,1-33.28.73-2.25-.06-4.49-.05-6.73-.22-1.23.13-.4-3.73-.15-4.05.14-.18.57-.09.75-.29l2.5-.25c13.66-.14,27.22-.37,40.66-.7l.38.22Z"/>
            <path class="cls-7" d="M117.32,182.33c0,.48-.17.83-.18,1.1-.3.2-.65.18-1,.19-14.09.39-28.38.51-42.54.54-1.19.17-.81-.55-.73-1.28l44.45-.55Z"/>
            <path class="cls-42" d="M106.71,166.59c1.07.09,2.76.51,1.83,1.83-1.44-.9-5.98-.16-7.68.28-1.01.26-3.56,1.48-4.16,1.52-.72.05-1.01-.75-.55-1.21.13-.13,2.88-1.24,3.29-1.38,2.11-.7,5.06-1.24,7.28-1.05Z"/>
            <path class="cls-8" d="M112.75,172.81c.03.4,0,.65-.46.73-.79.14-1.75.07-2.66.27-.96.21-4.62,1.72-5.11,1.47-1.76-.86,2.95-2.36,3.51-2.53,1.08-.31,2.16-.45,3.25-.68.85.16.89.14,1.46.73Z"/>
          </g>
        </g>
        <path class="cls-21" d="M74.7,167.33c-.33.43-.76.13-1.1,0,.37,0,.73,0,1.1,0Z"/>
        <g>
          <path class="cls-37" d="M107.44,166.04c-10.67.42-21.75,1.28-32.38,1.28h-.37c-.36.18-.73.1-1.1,0-.61-.23-.74-.24-.75-1-.02-1.92.53-4.99.75-7.05,3.3.2,6.74.08,10.31-.37,9.6-.06,19.09-.35,28.46-.84l.56.3c-.11,1.07-.59,6.86-1.01,7.32-.52.57-3.58.33-4.48.37Z"/>
          <path class="cls-36" d="M56.95,162.57l-1.01,6.4c-.34.77-2.19.43-3.01.37-10.57-.79-21.48-1.52-32.01-2.74-.64-.07-3.97-.4-4.16-.59-.08-.08-.13-.21-.16-.31-.16-.65,1.14-6.18,1.39-7.33l.16-.3c12.87,1.33,25.74,2.71,38.62,4.12l.18.39Z"/>
          <path class="cls-14" d="M57.32,161.11c-.09.47.17,1.1-.37,1.46l-38.96-4.21c.11-.5.31-.86.37-1.1l38.96,3.84Z"/>
          <g>
            <path class="cls-37" d="M108.36,83.18c.44-.39,1.51-.05,1.46.55.54-.29,1.76.44,1.65,1.1,7.49,5.72,6.23,21.67,5.67,30.09-.94,14.12-2.74,28.28-4.2,42.35l-.12.37c-12.93.36-25.86.73-38.79,1.09l-.24-.36c1.87-17.06,4.4-34.02,6.59-51.04.79-.75,1.47-3.89,1.18-4.97-.21-.77-1.37,4.44-1.17,4.59l-.38.2c-.84.05-1.45.05-2.26.07-3.88.08-7.76.22-11.64.31-2.83,17.88-5.5,35.79-8.79,53.59l-.16.35c-12.87-1.27-25.74-2.54-38.61-3.81l-.19-.39c3.29-14.77,6.49-29.92,10.48-44.49,2.76-10.1,5.71-20.86,13.48-28.31l.66.18c8.93,8.32,21.96,5.76,32.85,3.09,7.11-1.94,14.25-3.56,21.48-4.92,1.56-.29,10.56-.69,10.96.09.04.09.07.18.08.28Z"/>
            <path class="cls-3" d="M112.93,157.26c-.02.17.05.6,0,1.1-1.34.16-2.95.33-4.29.37-8.24.26-16.48.25-24.71.53-2.73.09-5.73.54-8.4.57-.57,0-1.61-.02-1.92-.56.04-.33.15-.63.18-.91l39.15-1.1Z"/>
            <path class="cls-4" d="M80,107.14c.03-.85.63-4.85,1.22-5.09.14-.06.48-.08.59,0,.47.29-.32,4.73-.79,5.12-.21.17-.4.17-.65.17-.16,0-.34-.18-.37-.18Z"/>
            <path class="cls-5" d="M67.02,103.85c.18.17-.1,2.62-.31,3.06-.15.3-.81.55-.97.41-.31-.27.02-3.32.2-3.45.07-.05,1.04-.06,1.08-.02Z"/>
          </g>
        </g>
        <g>
          <path class="cls-13" d="M90.43,30.31c16.15.92,21.96,12.81,25.06,26.89.16.55.1.91-.2,1.09-5.86.77-11.62,1.85-17.31,3.25l-.43-.13-.2-.43c.34-3.46.7-6.94,1.07-10.43.17-1.05,0-1.47-.49-1.27l-1.83,15.97-.25.43c-2.82.05-5.64.16-8.46.34-9.01,1-18.04,1.79-27.08,2.38l-.22-.46,3.03-14.55c-.55-.58-.93,0-1.14,1.73l-1.53,7.96-.4.16-.13.36c-6.77-.12-13.55-.24-20.32-.36l-.22-.37s-.53.25-.35-.81c.77-4.6,5.19-13.26,7.96-17.11,6.1-8.47,11.56-10.37,21.12-13.37.88-.38,1.25.09,1.13,1.43,2.97,6.31,16.13,5.25,16.23-2.71.18-.44.52-.48,1.02-.15,1.32-.03,2.63.02,3.94.15Z"/>
          <path class="cls-40" d="M60.06,63.24c.14.03.34.11.33.2-.06.71-.71,4.76-.99,5.11-1.26.35-2.56.59-3.9.74-.08.17-.07.4.04.55,11.45-1.23,22.88-2.32,34.28-3.28,5.72-.19,13.34-.19,17.82,3.81.62.55,2.66,3.55,1.23,3.82-1.95-.81-3.95-1.36-6.02-1.66-.64-.26-3.41.17-1.57.52,2.47.18,6.85.86,8.43,2.89.47.61,1.19,2.13.08,2.29-2.92-.9-5.65-1.74-8.74-1.23.01.31-.03.6-.11.86.02-.14.05-.35.16-.37.25-.05,2.83-.05,3.06,0l.26.37.31-.35c1.37.12,4.46.88,5.29,1.98,1.01,1.33,0,3.61-1.66,3.67-1.42-.51-8.05-.39-9.78-.17-12.6,1.61-25.23,6.92-38.24,7.68-5.97.35-13.97-1.57-18.02-6.23-2.81-3.21-4.16-8.72-4.03-12.9.04-1.31,1.3-8.29,1.1-8.68l20.67.37Z"/>
          <path class="cls-35" d="M115.49,57.2c1.83,8.31,3.55,17.97-1.83,25.34l-2.2,2.29c-.49-.38-1.29-.88-1.65-1.1l-.03-.42c1.46-1.16,1.57-2.62.81-4.25.5-1.7.44-2.61-.69-4.01.92-6.45-7.66-8.46-12.57-9.02-.13-.03-.26-.08-.36-.18-.33-.36.06-3.58.19-4.24l.39-.19c.24-.23.5-.3.81-.38,5.56-1.42,11.2-2.21,16.85-3.1.52-.08.2-.37.27-.73Z"/>
          <path class="cls-39" d="M60.06,63.24c.26-1.28,1.77-10.12,2.22-10.4.32-.2,1.26.05,1.21.58l-3.06,14.76c4.28-.54,8.6-.7,12.89-1.1,7.45-.69,14.88-1.9,22.4-1.66l1.88-16.41c.72-.4,1.24-.08,1.22.76-.07,3.67-.92,7.89-1.26,11.64-.05.55-.5,4.04-.35,4.2.11.11,2.64.36,3.11.46,3.53.78,9.59,2.88,10.03,7.16.06.59-.17,1.39-.08,1.73.12.46.82.89.98,1.77.2,1.15-.29,1.7-.28,2.3.01.44.49,1.09.51,1.68.04,1.14-.69,2.43-1.65,3.01-.07-.04-1.3-.49-1.46-.55.49-.77,1.29-.62,1.56-1.64s.1-1.76-.77-2.35c-.72-.49-3.88-1.31-4.73-1.31h-3.48c-.27,0-.39-.84-.2-1.11.25-.34,3.95-.21,4.56-.15.92.09,4.52,1.43,4.69,1.26.24-.24-.36-1.41-.58-1.71-1.15-1.58-4.98-2.38-6.85-2.66-.36-.05-3.03.09-2.1-1.04.63-.77,4-.08,5,.16.59.14,3.48,1.35,3.62,1.22.29-.27-1.18-2.68-1.53-3.04-6.42-6.63-26.06-3.06-34.6-2.26-5.79.54-11.62.74-17.37,1.66-.56.02-.64-.95-.29-1.2.41-.29,3.63-.43,3.83-.65.18-.19.79-4.4.93-5.11Z"/>
          <g>
            <path class="cls-31" d="M86.41,27.75l-.4.54c-2.15.77-3.76.71-5.92.4-1.4-.2.65.83,1.5.88,1.36.08,2.68-.23,3.98-.61l.47.24c0,.19-.04.44.02.61.27.74,3.61-.06,4.37.49-.59-.03-4.41-.16-4.57,0-.07.08-.28,1.61-.42,2.05-1.52,4.71-6.21,5.31-10.63,4.88-2.2-.21-5.34-1.87-5.93-4.13-.16-.62.31-1.62-.77-1.51.16-.05.72-.23.74-.29-.04-1.01,1.74-7.66,1.45-7.94-.1-.1-1.26.14-1.65.11-3.9-.3-5.96-4.91-3.38-7.98.66-.78,2.18-1.84,3.2-1.83.07-.14.17-.3.31-.33,1.16-.2,3.88,2.19,4.11,3.39,3.41-.4,4.98-3.31,5.69-6.42,3.67.67,6.92,1.24,10.61.2.75-.39,1.46-.56,2.14-.5,1.44,5.33,1.69,12.36-2.84,16.27-.45.39-1.6,1.24-2.1,1.47Z"/>
            <g>
              <path class="cls-34" d="M86.41,27.75c-.09.37-.35,1.15-.37,1.46-1.38.41-3.02.85-4.48.73-.52-.04-2.54-.53-2.29-1.36.2-.64,1.71.02,2.16.04,1.29.07,3.91-.39,4.97-.87Z"/>
              <path class="cls-24" d="M87.81,20.74c-.53.49-2.17.77-2.42-.11-.27-.97,1.47-.19,1.71-1.25.2-.85-1.22-1.77-1.08-2.7.28-1.81,2.54,1.44,2.35,2.87-.03.26-.38,1-.57,1.18Z"/>
              <path class="cls-9" d="M82.99,22.57c1.13,1.06,3.39-.74,3.24.69-.14,1.33-2.73,1.14-3.66.55-1.45-.93-1.51-3.26-.19-2.37.2.13.31.87.6,1.14Z"/>
              <path class="cls-41" d="M82.61,16.91c-.6-.61-.08-1.93.92-1.76,1.87.33.19,2.87-.92,1.76Z"/>
              <path class="cls-33" d="M88.92,14.97c1.11-.15,1.43,2.03.13,1.98-.88-.04-1.29-1.83-.13-1.98Z"/>
            </g>
          </g>
        </g>
      </g>
      <g>
        <path class="cls-20" d="M158.3,101.65c9.39,9.55,19.56,18.55,27.44,29.45-.74,0-1.33.47-2.01.64-5.36,1.39-11.76.24-16.69-2.16-10.02-4.87-12.88-18.16-8.74-27.93Z"/>
        <path class="cls-29" d="M191.41,173.18c-.28-.34-.02-.42.18-.64,1.41-1.63,3.05-4.62,3.67-6.68,7.01-.74,11.45-7.97,13.72-13.99,1-2.64,1.46-8.89,5.35-8.1s2.43,7.48,1.8,10.13c-2.84,11.99-12.33,19.79-24.72,19.28Z"/>
        <path class="cls-1" d="M157.75,100.92c-.34-.3-.42,0-.64.18-1.23.97-2.39,1.91-3.73,2.72-4.76,2.89-10.12,4.66-15.39,6.06l-.39.19c-1.07-.53-2.4-.51-3.45.05-.39.7-.69.81-.92.32-2.26-.1-4.58.29-6.77-.37.09-1.81.26-3.69.37-5.49.38.18.76.33,1.19.37,8.16.69,18.59-2.97,25.64-6.92l1.89-1.31c.49,1.07,1.61,3.21,2.2,4.21Z"/>
        <path class="cls-20" d="M126.1,131.29c1.34.97,2.61,3.17,3.24,4.71,2.82,6.9,1.71,22.05-5.46,26.09-1.08.61-.7-.09-.71-1.17-.04-9.38,2.13-20.18,2.93-29.63Z"/>
        <path class="cls-27" d="M150.43,164.58c-.33-.08-.41-.17-.6-.42-3.98-5.31-5.43-12.66-1.91-18.65.72-1.23,4.67-5.26,6.14-4.32.26.16-.1,3.15-.17,3.71-.62,4.61-1.58,9.25-2.36,13.83-.33,1.95-.75,3.9-1.1,5.85Z"/>
        <path class="cls-18" d="M137.99,109.89c2.24,1.57.67,7.06-3.39,5.68-2-.68-2.52-3.56-1.36-5.13.01-.02.22.03.31-.06.16-.17.19-.43.43-.57,1.09-.65,2.98-.64,4.02.08Z"/>
        <g>
          <path class="cls-28" d="M157.75,100.92c.09.15.54.38.55.73l.09.75c-3.57,9.37-1.04,21.5,8.21,26.55,5.34,2.92,12.98,4.11,18.63,1.85l.51.31c6.82,9.43,13.08,22.86,9.51,34.76l.24.45c-.94,2.47-2.19,5.02-4.08,6.87-1.03-.04-.8.25-1.64.64-7.03,3.26-21.34,3.35-29.09,2.65-.37-.55-.03-1.99.26-2.64,2.62-4.11-.96-1.44-.96.79-.01.68-.15,1.23-.4,1.67-1.57-.18-2.02-.02-3.66-.55-.69-1.06.06-2.98.59-4.12.18-.21,1.65-2.08,1.11-1.99-1.64.28-2.75,3.62-2.64,5.16l-.34.4c-.89-.5-1.33-.56-1.73-1.65-.89-2.44.53-5.02,2.38-6.57l2.09-1.56-5.85-6.68c-.1-.56-.13-1.12-.08-1.68.89-4.51,1.62-9.14,2.23-13.62.32-2.32.05-2.6-2-1.17-7.39,5.14-6.59,15.39-1.31,21.93l.06.39c-.52,2.88-.9,9.72-3.01,11.72-1.16,1.09-3.84,1.53-5.4,1.64-.44-.77-.08-2.27.15-3.19.18-.24,1.17-2.42.31-1.93-1.07.61-1.57,3.58-1.32,4.78l-.24.34c-1.22,0-2.45.05-3.66-.18-.17-.25-.13-.54.11-.87.22-1.6.53-3.17.92-4.72-1.12-.34-1.73,4.14-1.62,4.94l-.32.29c-2.68-1.06-2.55-3.18-1.44-5.56.73-1.57,1.94-2,2.15-3.89.22-2,.07-4.34.21-6.38.27-3.93.71-7.86.91-11.8-.55-.09-.3.13-.37.44-1.68,6.9-2.75,14-4.8,20.82-1.07,3.54-1.61,4.88-5.55,5.43-1.12.16-2.11.07-3.18.02-.51-.71.17-2.64.67-3.4,3.14-3.74-1.37-.66-1.37,1.36-.09.75-.28,1.36-.58,1.85-.91-.12-1.46-.18-2.38-.37l-.26-.35c.03-.88.34-2.59.8-3.32,2.5-2.59.12-2.03-.84-.05-.48.99-.76,2.13-.52,3.22l-.28.32c-2.88-1.71-1.45-5.58.57-7.39.66-.59,1.92-1.02,2.32-1.89.63-1.36.34-4.06.77-5.54.35.08.45.39.31.92,4.61-2.55,6.23-8.65,6.75-13.59.58-5.53.07-12.15-3.91-16.31l-.22-.66c.59-7.02.03-14.08.37-21.22l.52-.24c1.91.28,3.85.35,5.8.22l.45.38.18.39c-2.28,6.93,7.95,5.29,4.5-.54l.08-.4.41-.36c6.8-2.06,13.56-4.45,18.99-9.03l.35.43Z"/>
          <g>
            <path class="cls-15" d="M154.64,175.19c-.13-1.51.28-3.04,1.06-4.34.37-.61,1.37-2.02,2.2-1.49.75.48-.79,1.93-1.07,2.44-.72,1.3-.76,2.49-.91,3.94-.21-.07-.52.01-.87-.14-.24-.1-.34-.37-.41-.41Z"/>
            <path class="cls-15" d="M119.52,175.74c-.55-1.51.27-4.02,1.46-5.04.39-.34,1.23-.95,1.56-.27.45.94-.86,1.41-1.28,2.37-.48,1.09-.21,2.12-.64,3.11-.24-.05-.35.26-1.1-.18Z"/>
            <path class="cls-32" d="M122.99,176.29c-.33-1.39,1.1-4.47,2.28-5.13.76-.43,1.38-.16,1.13.74-.14.48-.94.98-1.24,1.52-.5.88-.63,2.09-.88,3.05-.75-.04-.82-.12-1.28-.18Z"/>
            <path class="cls-19" d="M137.26,177.75c-.6-.11-.57-.23-.91-.37-.25-.96.46-5,1.28-5.4,2.13-1.03.4,2.58.27,3.19-.2.93.15,1.81-.63,2.57Z"/>
            <path class="cls-12" d="M142.02,177.93c-.48.03-.68,0-1.1,0-.64-1,.33-5.43,1.55-5.48,1.6-.07.2,1.84,0,2.55-.28,1.01-.17,1.96-.45,2.93Z"/>
            <path class="cls-17" d="M160.67,176.47c-.47-.04-.75-.14-1.1-.18-.44-1.12.79-5.27,2.25-4.91,1.34.33-.48,2.21-.7,2.9s-.12,1.53-.46,2.2Z"/>
            <path class="cls-17" d="M173.08,144.87c.6-.05,1.4-.1,1.33.77-.07.75-2.53.95-3.34,1.25-4.36,1.61-6.92,6.02-7.95,10.34-.25,1.04-1.15,6.58-.71,7.18.23.32,5.29.78,5.57,1.76.19.68-.34,1-.96.96-.33-.02-5.24-1.34-5.49-1.48-.93-.55-.71-2.54-.66-3.54.39-7.05,4.05-16.57,12.22-17.24Z"/>
            <path class="cls-15" d="M137.81,142.63c.31.3.31-.05.36-.28.26-1.25.18-4.03.65-5.02.41-.87,1.18.05,1.2.81.12,3.27-1.35,7.42-1.31,10.79-.03.58-.87.86-1.29.57-.63-.44.45-3.93.16-4.91-.09-.29-.5-.5-.66-.8-.34-.62-2.44-4.09-2.42-4.35.05-.55.55-.78,1.03-.48.33.21,1.56,2.21,1.87,2.7.16.26.37.93.4.97Z"/>
          </g>
        </g>
        <g>
          <path class="cls-10" d="M124.82,82.45c.31-.01.6-.04.86-.24,3.81-2.96,4.55-8.32,7.48-11.82,2.49-2.98,3.83.22,4.65,2.45.27.73,1.14,4.41,1.32,4.62.15.18,4.41.95,4.63.8,1.32-1.69,2.76-3.76,4.28-5.24,4.54-4.42,5.38-1.63,5.68,3.3.45,7.43-1.57,12.97,1.83,20.39.22.52-1.18,1.35-1.7,1.62-7.69,4.09-17.17,7.69-25.99,6.96-.46-.04-1.04-.17-1.03-.72.14-2.37.07-4.77.28-7.13-3.35-1.68-8.04-3.25-8.68-7.61-.36-2.43-.19-3.84,1.26-5.74l.41.12c.25.91.82,1.58,1.74,2.02-.37,3.04,1.19,5.5,4.48,4.42,1.99-.66,3.29-3.26.52-1.07-2.29,1.69-5.48-.74-4.15-3.25,1.8-.49,4.79-1.34,2.25-3.44l-.12-.45Z"/>
          <g>
            <path class="cls-26" d="M124.82,82.45c.83.28,1.63,1.32,1.43,2.24-.32,1.5-3.26,1.75-3.41,1.99-.6.92.51,3,1.89,3.09,1.99.14,2.45-1.3,3.33-1.43.94-.14.86.89.25,1.52-2.04,2.1-6.19,1.9-6.73-1.33-.09-.52.06-2.01-.07-2.21-.05-.08-.5-.15-.69-.31-.7-.6-.89-1.02-1.11-1.91.28-.37.29-.69.83-1.1,1.1-.83,3.02-.98,4.3-.55Z"/>
            <path class="cls-26" d="M150.57,74.24c.33-.06.57-.04.79.23.7.86.31,6.26-.02,7.51-.29,1.13-1.86-.72-2.5-1.15-.45-.3-2.63-1.36-2.62-1.77,0-.72,3.45-4.66,4.35-4.83Z"/>
            <path class="cls-6" d="M135.39,72.61c.34.34,1.58,4.64,1.33,4.89-.08.08-1.88-.03-2.28,0-.43.04-2.73.47-2.84.36-.3-.3,1.73-4.07,2.12-4.56.37-.46,1.05-1.34,1.68-.7Z"/>
            <path class="cls-16" d="M136.48,85.14c-1.45,1.33-2.85-.97-1.31-1.95s2.28,1.06,1.31,1.95Z"/>
            <path class="cls-22" d="M129.89,80.83c1.85-.39,1.28,2.39-.21,2.35-1.36-.04-.99-2.1.21-2.35Z"/>
          </g>
        </g>
      </g>
    </g>
  </g>
</svg>