<?xml version="1.0" encoding="UTF-8"?>
<svg id="_图层_2" data-name="图层 2" xmlns="http://www.w3.org/2000/svg" viewBox="0 0 208.2 198.95">
  <defs>
    <style>
      .cls-1 {
        fill: #36241d;
      }

      .cls-2 {
        fill: #432218;
      }

      .cls-3 {
        fill: #251b12;
      }

      .cls-4 {
        fill: #0e1e2f;
      }

      .cls-5 {
        fill: #3b2713;
      }

      .cls-6 {
        fill: #0a2525;
      }

      .cls-7 {
        fill: #3a241e;
      }

      .cls-8 {
        fill: #442e16;
      }

      .cls-9 {
        fill: #392310;
      }

      .cls-10 {
        fill: #f09f90;
      }

      .cls-11 {
        fill: #ef9f90;
      }

      .cls-12 {
        fill: #2a1e11;
      }

      .cls-13 {
        fill: #f5be48;
      }

      .cls-14 {
        fill: #cba35e;
      }

      .cls-15 {
        fill: #e46345;
      }

      .cls-16 {
        fill: #52261b;
      }

      .cls-17 {
        fill: #e76544;
      }

      .cls-18 {
        fill: #351a14;
      }

      .cls-19 {
        fill: #402a15;
      }

      .cls-20 {
        fill: #181b1b;
      }

      .cls-21 {
        fill: #3f2714;
      }

      .cls-22 {
        fill: #f19f92;
      }

      .cls-23 {
        fill: #36170e;
      }

      .cls-24 {
        fill: #d9978b;
      }

      .cls-25 {
        fill: #171816;
      }

      .cls-26 {
        fill: #fdfdfc;
      }

      .cls-27 {
        fill: #36210f;
      }

      .cls-28 {
        fill: #e36345;
      }

      .cls-29 {
        fill: #efa191;
      }

      .cls-30 {
        fill: #0c2727;
      }

      .cls-31 {
        fill: #3177bb;
      }

      .cls-32 {
        fill: #37200d;
      }

      .cls-33 {
        fill: #3a231e;
      }

      .cls-34 {
        fill: #453018;
      }

      .cls-35 {
        fill: #4b5256;
      }

      .cls-36 {
        fill: #e86342;
      }

      .cls-37 {
        fill: #3f2a16;
      }

      .cls-38 {
        fill: #39231f;
      }

      .cls-39 {
        fill: #39201a;
      }

      .cls-40 {
        fill: #e15842;
      }

      .cls-41 {
        fill: #242025;
      }

      .cls-42 {
        fill: #4a2317;
      }

      .cls-43 {
        fill: #432016;
      }

      .cls-44 {
        fill: #2673ba;
      }

      .cls-45 {
        fill: #422a14;
      }

      .cls-46 {
        fill: #e49489;
      }

      .cls-47 {
        fill: #22150d;
      }

      .cls-48 {
        fill: #402711;
      }

      .cls-49 {
        fill: #3d2b17;
      }

      .cls-50 {
        fill: #39210d;
      }

      .cls-51 {
        fill: #3b2717;
      }

      .cls-52 {
        fill: #3b2119;
      }

      .cls-53 {
        fill: #352416;
      }

      .cls-54 {
        fill: #39231d;
      }

      .cls-55 {
        fill: #301f13;
      }

      .cls-56 {
        fill: #2774bb;
      }

      .cls-57 {
        fill: #331a0b;
      }

      .cls-58 {
        fill: #3a220e;
      }

      .cls-59 {
        fill: #381b14;
      }
    </style>
  </defs>
  <g id="_图层_1-2" data-name="图层 1">
    <g>
      <path class="cls-27" d="M18.64,176.81c-.17.6-.94.31-1.12-.28-.5-1.66.27-7.12,1.48-8.48.51-.57,1.24-.74,1.28.09.02.47-1.64,3.45-1.64,4.69,0,.89.18,3.35,0,3.98Z"/>
      <path class="cls-27" d="M93.2,76.78c1.67-.5,4.51,4.39,4.72,5.77.16,1.09-.47,1.79-1.1.85-.45-.67-.69-2.32-1.33-3.35-.2-.33-.64-.91-.91-1.2-.31-.34-2.65-1.7-1.38-2.08Z"/>
      <path class="cls-27" d="M89.92,78.65c1.66-.5,4.79,4.05,4.9,5.59.07.97-.68.9-1.19.23-.59-.76-.75-2.01-1.64-3.04-.5-.58-3.53-2.34-2.07-2.78Z"/>
      <path class="cls-27" d="M23.23,167.59c1.71-.53-.31,2.98-.45,3.76-.14.72.05,4.1-1.2,3.71s.66-7.15,1.66-7.47Z"/>
      <path class="cls-27" d="M68.01,64.83c-.32-.31,1.1-5.23,1.39-5.98.38-.97,1.05-1.7,1.2-.23.07.7-1.27,5.87-1.65,6.09-.2.12-.86.19-.94.11Z"/>
      <path class="cls-27" d="M78.47,66.5c1-.04.83.89.06,1.46-.71.53-3.9,2.24-4.73,2.53-.97.34-1.17-.52-.64-1.11.2-.22,5.01-2.87,5.31-2.88Z"/>
      <path class="cls-27" d="M59.01,59.44c.44-.13.55.11.79.38.22.25,2.11,4.6,2.14,4.91.06.84-.55,1.1-1.14.42-.31-.36-2.04-4.47-2.1-4.95-.03-.3,0-.67.32-.76Z"/>
      <g>
        <path class="cls-57" d="M138.91,19.42c-.91.94-3.51-1.42-3.38-2.6,2.93-3.9-2.53-7.72-3.41-2.07-.8.9-1.99.46-2.45-.56-.6-1.79-1.12-2.95-3.22-2.43-2.21.7-4.46,1.16-6.73,1.37l-.47-.49c-4.25-.36-7.81-4.57-4.8-8.43,2.36-3.02,5.06-.94,7.94-1.42,2.02-.33,3.39-2.84,6.57-2.79s3.35,2.31,4.8,2.92c1.15.48,2.16-.22,3.82.86,4.1,2.69,3.3,11.74,1.33,15.64Z"/>
        <g>
          <g>
            <path class="cls-17" d="M128.38,183.71c.01,3.53-.6,6.58-1.64,10.06l-.24.32c-9.14-1.95-18.29-3.92-27.43-5.89l-.18-.52c1.78-3.08,6.17-3.78,9.36-4.68.53.21.84.14.94-.23.72-.2,1.9-.84,2.57-.94.75.6.83.6.23,0,.87-.31,2.7-1.34,3.51-1.4.04-.2.14-.36.32-.46.57-.31,11.11,2.46,12.44,3.24l.1.5Z"/>
            <path class="cls-15" d="M98.66,188.16c8.7,1.83,17.55,3.73,26.54,5.7l1.31.62c-.98,2.76-1.12,2.52-3.98,1.99-7.73-1.42-15.58-3.84-23.29-5.49-1.4-.69-1.11-1.6-.57-2.82Z"/>
            <path class="cls-11" d="M129.08,179.97c-.02,1.34-.71,2.37-.7,3.74-.3-.27-.64-.39-1.02-.5-1.82-.54-10.54-2.87-11.85-2.77l.7-3.51c3.97,1.08,8.82,2.18,12.87,3.04Z"/>
            <path class="cls-23" d="M126.74,193.78c-.07.24-.15.46-.23.7-8.69-2.01-17.51-3.49-26.21-5.5-.43-.1-1.79-.17-1.64-.82.07-.16.15-.32.23-.47l27.84,6.08Z"/>
            <path class="cls-43" d="M112,181.84c.34.01.53-.05.82.23.17.17,1.47,2.98,1.49,3.21.04.45-.41.62-.78.55-.21-.04-1.72-3.41-1.76-3.98.07-.01.16,0,.23,0Z"/>
            <path class="cls-2" d="M109.19,182.78c.4,1.01,1.29,2.24,1.53,3.27.18.78-.57,1.03-1.02.31-.56-.91-.88-2.39-1.45-3.34.32-.09.63-.15.94-.23Z"/>
          </g>
          <g>
            <path class="cls-36" d="M199.51,170.37c2.61,2.27,5.05,4.76,7.25,7.49l.1.17c-6.49,6.65-13.2,13.1-20.15,19.35l-.31-.09c-1.74-3.76.24-6.59,1.17-10.06.47-.28.55-.51.23-.7.27-.97.4-2.02.7-3.04,2.55.56,5.29.19.54-.02l-.3-.44c.33-1.16.31-2.61.94-3.74l-.06-.66c2.81-3.05,5.78-5.91,8.93-8.58l.96.35Z"/>
            <path class="cls-28" d="M186.64,197.76l.05-.37c6.9-6.23,13.67-12.66,20.3-19.29.76.99,1.6,1.5.99,2.98-.27.66-4.24,4.4-5.08,5.21-4.46,4.33-9.16,8.56-13.92,12.52-1.22.37-1.71-.1-2.35-1.06Z"/>
            <path class="cls-11" d="M196.93,167.1c.53.78,1.26,2.27,1.87,2.86.22.21.52.25.7.41-.53-.09-.77.04-1.18.34-.73.52-8.35,8.02-8.64,8.56-.49-1.41-1.99-2.88-3.04-3.98,3.18-2.32,7.41-5.56,10.29-8.19Z"/>
            <path class="cls-59" d="M206.76,177.86c.07.08.17.15.23.23.08.75-.59,1.2-1.05,1.64-5.14,4.99-10.35,9.95-15.56,14.86-1.12,1.05-2.47,2.31-3.75,3.16-.09-.14-.16-.32-.23-.47l20.36-19.42Z"/>
            <path class="cls-16" d="M188.74,183.01c.6-.12,4.99.14,3.98,1.17-.11.11-2.69.02-3.13-.03-.35-.03-1.25-.06-1.08-.67.06-.21.21-.37.23-.47Z"/>
            <path class="cls-42" d="M187.81,186.52c.92.1,2.82-.22,3.59.22.26.15.19.91.15.94-.14.14-3.46-.32-3.98-.47.07-.28.18-.51.23-.7Z"/>
          </g>
        </g>
        <g>
          <path class="cls-35" d="M170.73,77.7c.91,3.14,1.87,6.25,2.31,9.51,1.8,13.5,1.1,27.99,3.66,41.51,6.83,12.42,13.99,24.64,21.24,36.82.43.74-.54,1.15-1,1.57l-.23.83c-2.94,2.59-6.05,4.98-9.2,7.3l-.87.06c-1.67,1.22-1.84,1.89-3.27.34-2.83-3.06-5.97-7.69-8.53-11.13-4.8-6.45-10.02-13.55-14.32-20.31-6.91-10.85-6.65-20.5-9.45-32.56.46-.32-1.85-11.91-1.77-11.33.58,3.44,1.14,6.87,1.67,10.3l-.14.8c-.41.15-.5.51-.65.87-3.2,7.64-5.61,15.92-8.64,23.65l-9.71,44.12c-.31.63-2.03.09-2.76-.07-.18.08-.36.16-.56.2s-.37.08-.53.05c-3.61-.73-7.39-1.58-10.93-2.58-.16-.05-.3-.16-.45-.28s-.28-.27-.4-.43c-.85-.23-2.41-.46-2.11-1.51,3.25-17.75,4.6-36.1,9.2-53.54,3.56-13.48,8.02-26.74,11.63-40.2.53-.41,1.33-.52,2.4-.31,10.8-.53,21.66-1.98,32.57-4.35.55-.04.93.05.83.68Z"/>
          <path class="cls-25" d="M150.84,111.4c-1.33-5.59-1.91-11.35-3.03-16.99.04-.55.43-.62.92-.56.61,5.53,2.19,11,2.78,16.53.04.38.33,1.44-.44,1.25-.02-.07-.22-.16-.23-.23Z"/>
          <path class="cls-20" d="M159.05,80.99s.59-.32.8-.02c.36.51.77,2.52,1.25,3.44,1.92,3.68,4.02,4.03,7.49,5.38,1.17.46.92,1.05-.24.96-1.86-.15-4.85-1.89-6.16-3.22-.9-.9-3.79-5.51-3.13-6.55Z"/>
        </g>
        <path class="cls-26" d="M164.88,45.87c.14-.05.38-.24.47-.23.39.04,3.01,2.11,3.74,2.34.63.19.64.5,0,.7-1.65.97-3.5,2.23-5.15,3.28-.16-1.61-.93-3.06-1.39-4.58-.15-.49-.55-1.53-.25-1.98l.39-.24c.72.48,1.45.72,2.18.71Z"/>
        <g>
          <path class="cls-13" d="M171.9,31.83l.35.47c-2.07,4.43-4.21,8.81-6.42,13.13l-.49.21c.1.61-.02.67-.47.23-1.03-.1-2.06-.49-3.1-1.17.27.16.44.39.52.7l.37.3c.48,1.91,1.03,3.81,1.67,5.72l-.4.53v.55c-2.24,1.82-8.25,6.45-10.82,6.92-1.6,0-7.69.4-8.06,2.29.23.43.44.84.63,1.24.12.2.2.43.23.7l-.1.61c-1.44.9-2.63,2.2-2.72,3.96l-.46.81c.69.16.64.43.23.94.64,0,1.49,1.3,1.17,1.87.55-.3.8-.17.7.47.59-.27,1.99.51,2.11,1.17.42-.52.69-.42.7.23l.48-.32c1.3.36,2.67-.03,4.12-1.17,4.67-3.04,9.43-5.64,14.79-7.61l1.2-.03c.29,2.14,4.01,10.76,3.48,12.25-.02.06-.84.85-.9.86-.05,0-.39-.28-.78-.22-8.3,1.33-16.96,3.29-25.31,3.96-2.37.19-7.59.64-9.71.24-1.56-.3-1.88-3.26-1.89-4.57-.11-8.29.17-12.21-1.85-20.48.69-.27-1.76-9.35-1.67-8.73l1.82,8.12-.39.37c-.79.69-2.85,3.86-3.81,3.72-.26-.04-.87-.48-1.11-.67l-.68.04c-3.31-3.64-6.73-7.12-10.26-10.5l.17-.54c-.18-.24-.72-1.39-.66-1.7.08-.4,1.89-2.57,2.31-3.09,4.26-5.4,9.07-11.21,14.73-15.1.21-.07.46-.09.58.08,1.17,1.69,2.09,2.89,4.42,2.14,2.61-.84,5.1-4.19,4.47-6.99l.37-.38c7.06-2.48,13.8-1.56,20.51,1.36,1.48.64,9.36,4.6,9.92,5.53.38.62.14.92-.02,1.54Z"/>
          <path class="cls-30" d="M130.95,56.4c-.33-1.37-2.78-11.51-2.34-11.94.04-.04.5.01.68.01.5,3.67,2.22,8.03,2.54,11.63.07.75.05.51-.65.53-.02-.07-.22-.16-.23-.23Z"/>
          <path class="cls-6" d="M162.3,45.4c-3.07-1.42-5.89-3.52-9.09-4.71-.12-.67-.12-.75.54-.66l11.13,5.84c-.22.08-.36.42-.71.36-.12-.02-1.55-.69-1.86-.83Z"/>
        </g>
        <g>
          <path class="cls-56" d="M91.64,39.08c-.18,1.61-1.86,2.88-3.15,3.81-4.78,3.43-15.25,6.85-20.96,4.74-.23-.08-.36-.36-.46-.59-.06-1.58.99-2.42,2.1-3.4,1.41-1.22,3.63-2.55,5.38-3.16.02-.79.88-.99,1.17-.23.4-.8,1.12.57.76,1.04-6.95,3.04-3.04,3.86,1.68,2.63,2.12-.55,6.35-1.85,6.91-4.14.9-.37,1.46-1.89,2.7-2.09,1.39-.23,3.04.18,3.85,1.39Z"/>
          <path class="cls-31" d="M88.6,44.7c-2.66,1.73-7.66,3.62-10.76,4.33-2.39.54-9.28,1.58-10.53-1.05,1.1-.09,2.29,0,3.56.27,7.43-.08,16.43-2.8,21.01-8.7.73,2.19-1.59,4.05-3.28,5.15Z"/>
          <path class="cls-4" d="M91.88,39.55c-.39,2.34-3.45,3.99-5.38,5.04-5.3,2.88-13.32,5.3-19.19,3.39-.16-.35-.22-.55-.23-.94,3.89,1.58,8.2.72,12.11-.41,4.48-1.29,9.79-3.58,12.46-7.55.08.12.19.33.23.47Z"/>
          <g>
            <path class="cls-41" d="M81.82,32.29c1.7.26-.15,1.15-.57,1.65-.9,1.08-1.82,2.94-1.98,4.34-.18,1.64.07,3.21,1.74,1.51.85-.87.78-2.35,1.85-3.53.42-.46,2.48-2.03,3.05-2.1.48-.06.47.33.35.58-.11.22-2.26,1.46-2.81,2.1-1.63,1.91-1.1,4.08,1.64,2.93,1.34.89-1.51,2.47-2.18,2.85-1.84,1.02-8.81,3.49-10.33,1.82-1.65-1.82,3.39-3.18,3.62-3.5.25-.37-.45-.65-.47-.7-.91-.24-.49-1.62-.26-2.35.32-1.04.79-1.89,1.66-2.56.43-.61.81-.97,1.4-1.4.55-.28.85-.28.9.39.48-.89,1.31-1.48,2.14-2.03.07,0,.16-.01.23,0Z"/>
            <path class="cls-46" d="M81.58,32.29c-1.64,1.81-2.6,3.44-3.17,5.84-.14.58.03,1.63-.25,1.91-.13.13-1.38.56-1.49.44-.63-.67.81-4.29,1.3-5.13.15-.25,1.79-1.46.57-1.42.44-.32,2.6-1.59,3.04-1.64Z"/>
            <path class="cls-24" d="M77.14,35.34c-.73,1.04-1.79,3.71-1.4,4.91-.45-.09-.78.1-1.17.23-.5-1.88.74-4.39,2.57-5.15Z"/>
            <path class="cls-44" d="M84.16,40.72c-1.04,1.63-10.11,4.54-11,3.27-.6-.86,4.51-3.03,5.21-3.12.56-.07.71.29,1.22.33,1.51.12,2.12-1.15,2.34-1.15.12,0,1.47,1.13,2.22.67Z"/>
          </g>
        </g>
        <g>
          <path class="cls-22" d="M168.15,64.59c-3.01,1.41-6.2,2.53-9.17,4.05-2.09,1.07-8.39,5.54-10.11,5.52-.56,0-.93-.35-1.31-.45.25-.52.02-.6-.7-.23-1.19-.46-1.06-.33-2.11-1.17.42-.43.19-.59-.7-.47-.48-.52-.94-1.19-1.17-1.87.21-.65.13-.96-.23-.94-.19-2.57,1.19-4.12,3.28-5.38.08-.32,0-.55-.23-.7-.02-.03-.44-.04-.71-.34-1.71-1.92,2.62-3.1,3.93-3.34,1.5-.28,3.68-.07,4.9-.48,2.1-.69,7.82-5.38,10.12-6.84l.37-.8c1.19-.97,3.34-2.42,4.77-2.48.35-.48.35-.71,0-.7-.08.17-.23.39-.37.35-.39-.11-2.91-1.82-3.33-2.17l-.04-.53c.02-.6.29-1.16.54-1.69,1.48-3.11,5.29-9.21,6.01-12.12,1.61.62,3.2,1.77,4.61,2.76,5.11,3.58,11.51,8.56,10.57,15.59s-13.45,11.85-18.93,14.41Z"/>
          <path class="cls-10" d="M115.28,48.44c1.07,1.45,3.96,3.78,5.39,5.26,1.63,1.69,3.62,4.31,5.38,5.74-4.36,4.94-9.59,11.86-17.08,8.77-4.96-2.04-13.53-13.77-16.95-18.39-1.19-1.61-2.6-3.34-3.41-5.13l-.03-.54c1.54-1.09,3.39-2.52,3.31-4.61-.45.15-.37-.08-.23-.47l-.54.05c-1.88-1.79-3.97-1.17-5.4.83l-.61-.18c-.43,1.44-3,.87-3.06-.77-.54,1.55-2.83,3.14-3.25.67-.37-2.17,1.41-5.63,3.16-6.93l-.12-.46c4.15-3.08,8.55.37,11.7,3.16,3.77,3.34,7.4,7.41,11.1,10.89.83.78,6.15,5.98,6.59,6.06.57.1,3.16-3.66,4.06-3.96Z"/>
          <path class="cls-54" d="M144.76,72.31c-.16-.13-.31-.05-.7-.47.94-.59,4.35-4.63,5.26-4.45,1.27.26-1.3,1.78-1.52,1.99-1.03.95-1.91,2.08-3.04,2.93Z"/>
          <path class="cls-7" d="M142.65,69.04c.71-.37,4.67-4.38,5.15-3.98.02.02.04.44.17.59l-5.09,4.32c-.12-.36-.2-.52-.23-.94Z"/>
          <path class="cls-38" d="M146.86,73.48c.23-.93,3.74-4.1,4.32-3.98,1.22.24-1.35,1.83-1.52,1.99-.74.68-1.48,1.43-2.1,2.23-.3-.08-.43-.13-.7-.23Z"/>
          <path class="cls-33" d="M145.69,62.95c.65-.06,2.68-2,3.04-1.05.2.52,0,.47-.29.64-.71.44-1.89.74-2.51,1.11-.91.18-.17-.6-.23-.7Z"/>
          <path class="cls-18" d="M169.09,47.97c.14-.22,3.81-2.36,4.09-2.34.2.01.16.4.13.6-.06.43-2.49,1.78-3.05,2.11-.43.25-1.03.25-1.18.34.04-.18-.06-.61,0-.7Z"/>
          <g>
            <path class="cls-29" d="M119.25,12.64c3.25.28,6.46-1.77,8.76-1.39,2.15.35,1.46,3.75,3.29,3.51.77-.11.6-1.21.81-1.78,1.02-2.8,5.45-1.56,4.64,2.3-.41,1.96-1.91,1.35.77,3.55.4.32,1.29.51,1.39.6.18.16,2.49,3.76,2.57,3.98,1.53,4.08-5.14,11.23-9.12,6.44-.34-.4-.45-.88-.7-1.29-.1-.16-.37-.3-.47-.47l2.53-4.14c-1.04.8-2.13,1.51-3.28,2.14l-.42-.34c-4.12,1.37-8.11-.9-9.36-4.91.46-.31.22-.54-.73-.69-.9-.5,1.17-6.2.31-3.27l-.52.21c.04-1.49.02-3.02-.47-4.45Z"/>
            <path class="cls-47" d="M130.02,25.74c1.05-.35,2.56-1.63,3.5-2.23.21-.13.69-.58.94-.34.22.21-2.22,5.01-3.27,4.91-.38-.66-.53-1.72-1.17-2.34Z"/>
            <path class="cls-1" d="M119.72,17.08c.22-.87.09-2.14.95-1.53s-1.17,3.77-.48,4.22c.28.19.97.05,1.17.47.28.61-.22.66-.7.58-2.47-.41-1.38-1.97-.94-3.74Z"/>
            <path class="cls-39" d="M126.16,18.96c1.28-.31.27,2.97-1.8,3.59-.41.12-.98.31-1.37.05-1.04-.68,1.13-.9,1.35-1,1.27-.59,1.57-2.57,1.82-2.63Z"/>
            <path class="cls-52" d="M122.93,15.01c1.27-.36,1.7,1.72.6,2.04-1.27.36-1.7-1.72-.6-2.04Z"/>
          </g>
        </g>
      </g>
      <g>
        <path class="cls-14" d="M96.09,97.36c-.82.4-.74.56.23.47.27.92.02,1.92-.47,2.81-1.17-.96-2.44-1.49-.17-.1l-.07.34c-2.24,2.87-7.46,1.25-10.18,3.04-.85.56-2.43,2.96-3.11,3.91-1.99,2.74-3.75,5.7-5.66,8.5-.86.46-1.56,1.18-2.11,2.16-2.37,1.81-2.68,2.09-.93.83l.69.05c.24.93.09,2.41-.03,3.36-.26,2.12-.73,4.84-2.21,6.45-1.32,1.44-.68.76-1.54,2.44-.48.94-2.13,2.76-2.89,3.67s-2.37,1.86-2.46,3.04c-3.79,2.61-7.1,6.51-9.87,10.31-.36.42-.71.3-1.1-.03,1.3,4.28,1.13,8.43-1.11,12.29l.13.37c-1.95,2.74-4.55,4.82-7.48,6.44-2.77,1.53-6.75,2.41-8.47,5.1-2.58,4.01-3.4,8.81-5.06,13.2-.4.85-1.5,1.19-2.39,1.24,0-.34-.23-.34-.7,0-.74-.15-1.43-.82-1.87-1.4.53-.85,1.47-2.07.25-.35-.12.17-.28.2-.49.12-.6-1.15-.57-2.81-.46-4.09.22-2.62,3.55-12.62,4.91-14.87l.09-.25c1.93-.63,6.03-2.93,3.65-5.13-.87-2.93-3.98-5.93-3.98-9.6-.13-.02-.23-.05-.23-.07,0-.81.1-1.6.22-2.39,0,.8-.15,1.47-.46,2l-.35-1.64c-.68.61-1.46,1.27-2.24,1.74-1.25.74-5.71,3.05-6.77,1.54,1.09-2.3,1.19-3.16.31-2.6-2.37,1.46-5.14,2.53-7.97,2.22-3.29-.36-2.67-1.8-.63-3.62-.18-.21-.13-.41-.01-.69-.05.18-.13.45-.27.47-.9.1-3.17.1-4.08,0l-.33-.47-.36.38c-.79-.3-1.57-.58-2.33-.85-1.16-1.06-3.19-2.23-1.17-3.51.31-.34.9-.35,1.77-.04-1.88-.57-3.3-1.18-4.54-2.76-1.74-2.21-1.74-3.64,1.39-2.58l-1.19-.93c-.77-1.66-1.72-3.38-1.65-5.27.03-.82.85-4.73,1.97-4.54.39.07,3.97,5.35,4.82,6.19,5.43,5.35,14.01,7.16,21.39,6.16.75-.1,4.41-.83,4.77-1.2.21-.22.38-1.16.63-1.59,3.66-6.38,9.22-10.77,12.03-17.92,1.29-3.29.88-5.59,1.54-8.76.35-1.7,2.22-5.24,2.23-6.54l.79-.36c5.91.56,12.39-.83,16.92-4.65l.53.1c.68-.08,1.27.32,1.75,1.19l2.49,3.51-.03.68.07.55c2.23-1.67,4.24-3.65,6.14-5.68l.34-.02c1.33-1.76,7.07-3.42,9.28-3.71,2.45-.32,6.52-.98,8.04,1.37Z"/>
        <path class="cls-14" d="M88.13,84.72c-.24.18-.08.41.47.7.38.7.53.65.47,1.64-.32.03-.39.26-.23.7-1.03,3.58-5.82,3.59-7.85,5.84-1.4,1.55-1.83,4.31-2.68,5.86.1.06.18.12.18.19.02.39-4.97,4.79-5.73,5.37l-.53-.17c-1.54-1.69-2.44-3.9-4.21-5.38-.52-.33-.31-.8.23-.94,2.81-2.99,5.08-7.45,8.35-10.02,2.08-1.64,9.17-5.6,11.54-3.78Z"/>
        <path class="cls-14" d="M52.34,87.29l.63.15c1.94,4.49,1.77,10.01-2.27,13.19-.83.18-1,.02-1.65.1-1.19.14-1.16,1.23-2.33,1.07-2-.72-1.2-2.17-1.4-3.74.24-1.91-.05-3.86-.87-5.87-.2-1.4.67-3.84,2.04-4.2,1.25-.08,2.1-2.09,3.24-2.22.94-.11,2.12.77,2.61,1.52Z"/>
        <path class="cls-40" d="M68.25,98.53c.06.28-.07.69-.23.94-.4.58-2.34,1.84-3.04,2.23-4.34,2.4-10.34,3.46-15.21,2.69,0-.49-.69-1.98,0-2.57,6.13-.29,12.04-1.14,17.08-4.91.23.36,1.27,1.05,1.4,1.64Z"/>
        <path class="cls-14" d="M46.25,84.02c1.24-.15.49.39.48,1.09,0,.33.23.52.22.54.21.06.34.18.37.39-2.41,3-3.96,4.96-2.13,8.8l-.35.4c-2.19,1.14-5.85,1.84-6.55-1.27,2.13-2.9,3.32-6.52,6.1-8.89.49-.49,1.35-.74,1.85-1.07Z"/>
        <path class="cls-55" d="M5.77,147.67c.83-.71,1.98.47,2.69.47h4.68c.11,0,.54.47.49.71-.15.81-2.5,1.9-1.54,2.68,1.52,1.23,5.73.19,7.41-.54.91-.4,3.59-2.67,3.31-.45-.05.4-.72,2.34-1.36,2.28-.44-.63.14-1.49,0-1.64-.17-.18-3.6,1.49-4.59,1.61-2.71.33-8.53-.1-4.54-3.72h-3.86c-.12,0-2.17-.66-2.31-.74-.44-.27-.34-.62-.39-.66Z"/>
        <path class="cls-32" d="M76.67,116.31c-.71,1.04-1.32,2.2-2.34,3.04-2.62,2.17-5.88,2.28-9.07,1.47-.48-.12-4.36-1.38-3.56-2.17.34-.34,2.19.79,2.68.94,3.36,1.07,6.83,1.31,9.59-1.19.85-.77,1.58-2.79,2.7-2.1Z"/>
        <path class="cls-50" d="M78.78,99.7c-1.48,1.95-4.1,4.58-6.21,6.08-1.08.77-1.61,1.22-3.03,1.18-.49-.02-5.87-.8-4.81-1.87.25-.26,4.61,1.44,6.26.76.34-.14.86-.71,1.23-.99.71-.54,5.89-5.03,6.08-5.38l.47.23Z"/>
        <path class="cls-53" d="M2.03,137.84c.07,0,.25-.23.63-.06.7.29,1.87,1.45.43,1.48-.96.02-2.47-1.35-1.82.39.38,1.01,1.56,2.33,2.46,2.92.7.46,3.32,1.22,3.42,1.38.8,1.23-1.87.51-2.56.21-1.72-.74-4.53-3.59-4.6-5.55-.05-1.31,1.21-.89,2.03-.77Z"/>
        <path class="cls-51" d="M31.51,166.63c.07-.11-.08-.51.23-.82.29-.29,1.2-.42,1.66-.69,1.65-.98,2.46-1.86,1.86-3.87.74-.6,1.05.3,1.12.88.32,2.53-2.71,4.15-4.87,4.5Z"/>
        <path class="cls-48" d="M30.81,151.18c-.12-1.24,0-2.78.35-3.98.09-.32.62-2.31,1.29-1.64.22.22-1.17,5.16-1.17,6.08-.63.07-.42-.02-.47-.47Z"/>
        <g>
          <path class="cls-14" d="M79.01,168.5c-.36.29-.82.17-1.38-.36.61.33.99.77,1.14,1.3-.51,1.27-.82.92-1.64,1.4-.62-.26-.78-.18-.47.23-2.07,1.01-2.75,1.41-5.15.83-2.66-.65-10.93-4.76-13.31-6.35-3.74-2.5-.48-6.22-2.83-9.46-.35-.64-.45-1.46-.31-2.45-.86-3.72,0-5.1,2.38-7.88,1.49-1.74,5.69-6.39,7.16-6.87.19-.06.4-.1.6-.12.15.67,1.56,2.15,1.98,3.05,1.47,3.12,1.28,6.87.57,10.16-.48,2.22-2.71,6.78-1.91,8.73.48,1.19,5.23,4.22,6.52,4.71,1.96.74,6.52.22,6.64,3.07Z"/>
          <path class="cls-27" d="M65.2,138.31c0,.14-.03.35,0,.47-1.7,1.54-3.45,3.02-5.03,4.68-1.22,1.28-5.04,5.33-5.04,6.89,0,2.13.68,3.12.24,5.75-.34,2-.94,3.51-2.11,5.15-.67.13-.53-.33-.42-.76.28-1.08,1.18-2.36,1.48-3.68.59-2.61.29-5.04-.38-7.6-.2-.76-1.84-4.59-1.62-4.81.89-.92,2.1,3.84,2.45,4.21.93-1.24,1.78-2.58,2.81-3.75s5.63-5.99,6.59-6.52c.38-.21.63-.32,1.01-.03Z"/>
          <path class="cls-45" d="M77.14,170.84c-.16.1-.3.15-.47.23-.7-.11-.99-.74-1.62-1.07-.58-.3-1.48-.35-1.89-.69-.27-.23-.02-.79.02-.81.58-.36,3.99,1.27,3.97,2.33Z"/>
          <path class="cls-21" d="M79.01,168.5c.02.57-.07.54-.23.94-.75-.17-1.06-.8-1.78-1.14-.5-.24-2.29-.3-1.96-1.08.48-1.13,3.35.8,3.98,1.28Z"/>
        </g>
        <path class="cls-34" d="M29.87,187.22c-.21.01-.52.04-.7,0l1.76-4.21c1.15-.28.01,2.56-.15,2.9-.24.51-.6.87-.91,1.32Z"/>
        <path class="cls-5" d="M88.13,84.72c.27.21.32.43.47.7-.49,0-.98-.04-1.46.06-.59.12-2.81,1.34-2.98.52-.19-.89,3.29-1.56,3.98-1.28Z"/>
        <path class="cls-8" d="M95.86,100.63c-.04.08-.17.15-.23.23-.72-1.12-3.2-.38-3.63-.93-.86-1.1,4.25-1.04,3.86.7Z"/>
        <path class="cls-49" d="M96.09,97.36c.08.12.2.34.23.47.15.99-1.33.07-1.77.02-.54-.06-2.59.31-2.67-.14-.19-1.06,3.66-.67,4.21-.35Z"/>
        <path class="cls-19" d="M89.07,87.06c-.03.44-.17.5-.23.7-.99-.9-3.15.48-3.39.46s-.48-.69-.34-.92c.27-.43,3.38-1.04,3.97-.25Z"/>
        <path class="cls-37" d="M27.07,185.59c.6-.65,1.18-2.84,1.53-3.27,1.55-1.89.29,3.57-1.29,3.5-.06-.08-.19-.15-.23-.23Z"/>
        <g>
          <path class="cls-14" d="M61.23,72.31l.52-.03c.82.86,1.92.68,3.3-.57,1.71.41,2.38,2.72,2.17,4.41-.41,3.34-2.59,4.87-5.42,6.2-1.24,1.81,2.59,1.08,3.38.53,1.64-.83,3.13-1.85,4.47-3.05.37.4.29,1.24.23,1.76-.39,3.36-4.69,5.53-5.12,8.91-.28,2.22.91,4.59,2.08,6.42-.04.17-.08.35-.16.5-1.28,2.71-13.01,5.07-16.08,4.84-.32-.02-.6-.23-.84-.43-.03,0-.16-.21-.51-.2-.97.05-1,.75-2.53.2.91-1.12,2.68-2.22,3.98-1.17,2.85-2.37,3.79-5.34,3.37-8.94-.07-.61-.75-5.86-1.73-4.4l-.6-.02c-1.54-1.7-2.51-1.02-3.8.49-.5.44-.97.84-1.45.23l-.24-.44c1.15-1.16,1.38-1.8.71-1.9-.85.37-.77-.72-.5-1.35l-.2-.29c1.36-.9.89-1.2,1.69-2.41,1.3-1.96,2.89-3.67,5.23-4.36,1.33-.39,3.5-.28,4.53-.85.65-.36,3.05-3.34,3.53-4.08Z"/>
          <path class="cls-3" d="M69.65,79.8c-.72,2.09-6.71,5.29-8.37,3.69-1.37-1.32,2.65-2.63,3.44-3.35,1.52-1.38,2.57-4.12,1.94-6.13-.09-.29-1.15-1.93-1.34-1.93-.24,0-2.84,2.66-4.09.23.49-.75.26-2.36,2.04-2.52,1.38-.13,3.62,2.57,4.09,3.77,1.03,2.65-.42,6.11-2.68,7.71-.81.57-1.64.74-2.35,1.16-.23.14-.61.29-.17.54.95.54,3.76-.85,4.66-1.43.69-.45,2.25-2.35,2.83-1.73Z"/>
          <path class="cls-58" d="M52.34,87.29c-.33-.84.69-.95.96-.56.59.87,1.42,5.81,1.38,6.99-.09,2.3-1.49,6.36-3.98,6.91.44-1.43,1.67-2.14,2.31-3.66,1.11-2.64.9-7.25-.67-9.68Z"/>
          <path class="cls-12" d="M55.29,78.9c2.11-.71,2.68,1.82.91,1.85-1.4.03-1.74-1.57-.91-1.85Z"/>
        </g>
        <path class="cls-9" d="M46.49,87.99c-2.86,4.31-1.18,3.61-.7,7.84.04.34.31,2.42-.46,2.22-.12-.91-.28-1.9-.47-2.81-.36-1.75-1.24-2.62-.88-4.74.32-1.89,2.88-3.92,2.98-4.85.41-.38.96-.21.94.35,0,.14-1.15,1.6-1.41,1.99Z"/>
      </g>
    </g>
  </g>
</svg>