<?xml version="1.0" encoding="UTF-8"?>
<svg id="_图层_2" data-name="图层 2" xmlns="http://www.w3.org/2000/svg" viewBox="0 0 162.44 205.31">
  <defs>
    <style>
      .cls-1 {
        fill: #262020;
      }

      .cls-2 {
        fill: #455a9f;
      }

      .cls-3 {
        fill: #272220;
      }

      .cls-4 {
        fill: #231e1c;
      }

      .cls-5 {
        fill: #1d1b1b;
      }

      .cls-6 {
        fill: #1f1e1d;
      }

      .cls-7 {
        fill: #d75951;
      }

      .cls-8 {
        fill: #1f1d1d;
      }

      .cls-9 {
        fill: #1d1a1a;
      }

      .cls-10 {
        fill: #1c1a1b;
      }

      .cls-11 {
        fill: #211d1c;
      }

      .cls-12 {
        fill: #231c1b;
      }

      .cls-13 {
        fill: #de7465;
      }

      .cls-14 {
        fill: #f1dec0;
      }

      .cls-15 {
        fill: #231f1e;
      }

      .cls-16 {
        fill: #e9c363;
      }

      .cls-17 {
        fill: #272120;
      }

      .cls-18 {
        fill: #252320;
      }

      .cls-19 {
        fill: #201d1c;
      }

      .cls-20 {
        fill: #df7666;
      }

      .cls-21 {
        fill: #44599c;
      }

      .cls-22 {
        fill: #1c1a1a;
      }

      .cls-23 {
        fill: #f6f5f4;
      }

      .cls-24 {
        fill: #f2dec2;
      }

      .cls-25 {
        fill: #df7566;
      }

      .cls-26 {
        fill: #3f9fb8;
      }

      .cls-27 {
        fill: #f2dec1;
      }

      .cls-28 {
        fill: #251d1d;
      }

      .cls-29 {
        fill: #1e1b1c;
      }

      .cls-30 {
        fill: #1b1a1a;
      }

      .cls-31 {
        fill: #a26d40;
      }

      .cls-32 {
        fill: #44589b;
      }

      .cls-33 {
        fill: #a36e40;
      }

      .cls-34 {
        fill: #a46d41;
      }

      .cls-35 {
        fill: #221e1e;
      }

      .cls-36 {
        fill: #1e1d1c;
      }

      .cls-37 {
        fill: #efdbbe;
      }

      .cls-38 {
        fill: #45589a;
      }

      .cls-39 {
        fill: #44589c;
      }

      .cls-40 {
        fill: #2c2829;
      }
    </style>
  </defs>
  <g id="_图层_1-2" data-name="图层 1">
    <g>
      <path class="cls-40" d="M60.75,76.65c.68-.87,1.83-.09,2.62.27.31.14.7.03.58.58-.45.16-.89.72-1.34.62-.12-.03-1.44-1.2-1.86-1.47Z"/>
      <g>
        <g>
          <path class="cls-39" d="M70.99,205.31H12.1v-37.98l.12-.46c19.47-3.71,38.95-7.35,58.44-10.93l.32.29c.42,16.36.42,32.72,0,49.07Z"/>
          <path class="cls-32" d="M5.91,146.21c22.64-.5,46.26-.39,68.92,0,2.14.04,5.82-.7,6.19,2.24.11.88.12,4.95-.1,5.67-.18.6-1.1,1.36-1.73,1.47-2.08.35-5.9,0-8.2.01-19.61.82-39.28.79-58.89,0-2.17-.01-9.02.38-10.54-.23-1.87-.75-1.63-5.18-1.41-6.92.37-2.9,3.62-2.19,5.77-2.24Z"/>
          <path class="cls-10" d="M70.99,155.6v.64l-58.89,11.1v-11.74c19.62.11,39.27.14,58.89,0Z"/>
        </g>
        <g>
          <path class="cls-24" d="M22.13,76.01c4.67.43,9.42.71,14.1.08l.63.35.25.53c-.91,2.71.22,4.79,1.95,6.73l-.29.42.17.59c2.5-2.26,5.19-4.28,8.08-6.04,4.44-2.62,10.86-1.38,12.23,3.96.65.66-.44,2.86-1.28,2.99-.32-.56-.59-1.22-.82-1.95.35.72.34,1.3-.03,1.74.49,1.28-.02,1.6-1.15.93-3.25-2.63-4.9-2.52-4.94.33l-.52.23.24.41c-1.88,2.68-3.76,5.37-5.64,8.05l-.57.07-.65.3c-3.15-.95-6.18-2.23-9.09-3.84-3.12-1.29-4.25.25-2.62,3.08l-.24.45c.27.37.29.46-.21.43l.13.51c-.91,1.25-.66,2.59.77,4.01.47.53.52,1.02.16,1.45.19.05.19.12,0,.21l.54.81c.42,2.63,1.87,4.59,4.34,5.65l.24.59c.42.26.46.42,0,.64,1.39,2.08,3.24,3.63,5.65,4.43l.11.48c4.33,2.46,9.37,4.57,14.37,3.95l.35.31c.16.72.27,1.42.43,2.13l-.56.32c-5.76-1.07-10.93,3.34-10.76,9.2l-.41.51-.63.23c2.36.76,3.95,2.32,4.97,4.54,1.32,2.86.88,4.16-2.35,3.03-.06-.43-.29-.47-.71-.12,0,.22-.04.45-.26.43h-29.77l-.26-.43c.57.39,1.16.42,2.09.42,10.58.06,21.29.1,31.75-.04.23-.24.45-.23.73.05l.52-.47c3.82.01,7.64.1,11.47.27l.61.41c.2-.58.44-.58.64,0l.27-.44,2.04-.13c-.06-.79.09-1.31.46-1.57.48.3.07,1.78.21,1.92.1.09,1.93,0,2.68.2,2.89.82,3.47,4.23,3.3,6.84l-2.35.24c-21.4-.11-42.82-.19-64.21,0l-2.35-.24c.8-.86.3-2.38.65-3.72.73-2.8,3.38-3.62,5.96-3.85C4.47,134.15.54,126.48.15,117.41h.58c1.28,1.5,2.8,2.91,4.84,3.08.26.29-.78.45.14-.09.78,3.72,2.76,8.15,6.4,9.81-1.27-7.73-.49-14.87,2.13-22.19l.51-.29c15.36,1.56,15.69-18.63,3.86-23.9l-.32-.56c.68-2.65,1.89-4.99,2.99-7.47.29-.53.84-.38.85.21Z"/>
          <path class="cls-33" d="M27.68,73.24c.48.67-.62,1.52-1.18,1.95-1.42,1.09-2.65,1.22-4.37.83-.27-.08-.5-.07-.85-.21-2.81-1.18-6.83-4.75-7.37-7.88-1.16-6.7,6.32-11.77,11.21-14.73,1.92-.14,3.18,1.61,3.69,3.24,1.1,3.56.75,13.53-1.13,16.81Z"/>
          <path class="cls-33" d="M14.24,108.02c.68-1.9,1.69-3.36,2.08-5.5,1.14-6.28.3-12.67,1.98-19.25,7.37,2.29,11.67,13.69,7.47,20.17-2.21,3.42-7.61,5.87-11.53,4.58Z"/>
          <path class="cls-14" d="M65.44,74.31c-.32.53-2.06-.27-2.44-.56-.59-.45-1.04-.83-1.15-1.63-.15-.17-4.28.35-4.45.49-.29.25,2.49,3.62,3.15,3.54l-.02.5.28.42c-.69.81-1.33,1.63-1.94,2.48l-.47.1-.63-.07c-2.92-2.96-7.48-2.72-10.94-.84l-.59-.16c-.57-.07-.94-1.17-.43-1.49,4.64-3.93,7.59-11.14,14.94-9.28,2.83.72,5.33,3.46,4.69,6.51Z"/>
          <path class="cls-31" d="M5.7,120.39c-.02.72.33.57-.38.49-2.24-.26-3.77-1.87-5.17-3.48-.07-1.54-.15-2.96.03-4.56.24-2.18,1.72-11.19,5.46-8.72,1.88,1.24-.11,6.63-.34,8.72-.27,2.48-.12,5.1.4,7.55Z"/>
          <path class="cls-7" d="M44.53,71.11c-.03,1.32.14,2.16.43,3.41-.12.15-.24.29-.39.41-.71.6-6.31,1.96-7.19,1.72-.18-.05-.36-.13-.53-.21-4.21.56-10.68.81-14.72-.43,2.12.32,4.5-.94,5.55-2.77,5.7.21,11.4-.53,16.86-2.13Z"/>
          <path class="cls-26" d="M45.81,77.08c.18.48.4.97.43,1.49l-.04.52c-2.42,1.53-4.76,3.26-6.92,5.14l-.51-.11c-.33-.92-1.19-1.38-1.67-2.28-.86-1.63-.96-3.72-.25-5.4,2.74-.37,5.47-1.13,8.11-1.92.23,1,.51,1.63.85,2.56Z"/>
          <path class="cls-34" d="M58.83,121.03c.4,1.84.85,3.66,1.21,5.51.15.75.55,4.75.72,4.93.11.12,2.64.42,3.3.65,2.18.74,4.28,2.76,4.58,5.13.04.29.07,1.85,0,1.92-.1.1-2.39.19-2.78.21-.14-.35-.36-.24-.64,0-3.83.13-9.14-.55-12.59-.21l-.46-.41c-.29-3.03-1.98-5.89-4.83-7.14l-.26-.56c-.41-6.62,5.24-11.47,11.74-10.03Z"/>
          <path class="cls-5" d="M57.55,115.06c.25,1.29.56,2.56.85,3.84-.7.36-1.89.27-2.66.21-4.09-.29-9.04-1.68-12.06-4.48,4.02,1.17,9.66.59,13.87.43Z"/>
          <path class="cls-36" d="M52.64,139.17c-.17.02-.48.43-1.16.44-11.09.12-22.19-.13-33.28-.01l-.12-.86h30.3c.62-1.43-1.96-3.21-2.1-3.77-.39-1.62,1.68.36,2.06.93.43.63,1,2.73,1.13,2.82.1.06,2.23.1,2.32.03.11-.1-.65-2.53-.82-2.92-1.13-2.61-3.74-4.27-6.55-4.55-1.13-.11-2.28.19-3.25.17-.2,0-.45-.12-.48-.28-.05-.25.99-3.93,1.06-4.91.8-10.56-3.71-17.43-14.72-17.05-.99.03-1.01-.82.32-.98,12.6-1.51,17.73,11.88,14.4,22.19,1.79-.06,3.64.04,5.33.64,3.35,1.18,5.39,4.64,5.55,8.11Z"/>
          <path class="cls-29" d="M54.56,91.59c1.02.8,1.59,2.96.64,3.84-1.64.65-1.38.34-2.77.43l-.45-.1c-.63-1.47-1.28-2.93-1.95-4.39-.74,1.41-1.45,2.85-2.11,4.34l-.6.15c-1.31-.1-1.74-.23-2.77-.43l5.97-8.53c.48-.03.55.33.78.61.84,1.05,2.75,3.07,3.28,4.09Z"/>
          <path class="cls-6" d="M58.4,79.64c.82.98,1.09,1.76.85,2.99-.67.45-.3.07-.45-.29-.63-1.59-1.41-2.63-2.9-3.5-6.41-3.77-12.16,2.84-16.91,6.27-.87-.32-.76-.48-.22-.98,1.61-1.52,5.55-4.44,7.47-5.55,3.73-2.15,9.15-2.55,12.16,1.07Z"/>
          <path class="cls-18" d="M57.98,85.62c-.11.24-.19.48-.43.64-.11-.28-.33-.57-.43-.85-.23-.68-.11-1.25-.6-2.07-.32-.54-2.22-1.97-1.54-2.41.9-.58,3.6,3.54,2.99,4.69Z"/>
          <path class="cls-3" d="M65.87,139.38c-.21.01-.43,0-.64,0,.03-1.13-.37-2.25-.97-3.19-.18-.27-2.01-1.73-.63-1.73,1.1,0,3.06,3.82,2.24,4.91Z"/>
          <g>
            <path class="cls-27" d="M47.31,53.18l.19.42c-.82,1.5.65,2.93,2.17,2.99.91.8-.4,3.63-1.11,4.52-2.28,2.86-5.24,3.18-8.52,2.14,4.67,3.07,10.21-1.26,10.36-6.56.95-.55,1.42-1.26,1.42-2.14l.4-.3c.66,3.32.08,7.12-2.05,9.8-2.31,2.92-5.53,2.51-5.64,7.06-.32.32-.68.59-1.11.75-3.59,1.41-10.55,1.93-14.49,1.84-.21,0-.42-.08-.63-.15s-.42-.19-.63-.3l-.23-.49c1.35-3.38,1.58-7.29,1.55-10.93-.03-2.79-.12-7.71-3.6-8.23l-.29-.42c4.07-2.47,7.4-4.61,12.54-3.05,2.06.63,3.66,2.93,4.89,3.21,1.39.32,3.27-.45,4.76-.17Z"/>
            <path class="cls-8" d="M52.21,54.25c.27,2.1-1.38,2.28-1.49,2.71-.31,1.13-.12,1.9-.74,3.27-1.49,3.26-5.18,5.14-8.69,4.2-.54-.14-2.44-.86-1.46-1.55.44-.31,2.3.53,3.1.56,2.4.08,4.94-1.51,5.95-3.66.18-.38.87-2.65.77-2.75-.05-.05-.92-.1-1.43-.38-1.18-.65-1.97-2.41-.92-3.46s4.64-1.09,4.91,1.07Z"/>
            <path class="cls-19" d="M35.73,54.71c1.35-.24,2.25,1.37,1.44,2.52-1.63,2.3-3.98-2.07-1.44-2.52Z"/>
          </g>
          <path class="cls-37" d="M52.43,95.86c-2,.12-3.08.15-5.12,0,.51-.57,2.37-5.34,2.67-5.34s2.21,4.7,2.45,5.34Z"/>
        </g>
      </g>
      <g>
        <g>
          <g>
            <path class="cls-16" d="M153.78,146.42c-.7.09-1.6-.03-2.35,0l-6.14.59c-15.71.27-31.44.37-47.15.41-1.38,0-2.74-.17-4.1-.35-.47-.58-1.32-.75-1.9-1.19-3.92-2.98-.88-9.42-.23-13.32h.94c3.57,1.85,7.17,3.7,11.01,4.87,11.1,3.39,17.21-2.3,23.28-11.21l6.03-9.5c.28-.34.61-.6,1-.8l-.22-.45,2.43-4.11c-5.28-2.55-10.36-5.44-15.22-8.67-.52-.02-1.03-.13-1.52-.33l-5.56-3-8.22,12.44c-.18.38-.88.52-1.23.39-2.5-.92-5.3-1.95-7.37-3.52l-.1-.75c.51-2.25,1.04-4.47,1.58-6.65l.45-.27c.98-5.98,2.64-11.88,4.91-17.5,2.43-8.58,5.27-17.07,7.45-25.73.25-.69,1.07-.76,1.66-1.02.11-.05.05-.34.07-.35.03-.17.1-.37.25-.38,4.14-.26,8.73-4.66,11.25-7.84,1.16-1.47,3.31-4.34,1.57-5.99l.15-.51c8.92-2.63,18.58,5.4,23.89,11.85,14.94,18.13,12.86,43.15,10.22,65.04-.5,4.17-1.62,8.72-1.89,12.84-.31,4.69,1.81,14.14-4.91,15.04Z"/>
            <path class="cls-19" d="M113.88,92.65l31.14,16.3-.57.53c-10.42-4.87-20.68-10.38-30.9-15.76-.46-.08-.25.09-.33.29-.46,1.06-1.29,4.45-2.65,2.91l10.87-25.41c.55-1.22,1.81-.64,1.3.66l-8.86,20.47Z"/>
          </g>
          <path class="cls-9" d="M134.15,115.91l-13.02-13.23c5.25,2.8,10.44,5.73,15.7,8.53.14.24-2.33,4.13-2.68,4.7Z"/>
        </g>
        <g>
          <path class="cls-30" d="M113.02,25.66c-.35.13-.06.78-.33.87-.52.16-4.95-.11-5.21-.44-.08-.11.95-1.79,1.05-2.47.96-6.76-6.9-8.38-8.46-3.12-.34,1.15.07,3.23-1.56,2.73-1.85-.57-1.42-6.14-5.64-6.53-4.62-.43-10.25,5.43-14.84,5.98-7.96.96-14.56-10.38-6.18-13.97C78.9,5.68,95.02-.67,102.25.06c9.94,1.01,10.11,18.54,10.78,25.6Z"/>
          <path class="cls-25" d="M104.06,83.48c-1.64,5.82-3.29,11.69-4.91,17.5l-.65-.09c-3.56-2.36-6.85-5.02-9.87-7.98-2.2.51-4.28.43-6.24-.24-3.13,1.53-9.74,1.72-9.89-2.95-1.9-.7-4.25-1.64-3.92-4.09l.48-.23.35-.18c3.1,1.1,6.21,1.51,9.35,1.24,1.59-1.17,2.82-1.18,3.71-.02l.24-.39c2.79.62,5.49,1.62,8.11,3.01.83-.38,1.35-1.65.9-2.46-2.36-1.03-4.71-2.11-7.04-3.22-.21-.1-.4-.26-.59-.42s-.36-.35-.53-.54l.29-.32c2.9.22,3.12-.24-.12-.14-2.02-.41-3.38-1.47-4.76-2.93-1.65.43-3.29.97-4.89,1.61-3.98,1.73-8.57-1.33-3.69-4.51-.31.26-.51.33-.9.11-.96.14-2.79-.6-3.2-1.49,2.43-2.94,6.69-5.67,10.57-5.97,6.93-.53,15.24,7.22,20.9,10.88,2.07,1.34,4.27,2.44,6.3,3.84Z"/>
          <path class="cls-11" d="M83.58,82.41c-1.76-.76-3.6-1.31-5.26-2.3l-3.91,1.66c-.25.29-.64.34-1.16.16-1.66.15-3.65.14-4.95-1.07-.54-.49-1.43-1.72-.5-2.09.05-.69,1.17-2.12,1.71-2.56,1-.82,4.07-2.37,5.34-2.88.95-.38,5.33-1.77,6.06-1.59.3.07.5.51.13.74-.2.13-3.81.82-4.65,1.11-1.67.57-7.13,3.08-7.64,4.75s1.73,2.38,3,2.37c1.83-.02,6.52-2.36,7.42-2.12.42.11,1.36,1.41,1.88,1.77.65.45,2.11,1.06,2.89,1.17.63.09,2.05-.14,2.44.12,1.55,1.06-2.46,1.1-2.78.75Z"/>
          <g>
            <g>
              <path class="cls-2" d="M60.54,76.65c-1.25-.84-1.71-.98-2.65-2.37-.25-.37-1.3-1.7-.77-2.01.73-.43,4.06-.28,5.12-.74-.03,1.99,1.7,2.06,3.21,2.77.29.13.56.3.85.43,1.07.48,2.21.87,3.2,1.49.09.43-.18.92-.81,1.48-.21.61-.51.97-.89,1.08-.11.16-.24.28-.43.33-.17.05-2.99-1.14-2.99-1.61-.15.34-.28.36-.43,0-1.07-.47-2.14-.76-3.2-.85-.07.18-.14.18-.21,0Z"/>
              <g>
                <path class="cls-20" d="M78.03,22.67l.34-.48c2.92-.97,5.71-2.33,8.36-4.09,3.3-1.94,7.95-3.27,9.94.95.11.49,2.14,5.49,2.68,3.41.8-10.01,13.26-4.88,8.73,3.29.06.28,3.68.42,4.24.38.14-.53.38-.69.73-.48.02.23-.03.47.04.69,3.92,5.34,9.43,10.06,13.4,15.31,1.39,1.84,1.26,2.09.25,4.2-1.85,3.84-8.07,9.6-12.24,10.6-.67.16-1.18-.09-1.24-.07-1.25-3.47-3.42-6.67-5.33-9.81l-.09-.64c.51-.85,1.66-6.23,1.32-6.73-.18-.27-3.24,2.76-3.52,3.03l-.48-.15c-6.51,5.08-12.1,3.77-17.39-1.92-.32-.35-1.27-1.81-1.53-1.9-.81-.27-2.54,1.54-4.03.63-1.28-.78-.51-6.53-.87-8.31-.49-2.46-2.74-5.33-3.28-7.93Z"/>
                <path class="cls-35" d="M105.13,42.09c.52-.4,3.7-3.82,4.26-3.41.64.46-.58,7.01-1.49,7.89-.91-1.5-1.88-2.97-2.77-4.48Z"/>
                <path class="cls-15" d="M85.87,27.19c1.92-.34,2.78,3.3.97,3.56-1.6.23-2.88-3.22-.97-3.56Z"/>
                <path class="cls-17" d="M95.1,33.98c.6.57-.79,3.81-1.4,4.47-.48.52-3.1,2.24-3.09.97,0-.36,2.01-1.38,2.57-2.13.76-1.02.95-3.17,1.08-3.29.04-.04.81-.05.84-.02Z"/>
              </g>
              <path class="cls-38" d="M83.58,82.41c2.81,1.21,5.56,2.63,8.38,3.83.95.76-.07,3.28-1.21,3.22-2.65-1.2-5.34-2.29-8.02-3.42-.21.3-.57.19-1.07-.33-.71-.05-1.13-.3-1.28-.74-1.6-1.16-3.45-1.96-5.56-2.41-.38-.18-.53-.36-.41-.79-.02-.17-.06-.42.06-.49.43-.24,3.7-1.61,3.9-1.56.76.18,4.02,1.64,4.81,2.07l.4.62Z"/>
              <path class="cls-1" d="M80.38,84.98c.48-.12,1.89.87,2.35,1.07.34.6.08,1.47.21,1.98.05.21.62.31.84.7.77,1.4-.52,3.54-1.05,3.07-.11-.1,1.53-1.63.44-2.68-.85-.81-1.8.36-2.73.71-1.51.56-3.68.62-5.28.47-.44-.04-3.07-.67-1.71-.85s3.06.35,4.67.19c1.24-.13,4.82-1.17,4.08-2.95-.8-1.92-2.46.02-3.65.19-3.1.44-6.56-.53-9.48-1.47.04-.18-.03-.44,0-.64l.41-.32c3.35,1.24,6.64,1.57,9.87.99.33-.45.67-.61,1.02-.46Z"/>
              <path class="cls-13" d="M67.79,78.79c-.13,1.74,1.86,2.63,3.31,2.77,1.37.13,1.98-.31,3.3.22.19.08.47.39.85.53,1.58.58,4.83.95,5.12,2.67-.07.02-.47.73-1.06.96-2.29.9-7.85-.4-10.24-1.18-3.58-1.17-6.19-3.07-4.69-7.25,1.23.17,2.21,1.03,3.41,1.28Z"/>
            </g>
            <g>
              <path class="cls-20" d="M50.51,86.9c.63-1.65-.25-3.44,2.78-2.67,1.16.29,2.55,1.76,3.52,2.03.54.15.25-.59.31-.85.64-.01.68.32.43.85l2,1.28c5.62,2.58,10.34,6.33,14.28,11.42,7.93,2.95,15.73,6.18,23.4,9.7,2.49.98,4.96,2.14,7.47,3.11h.64s8.54-12.93,8.54-12.93c2.45,1.21,4.84,2.55,7.25,3.84l2.24,1.67,10.9,11.07-.12.48c-2.53,4.07-5.28,8.67-8.06,12.53-10.66,14.79-19.9,11.65-34.19,4.11-9.47-5-18.09-11.59-26.95-17.54-1.81-.74-5.32-.04-7.4.04l-.61.45c-3.83.36-7.66.34-11.47-.05l-1.79-.83c-2.01-.59-5.53-2.66-5.76-4.91.22-.07.22-.28,0-.64-3.55-1.62-4.58-3.35-5.12-7.04.89.14,1.76.6,2.62,1.39.15.05-2.27-1.85-2.62-1.6-.3-2-3.44-3.18-1.07-5.97.3.25.37.1.21-.43-.06-.07-.77-1.5-.8-1.65-.67-3.14,1.7-3.18,3.94-2.23,3.61,1.53,5.27,3.09,9.45,3.88.58-.46,2.45-.26,2.77.43l.46-.4c1.4.1,2.8.08,4.2,0l.45.4c.02-.11.04-.21.09-.29.08-.12,2.57-.48,2.68-.14,1.35-1.03,1.39-1.98.12-2.83l-.76-1.01-.47.04c-1.31-1.54-2.51-3.12-3.59-4.73Z"/>
              <path class="cls-4" d="M31.94,95.43c2.04,2.16,7.99,4.79,10.88,5.65.93.28,3.11.49,3.69.8,1.27.67-.09.86-.96.75-4.67-.59-10.56-3.37-13.82-6.77.09-.1.13-.3.21-.43Z"/>
              <path class="cls-12" d="M32.8,102.04c-.01-.07.01-.14,0-.21.26-.33.11-.55.63-.32.81.36,2.19,1.65,3.14,2.2,3.5,2.01,5.66,2.09,9.33,3.04,1.62.42.27.92-1.03.81-4.03-.32-9-2.97-12.08-5.52Z"/>
              <path class="cls-28" d="M37.92,109.09c1.98.91,5.04,1.65,7.21,2.08.67.13,1.9-.24,1.76.8-.11.81-8.27-1.37-8.96-2.24-.02-.21.01-.43,0-.64Z"/>
              <path class="cls-23" d="M55.2,95.43c.09-1.32-.03-2.66-.64-3.84,1.55.88,3.31,2.43,1.12,3.83-.34.22-.46,0-.48.01Z"/>
            </g>
          </g>
        </g>
      </g>
      <g>
        <path class="cls-21" d="M153.78,146.42c2.09,7.32,3.24,14.88,3.21,22.52-.04,9.76.22,19.2.96,28.93.19,2.46.71,4.95.73,7.43h-48.22l-.44-.09-4.17-29.74.76,29.56-.42.27h-19.42l-.4-.2c2.19-16.36,4.37-32.73,6.56-49.09l.46-.2.13-.45c15.14-2.59,30.74-5.08,46.08-7.45,3.96-.61,7.91-1.22,11.82-1.48.25-.66,2.04-.58,2.35,0Z"/>
        <polygon class="cls-22" points="106.2 205.31 105.23 167.97 110.46 205.31 106.2 205.31"/>
        <path class="cls-10" d="M151.43,146.42l-58.04,9.39.64-8.75c19.12-.4,38.27.03,57.4-.64Z"/>
      </g>
    </g>
  </g>
</svg>